<svg version="1.1" xmlns="http://www.w3.org/2000/svg" viewBox="0 0 4413.461397104973 3205.5072027895812" width="8826.922794209946" height="6411.0144055791625">
  <!-- svg-source:excalidraw -->
  
  <defs>
    <style class="style-fonts">
      @font-face {
        font-family: "Virgil";
        src: url("https://excalidraw.com/Virgil.woff2");
      }
      @font-face {
        font-family: "Cascadia";
        src: url("https://excalidraw.com/Cascadia.woff2");
      }
    </style>
  </defs>
  <rect x="0" y="0" width="4413.461397104973" height="3205.5072027895812" fill="#ffffff"></rect><g stroke-linecap="round" transform="translate(225.56452795223868 858.8116485199353) rotate(0 88.5 45.5)"><path d="M22.75 0 M22.75 0 C49.37 0, 76 0, 154.25 0 M22.75 0 C74.38 0, 126.01 0, 154.25 0 M154.25 0 C169.42 0, 177 7.58, 177 22.75 M154.25 0 C169.42 0, 177 7.58, 177 22.75 M177 22.75 C177 38.47, 177 54.19, 177 68.25 M177 22.75 C177 39.59, 177 56.43, 177 68.25 M177 68.25 C177 83.42, 169.42 91, 154.25 91 M177 68.25 C177 83.42, 169.42 91, 154.25 91 M154.25 91 C105.06 91, 55.87 91, 22.75 91 M154.25 91 C117.01 91, 79.77 91, 22.75 91 M22.75 91 C7.58 91, 0 83.42, 0 68.25 M22.75 91 C7.58 91, 0 83.42, 0 68.25 M0 68.25 C0 57.72, 0 47.2, 0 22.75 M0 68.25 C0 55.7, 0 43.15, 0 22.75 M0 22.75 C0 7.58, 7.58 0, 22.75 0 M0 22.75 C0 7.58, 7.58 0, 22.75 0" stroke="#000000" stroke-width="1" fill="none"></path></g><g transform="translate(267.5645279522387 883.3116485199353) rotate(0 46.5 21)"><text x="46.5" y="33" font-family="Helvetica, Segoe UI Emoji" font-size="36px" fill="#000000" text-anchor="middle" style="white-space: pre;" direction="ltr">Reise</text></g><g stroke-linecap="round" transform="translate(1173.336095463094 864.128180674641) rotate(0 90 40)"><path d="M20 0 M20 0 C69.25 0, 118.49 0, 160 0 M20 0 C60.3 0, 100.59 0, 160 0 M160 0 C173.33 0, 180 6.67, 180 20 M160 0 C173.33 0, 180 6.67, 180 20 M180 20 C180 32.87, 180 45.75, 180 60 M180 20 C180 32.49, 180 44.98, 180 60 M180 60 C180 73.33, 173.33 80, 160 80 M180 60 C180 73.33, 173.33 80, 160 80 M160 80 C122.45 80, 84.91 80, 20 80 M160 80 C125 80, 89.99 80, 20 80 M20 80 C6.67 80, 0 73.33, 0 60 M20 80 C6.67 80, 0 73.33, 0 60 M0 60 C0 49.99, 0 39.98, 0 20 M0 60 C0 49.36, 0 38.71, 0 20 M0 20 C0 6.67, 6.67 0, 20 0 M0 20 C0 6.67, 6.67 0, 20 0" stroke="#000000" stroke-width="1" fill="none"></path></g><g transform="translate(1225.336095463094 888.128180674641) rotate(0 38 16)"><text x="38" y="25" font-family="Helvetica, Segoe UI Emoji" font-size="28px" fill="#000000" text-anchor="middle" style="white-space: pre;" direction="ltr">Route</text></g><g stroke-linecap="round" transform="translate(3109.8360954630953 856.9526259858064) rotate(0 80.5 44.5)"><path d="M22.25 0 M22.25 0 C63.34 0, 104.43 0, 138.75 0 M22.25 0 C57.62 0, 92.98 0, 138.75 0 M138.75 0 C153.58 0, 161 7.42, 161 22.25 M138.75 0 C153.58 0, 161 7.42, 161 22.25 M161 22.25 C161 38.87, 161 55.49, 161 66.75 M161 22.25 C161 38.24, 161 54.23, 161 66.75 M161 66.75 C161 81.58, 153.58 89, 138.75 89 M161 66.75 C161 81.58, 153.58 89, 138.75 89 M138.75 89 C113.68 89, 88.61 89, 22.25 89 M138.75 89 C108.47 89, 78.18 89, 22.25 89 M22.25 89 C7.42 89, 0 81.58, 0 66.75 M22.25 89 C7.42 89, 0 81.58, 0 66.75 M0 66.75 C0 51.17, 0 35.59, 0 22.25 M0 66.75 C0 49.93, 0 33.12, 0 22.25 M0 22.25 C0 7.42, 7.42 0, 22.25 0 M0 22.25 C0 7.42, 7.42 0, 22.25 0" stroke="#000000" stroke-width="1" fill="none"></path></g><g transform="translate(3150.8360954630953 885.4526259858064) rotate(0 39.5 16)"><text x="39.5" y="25" font-family="Helvetica, Segoe UI Emoji" font-size="28px" fill="#000000" text-anchor="middle" style="white-space: pre;" direction="ltr">Zielort</text></g><g mask="url(#mask-2Ih98o0JF2wXtDeJt_TzN)" stroke-linecap="round"><g transform="translate(414.65752403452416 906.7260016151492) rotate(0 372.9583333333328 1.4289289478200544)"><path d="M0 0 C124.32 0.48, 621.6 2.38, 745.92 2.86 M0 0 C124.32 0.48, 621.6 2.38, 745.92 2.86" stroke="#000000" stroke-width="1" fill="none"></path></g><g transform="translate(414.65752403452416 906.7260016151492) rotate(0 372.9583333333328 1.4289289478200544)"><path d="M745.92 2.86 L732.3 9.15 L732.35 -3.53 L745.92 2.86" stroke="none" stroke-width="0" fill="#000000" fill-rule="evenodd"></path><path d="M745.92 2.86 C742.97 4.22, 740.02 5.58, 732.3 9.15 M745.92 2.86 C741.2 5.04, 736.48 7.21, 732.3 9.15 M732.3 9.15 C732.31 5.04, 732.33 0.94, 732.35 -3.53 M732.3 9.15 C732.31 5.37, 732.33 1.6, 732.35 -3.53 M732.35 -3.53 C736.71 -1.48, 741.08 0.58, 745.92 2.86 M732.35 -3.53 C737.53 -1.09, 742.72 1.35, 745.92 2.86 M745.92 2.86 C745.92 2.86, 745.92 2.86, 745.92 2.86 M745.92 2.86 C745.92 2.86, 745.92 2.86, 745.92 2.86" stroke="#000000" stroke-width="1" fill="none"></path></g></g><mask id="mask-2Ih98o0JF2wXtDeJt_TzN"><rect x="0" y="0" fill="#fff" width="1260.5741907011898" height="1009.5838595107894"></rect><rect x="752.1158573678567" y="896.6549305629694" fill="#000" width="71" height="23" opacity="1"></rect></mask><g mask="url(#mask-Z8fF3chf-V0fbtWh1bOBD)" stroke-linecap="round"><g transform="translate(1361.1456192726155 905.17302480472) rotate(0 868.6666666666674 -0.7159215237718399)"><path d="M0 0 C289.56 -0.24, 1447.78 -1.19, 1737.33 -1.43 M0 0 C289.56 -0.24, 1447.78 -1.19, 1737.33 -1.43" stroke="#000000" stroke-width="1" fill="none"></path></g><g transform="translate(1361.1456192726155 905.17302480472) rotate(0 868.6666666666674 -0.7159215237718399)"><path d="M1737.33 -1.43 L1723.74 4.92 L1723.73 -7.76 L1737.33 -1.43" stroke="none" stroke-width="0" fill="#000000" fill-rule="evenodd"></path><path d="M1737.33 -1.43 C1734.6 -0.16, 1731.87 1.12, 1723.74 4.92 M1737.33 -1.43 C1733.32 0.44, 1729.3 2.32, 1723.74 4.92 M1723.74 4.92 C1723.74 0.12, 1723.74 -4.68, 1723.73 -7.76 M1723.74 4.92 C1723.74 1.82, 1723.74 -1.29, 1723.73 -7.76 M1723.73 -7.76 C1727.52 -6, 1731.31 -4.23, 1737.33 -1.43 M1723.73 -7.76 C1726.71 -6.38, 1729.68 -4.99, 1737.33 -1.43 M1737.33 -1.43 C1737.33 -1.43, 1737.33 -1.43, 1737.33 -1.43 M1737.33 -1.43 C1737.33 -1.43, 1737.33 -1.43, 1737.33 -1.43" stroke="#000000" stroke-width="1" fill="none"></path></g></g><mask id="mask-Z8fF3chf-V0fbtWh1bOBD"><rect x="0" y="0" fill="#fff" width="3198.4789526059503" height="1006.6048678522636"></rect><rect x="2195.8122859392824" y="892.9571032809481" fill="#000" width="68" height="23" opacity="1"></rect></mask><g stroke-linecap="round" transform="translate(408.0222426492419 1356.0286135750775) rotate(0 92 36)"><path d="M18 0 M18 0 C67.93 0, 117.87 0, 166 0 M18 0 C67.22 0, 116.44 0, 166 0 M166 0 C178 0, 184 6, 184 18 M166 0 C178 0, 184 6, 184 18 M184 18 C184 26.6, 184 35.2, 184 54 M184 18 C184 28.92, 184 39.84, 184 54 M184 54 C184 66, 178 72, 166 72 M184 54 C184 66, 178 72, 166 72 M166 72 C121.97 72, 77.94 72, 18 72 M166 72 C109.7 72, 53.39 72, 18 72 M18 72 C6 72, 0 66, 0 54 M18 72 C6 72, 0 66, 0 54 M0 54 C0 41.9, 0 29.79, 0 18 M0 54 C0 45.13, 0 36.27, 0 18 M0 18 C0 6, 6 0, 18 0 M0 18 C0 6, 6 0, 18 0" stroke="#000000" stroke-width="1" fill="none"></path></g><g transform="translate(427.0222426492419 1376.0286135750775) rotate(0 73 16)"><text x="73" y="25" font-family="Helvetica, Segoe UI Emoji" font-size="28px" fill="#000000" text-anchor="middle" style="white-space: pre;" direction="ltr">Mitreisende</text></g><g mask="url(#mask-5bMgT_6pqQq93HQ7bRVhc)" stroke-linecap="round"><g transform="translate(427.8045252790889 1178.060781129229) rotate(0 33.98238763327004 84.41248765149567)"><path d="M0 0 C11.33 28.14, 56.64 140.69, 67.96 168.82 M0 0 C11.33 28.14, 56.64 140.69, 67.96 168.82" stroke="#000000" stroke-width="1" fill="none"></path></g><g transform="translate(427.8045252790889 1178.060781129229) rotate(0 33.98238763327004 84.41248765149567)"><path d="M67.96 168.82 L57.01 158.58 L68.77 153.85 L67.96 168.82" stroke="none" stroke-width="0" fill="#000000" fill-rule="evenodd"></path><path d="M67.96 168.82 C65.59 166.61, 63.22 164.39, 57.01 158.58 M67.96 168.82 C63.87 164.99, 59.77 161.16, 57.01 158.58 M57.01 158.58 C61.44 156.8, 65.88 155.01, 68.77 153.85 M57.01 158.58 C61.32 156.84, 65.63 155.11, 68.77 153.85 M68.77 153.85 C68.49 158.99, 68.22 164.14, 67.96 168.82 M68.77 153.85 C68.48 159.17, 68.2 164.49, 67.96 168.82 M67.96 168.82 C67.96 168.82, 67.96 168.82, 67.96 168.82 M67.96 168.82 C67.96 168.82, 67.96 168.82, 67.96 168.82" stroke="#000000" stroke-width="1" fill="none"></path></g></g><mask id="mask-5bMgT_6pqQq93HQ7bRVhc"><rect x="0" y="0" fill="#fff" width="595.769300545629" height="1446.8857564322204"></rect><rect x="442.7869129123592" y="1250.973268780725" fill="#000" width="38" height="23" opacity="1"></rect></mask><g stroke-linecap="round" transform="translate(179.7572428115227 1099.6435252101342) rotate(0 130.0656440185146 37.51306910083497)"><path d="M18.76 0 M18.76 0 C102.4 0, 186.04 0, 241.37 0 M18.76 0 C96.8 0, 174.84 0, 241.37 0 M241.37 0 C253.88 0, 260.13 6.25, 260.13 18.76 M241.37 0 C253.88 0, 260.13 6.25, 260.13 18.76 M260.13 18.76 C260.13 31.32, 260.13 43.89, 260.13 56.27 M260.13 18.76 C260.13 29.44, 260.13 40.12, 260.13 56.27 M260.13 56.27 C260.13 68.77, 253.88 75.03, 241.37 75.03 M260.13 56.27 C260.13 68.77, 253.88 75.03, 241.37 75.03 M241.37 75.03 C170.66 75.03, 99.95 75.03, 18.76 75.03 M241.37 75.03 C161.81 75.03, 82.25 75.03, 18.76 75.03 M18.76 75.03 C6.25 75.03, 0 68.77, 0 56.27 M18.76 75.03 C6.25 75.03, 0 68.77, 0 56.27 M0 56.27 C0 48.41, 0 40.55, 0 18.76 M0 56.27 C0 43.69, 0 31.11, 0 18.76 M0 18.76 C0 6.25, 6.25 0, 18.76 0 M0 18.76 C0 6.25, 6.25 0, 18.76 0" stroke="#000000" stroke-width="1" fill="none"></path></g><g transform="translate(271.82288683003753 1121.1565943109692) rotate(0 38 16)"><text x="38" y="25" font-family="Helvetica, Segoe UI Emoji" font-size="28px" fill="#000000" text-anchor="middle" style="white-space: pre;" direction="ltr">Daten</text></g><g mask="url(#mask-wzPerOxuXrxq3XXyvjYz2)" stroke-linecap="round"><g transform="translate(314.2079277425337 968.540826485518) rotate(0 -1.8239068111820416 56.13986896924155)"><path d="M0 0 C-0.61 18.71, -3.04 93.57, -3.65 112.28 M0 0 C-0.61 18.71, -3.04 93.57, -3.65 112.28" stroke="#000000" stroke-width="1" fill="none"></path></g><g transform="translate(314.2079277425337 968.540826485518) rotate(0 -1.8239068111820416 56.13986896924155)"><path d="M-3.65 112.28 L-9.54 98.49 L3.13 98.9 L-3.65 112.28" stroke="none" stroke-width="0" fill="#000000" fill-rule="evenodd"></path><path d="M-3.65 112.28 C-5.58 107.76, -7.51 103.24, -9.54 98.49 M-3.65 112.28 C-5.11 108.85, -6.58 105.41, -9.54 98.49 M-9.54 98.49 C-5.57 98.62, -1.59 98.74, 3.13 98.9 M-9.54 98.49 C-5.24 98.63, -0.93 98.77, 3.13 98.9 M3.13 98.9 C1.48 102.16, -0.18 105.43, -3.65 112.28 M3.13 98.9 C0.94 103.21, -1.24 107.53, -3.65 112.28 M-3.65 112.28 C-3.65 112.28, -3.65 112.28, -3.65 112.28 M-3.65 112.28 C-3.65 112.28, -3.65 112.28, -3.65 112.28" stroke="#000000" stroke-width="1" fill="none"></path></g></g><mask id="mask-wzPerOxuXrxq3XXyvjYz2"><rect x="0" y="0" fill="#fff" width="417.85574136489777" height="1180.820564424001"></rect><rect x="258.38402093135164" y="1013.1806954547592" fill="#000" width="108" height="23" opacity="1"></rect></mask><g stroke-linecap="round" transform="translate(225.10982020049687 1362.999144776868) rotate(0 79.5 31.5)"><path d="M15.75 0 M15.75 0 C65.8 0, 115.86 0, 143.25 0 M15.75 0 C49.12 0, 82.49 0, 143.25 0 M143.25 0 C153.75 0, 159 5.25, 159 15.75 M143.25 0 C153.75 0, 159 5.25, 159 15.75 M159 15.75 C159 23.11, 159 30.46, 159 47.25 M159 15.75 C159 24.43, 159 33.11, 159 47.25 M159 47.25 C159 57.75, 153.75 63, 143.25 63 M159 47.25 C159 57.75, 153.75 63, 143.25 63 M143.25 63 C114.24 63, 85.23 63, 15.75 63 M143.25 63 C116.7 63, 90.14 63, 15.75 63 M15.75 63 C5.25 63, 0 57.75, 0 47.25 M15.75 63 C5.25 63, 0 57.75, 0 47.25 M0 47.25 C0 34.99, 0 22.74, 0 15.75 M0 47.25 C0 39.39, 0 31.53, 0 15.75 M0 15.75 C0 5.25, 5.25 0, 15.75 0 M0 15.75 C0 5.25, 5.25 0, 15.75 0" stroke="#000000" stroke-width="1" fill="none"></path></g><g transform="translate(263.10982020049687 1378.499144776868) rotate(0 41.5 16)"><text x="41.5" y="25" font-family="Helvetica, Segoe UI Emoji" font-size="28px" fill="#000000" text-anchor="middle" style="white-space: pre;" direction="ltr">Datum</text></g><g stroke-linecap="round" transform="translate(10 1365.9481229056576) rotate(0 91.5 31.5)"><path d="M15.75 0 M15.75 0 C53.89 0, 92.02 0, 167.25 0 M15.75 0 C52.63 0, 89.51 0, 167.25 0 M167.25 0 C177.75 0, 183 5.25, 183 15.75 M167.25 0 C177.75 0, 183 5.25, 183 15.75 M183 15.75 C183 22.7, 183 29.66, 183 47.25 M183 15.75 C183 27.43, 183 39.12, 183 47.25 M183 47.25 C183 57.75, 177.75 63, 167.25 63 M183 47.25 C183 57.75, 177.75 63, 167.25 63 M167.25 63 C126.29 63, 85.33 63, 15.75 63 M167.25 63 C113.62 63, 60 63, 15.75 63 M15.75 63 C5.25 63, 0 57.75, 0 47.25 M15.75 63 C5.25 63, 0 57.75, 0 47.25 M0 47.25 C0 35.58, 0 23.9, 0 15.75 M0 47.25 C0 36.55, 0 25.86, 0 15.75 M0 15.75 C0 5.25, 5.25 0, 15.75 0 M0 15.75 C0 5.25, 5.25 0, 15.75 0" stroke="#000000" stroke-width="1" fill="none"></path></g><g transform="translate(36.5 1381.4481229056576) rotate(0 65 16)"><text x="65" y="25" font-family="Helvetica, Segoe UI Emoji" font-size="28px" fill="#000000" text-anchor="middle" style="white-space: pre;" direction="ltr">Statistiken</text></g><g transform="translate(442.7869129123592 1250.9732687807245) rotate(0 18.999999999999773 11.5)"><text x="19" y="18" font-family="Helvetica, Segoe UI Emoji" font-size="20px" fill="#000000" text-anchor="middle" style="white-space: pre;" direction="ltr">sind</text></g><g mask="url(#mask-6WintSCmGEagAgllSy9iB)" stroke-linecap="round"><g transform="translate(309.9738340799058 1185.3222666272786) rotate(0 -2.8665468732290265 82.97968544262596)"><path d="M0 0 C-0.96 27.66, -4.78 138.3, -5.73 165.96 M0 0 C-0.96 27.66, -4.78 138.3, -5.73 165.96" stroke="#000000" stroke-width="1" fill="none"></path></g><g transform="translate(309.9738340799058 1185.3222666272786) rotate(0 -2.8665468732290265 82.97968544262596)"><path d="M-5.73 165.96 L-11.6 152.15 L1.07 152.59 L-5.73 165.96" stroke="none" stroke-width="0" fill="#000000" fill-rule="evenodd"></path><path d="M-5.73 165.96 C-7.17 162.57, -8.61 159.18, -11.6 152.15 M-5.73 165.96 C-7.03 162.91, -8.32 159.86, -11.6 152.15 M-11.6 152.15 C-8.82 152.25, -6.04 152.35, 1.07 152.59 M-11.6 152.15 C-8.17 152.27, -4.75 152.39, 1.07 152.59 M1.07 152.59 C-1.6 157.83, -4.26 163.07, -5.73 165.96 M1.07 152.59 C-1.45 157.55, -3.97 162.5, -5.73 165.96 M-5.73 165.96 C-5.73 165.96, -5.73 165.96, -5.73 165.96 M-5.73 165.96 C-5.73 165.96, -5.73 165.96, -5.73 165.96" stroke="#000000" stroke-width="1" fill="none"></path></g></g><mask id="mask-6WintSCmGEagAgllSy9iB"><rect x="0" y="0" fill="#fff" width="415.7069278263639" height="1451.2816375125306"></rect><rect x="296.60728720667703" y="1256.8019520699047" fill="#000" width="21" height="23" opacity="1"></rect></mask><g mask="url(#mask-snt9Gta4AVzPF7Tp__gQE)" stroke-linecap="round"><g transform="translate(179.9345061451977 1184.3295084786466) rotate(0 -41.492935316345665 86.26424544303552)"><path d="M0 0 C-13.83 28.75, -69.15 143.77, -82.99 172.53 M0 0 C-13.83 28.75, -69.15 143.77, -82.99 172.53" stroke="#000000" stroke-width="1" fill="none"></path></g><g transform="translate(179.9345061451977 1184.3295084786466) rotate(0 -41.492935316345665 86.26424544303552)"><path d="M-82.99 172.53 L-82.81 157.53 L-71.38 163.03 L-82.99 172.53" stroke="none" stroke-width="0" fill="#000000" fill-rule="evenodd"></path><path d="M-82.99 172.53 C-82.94 168.56, -82.89 164.59, -82.81 157.53 M-82.99 172.53 C-82.92 167.22, -82.86 161.91, -82.81 157.53 M-82.81 157.53 C-78.67 159.52, -74.54 161.51, -71.38 163.03 M-82.81 157.53 C-78.93 159.4, -75.05 161.26, -71.38 163.03 M-71.38 163.03 C-74.13 165.28, -76.88 167.53, -82.99 172.53 M-71.38 163.03 C-74.92 165.92, -78.46 168.82, -82.99 172.53 M-82.99 172.53 C-82.99 172.53, -82.99 172.53, -82.99 172.53 M-82.99 172.53 C-82.99 172.53, -82.99 172.53, -82.99 172.53" stroke="#000000" stroke-width="1" fill="none"></path></g></g><mask id="mask-snt9Gta4AVzPF7Tp__gQE"><rect x="0" y="0" fill="#fff" width="362.92037677788903" height="1456.8579993647177"></rect><rect x="119.44157082885204" y="1259.0937539216825" fill="#000" width="38" height="23" opacity="1"></rect></mask><g stroke-linecap="round" transform="translate(2231.9253583263717 1099.1305558993379) rotate(0 133.71904368025798 42.03169862948812)"><path d="M21.02 0 M21.02 0 C82.15 0, 143.28 0, 246.42 0 M21.02 0 C75.87 0, 130.72 0, 246.42 0 M246.42 0 C260.43 0, 267.44 7.01, 267.44 21.02 M246.42 0 C260.43 0, 267.44 7.01, 267.44 21.02 M267.44 21.02 C267.44 33.47, 267.44 45.92, 267.44 63.05 M267.44 21.02 C267.44 37.3, 267.44 53.59, 267.44 63.05 M267.44 63.05 C267.44 77.06, 260.43 84.06, 246.42 84.06 M267.44 63.05 C267.44 77.06, 260.43 84.06, 246.42 84.06 M246.42 84.06 C163.13 84.06, 79.84 84.06, 21.02 84.06 M246.42 84.06 C189.73 84.06, 133.03 84.06, 21.02 84.06 M21.02 84.06 C7.01 84.06, 0 77.06, 0 63.05 M21.02 84.06 C7.01 84.06, 0 77.06, 0 63.05 M0 63.05 C0 47.69, 0 32.33, 0 21.02 M0 63.05 C0 48.42, 0 33.8, 0 21.02 M0 21.02 C0 7.01, 7.01 0, 21.02 0 M0 21.02 C0 7.01, 7.01 0, 21.02 0" stroke="#000000" stroke-width="1" fill="none"></path></g><g transform="translate(2302.144402006631 1125.1622545288262) rotate(0 63.5 16)"><text x="63.5" y="25" font-family="Helvetica, Segoe UI Emoji" font-size="28px" fill="#000000" text-anchor="middle" style="white-space: pre;" direction="ltr">Raststätte</text></g><g stroke-linecap="round" transform="translate(2661.9567949769107 980.1434139570906) rotate(0 137.5 38.5)"><path d="M19.25 0 M19.25 0 C91.37 1.57, 160.08 0.46, 255.75 0 M19.25 0 C104 1.36, 189.32 0.69, 255.75 0 M255.75 0 C270.3 -0.2, 275.97 4.86, 275 19.25 M255.75 0 C270.55 -1.69, 275.8 4.67, 275 19.25 M275 19.25 C277.01 30.14, 273.71 40.05, 275 57.75 M275 19.25 C275.4 33.64, 275.62 48.18, 275 57.75 M275 57.75 C274.32 71.17, 267.64 78.26, 255.75 77 M275 57.75 C273.31 68.74, 268.84 75.16, 255.75 77 M255.75 77 C195.62 77.3, 131.82 76.79, 19.25 77 M255.75 77 C164.47 74.99, 74.55 74.77, 19.25 77 M19.25 77 C4.83 75.4, 1.71 69.99, 0 57.75 M19.25 77 C6.01 78.32, -0.99 68.61, 0 57.75 M0 57.75 C-0.7 41.48, 0.07 28.74, 0 19.25 M0 57.75 C-0.94 49.96, -1.01 41.77, 0 19.25 M0 19.25 C0.9 4.77, 6.38 -1.18, 19.25 0 M0 19.25 C0.93 5.23, 5.81 0.05, 19.25 0" stroke="#000000" stroke-width="1" fill="none"></path></g><g transform="translate(2742.9567949769107 1002.6434139570906) rotate(0 56.5 16)"><text x="56.5" y="25" font-family="Helvetica, Segoe UI Emoji" font-size="28px" fill="#000000" text-anchor="middle" style="white-space: pre;" direction="ltr">Start/Ziel</text></g><g stroke-linecap="round" transform="translate(1685.991433245168 728.2539361591548) rotate(0 166.66666666666652 41.666666666666515)"><path d="M20.83 0 M20.83 0 C133.71 0, 246.59 0, 312.5 0 M20.83 0 C101.83 0, 182.83 0, 312.5 0 M312.5 0 C326.39 0, 333.33 6.94, 333.33 20.83 M312.5 0 C326.39 0, 333.33 6.94, 333.33 20.83 M333.33 20.83 C333.33 34.57, 333.33 48.3, 333.33 62.5 M333.33 20.83 C333.33 29.76, 333.33 38.68, 333.33 62.5 M333.33 62.5 C333.33 76.39, 326.39 83.33, 312.5 83.33 M333.33 62.5 C333.33 76.39, 326.39 83.33, 312.5 83.33 M312.5 83.33 C242.78 83.33, 173.06 83.33, 20.83 83.33 M312.5 83.33 C221.73 83.33, 130.95 83.33, 20.83 83.33 M20.83 83.33 C6.94 83.33, 0 76.39, 0 62.5 M20.83 83.33 C6.94 83.33, 0 76.39, 0 62.5 M0 62.5 C0 52.18, 0 41.87, 0 20.83 M0 62.5 C0 50.83, 0 39.15, 0 20.83 M0 20.83 C0 6.94, 6.94 0, 20.83 0 M0 20.83 C0 6.94, 6.94 0, 20.83 0" stroke="#000000" stroke-width="1" fill="none"></path></g><g transform="translate(1722.1580999118341 753.9206028258213) rotate(0 130.5 16)"><text x="130.5" y="25" font-family="Helvetica, Segoe UI Emoji" font-size="28px" fill="#000000" text-anchor="middle" style="white-space: pre;" direction="ltr">Fortbewegunsgmittel</text></g><g stroke-linecap="round" transform="translate(1375.5068669204302 1347.7269885831552) rotate(0 114.5 39.41769201591194)"><path d="M19.71 0 M19.71 0 C92.03 0, 164.35 0, 209.29 0 M19.71 0 C90.87 0, 162.02 0, 209.29 0 M209.29 0 C222.43 0, 229 6.57, 229 19.71 M209.29 0 C222.43 0, 229 6.57, 229 19.71 M229 19.71 C229 31.79, 229 43.87, 229 59.13 M229 19.71 C229 32.47, 229 45.23, 229 59.13 M229 59.13 C229 72.27, 222.43 78.84, 209.29 78.84 M229 59.13 C229 72.27, 222.43 78.84, 209.29 78.84 M209.29 78.84 C139.97 78.84, 70.65 78.84, 19.71 78.84 M209.29 78.84 C162.22 78.84, 115.14 78.84, 19.71 78.84 M19.71 78.84 C6.57 78.84, 0 72.27, 0 59.13 M19.71 78.84 C6.57 78.84, 0 72.27, 0 59.13 M0 59.13 C0 49.81, 0 40.49, 0 19.71 M0 59.13 C0 49.64, 0 40.16, 0 19.71 M0 19.71 C0 6.57, 6.57 0, 19.71 0 M0 19.71 C0 6.57, 6.57 0, 19.71 0" stroke="#000000" stroke-width="1" fill="none"></path></g><g transform="translate(1435.7812106408855 1371.1446805990672) rotate(0 54 16)"><text x="54" y="25" font-family="Helvetica, Segoe UI Emoji" font-size="28px" fill="#000000" text-anchor="middle" style="white-space: pre;" direction="ltr">Grenzen</text></g><g stroke-linecap="round" transform="translate(1754.5719385630764 127.24935604891161) rotate(0 94.5 35.5)"><path d="M17.75 0 M17.75 0 C54.35 0, 90.95 0, 171.25 0 M171.25 0 C183.08 0, 189 5.92, 189 17.75 M189 17.75 C189 31.18, 189 44.6, 189 53.25 M189 53.25 C189 65.08, 183.08 71, 171.25 71 M171.25 71 C136.07 71, 100.88 71, 17.75 71 M17.75 71 C5.92 71, 0 65.08, 0 53.25 M0 53.25 C0 43.19, 0 33.13, 0 17.75 M0 17.75 C0 5.92, 5.92 0, 17.75 0" stroke="#000000" stroke-width="1.5" fill="none" stroke-dasharray="8 9"></path></g><g transform="translate(1784.4052718964085 146.7493560489116) rotate(0 58 16)"><text x="58" y="25" font-family="Helvetica, Segoe UI Emoji" font-size="28px" fill="#000000" text-anchor="middle" style="white-space: pre;" direction="ltr">Flugzeug</text></g><g stroke-linecap="round" transform="translate(1754.5719385630764 247.58268938224458) rotate(0 85.5 37.49999999999997)"><path d="M18.75 0 M18.75 0 C70.85 0, 122.96 0, 152.25 0 M152.25 0 C164.75 0, 171 6.25, 171 18.75 M171 18.75 C171 28.2, 171 37.65, 171 56.25 M171 56.25 C171 68.75, 164.75 75, 152.25 75 M152.25 75 C123.61 75, 94.98 75, 18.75 75 M18.75 75 C6.25 75, 0 68.75, 0 56.25 M0 56.25 C0 42.96, 0 29.68, 0 18.75 M0 18.75 C0 6.25, 6.25 0, 18.75 0" stroke="#000000" stroke-width="1.5" fill="none" stroke-dasharray="8 9"></path></g><g transform="translate(1808.9052718964085 269.08268938224455) rotate(0 24.5 15.999999999999972)"><text x="24.5" y="25" font-family="Helvetica, Segoe UI Emoji" font-size="28px" fill="#000000" text-anchor="middle" style="white-space: pre;" direction="ltr">Bus</text></g><g stroke-linecap="round" transform="translate(1986.10512338013 2048.9797352957276) rotate(0 114.5 39.5)"><path d="M19.75 0 M19.75 0 C67.11 0, 114.47 0, 209.25 0 M19.75 0 C90.93 0, 162.11 0, 209.25 0 M209.25 0 C222.42 0, 229 6.58, 229 19.75 M209.25 0 C222.42 0, 229 6.58, 229 19.75 M229 19.75 C229 28.81, 229 37.87, 229 59.25 M229 19.75 C229 31.95, 229 44.14, 229 59.25 M229 59.25 C229 72.42, 222.42 79, 209.25 79 M229 59.25 C229 72.42, 222.42 79, 209.25 79 M209.25 79 C138.82 79, 68.39 79, 19.75 79 M209.25 79 C166.03 79, 122.8 79, 19.75 79 M19.75 79 C6.58 79, 0 72.42, 0 59.25 M19.75 79 C6.58 79, 0 72.42, 0 59.25 M0 59.25 C0 47.73, 0 36.21, 0 19.75 M0 59.25 C0 47.05, 0 34.84, 0 19.75 M0 19.75 C0 6.58, 6.58 0, 19.75 0 M0 19.75 C0 6.58, 6.58 0, 19.75 0" stroke="#000000" stroke-width="1" fill="none"></path></g><g transform="translate(2035.60512338013 2072.4797352957276) rotate(0 65 16)"><text x="65" y="25" font-family="Helvetica, Segoe UI Emoji" font-size="28px" fill="#000000" text-anchor="middle" style="white-space: pre;" direction="ltr">Aktivitäten</text></g><g stroke-linecap="round" transform="translate(1756.2386052297425 369.2493560489113) rotate(0 87 34.5)"><path d="M17.25 0 M17.25 0 C56.09 0, 94.94 0, 156.75 0 M156.75 0 C168.25 0, 174 5.75, 174 17.25 M174 17.25 C174 26.12, 174 34.99, 174 51.75 M174 51.75 C174 63.25, 168.25 69, 156.75 69 M156.75 69 C126.68 69, 96.61 69, 17.25 69 M17.25 69 C5.75 69, 0 63.25, 0 51.75 M0 51.75 C0 42.52, 0 33.28, 0 17.25 M0 17.25 C0 5.75, 5.75 0, 17.25 0" stroke="#000000" stroke-width="1.5" fill="none" stroke-dasharray="8 9"></path></g><g transform="translate(1812.0719385630764 387.7493560489113) rotate(0 24.5 16)"><text x="24.5" y="25" font-family="Helvetica, Segoe UI Emoji" font-size="28px" fill="#000000" text-anchor="middle" style="white-space: pre;" direction="ltr">Zug</text></g><g stroke-linecap="round" transform="translate(1762.9052718964103 489.2493560489112) rotate(0 87.5 33)"><path d="M16.5 0 M16.5 0 C57.16 0, 97.82 0, 158.5 0 M158.5 0 C169.5 0, 175 5.5, 175 16.5 M175 16.5 C175 27.46, 175 38.41, 175 49.5 M175 49.5 C175 60.5, 169.5 66, 158.5 66 M158.5 66 C125.44 66, 92.38 66, 16.5 66 M16.5 66 C5.5 66, 0 60.5, 0 49.5 M0 49.5 C0 38.91, 0 28.33, 0 16.5 M0 16.5 C0 5.5, 5.5 0, 16.5 0" stroke="#000000" stroke-width="1.5" fill="none" stroke-dasharray="8 9"></path></g><g transform="translate(1814.2386052297425 506.2493560489112) rotate(0 29.5 16)"><text x="29.5" y="25" font-family="Helvetica, Segoe UI Emoji" font-size="28px" fill="#000000" text-anchor="middle" style="white-space: pre;" direction="ltr">Auto</text></g><g stroke-linecap="round" transform="translate(1766.6552718964103 600.9160227155779) rotate(0 79 33.5)"><path d="M16.75 0 M16.75 0 C60.25 0, 103.76 0, 141.25 0 M141.25 0 C152.42 0, 158 5.58, 158 16.75 M158 16.75 C158 26.29, 158 35.82, 158 50.25 M158 50.25 C158 61.42, 152.42 67, 141.25 67 M141.25 67 C101.46 67, 61.67 67, 16.75 67 M16.75 67 C5.58 67, 0 61.42, 0 50.25 M0 50.25 C0 40.91, 0 31.58, 0 16.75 M0 16.75 C0 5.58, 5.58 0, 16.75 0" stroke="#000000" stroke-width="1.5" fill="none" stroke-dasharray="8 9"></path></g><g transform="translate(1789.4886052297425 618.4160227155779) rotate(0 49.5 16)"><text x="49.5" y="25" font-family="Helvetica, Segoe UI Emoji" font-size="28px" fill="#000000" text-anchor="middle" style="white-space: pre;" direction="ltr">Fahrrad</text></g><g stroke-linecap="round" transform="translate(1725.2386052297425 96.58268938224464) rotate(0 123.83333333333348 308)"><path d="M32 0 M32 0 C90.12 0, 148.24 0, 215.67 0 M215.67 0 C237 0, 247.67 10.67, 247.67 32 M247.67 32 C247.67 230.47, 247.67 428.94, 247.67 584 M247.67 584 C247.67 605.33, 237 616, 215.67 616 M215.67 616 C147.28 616, 78.9 616, 32 616 M32 616 C10.67 616, 0 605.33, 0 584 M0 584 C0 437.86, 0 291.72, 0 32 M0 32 C0 10.67, 10.67 0, 32 0" stroke="#000000" stroke-width="1.5" fill="none" stroke-dasharray="1.5 7"></path></g><g stroke-linecap="round" transform="translate(1811.543979559111 1279.0514547639941) rotate(0 133.71904368025798 42.03169862948812)"><path d="M21.02 0 M21.02 0 C104.31 0, 187.61 0, 246.42 0 M21.02 0 C86.86 0, 152.71 0, 246.42 0 M246.42 0 C260.43 0, 267.44 7.01, 267.44 21.02 M246.42 0 C260.43 0, 267.44 7.01, 267.44 21.02 M267.44 21.02 C267.44 35.43, 267.44 49.84, 267.44 63.05 M267.44 21.02 C267.44 34.3, 267.44 47.58, 267.44 63.05 M267.44 63.05 C267.44 77.06, 260.43 84.06, 246.42 84.06 M267.44 63.05 C267.44 77.06, 260.43 84.06, 246.42 84.06 M246.42 84.06 C159.68 84.06, 72.94 84.06, 21.02 84.06 M246.42 84.06 C178.65 84.06, 110.88 84.06, 21.02 84.06 M21.02 84.06 C7.01 84.06, 0 77.06, 0 63.05 M21.02 84.06 C7.01 84.06, 0 77.06, 0 63.05 M0 63.05 C0 49.48, 0 35.92, 0 21.02 M0 63.05 C0 54.52, 0 45.99, 0 21.02 M0 21.02 C0 7.01, 7.01 0, 21.02 0 M0 21.02 C0 7.01, 7.01 0, 21.02 0" stroke="#000000" stroke-width="1" fill="none"></path></g><g transform="translate(1859.2630232393685 1305.0831533934825) rotate(0 86 16)"><text x="86" y="25" font-family="Helvetica, Segoe UI Emoji" font-size="28px" fill="#000000" text-anchor="middle" style="white-space: pre;" direction="ltr">Zwischenstop</text></g><g stroke-linecap="round" transform="translate(988.356050422843 250.77254259689718) rotate(0 91 33.5)"><path d="M16.75 0 M16.75 0 C47.33 0, 77.92 0, 165.25 0 M16.75 0 C72.65 0, 128.55 0, 165.25 0 M165.25 0 C176.42 0, 182 5.58, 182 16.75 M165.25 0 C176.42 0, 182 5.58, 182 16.75 M182 16.75 C182 23.88, 182 31, 182 50.25 M182 16.75 C182 24.46, 182 32.18, 182 50.25 M182 50.25 C182 61.42, 176.42 67, 165.25 67 M182 50.25 C182 61.42, 176.42 67, 165.25 67 M165.25 67 C121.16 67, 77.07 67, 16.75 67 M165.25 67 C106.32 67, 47.39 67, 16.75 67 M16.75 67 C5.58 67, 0 61.42, 0 50.25 M16.75 67 C5.58 67, 0 61.42, 0 50.25 M0 50.25 C0 37.3, 0 24.34, 0 16.75 M0 50.25 C0 36.88, 0 23.51, 0 16.75 M0 16.75 C0 5.58, 5.58 0, 16.75 0 M0 16.75 C0 5.58, 5.58 0, 16.75 0" stroke="#000000" stroke-width="1" fill="none"></path></g><g transform="translate(1035.356050422843 268.2725425968972) rotate(0 44 16)"><text x="44" y="25" font-family="Helvetica, Segoe UI Emoji" font-size="28px" fill="#000000" text-anchor="middle" style="white-space: pre;" direction="ltr">Kosten</text></g><g stroke-linecap="round" transform="translate(1975.7504388156003 2496.852673232337) rotate(0 128.5 38.85008113079857)"><path d="M19.43 0 M19.43 0 C101.25 0, 183.07 0, 237.57 0 M19.43 0 C83.5 0, 147.57 0, 237.57 0 M237.57 0 C250.52 0, 257 6.48, 257 19.43 M237.57 0 C250.52 0, 257 6.48, 257 19.43 M257 19.43 C257 29.56, 257 39.69, 257 58.28 M257 19.43 C257 27.34, 257 35.26, 257 58.28 M257 58.28 C257 71.23, 250.52 77.7, 237.57 77.7 M257 58.28 C257 71.23, 250.52 77.7, 237.57 77.7 M237.57 77.7 C193.47 77.7, 149.37 77.7, 19.43 77.7 M237.57 77.7 C177.33 77.7, 117.08 77.7, 19.43 77.7 M19.43 77.7 C6.48 77.7, 0 71.23, 0 58.28 M19.43 77.7 C6.48 77.7, 0 71.23, 0 58.28 M0 58.28 C0 44.57, 0 30.87, 0 19.43 M0 58.28 C0 45.2, 0 32.12, 0 19.43 M0 19.43 C0 6.48, 6.48 0, 19.43 0 M0 19.43 C0 6.48, 6.48 0, 19.43 0" stroke="#000000" stroke-width="1" fill="none"></path></g><g transform="translate(2039.2144484270584 2519.7027543631357) rotate(0 65 16)"><text x="65" y="25" font-family="Helvetica, Segoe UI Emoji" font-size="28px" fill="#000000" text-anchor="middle" style="white-space: pre;" direction="ltr">Unterkunft</text></g><g stroke-linecap="round" transform="translate(1967.4230485210355 1693.4553503099335) rotate(0 130 37)"><path d="M18.5 0 M18.5 0 C92.43 0, 166.36 0, 241.5 0 M18.5 0 C74.39 0, 130.28 0, 241.5 0 M241.5 0 C253.83 0, 260 6.17, 260 18.5 M241.5 0 C253.83 0, 260 6.17, 260 18.5 M260 18.5 C260 27.5, 260 36.5, 260 55.5 M260 18.5 C260 30.93, 260 43.37, 260 55.5 M260 55.5 C260 67.83, 253.83 74, 241.5 74 M260 55.5 C260 67.83, 253.83 74, 241.5 74 M241.5 74 C179.19 74, 116.88 74, 18.5 74 M241.5 74 C173 74, 104.5 74, 18.5 74 M18.5 74 C6.17 74, 0 67.83, 0 55.5 M18.5 74 C6.17 74, 0 67.83, 0 55.5 M0 55.5 C0 43.09, 0 30.68, 0 18.5 M0 55.5 C0 44.7, 0 33.91, 0 18.5 M0 18.5 C0 6.17, 6.17 0, 18.5 0 M0 18.5 C0 6.17, 6.17 0, 18.5 0" stroke="#000000" stroke-width="1" fill="none"></path></g><g transform="translate(2032.4230485210355 1714.4553503099335) rotate(0 65 16)"><text x="65" y="25" font-family="Helvetica, Segoe UI Emoji" font-size="28px" fill="#000000" text-anchor="middle" style="white-space: pre;" direction="ltr">Statistiken</text></g><g stroke-linecap="round" transform="translate(3559.320797124109 755.0624944989871) rotate(360.61088775432404 137.5 38.49999999999994)"><path d="M19.25 0 M19.25 0 C75.16 0, 131.06 0, 255.75 0 M19.25 0 C76.16 0, 133.06 0, 255.75 0 M255.75 0 C268.58 0, 275 6.42, 275 19.25 M255.75 0 C268.58 0, 275 6.42, 275 19.25 M275 19.25 C275 33.09, 275 46.92, 275 57.75 M275 19.25 C275 33.22, 275 47.19, 275 57.75 M275 57.75 C275 70.58, 268.58 77, 255.75 77 M275 57.75 C275 70.58, 268.58 77, 255.75 77 M255.75 77 C162.31 77, 68.86 77, 19.25 77 M255.75 77 C186.66 77, 117.57 77, 19.25 77 M19.25 77 C6.42 77, 0 70.58, 0 57.75 M19.25 77 C6.42 77, 0 70.58, 0 57.75 M0 57.75 C0 46.97, 0 36.19, 0 19.25 M0 57.75 C0 43.75, 0 29.75, 0 19.25 M0 19.25 C0 6.42, 6.42 0, 19.25 0 M0 19.25 C0 6.42, 6.42 0, 19.25 0" stroke="#000000" stroke-width="1" fill="none"></path></g><g transform="translate(3616.320797124109 777.5624944989869) rotate(360.61088775432404 80.5 16)"><text x="80.5" y="25" font-family="Helvetica, Segoe UI Emoji" font-size="28px" fill="#000000" text-anchor="middle" style="white-space: pre;" direction="ltr">Supermärkte</text></g><g stroke-linecap="round" transform="translate(3569.027505518552 974.4766718619001) rotate(360.61088775432404 114.5 53)"><path d="M26.5 0 M26.5 0 C73.93 0, 121.36 0, 202.5 0 M26.5 0 C68.11 0, 109.71 0, 202.5 0 M202.5 0 C220.17 0, 229 8.83, 229 26.5 M202.5 0 C220.17 0, 229 8.83, 229 26.5 M229 26.5 C229 47.05, 229 67.6, 229 79.5 M229 26.5 C229 45.55, 229 64.6, 229 79.5 M229 79.5 C229 97.17, 220.17 106, 202.5 106 M229 79.5 C229 97.17, 220.17 106, 202.5 106 M202.5 106 C144.69 106, 86.87 106, 26.5 106 M202.5 106 C132.96 106, 63.42 106, 26.5 106 M26.5 106 C8.83 106, 0 97.17, 0 79.5 M26.5 106 C8.83 106, 0 97.17, 0 79.5 M0 79.5 C0 61.91, 0 44.31, 0 26.5 M0 79.5 C0 64.66, 0 49.82, 0 26.5 M0 26.5 C0 8.83, 8.83 0, 26.5 0 M0 26.5 C0 8.83, 8.83 0, 26.5 0" stroke="#000000" stroke-width="1" fill="none"></path></g><g transform="translate(3594.527505518552 979.4766718619001) rotate(360.61088775432404 89 48)"><text x="89" y="25" font-family="Helvetica, Segoe UI Emoji" font-size="28px" fill="#000000" text-anchor="middle" style="white-space: pre;" direction="ltr">Gastronomie </text><text x="89" y="57" font-family="Helvetica, Segoe UI Emoji" font-size="28px" fill="#000000" text-anchor="middle" style="white-space: pre;" direction="ltr">(Unterkünfte / </text><text x="89" y="89" font-family="Helvetica, Segoe UI Emoji" font-size="28px" fill="#000000" text-anchor="middle" style="white-space: pre;" direction="ltr">Restaurants)</text></g><g transform="translate(258.38402093135164 1013.1806954547592) rotate(0 54 11.500000000000114)"><text x="54" y="18" font-family="Helvetica, Segoe UI Emoji" font-size="20px" fill="#000000" text-anchor="middle" style="white-space: pre;" direction="ltr">verfügt über</text></g><g mask="url(#mask-zyXJObal5FjUTd6ijylI7)" stroke-linecap="round"><g transform="translate(289.03989106634026 843.0178202639725) rotate(0 342.21252503812934 -270.99874535313336)"><path d="M0 0 C114.07 -90.33, 570.35 -451.66, 684.43 -542 M0 0 C114.07 -90.33, 570.35 -451.66, 684.43 -542" stroke="#000000" stroke-width="1" fill="none"></path></g><g transform="translate(289.03989106634026 843.0178202639725) rotate(0 342.21252503812934 -270.99874535313336)"><path d="M684.43 -542 L677.7 -528.59 L669.83 -538.53 L684.43 -542" stroke="none" stroke-width="0" fill="#000000" fill-rule="evenodd"></path><path d="M684.43 -542 C682.75 -538.66, 681.08 -535.33, 677.7 -528.59 M684.43 -542 C681.76 -536.68, 679.09 -531.36, 677.7 -528.59 M677.7 -528.59 C674.63 -532.47, 671.55 -536.36, 669.83 -538.53 M677.7 -528.59 C674.77 -532.3, 671.83 -536.01, 669.83 -538.53 M669.83 -538.53 C675.33 -539.83, 680.83 -541.14, 684.43 -542 M669.83 -538.53 C674.6 -539.66, 679.38 -540.8, 684.43 -542 M684.43 -542 C684.43 -542, 684.43 -542, 684.43 -542 M684.43 -542 C684.43 -542, 684.43 -542, 684.43 -542" stroke="#000000" stroke-width="1" fill="none"></path></g></g><mask id="mask-zyXJObal5FjUTd6ijylI7"><rect x="0" y="0" fill="#fff" width="1073.464941142599" height="1485.0153109702392"></rect><rect x="616.7524161044694" y="560.5190749108392" fill="#000" width="29" height="23" opacity="1"></rect></mask><g mask="url(#mask-WVK-mumzNrXcyaWsjm62Q)" stroke-linecap="round"><g transform="translate(1261.6125113367289 851.6101446053967) rotate(0 -95.29304693421591 -261.75551918172675)"><path d="M0.61 0.75 C-31.3 -86.43, -158.59 -435.01, -190.71 -522.43 M-0.53 0.11 C-32.58 -87.5, -159.09 -437.1, -191.19 -524.27" stroke="#000000" stroke-width="1" fill="none"></path></g><g transform="translate(1261.6125113367289 851.6101446053967) rotate(0 -95.29304693421591 -261.75551918172675)"><path d="M-189.19 -526.11 L-180.91 -512.07 L-190.85 -510.68 L-190.14 -524.12" stroke="none" stroke-width="0" fill="#000000" fill-rule="evenodd"></path><path d="M-190.25 -523.15 C-186.64 -521.16, -184.5 -518.14, -180.07 -514.95 M-191.07 -524.53 C-188.71 -521.9, -186.13 -517.75, -179.84 -514.37 M-179.99 -514.74 C-184.99 -510.87, -189.62 -511.25, -191.25 -509.74 M-180.65 -514.19 C-183.71 -512.16, -187.81 -510.82, -192.34 -509.48 M-193.48 -509.75 C-193.53 -514.67, -193.06 -517.04, -190.79 -525.13 M-193.11 -509.91 C-192.91 -514.03, -192.53 -519.23, -191.32 -524.83 M-191.19 -524.27 C-191.19 -524.27, -191.19 -524.27, -191.19 -524.27 M-191.19 -524.27 C-191.19 -524.27, -191.19 -524.27, -191.19 -524.27" stroke="#000000" stroke-width="1" fill="none"></path></g></g><mask id="mask-WVK-mumzNrXcyaWsjm62Q"><rect x="0" y="0" fill="#fff" width="1553.2221117617237" height="1474.586174825254"></rect><rect x="1151.307711124231" y="578.6221294954682" fill="#000" width="29" height="23" opacity="1"></rect></mask><g mask="url(#mask-BOa7kSVRba_cnSUEPP1O1)" stroke-linecap="round"><g transform="translate(3171.197474514239 838.5457347985514) rotate(0 -1046.3923367656646 -413.7218310907561)"><path d="M1.13 1.1 C-205.99 -133.28, -894.5 -705.36, -1243.67 -805.3 C-1592.85 -905.23, -1952.22 -633.13, -2093.92 -598.5 M0.27 0.64 C-206.96 -134.15, -896.12 -707.27, -1244.75 -806.9 C-1593.39 -906.54, -1949.99 -631.75, -2091.55 -597.2" stroke="#000000" stroke-width="1" fill="none"></path></g><g transform="translate(3171.197474514239 838.5457347985514) rotate(0 -1046.3923367656646 -413.7218310907561)"><path d="M-2089.95 -596.05 L-2083.24 -606.88 L-2076.65 -595.22 L-2090.56 -596.04" stroke="none" stroke-width="0" fill="#000000" fill-rule="evenodd"></path><path d="M-2090.18 -597.51 C-2088.21 -601.09, -2087.25 -603.56, -2080.52 -608.12 M-2090.85 -596.97 C-2088.34 -599.62, -2086.54 -603.42, -2082.3 -608.05 M-2081.89 -607.49 C-2078.99 -605.84, -2077.83 -601.42, -2077.25 -596.76 M-2081.74 -608.15 C-2080.34 -604.67, -2078.2 -601.79, -2076.04 -596.86 M-2077.23 -597.27 C-2081.65 -596.58, -2085.69 -597.94, -2090.84 -598.44 M-2076.36 -596.44 C-2080.94 -596.82, -2086.53 -596.49, -2091.44 -597.16 M-2091.55 -597.2 C-2091.55 -597.2, -2091.55 -597.2, -2091.55 -597.2 M-2091.55 -597.2 C-2091.55 -597.2, -2091.55 -597.2, -2091.55 -597.2" stroke="#000000" stroke-width="1" fill="none"></path></g></g><mask id="mask-BOa7kSVRba_cnSUEPP1O1"><rect x="0" y="0" fill="#fff" width="5364.107562316476" height="1744.81912213521"></rect><rect x="1913.2776502158886" y="20.772347461892878" fill="#000" width="29" height="23" opacity="1"></rect></mask><g transform="translate(2195.8122859392824 892.9571032809481) rotate(0 34.000000000000455 11.5)"><text x="34" y="18" font-family="Helvetica, Segoe UI Emoji" font-size="20px" fill="#000000" text-anchor="middle" style="white-space: pre;" direction="ltr">führt zu</text></g><g mask="url(#mask-vFXCsbwLyQ9VZkmrNskMe)" stroke-linecap="round"><g transform="translate(1366.9273627590937 869.8525478505505) rotate(0 151.84123101000068 -52.158870474396224)"><path d="M0.43 -0.07 C50.62 -16.98, 251.75 -85.13, 302.23 -102.34 M-0.8 -1.16 C49.67 -18.35, 253.89 -87.39, 304.48 -104.24" stroke="#000000" stroke-width="1" fill="none"></path></g><g transform="translate(1366.9273627590937 869.8525478505505) rotate(0 151.84123101000068 -52.158870474396224)"><path d="M305.71 -105.84 L295.1 -92.63 L289.07 -104.5 L303.51 -104.94" stroke="none" stroke-width="0" fill="#000000" fill-rule="evenodd"></path><path d="M304.39 -105.35 C300.65 -99.86, 295.19 -97.15, 294.56 -93.34 M304.03 -104.81 C301.06 -101.18, 297 -97.64, 293.17 -93.88 M294.81 -93.39 C292.57 -97.91, 290.88 -101.88, 289.83 -105.28 M293.04 -93.82 C292.78 -97.02, 290.69 -100.45, 289.48 -106.3 M290.42 -105.03 C294.5 -106.51, 297.04 -105.66, 304.62 -105.32 M289.22 -106.27 C293.3 -106.23, 296.61 -105.81, 304.94 -104.09 M304.48 -104.24 C304.48 -104.24, 304.48 -104.24, 304.48 -104.24 M304.48 -104.24 C304.48 -104.24, 304.48 -104.24, 304.48 -104.24" stroke="#000000" stroke-width="1" fill="none"></path></g></g><mask id="mask-vFXCsbwLyQ9VZkmrNskMe"><rect x="0" y="0" fill="#fff" width="1770.0446274015176" height="1072.5975649513055"></rect><rect x="1408.9859950803057" y="786.4800393001731" fill="#000" width="219" height="64" opacity="1"></rect></mask><g mask="url(#mask-lRMHP1j5D6heIPpeotL83)" stroke-linecap="round"><g transform="translate(1321.8783108341158 952.6759184935238) rotate(0 83.3868255897305 193.17860912202673)"><path d="M0 0 C27.8 64.39, 138.98 321.96, 166.77 386.36 M0 0 C27.8 64.39, 138.98 321.96, 166.77 386.36" stroke="#000000" stroke-width="1" fill="none"></path></g><g transform="translate(1321.8783108341158 952.6759184935238) rotate(0 83.3868255897305 193.17860912202673)"><path d="M166.77 386.36 L155.57 376.39 L167.21 371.36 L166.77 386.36" stroke="none" stroke-width="0" fill="#000000" fill-rule="evenodd"></path><path d="M166.77 386.36 C164.37 384.22, 161.96 382.08, 155.57 376.39 M166.77 386.36 C163.27 383.24, 159.77 380.13, 155.57 376.39 M155.57 376.39 C160 374.47, 164.44 372.56, 167.21 371.36 M155.57 376.39 C158.04 375.32, 160.52 374.25, 167.21 371.36 M167.21 371.36 C167.1 375.04, 166.99 378.72, 166.77 386.36 M167.21 371.36 C167.07 376.09, 166.93 380.81, 166.77 386.36 M166.77 386.36 C166.77 386.36, 166.77 386.36, 166.77 386.36 M166.77 386.36 C166.77 386.36, 166.77 386.36, 166.77 386.36" stroke="#000000" stroke-width="1" fill="none"></path></g></g><mask id="mask-lRMHP1j5D6heIPpeotL83"><rect x="0" y="0" fill="#fff" width="1588.6519620135768" height="1439.0331367375773"></rect><rect x="1361.7651364238463" y="1134.3545276155505" fill="#000" width="87" height="23" opacity="1"></rect></mask><g transform="translate(119.44157082885204 1259.093753921682) rotate(0 19 11.499999999999886)"><text x="19" y="18" font-family="Helvetica, Segoe UI Emoji" font-size="20px" fill="#000000" text-anchor="middle" style="white-space: pre;" direction="ltr">sind</text></g><g mask="url(#mask-Pow8jfHtSa70KL2GpwkAH)" stroke-linecap="round"><g transform="translate(1254.9860588068154 950.2692317471922) rotate(0 298.2054392253897 574.9638562543257)"><path d="M0 0 C-14.58 108.68, -207.99 460.4, -87.45 652.06 C33.09 843.71, 588.11 1066.95, 723.22 1149.93 M0 0 C-14.58 108.68, -207.99 460.4, -87.45 652.06 C33.09 843.71, 588.11 1066.95, 723.22 1149.93" stroke="#000000" stroke-width="1" fill="none"></path></g><g transform="translate(1254.9860588068154 950.2692317471922) rotate(0 298.2054392253897 574.9638562543257)"><path d="M723.22 1149.93 L708.23 1149.41 L713.98 1138.11 L723.22 1149.93" stroke="none" stroke-width="0" fill="#000000" fill-rule="evenodd"></path><path d="M723.22 1149.93 C718.46 1149.76, 713.69 1149.6, 708.23 1149.41 M723.22 1149.93 C719.44 1149.8, 715.65 1149.66, 708.23 1149.41 M708.23 1149.41 C710.05 1145.83, 711.87 1142.26, 713.98 1138.11 M708.23 1149.41 C709.94 1146.06, 711.64 1142.71, 713.98 1138.11 M713.98 1138.11 C717.01 1141.98, 720.04 1145.85, 723.22 1149.93 M713.98 1138.11 C716.28 1141.05, 718.58 1143.99, 723.22 1149.93 M723.22 1149.93 C723.22 1149.93, 723.22 1149.93, 723.22 1149.93 M723.22 1149.93 C723.22 1149.93, 723.22 1149.93, 723.22 1149.93" stroke="#000000" stroke-width="1" fill="none"></path></g></g><mask id="mask-Pow8jfHtSa70KL2GpwkAH"><rect x="0" y="0" fill="#fff" width="2165.6587513326126" height="2200.196944255844"></rect><rect x="1123.5353840314997" y="1590.8243689232122" fill="#000" width="88" height="23" opacity="1"></rect></mask><g mask="url(#mask-251aUwVaNwQ9sJU76m1Qh)" stroke-linecap="round"><g transform="translate(1255.4637515644272 950.8644439138466) rotate(0 317.4751848739536 395.21753126025044)"><path d="M0 0 C-3.53 100.91, -138.54 473.72, -21.21 605.46 C96.13 737.2, 583.12 759.61, 703.99 790.44 M0 0 C-3.53 100.91, -138.54 473.72, -21.21 605.46 C96.13 737.2, 583.12 759.61, 703.99 790.44" stroke="#000000" stroke-width="1" fill="none"></path></g><g transform="translate(1255.4637515644272 950.8644439138466) rotate(0 317.4751848739536 395.21753126025044)"><path d="M703.99 790.44 L689.59 794.65 L691.51 782.12 L703.99 790.44" stroke="none" stroke-width="0" fill="#000000" fill-rule="evenodd"></path><path d="M703.99 790.44 C699.27 791.82, 694.54 793.2, 689.59 794.65 M703.99 790.44 C700.44 791.47, 696.89 792.51, 689.59 794.65 M689.59 794.65 C690 791.99, 690.41 789.32, 691.51 782.12 M689.59 794.65 C690.19 790.76, 690.78 786.87, 691.51 782.12 M691.51 782.12 C695.9 785.04, 700.29 787.97, 703.99 790.44 M691.51 782.12 C695.76 784.95, 700.02 787.79, 703.99 790.44 M703.99 790.44 C703.99 790.44, 703.99 790.44, 703.99 790.44 M703.99 790.44 C703.99 790.44, 703.99 790.44, 703.99 790.44" stroke="#000000" stroke-width="1" fill="none"></path></g></g><mask id="mask-251aUwVaNwQ9sJU76m1Qh"><rect x="0" y="0" fill="#fff" width="2080.657737167163" height="1841.2995064343474"></rect><rect x="1180.25787750571" y="1544.827685880776" fill="#000" width="108" height="23" opacity="1"></rect></mask><g transform="translate(1180.25787750571 1544.8276858807758) rotate(0 392.6810589326708 -198.745710706679)"><text x="54" y="18" font-family="Helvetica, Segoe UI Emoji" font-size="20px" fill="#000000" text-anchor="middle" style="white-space: pre;" direction="ltr">verfügt über</text></g><g transform="translate(1361.7651364238463 1134.3545276155505) rotate(0 43.5 11.5)"><text x="43.5" y="18" font-family="Helvetica, Segoe UI Emoji" font-size="20px" fill="#000000" text-anchor="middle" style="white-space: pre;" direction="ltr">führt über</text></g><g mask="url(#mask-wArBGQe3w0QJu8C85lOMC)" stroke-linecap="round"><g transform="translate(1344.5359196434729 948.2360233597269) rotate(0 256.54907305880806 158.31756567155037)"><path d="M0 0 C85.52 52.77, 427.58 263.86, 513.1 316.64 M0 0 C85.52 52.77, 427.58 263.86, 513.1 316.64" stroke="#000000" stroke-width="1" fill="none"></path></g><g transform="translate(1344.5359196434729 948.2360233597269) rotate(0 256.54907305880806 158.31756567155037)"><path d="M513.1 316.64 L498.2 314.89 L504.86 304.1 L513.1 316.64" stroke="none" stroke-width="0" fill="#000000" fill-rule="evenodd"></path><path d="M513.1 316.64 C509.28 316.19, 505.46 315.74, 498.2 314.89 M513.1 316.64 C507.15 315.94, 501.2 315.24, 498.2 314.89 M498.2 314.89 C500.26 311.55, 502.33 308.2, 504.86 304.1 M498.2 314.89 C500.06 311.88, 501.92 308.87, 504.86 304.1 M504.86 304.1 C506.98 307.33, 509.1 310.55, 513.1 316.64 M504.86 304.1 C506.82 307.08, 508.77 310.06, 513.1 316.64 M513.1 316.64 C513.1 316.64, 513.1 316.64, 513.1 316.64 M513.1 316.64 C513.1 316.64, 513.1 316.64, 513.1 316.64" stroke="#000000" stroke-width="1" fill="none"></path></g></g><mask id="mask-wArBGQe3w0QJu8C85lOMC"><rect x="0" y="0" fill="#fff" width="1957.634065761089" height="1364.8711547028277"></rect><rect x="1557.084992702281" y="1095.0535890312774" fill="#000" width="88" height="23" opacity="1"></rect></mask><g mask="url(#mask-aYR3CxtI7wNNms3E0ZFEc)" stroke-linecap="round"><g transform="translate(1362.4767300393632 917.4559652614109) rotate(0 424.8264639542904 90.00689269745158)"><path d="M0 0 C141.61 30, 708.04 150.01, 849.65 180.01 M0 0 C141.61 30, 708.04 150.01, 849.65 180.01" stroke="#000000" stroke-width="1" fill="none"></path></g><g transform="translate(1362.4767300393632 917.4559652614109) rotate(0 424.8264639542904 90.00689269745158)"><path d="M849.65 180.01 L835.04 183.4 L837.67 170.99 L849.65 180.01" stroke="none" stroke-width="0" fill="#000000" fill-rule="evenodd"></path><path d="M849.65 180.01 C844.88 181.12, 840.1 182.23, 835.04 183.4 M849.65 180.01 C845.66 180.94, 841.67 181.86, 835.04 183.4 M835.04 183.4 C835.65 180.5, 836.27 177.61, 837.67 170.99 M835.04 183.4 C835.74 180.1, 836.44 176.81, 837.67 170.99 M837.67 170.99 C842.34 174.51, 847.02 178.03, 849.65 180.01 M837.67 170.99 C840.11 172.83, 842.56 174.67, 849.65 180.01 M849.65 180.01 C849.65 180.01, 849.65 180.01, 849.65 180.01 M849.65 180.01 C849.65 180.01, 849.65 180.01, 849.65 180.01" stroke="#000000" stroke-width="1" fill="none"></path></g></g><mask id="mask-aYR3CxtI7wNNms3E0ZFEc"><rect x="0" y="0" fill="#fff" width="2312.129657947944" height="1197.469750656314"></rect><rect x="1743.3031939936536" y="995.9628579588625" fill="#000" width="88" height="23" opacity="1"></rect></mask><g mask="url(#mask-1_oRnuNAl0NDAB3F0dqH0)" stroke-linecap="round"><g transform="translate(1254.9846419526539 951.3831873759875) rotate(0 263.4584324187324 796.6558223388924)"><path d="M0 0 C-25.68 136.27, -272.96 552.05, -154.1 817.6 C-35.24 1083.15, 568.61 1464.03, 713.15 1593.31 M0 0 C-25.68 136.27, -272.96 552.05, -154.1 817.6 C-35.24 1083.15, 568.61 1464.03, 713.15 1593.31" stroke="#000000" stroke-width="1" fill="none"></path></g><g transform="translate(1254.9846419526539 951.3831873759875) rotate(0 263.4584324187324 796.6558223388924)"><path d="M713.15 1593.31 L698.49 1590.11 L706.18 1580.03 L713.15 1593.31" stroke="none" stroke-width="0" fill="#000000" fill-rule="evenodd"></path><path d="M713.15 1593.31 C709.47 1592.51, 705.78 1591.7, 698.49 1590.11 M713.15 1593.31 C708.75 1592.35, 704.36 1591.39, 698.49 1590.11 M698.49 1590.11 C700.35 1587.68, 702.2 1585.25, 706.18 1580.03 M698.49 1590.11 C700.89 1586.96, 703.29 1583.82, 706.18 1580.03 M706.18 1580.03 C708.22 1583.91, 710.25 1587.79, 713.15 1593.31 M706.18 1580.03 C707.77 1583.05, 709.36 1586.08, 713.15 1593.31 M713.15 1593.31 C713.15 1593.31, 713.15 1593.31, 713.15 1593.31 M713.15 1593.31 C713.15 1593.31, 713.15 1593.31, 713.15 1593.31" stroke="#000000" stroke-width="1" fill="none"></path></g></g><mask id="mask-1_oRnuNAl0NDAB3F0dqH0"><rect x="0" y="0" fill="#fff" width="2222.233768337412" height="2644.694832053772"></rect><rect x="1086.383851377609" y="1757.4837767563831" fill="#000" width="29" height="23" opacity="1"></rect></mask><g transform="translate(1086.3838513776086 1757.4837767563831) rotate(0 432.05922299377767 -9.444767041503383)"><text x="14.5" y="18" font-family="Helvetica, Segoe UI Emoji" font-size="20px" fill="#000000" text-anchor="middle" style="white-space: pre;" direction="ltr">hat</text></g><g mask="url(#mask-0CYQUYrTBDwzStW-GS-a4)" stroke-linecap="round"><g transform="translate(1360.8815784184126 917.2913965349705) rotate(0 646.0372544627653 50.404964582183425)"><path d="M0 0 C215.35 16.8, 1076.73 84.01, 1292.07 100.81 M0 0 C215.35 16.8, 1076.73 84.01, 1292.07 100.81" stroke="#000000" stroke-width="1" fill="none"></path></g><g transform="translate(1360.8815784184126 917.2913965349705) rotate(0 646.0372544627653 50.404964582183425)"><path d="M1292.07 100.81 L1278.03 106.07 L1279.01 93.43 L1292.07 100.81" stroke="none" stroke-width="0" fill="#000000" fill-rule="evenodd"></path><path d="M1292.07 100.81 C1288.96 101.98, 1285.84 103.14, 1278.03 106.07 M1292.07 100.81 C1286.93 102.74, 1281.8 104.66, 1278.03 106.07 M1278.03 106.07 C1278.36 101.88, 1278.68 97.68, 1279.01 93.43 M1278.03 106.07 C1278.33 102.21, 1278.63 98.35, 1279.01 93.43 M1279.01 93.43 C1283.14 95.76, 1287.26 98.09, 1292.07 100.81 M1279.01 93.43 C1283.66 96.06, 1288.3 98.68, 1292.07 100.81 M1292.07 100.81 C1292.07 100.81, 1292.07 100.81, 1292.07 100.81 M1292.07 100.81 C1292.07 100.81, 1292.07 100.81, 1292.07 100.81" stroke="#000000" stroke-width="1" fill="none"></path></g></g><mask id="mask-0CYQUYrTBDwzStW-GS-a4"><rect x="0" y="0" fill="#fff" width="2752.956087343943" height="1118.1013256993374"></rect><rect x="1971.4188328811779" y="956.1963611171536" fill="#000" width="71" height="23" opacity="1"></rect></mask><g mask="url(#mask-Y-B_MSCGgdX4shQo2B-BF)" stroke-linecap="round"><g transform="translate(3280.7236579087103 913.2586903359995) rotate(0 139.58958521096338 56.27241809199768)"><path d="M0 0 C46.53 18.76, 232.65 93.79, 279.18 112.54 M0 0 C46.53 18.76, 232.65 93.79, 279.18 112.54" stroke="#000000" stroke-width="1" fill="none"></path></g><g transform="translate(3280.7236579087103 913.2586903359995) rotate(0 139.58958521096338 56.27241809199768)"><path d="M279.18 112.54 L264.2 113.34 L268.94 101.58 L279.18 112.54" stroke="none" stroke-width="0" fill="#000000" fill-rule="evenodd"></path><path d="M279.18 112.54 C273.25 112.86, 267.33 113.18, 264.2 113.34 M279.18 112.54 C273.97 112.82, 268.77 113.1, 264.2 113.34 M264.2 113.34 C265.2 110.85, 266.21 108.36, 268.94 101.58 M264.2 113.34 C266 108.88, 267.79 104.42, 268.94 101.58 M268.94 101.58 C272.96 105.88, 276.97 110.18, 279.18 112.54 M268.94 101.58 C273.01 105.94, 277.08 110.29, 279.18 112.54 M279.18 112.54 C279.18 112.54, 279.18 112.54, 279.18 112.54 M279.18 112.54 C279.18 112.54, 279.18 112.54, 279.18 112.54" stroke="#000000" stroke-width="1" fill="none"></path></g></g><mask id="mask-Y-B_MSCGgdX4shQo2B-BF"><rect x="0" y="0" fill="#fff" width="3659.902828330637" height="1125.8035265199949"></rect><rect x="3405.8132431196746" y="958.031108427997" fill="#000" width="29" height="23" opacity="1"></rect></mask><g mask="url(#mask-2NVW5FjKI_3mD18P7312C)" stroke-linecap="round"><g transform="translate(3192.3884304484964 951.4537627315453) rotate(0 -478.1075356288384 393.7383385051818)"><path d="M0 0 C-87.95 102.85, -368.32 485.83, -527.69 617.07 C-687.06 748.32, -884.79 759.08, -956.22 787.48 M0 0 C-87.95 102.85, -368.32 485.83, -527.69 617.07 C-687.06 748.32, -884.79 759.08, -956.22 787.48" stroke="#000000" stroke-width="1" fill="none"></path></g><g transform="translate(3192.3884304484964 951.4537627315453) rotate(0 -478.1075356288384 393.7383385051818)"><path d="M-956.22 787.48 L-944.66 777.91 L-941.46 790.18 L-956.22 787.48" stroke="none" stroke-width="0" fill="#000000" fill-rule="evenodd"></path><path d="M-956.22 787.48 C-951.82 783.84, -947.43 780.2, -944.66 777.91 M-956.22 787.48 C-952.39 784.31, -948.57 781.14, -944.66 777.91 M-944.66 777.91 C-943.51 782.31, -942.36 786.71, -941.46 790.18 M-944.66 777.91 C-943.48 782.45, -942.29 786.99, -941.46 790.18 M-941.46 790.18 C-947.12 789.14, -952.79 788.1, -956.22 787.48 M-941.46 790.18 C-945.03 789.52, -948.6 788.87, -956.22 787.48 M-956.22 787.48 C-956.22 787.48, -956.22 787.48, -956.22 787.48 M-956.22 787.48 C-956.22 787.48, -956.22 787.48, -956.22 787.48" stroke="#000000" stroke-width="1" fill="none"></path></g></g><mask id="mask-2NVW5FjKI_3mD18P7312C"><rect x="0" y="0" fill="#fff" width="4248.603501706173" height="1838.930439741909"></rect><rect x="2610.6956775747585" y="1557.0281119702574" fill="#000" width="108" height="23" opacity="1"></rect></mask><g transform="translate(3405.8132431196736 958.0311084279974) rotate(0 14.5 11.5)"><text x="14.5" y="18" font-family="Helvetica, Segoe UI Emoji" font-size="20px" fill="#000000" text-anchor="middle" style="white-space: pre;" direction="ltr">hat</text></g><g mask="url(#mask-N-ww7RzVj-n1137FN2uC5)" stroke-linecap="round"><g transform="translate(3280.062367123027 891.6538704367622) rotate(0 135.4532768388258 -50.44154073241481)"><path d="M0 0 C45.15 -16.81, 225.76 -84.07, 270.91 -100.88 M0 0 C45.15 -16.81, 225.76 -84.07, 270.91 -100.88" stroke="#000000" stroke-width="1" fill="none"></path></g><g transform="translate(3280.062367123027 891.6538704367622) rotate(0 135.4532768388258 -50.44154073241481)"><path d="M270.91 -100.88 L260.38 -90.2 L255.95 -102.08 L270.91 -100.88" stroke="none" stroke-width="0" fill="#000000" fill-rule="evenodd"></path><path d="M270.91 -100.88 C268.4 -98.34, 265.89 -95.79, 260.38 -90.2 M270.91 -100.88 C267.93 -97.86, 264.95 -94.84, 260.38 -90.2 M260.38 -90.2 C258.78 -94.5, 257.18 -98.8, 255.95 -102.08 M260.38 -90.2 C258.98 -93.95, 257.59 -97.7, 255.95 -102.08 M255.95 -102.08 C259.9 -101.76, 263.84 -101.45, 270.91 -100.88 M255.95 -102.08 C260.76 -101.7, 265.56 -101.31, 270.91 -100.88 M270.91 -100.88 C270.91 -100.88, 270.91 -100.88, 270.91 -100.88 M270.91 -100.88 C270.91 -100.88, 270.91 -100.88, 270.91 -100.88" stroke="#000000" stroke-width="1" fill="none"></path></g></g><mask id="mask-N-ww7RzVj-n1137FN2uC5"><rect x="0" y="0" fill="#fff" width="3650.9689208006785" height="1092.5369519015917"></rect><rect x="3401.015643961854" y="829.7123297043474" fill="#000" width="29" height="23" opacity="1"></rect></mask><g mask="url(#mask-TMZf0_ROE8pKaednMlok2)" stroke-linecap="round"><g transform="translate(3099.0418390752166 878.4604550271004) rotate(0 -534.3476950783952 -56.043158756213074)"><path d="M0 0 C-178.12 -18.68, -890.58 -93.41, -1068.7 -112.09 M0 0 C-178.12 -18.68, -890.58 -93.41, -1068.7 -112.09" stroke="#000000" stroke-width="1" fill="none"></path></g><g transform="translate(3099.0418390752166 878.4604550271004) rotate(0 -534.3476950783952 -56.043158756213074)"><path d="M-1068.7 -112.09 L-1054.51 -116.97 L-1055.84 -104.36 L-1068.7 -112.09" stroke="none" stroke-width="0" fill="#000000" fill-rule="evenodd"></path><path d="M-1068.7 -112.09 C-1065.11 -113.32, -1061.53 -114.55, -1054.51 -116.97 M-1068.7 -112.09 C-1063.42 -113.9, -1058.15 -115.72, -1054.51 -116.97 M-1054.51 -116.97 C-1054.96 -112.71, -1055.41 -108.46, -1055.84 -104.36 M-1054.51 -116.97 C-1055 -112.33, -1055.49 -107.69, -1055.84 -104.36 M-1055.84 -104.36 C-1058.57 -106, -1061.3 -107.64, -1068.7 -112.09 M-1055.84 -104.36 C-1060.55 -107.2, -1065.27 -110.03, -1068.7 -112.09 M-1068.7 -112.09 C-1068.7 -112.09, -1068.7 -112.09, -1068.7 -112.09 M-1068.7 -112.09 C-1068.7 -112.09, -1068.7 -112.09, -1068.7 -112.09" stroke="#000000" stroke-width="1" fill="none"></path></g></g><mask id="mask-TMZf0_ROE8pKaednMlok2"><rect x="0" y="0" fill="#fff" width="4267.737229232007" height="1090.5467725395265"></rect><rect x="2503.6941439968214" y="806.4172962708874" fill="#000" width="122" height="32" opacity="1"></rect></mask><g stroke-linecap="round" transform="translate(1999.364113089774 2140.6149139144263) rotate(0 94.5 31.5)"><path d="M15.75 0 M15.75 0 C69.22 0, 122.68 0, 173.25 0 M173.25 0 C183.75 0, 189 5.25, 189 15.75 M189 15.75 C189 25.75, 189 35.76, 189 47.25 M189 47.25 C189 57.75, 183.75 63, 173.25 63 M173.25 63 C111.33 63, 49.41 63, 15.75 63 M15.75 63 C5.25 63, 0 57.75, 0 47.25 M0 47.25 C0 40.64, 0 34.03, 0 15.75 M0 15.75 C0 5.25, 5.25 0, 15.75 0" stroke="#000000" stroke-width="1.5" fill="none" stroke-dasharray="8 9"></path></g><g transform="translate(2063.864113089774 2163.1149139144263) rotate(0 30 9)"><text x="30" y="14" font-family="Helvetica, Segoe UI Emoji" font-size="16px" fill="#000000" text-anchor="middle" style="white-space: pre;" direction="ltr">Adresse</text></g><g stroke-linecap="round" transform="translate(2000.1808950130126 2219.8105353376227) rotate(0 94.5 31.5)"><path d="M15.75 0 M15.75 0 C71.34 0, 126.92 0, 173.25 0 M173.25 0 C183.75 0, 189 5.25, 189 15.75 M189 15.75 C189 26.07, 189 36.39, 189 47.25 M189 47.25 C189 57.75, 183.75 63, 173.25 63 M173.25 63 C129.19 63, 85.13 63, 15.75 63 M15.75 63 C5.25 63, 0 57.75, 0 47.25 M0 47.25 C0 38.12, 0 29, 0 15.75 M0 15.75 C0 5.25, 5.25 0, 15.75 0" stroke="#000000" stroke-width="1.5" fill="none" stroke-dasharray="8 9"></path></g><g transform="translate(2056.1808950130126 2242.3105353376222) rotate(0 38.5 9)"><text x="38.5" y="14" font-family="Helvetica, Segoe UI Emoji" font-size="16px" fill="#000000" text-anchor="middle" style="white-space: pre;" direction="ltr">Bewertung</text></g><g stroke-linecap="round" transform="translate(1996.8475616796786 2292.032757559845) rotate(0 94.5 31.5)"><path d="M15.75 0 M15.75 0 C78.07 0, 140.4 0, 173.25 0 M173.25 0 C183.75 0, 189 5.25, 189 15.75 M189 15.75 C189 25.94, 189 36.13, 189 47.25 M189 47.25 C189 57.75, 183.75 63, 173.25 63 M173.25 63 C118.81 63, 64.37 63, 15.75 63 M15.75 63 C5.25 63, 0 57.75, 0 47.25 M0 47.25 C0 39.86, 0 32.46, 0 15.75 M0 15.75 C0 5.25, 5.25 0, 15.75 0" stroke="#000000" stroke-width="1.5" fill="none" stroke-dasharray="8 9"></path></g><g transform="translate(2042.3475616796786 2314.532757559845) rotate(0 49 9)"><text x="49" y="14" font-family="Helvetica, Segoe UI Emoji" font-size="16px" fill="#000000" text-anchor="middle" style="white-space: pre;" direction="ltr">Besucherzahl</text></g><g stroke-linecap="round" transform="translate(1998.5820278609172 2368.7047881180874) rotate(0 94.5 31.5)"><path d="M15.75 0 M15.75 0 C69.78 0, 123.81 0, 173.25 0 M173.25 0 C183.75 0, 189 5.25, 189 15.75 M189 15.75 C189 25.97, 189 36.2, 189 47.25 M189 47.25 C189 57.75, 183.75 63, 173.25 63 M173.25 63 C111.38 63, 49.51 63, 15.75 63 M15.75 63 C5.25 63, 0 57.75, 0 47.25 M0 47.25 C0 35.66, 0 24.08, 0 15.75 M0 15.75 C0 5.25, 5.25 0, 15.75 0" stroke="#000000" stroke-width="1.5" fill="none" stroke-dasharray="8 9"></path></g><g stroke-linecap="round" transform="translate(2001.0899206697432 1844.8445059781636) rotate(0 94.5 31.5)"><path d="M15.75 0 M15.75 0 C75.41 0, 135.07 0, 173.25 0 M173.25 0 C183.75 0, 189 5.25, 189 15.75 M189 15.75 C189 26.13, 189 36.51, 189 47.25 M189 47.25 C189 57.75, 183.75 63, 173.25 63 M173.25 63 C115.43 63, 57.61 63, 15.75 63 M15.75 63 C5.25 63, 0 57.75, 0 47.25 M0 47.25 C0 36.11, 0 24.97, 0 15.75 M0 15.75 C0 5.25, 5.25 0, 15.75 0" stroke="#000000" stroke-width="1.5" fill="none" stroke-dasharray="8 9"></path></g><g transform="translate(2067.582027860917 2391.2047881180874) rotate(0 25.5 9)"><text x="25.5" y="14" font-family="Helvetica, Segoe UI Emoji" font-size="16px" fill="#000000" text-anchor="middle" style="white-space: pre;" direction="ltr">Kosten</text></g><g stroke-linecap="round" transform="translate(2001.8669965790177 1773.3540897197374) rotate(0 94.5 31.5)"><path d="M15.75 0 M15.75 0 C76.72 0, 137.7 0, 173.25 0 M173.25 0 C183.75 0, 189 5.25, 189 15.75 M189 15.75 C189 22.41, 189 29.06, 189 47.25 M189 47.25 C189 57.75, 183.75 63, 173.25 63 M173.25 63 C113.56 63, 53.86 63, 15.75 63 M15.75 63 C5.25 63, 0 57.75, 0 47.25 M0 47.25 C0 35.57, 0 23.9, 0 15.75 M0 15.75 C0 5.25, 5.25 0, 15.75 0" stroke="#000000" stroke-width="1.5" fill="none" stroke-dasharray="8 9"></path></g><g stroke-linecap="round" transform="translate(2002.7565873364092 1915.2173407053313) rotate(0 94.5 31.5)"><path d="M15.75 0 M15.75 0 C47.74 0, 79.72 0, 173.25 0 M173.25 0 C183.75 0, 189 5.25, 189 15.75 M189 15.75 C189 28.07, 189 40.39, 189 47.25 M189 47.25 C189 57.75, 183.75 63, 173.25 63 M173.25 63 C130.72 63, 88.2 63, 15.75 63 M15.75 63 C5.25 63, 0 57.75, 0 47.25 M0 47.25 C0 35.26, 0 23.27, 0 15.75 M0 15.75 C0 5.25, 5.25 0, 15.75 0" stroke="#000000" stroke-width="1.5" fill="none" stroke-dasharray="8 9"></path></g><g transform="translate(2071.589920669743 1867.3445059781636) rotate(0 24 9)"><text x="24" y="14" font-family="Helvetica, Segoe UI Emoji" font-size="16px" fill="#000000" text-anchor="middle" style="white-space: pre;" direction="ltr">Wetter</text></g><g transform="translate(2021.3669965790177 1795.8540897197374) rotate(0 75 9)"><text x="75" y="14" font-family="Helvetica, Segoe UI Emoji" font-size="16px" fill="#000000" text-anchor="middle" style="white-space: pre;" direction="ltr">Geographische Lage</text></g><g transform="translate(2066.756587336409 1937.7173407053313) rotate(0 30.5 9)"><text x="30.5" y="14" font-family="Helvetica, Segoe UI Emoji" font-size="16px" fill="#000000" text-anchor="middle" style="white-space: pre;" direction="ltr">Inzidenz</text></g><g stroke-linecap="round" transform="translate(2008.9996851573887 3132.5072027895812) rotate(0 94.5 31.5)"><path d="M15.75 0 M15.75 0 C70.88 0, 126.02 0, 173.25 0 M173.25 0 C183.75 0, 189 5.25, 189 15.75 M189 15.75 C189 24.23, 189 32.7, 189 47.25 M189 47.25 C189 57.75, 183.75 63, 173.25 63 M173.25 63 C130.71 63, 88.18 63, 15.75 63 M15.75 63 C5.25 63, 0 57.75, 0 47.25 M0 47.25 C0 36.56, 0 25.87, 0 15.75 M0 15.75 C0 5.25, 5.25 0, 15.75 0" stroke="#000000" stroke-width="1.5" fill="none" stroke-dasharray="8 9"></path></g><g stroke-linecap="round" transform="translate(2007.6887738910673 2584.5412664115065) rotate(0 94.5 31.5)"><path d="M15.75 0 M15.75 0 C74.79 0, 133.83 0, 173.25 0 M173.25 0 C183.75 0, 189 5.25, 189 15.75 M189 15.75 C189 24.17, 189 32.59, 189 47.25 M189 47.25 C189 57.75, 183.75 63, 173.25 63 M173.25 63 C111.4 63, 49.55 63, 15.75 63 M15.75 63 C5.25 63, 0 57.75, 0 47.25 M0 47.25 C0 36.84, 0 26.42, 0 15.75 M0 15.75 C0 5.25, 5.25 0, 15.75 0" stroke="#000000" stroke-width="1.5" fill="none" stroke-dasharray="8 9"></path></g><g transform="translate(2077.9996851573887 3155.00720278958) rotate(0 25.5 9)"><text x="25.5" y="14" font-family="Helvetica, Segoe UI Emoji" font-size="16px" fill="#000000" text-anchor="middle" style="white-space: pre;" direction="ltr">Kosten</text></g><g transform="translate(2059.1887738910673 2607.0412664115065) rotate(0 43 9)"><text x="43" y="14" font-family="Helvetica, Segoe UI Emoji" font-size="16px" fill="#000000" text-anchor="middle" style="white-space: pre;" direction="ltr">Ausstattung</text></g><g stroke-linecap="round" transform="translate(2011.0451701525435 2830.189812420992) rotate(0 94.5 31.5)"><path d="M15.75 0 M15.75 0 C48.98 0, 82.2 0, 173.25 0 M173.25 0 C183.75 0, 189 5.25, 189 15.75 M189 15.75 C189 27.06, 189 38.37, 189 47.25 M189 47.25 C189 57.75, 183.75 63, 173.25 63 M173.25 63 C124.17 63, 75.08 63, 15.75 63 M15.75 63 C5.25 63, 0 57.75, 0 47.25 M0 47.25 C0 36.06, 0 24.88, 0 15.75 M0 15.75 C0 5.25, 5.25 0, 15.75 0" stroke="#000000" stroke-width="1.5" fill="none" stroke-dasharray="8 9"></path></g><g transform="translate(2078.0451701525435 2852.689812420992) rotate(0 27.5 9)"><text x="27.5" y="14" font-family="Helvetica, Segoe UI Emoji" font-size="16px" fill="#000000" text-anchor="middle" style="white-space: pre;" direction="ltr">Kontakt</text></g><g stroke-linecap="round" transform="translate(2007.7095157138601 2665.867245358302) rotate(0 94.5 31.5)"><path d="M15.75 0 M15.75 0 C59.12 0, 102.49 0, 173.25 0 M173.25 0 C183.75 0, 189 5.25, 189 15.75 M189 15.75 C189 25.16, 189 34.57, 189 47.25 M189 47.25 C189 57.75, 183.75 63, 173.25 63 M173.25 63 C121.33 63, 69.42 63, 15.75 63 M15.75 63 C5.25 63, 0 57.75, 0 47.25 M0 47.25 C0 37.58, 0 27.91, 0 15.75 M0 15.75 C0 5.25, 5.25 0, 15.75 0" stroke="#000000" stroke-width="1.5" fill="none" stroke-dasharray="8 9"></path></g><g transform="translate(2063.70951571386 2688.367245358302) rotate(0 38.5 9)"><text x="38.5" y="14" font-family="Helvetica, Segoe UI Emoji" font-size="16px" fill="#000000" text-anchor="middle" style="white-space: pre;" direction="ltr">Bewertung</text></g><g stroke-linecap="round" transform="translate(2008.3655074835406 2749.169691227633) rotate(0 94.5 31.5)"><path d="M15.75 0 M15.75 0 C52.29 0, 88.83 0, 173.25 0 M173.25 0 C183.75 0, 189 5.25, 189 15.75 M189 15.75 C189 26.55, 189 37.35, 189 47.25 M189 47.25 C189 57.75, 183.75 63, 173.25 63 M173.25 63 C114.48 63, 55.71 63, 15.75 63 M15.75 63 C5.25 63, 0 57.75, 0 47.25 M0 47.25 C0 40.53, 0 33.81, 0 15.75 M0 15.75 C0 5.25, 5.25 0, 15.75 0" stroke="#000000" stroke-width="1.5" fill="none" stroke-dasharray="8 9"></path></g><g transform="translate(2072.8655074835406 2771.669691227633) rotate(0 30 9)"><text x="30" y="14" font-family="Helvetica, Segoe UI Emoji" font-size="16px" fill="#000000" text-anchor="middle" style="white-space: pre;" direction="ltr">Adresse</text></g><g stroke-linecap="round" transform="translate(2009.4534931547332 2908.160488384963) rotate(0 94.5 31.5)"><path d="M15.75 0 M15.75 0 C74.49 0, 133.23 0, 173.25 0 M173.25 0 C183.75 0, 189 5.25, 189 15.75 M189 15.75 C189 27.54, 189 39.32, 189 47.25 M189 47.25 C189 57.75, 183.75 63, 173.25 63 M173.25 63 C119.18 63, 65.12 63, 15.75 63 M15.75 63 C5.25 63, 0 57.75, 0 47.25 M0 47.25 C0 38.45, 0 29.66, 0 15.75 M0 15.75 C0 5.25, 5.25 0, 15.75 0" stroke="#000000" stroke-width="1.5" fill="none" stroke-dasharray="8 9"></path></g><g transform="translate(2074.453493154733 2930.6604883849636) rotate(0 29.5 9)"><text x="29.5" y="14" font-family="Helvetica, Segoe UI Emoji" font-size="16px" fill="#000000" text-anchor="middle" style="white-space: pre;" direction="ltr">Website</text></g><g stroke-linecap="round" transform="translate(16.509765788278855 1442.5736011621914) rotate(0 80.125 26.70833333333337)"><path d="M13.35 0 M13.35 0 C43.16 0, 72.97 0, 146.9 0 M146.9 0 C155.8 0, 160.25 4.45, 160.25 13.35 M160.25 13.35 C160.25 19.63, 160.25 25.91, 160.25 40.06 M160.25 40.06 C160.25 48.97, 155.8 53.42, 146.9 53.42 M146.9 53.42 C117.6 53.42, 88.3 53.42, 13.35 53.42 M13.35 53.42 C4.45 53.42, 0 48.97, 0 40.06 M0 40.06 C0 30.95, 0 21.84, 0 13.35 M0 13.35 C0 4.45, 4.45 0, 13.35 0" stroke="#000000" stroke-width="1.5" fill="none" stroke-dasharray="8 9"></path></g><g stroke-linecap="round" transform="translate(11.926432454944916 1507.1569344955253) rotate(0 82.625 27.54166666666663)"><path d="M13.77 0 M13.77 0 C60.31 0, 106.84 0, 151.48 0 M151.48 0 C160.66 0, 165.25 4.59, 165.25 13.77 M165.25 13.77 C165.25 20.27, 165.25 26.77, 165.25 41.31 M165.25 41.31 C165.25 50.49, 160.66 55.08, 151.48 55.08 M151.48 55.08 C107.22 55.08, 62.96 55.08, 13.77 55.08 M13.77 55.08 C4.59 55.08, 0 50.49, 0 41.31 M0 41.31 C0 31.53, 0 21.74, 0 13.77 M0 13.77 C0 4.59, 4.59 0, 13.77 0" stroke="#000000" stroke-width="1.5" fill="none" stroke-dasharray="8 9"></path></g><g transform="translate(76.63476578827886 1461.7819344955246) rotate(0 20 7.5)"><text x="20" y="12" font-family="Helvetica, Segoe UI Emoji" font-size="13.430167597765369px" fill="#000000" text-anchor="middle" style="white-space: pre;" direction="ltr">Wetter</text></g><g transform="translate(68.05143245494492 1526.698601162192) rotate(0 26.5 8)"><text x="26.5" y="13" font-family="Helvetica, Segoe UI Emoji" font-size="13.877094972067038px" fill="#000000" text-anchor="middle" style="white-space: pre;" direction="ltr">Inzidenz</text></g><g stroke-linecap="round" transform="translate(1842.171343901172 1444.379035276052) rotate(0 94.5 31.5)"><path d="M15.75 0 M15.75 0 C68.59 0, 121.44 0, 173.25 0 M173.25 0 C183.75 0, 189 5.25, 189 15.75 M189 15.75 C189 25.87, 189 35.99, 189 47.25 M189 47.25 C189 57.75, 183.75 63, 173.25 63 M173.25 63 C122.9 63, 72.56 63, 15.75 63 M15.75 63 C5.25 63, 0 57.75, 0 47.25 M0 47.25 C0 38.13, 0 29, 0 15.75 M0 15.75 C0 5.25, 5.25 0, 15.75 0" stroke="#000000" stroke-width="1.5" fill="none" stroke-dasharray="8 9"></path></g><g stroke-linecap="round" transform="translate(1846.4136941615898 1373.621995888031) rotate(0 94.5 31.5)"><path d="M15.75 0 M15.75 0 C53.5 0, 91.25 0, 173.25 0 M173.25 0 C183.75 0, 189 5.25, 189 15.75 M189 15.75 C189 27.66, 189 39.56, 189 47.25 M189 47.25 C189 57.75, 183.75 63, 173.25 63 M173.25 63 C113.05 63, 52.85 63, 15.75 63 M15.75 63 C5.25 63, 0 57.75, 0 47.25 M0 47.25 C0 36.02, 0 24.79, 0 15.75 M0 15.75 C0 5.25, 5.25 0, 15.75 0" stroke="#000000" stroke-width="1.5" fill="none" stroke-dasharray="8 9"></path></g><g transform="translate(1906.671343901172 1466.879035276052) rotate(0 30 9)"><text x="30" y="14" font-family="Helvetica, Segoe UI Emoji" font-size="16px" fill="#000000" text-anchor="middle" style="white-space: pre;" direction="ltr">Adresse</text></g><g transform="translate(1929.4136941615898 1396.121995888031) rotate(0 11.5 9)"><text x="11.5" y="14" font-family="Helvetica, Segoe UI Emoji" font-size="16px" fill="#000000" text-anchor="middle" style="white-space: pre;" direction="ltr">Ort</text></g><g stroke-linecap="round" transform="translate(2007.7868264880663 2981.4938217182953) rotate(0 94.5 31.5)"><path d="M15.75 0 M15.75 0 C59.04 0, 102.32 0, 173.25 0 M173.25 0 C183.75 0, 189 5.25, 189 15.75 M189 15.75 C189 25.93, 189 36.11, 189 47.25 M189 47.25 C189 57.75, 183.75 63, 173.25 63 M173.25 63 C112.88 63, 52.5 63, 15.75 63 M15.75 63 C5.25 63, 0 57.75, 0 47.25 M0 47.25 C0 38.96, 0 30.66, 0 15.75 M0 15.75 C0 5.25, 5.25 0, 15.75 0" stroke="#000000" stroke-width="1.5" fill="none" stroke-dasharray="8 9"></path></g><g transform="translate(2041.2868264880663 3003.9938217182953) rotate(0 61 9)"><text x="61" y="14" font-family="Helvetica, Segoe UI Emoji" font-size="16px" fill="#000000" text-anchor="middle" style="white-space: pre;" direction="ltr">Aufenthaltsdauer</text></g><g stroke-linecap="round" transform="translate(3854.082948283276 724.3137758063564) rotate(0 94.5 31.5)"><path d="M15.75 0 M15.75 0 C68.02 0, 120.29 0, 173.25 0 M173.25 0 C183.75 0, 189 5.25, 189 15.75 M189 15.75 C189 25.49, 189 35.23, 189 47.25 M189 47.25 C189 57.75, 183.75 63, 173.25 63 M173.25 63 C111.85 63, 50.45 63, 15.75 63 M15.75 63 C5.25 63, 0 57.75, 0 47.25 M0 47.25 C0 35.08, 0 22.9, 0 15.75 M0 15.75 C0 5.25, 5.25 0, 15.75 0" stroke="#000000" stroke-width="1.5" fill="none" stroke-dasharray="8 9"></path></g><g transform="translate(3918.582948283276 746.8137758063564) rotate(0 30 9)"><text x="30" y="14" font-family="Helvetica, Segoe UI Emoji" font-size="16px" fill="#000000" text-anchor="middle" style="white-space: pre;" direction="ltr">Adresse</text></g><g stroke-linecap="round" transform="translate(3854.082948283276 795.5637758063564) rotate(0 94.5 31.500000000000057)"><path d="M15.75 0 M15.75 0 C77.32 0, 138.89 0, 173.25 0 M173.25 0 C183.75 0, 189 5.25, 189 15.75 M189 15.75 C189 23.2, 189 30.64, 189 47.25 M189 47.25 C189 57.75, 183.75 63, 173.25 63 M173.25 63 C119.14 63, 65.02 63, 15.75 63 M15.75 63 C5.25 63, 0 57.75, 0 47.25 M0 47.25 C0 36.32, 0 25.4, 0 15.75 M0 15.75 C0 5.25, 5.25 0, 15.75 0" stroke="#000000" stroke-width="1.5" fill="none" stroke-dasharray="8 9"></path></g><g transform="translate(3923.082948283276 818.0637758063567) rotate(0 25.5 9)"><text x="25.5" y="14" font-family="Helvetica, Segoe UI Emoji" font-size="16px" fill="#000000" text-anchor="middle" style="white-space: pre;" direction="ltr">Kosten</text></g><g stroke-linecap="round" transform="translate(1396.9144523167379 1503.6893876772835) rotate(0 94.5 31.5)"><path d="M15.75 0 M15.75 0 C54.95 0, 94.16 0, 173.25 0 M173.25 0 C183.75 0, 189 5.25, 189 15.75 M189 15.75 C189 23.61, 189 31.47, 189 47.25 M189 47.25 C189 57.75, 183.75 63, 173.25 63 M173.25 63 C122.25 63, 71.25 63, 15.75 63 M15.75 63 C5.25 63, 0 57.75, 0 47.25 M0 47.25 C0 38.7, 0 30.14, 0 15.75 M0 15.75 C0 5.25, 5.25 0, 15.75 0" stroke="#000000" stroke-width="1.5" fill="none" stroke-dasharray="8 9"></path></g><g transform="translate(1465.9144523167379 1526.1893876772835) rotate(0 25.5 9)"><text x="25.5" y="14" font-family="Helvetica, Segoe UI Emoji" font-size="16px" fill="#000000" text-anchor="middle" style="white-space: pre;" direction="ltr">Kosten</text></g><g stroke-linecap="round" transform="translate(2699.483064642708 1063.0168847577588) rotate(0 94.5 31.5)"><path d="M15.75 0 M15.75 0 C71.43 0, 127.12 0, 173.25 0 M173.25 0 C183.75 0, 189 5.25, 189 15.75 M189 15.75 C189 26.54, 189 37.32, 189 47.25 M189 47.25 C189 57.75, 183.75 63, 173.25 63 M173.25 63 C136.44 63, 99.64 63, 15.75 63 M15.75 63 C5.25 63, 0 57.75, 0 47.25 M0 47.25 C0 39.77, 0 32.29, 0 15.75 M0 15.75 C0 5.25, 5.25 0, 15.75 0" stroke="#000000" stroke-width="1.5" fill="none" stroke-dasharray="8 9"></path></g><g stroke-linecap="round" transform="translate(2699.483064642707 1137.302599043473) rotate(0 94.5 31.5)"><path d="M15.75 0 M15.75 0 C70.07 0, 124.39 0, 173.25 0 M173.25 0 C183.75 0, 189 5.25, 189 15.75 M189 15.75 C189 26.09, 189 36.44, 189 47.25 M189 47.25 C189 57.75, 183.75 63, 173.25 63 M173.25 63 C127.82 63, 82.39 63, 15.75 63 M15.75 63 C5.25 63, 0 57.75, 0 47.25 M0 47.25 C0 40.9, 0 34.56, 0 15.75 M0 15.75 C0 5.25, 5.25 0, 15.75 0" stroke="#000000" stroke-width="1.5" fill="none" stroke-dasharray="8 9"></path></g><g transform="translate(2759.483064642708 1085.5168847577588) rotate(0 34.5 9)"><text x="34.5" y="14" font-family="Helvetica, Segoe UI Emoji" font-size="16px" fill="#000000" text-anchor="middle" style="white-space: pre;" direction="ltr">Adressen</text></g><g transform="translate(2754.483064642707 1159.802599043473) rotate(0 39.5 9)"><text x="39.5" y="14" font-family="Helvetica, Segoe UI Emoji" font-size="16px" fill="#000000" text-anchor="middle" style="white-space: pre;" direction="ltr">Entfernung</text></g><g stroke-linecap="round" transform="translate(2267.371870736729 1189.1532103136383) rotate(0 94.5 31.5)"><path d="M15.75 0 M15.75 0 C59.26 0, 102.76 0, 173.25 0 M173.25 0 C183.75 0, 189 5.25, 189 15.75 M189 15.75 C189 26.01, 189 36.26, 189 47.25 M189 47.25 C189 57.75, 183.75 63, 173.25 63 M173.25 63 C116.05 63, 58.85 63, 15.75 63 M15.75 63 C5.25 63, 0 57.75, 0 47.25 M0 47.25 C0 40.46, 0 33.68, 0 15.75 M0 15.75 C0 5.25, 5.25 0, 15.75 0" stroke="#000000" stroke-width="1.5" fill="none" stroke-dasharray="8 9"></path></g><g transform="translate(2331.871870736729 1211.6532103136383) rotate(0 30 9)"><text x="30" y="14" font-family="Helvetica, Segoe UI Emoji" font-size="16px" fill="#000000" text-anchor="middle" style="white-space: pre;" direction="ltr">Adresse</text></g><g stroke-linecap="round" transform="translate(2266.121870736727 1260.4032103136374) rotate(0 94.5 31.5)"><path d="M15.75 0 M15.75 0 C70.68 0, 125.61 0, 173.25 0 M173.25 0 C183.75 0, 189 5.25, 189 15.75 M189 15.75 C189 25.19, 189 34.63, 189 47.25 M189 47.25 C189 57.75, 183.75 63, 173.25 63 M173.25 63 C132.21 63, 91.18 63, 15.75 63 M15.75 63 C5.25 63, 0 57.75, 0 47.25 M0 47.25 C0 39.15, 0 31.06, 0 15.75 M0 15.75 C0 5.25, 5.25 0, 15.75 0" stroke="#000000" stroke-width="1.5" fill="none" stroke-dasharray="8 9"></path></g><g transform="translate(2322.121870736727 1282.9032103136374) rotate(0 38.5 9)"><text x="38.5" y="14" font-family="Helvetica, Segoe UI Emoji" font-size="16px" fill="#000000" text-anchor="middle" style="white-space: pre;" direction="ltr">Bewertung</text></g><g stroke-linecap="round" transform="translate(2267.371870736727 1332.9032103136374) rotate(0 94.5 31.5)"><path d="M15.75 0 M15.75 0 C75.92 0, 136.1 0, 173.25 0 M173.25 0 C183.75 0, 189 5.25, 189 15.75 M189 15.75 C189 22.63, 189 29.52, 189 47.25 M189 47.25 C189 57.75, 183.75 63, 173.25 63 M173.25 63 C115.99 63, 58.73 63, 15.75 63 M15.75 63 C5.25 63, 0 57.75, 0 47.25 M0 47.25 C0 40.56, 0 33.88, 0 15.75 M0 15.75 C0 5.25, 5.25 0, 15.75 0" stroke="#000000" stroke-width="1.5" fill="none" stroke-dasharray="8 9"></path></g><g transform="translate(2336.371870736727 1355.4032103136374) rotate(0 25.5 9)"><text x="25.5" y="14" font-family="Helvetica, Segoe UI Emoji" font-size="16px" fill="#000000" text-anchor="middle" style="white-space: pre;" direction="ltr">Kosten</text></g><g stroke-linecap="round" transform="translate(3815.8899685335446 959.198366624036) rotate(0 94.5 31.5)"><path d="M15.75 0 M15.75 0 C69.42 0, 123.09 0, 173.25 0 M173.25 0 C183.75 0, 189 5.25, 189 15.75 M189 15.75 C189 23.64, 189 31.53, 189 47.25 M189 47.25 C189 57.75, 183.75 63, 173.25 63 M173.25 63 C140.53 63, 107.81 63, 15.75 63 M15.75 63 C5.25 63, 0 57.75, 0 47.25 M0 47.25 C0 36.5, 0 25.75, 0 15.75 M0 15.75 C0 5.25, 5.25 0, 15.75 0" stroke="#000000" stroke-width="1.5" fill="none" stroke-dasharray="8 9"></path></g><g transform="translate(3880.3899685335446 981.698366624036) rotate(0 30 9)"><text x="30" y="14" font-family="Helvetica, Segoe UI Emoji" font-size="16px" fill="#000000" text-anchor="middle" style="white-space: pre;" direction="ltr">Adresse</text></g><g stroke-linecap="round" transform="translate(3817.318539962115 1033.4840809097498) rotate(0 94.5 31.5)"><path d="M15.75 0 M15.75 0 C77.76 0, 139.77 0, 173.25 0 M173.25 0 C183.75 0, 189 5.25, 189 15.75 M189 15.75 C189 26.23, 189 36.71, 189 47.25 M189 47.25 C189 57.75, 183.75 63, 173.25 63 M173.25 63 C118.09 63, 62.94 63, 15.75 63 M15.75 63 C5.25 63, 0 57.75, 0 47.25 M0 47.25 C0 35.61, 0 23.97, 0 15.75 M0 15.75 C0 5.25, 5.25 0, 15.75 0" stroke="#000000" stroke-width="1.5" fill="none" stroke-dasharray="8 9"></path></g><g transform="translate(3873.318539962115 1055.98408090975) rotate(0 38.5 9)"><text x="38.5" y="14" font-family="Helvetica, Segoe UI Emoji" font-size="16px" fill="#000000" text-anchor="middle" style="white-space: pre;" direction="ltr">Bewertung</text></g><g stroke-linecap="round" transform="translate(4010.1756828192574 962.055509481178) rotate(0 94.5 31.5)"><path d="M15.75 0 M15.75 0 C70.72 0, 125.69 0, 173.25 0 M173.25 0 C183.75 0, 189 5.25, 189 15.75 M189 15.75 C189 26.49, 189 37.22, 189 47.25 M189 47.25 C189 57.75, 183.75 63, 173.25 63 M173.25 63 C135.84 63, 98.43 63, 15.75 63 M15.75 63 C5.25 63, 0 57.75, 0 47.25 M0 47.25 C0 36.82, 0 26.4, 0 15.75 M0 15.75 C0 5.25, 5.25 0, 15.75 0" stroke="#000000" stroke-width="1.5" fill="none" stroke-dasharray="8 9"></path></g><g transform="translate(4077.1756828192574 984.555509481178) rotate(0 27.5 9)"><text x="27.5" y="14" font-family="Helvetica, Segoe UI Emoji" font-size="16px" fill="#000000" text-anchor="middle" style="white-space: pre;" direction="ltr">Kontakt</text></g><g stroke-linecap="round" transform="translate(4014.461397104974 1030.6269380526069) rotate(0 94.5 31.5)"><path d="M15.75 0 M15.75 0 C78.06 0, 140.36 0, 173.25 0 M173.25 0 C183.75 0, 189 5.25, 189 15.75 M189 15.75 C189 27.69, 189 39.64, 189 47.25 M189 47.25 C189 57.75, 183.75 63, 173.25 63 M173.25 63 C140.6 63, 107.95 63, 15.75 63 M15.75 63 C5.25 63, 0 57.75, 0 47.25 M0 47.25 C0 37.83, 0 28.4, 0 15.75 M0 15.75 C0 5.25, 5.25 0, 15.75 0" stroke="#000000" stroke-width="1.5" fill="none" stroke-dasharray="8 9"></path></g><g transform="translate(4079.461397104974 1053.1269380526069) rotate(0 29.5 9)"><text x="29.5" y="14" font-family="Helvetica, Segoe UI Emoji" font-size="16px" fill="#000000" text-anchor="middle" style="white-space: pre;" direction="ltr">Website</text></g><g stroke-linecap="round" transform="translate(4214.461397104973 992.0555094811784) rotate(0 94.5 31.5)"><path d="M15.75 0 M15.75 0 C76.55 0, 137.36 0, 173.25 0 M173.25 0 C183.75 0, 189 5.25, 189 15.75 M189 15.75 C189 22.84, 189 29.94, 189 47.25 M189 47.25 C189 57.75, 183.75 63, 173.25 63 M173.25 63 C128.62 63, 83.99 63, 15.75 63 M15.75 63 C5.25 63, 0 57.75, 0 47.25 M0 47.25 C0 40.14, 0 33.03, 0 15.75 M0 15.75 C0 5.25, 5.25 0, 15.75 0" stroke="#000000" stroke-width="1.5" fill="none" stroke-dasharray="8 9"></path></g><g transform="translate(4283.461397104973 1014.5555094811784) rotate(0 25.5 9)"><text x="25.5" y="14" font-family="Helvetica, Segoe UI Emoji" font-size="16px" fill="#000000" text-anchor="middle" style="white-space: pre;" direction="ltr">Kosten</text></g><g stroke-linecap="round" transform="translate(1395.0962704985564 1432.7802967681926) rotate(0 94.49999999999977 31.5)"><path d="M15.75 0 M15.75 0 C64.92 0, 114.09 0, 173.25 0 M173.25 0 C183.75 0, 189 5.25, 189 15.75 M189 15.75 C189 23.36, 189 30.96, 189 47.25 M189 47.25 C189 57.75, 183.75 63, 173.25 63 M173.25 63 C114.69 63, 56.13 63, 15.75 63 M15.75 63 C5.25 63, 0 57.75, 0 47.25 M0 47.25 C0 36.68, 0 26.11, 0 15.75 M0 15.75 C0 5.25, 5.25 0, 15.75 0" stroke="#000000" stroke-width="1.5" fill="none" stroke-dasharray="8 9"></path></g><g transform="translate(1418.5962704985564 1455.2802967681926) rotate(0 70.99999999999977 9)"><text x="71" y="14" font-family="Helvetica, Segoe UI Emoji" font-size="16px" fill="#000000" text-anchor="middle" style="white-space: pre;" direction="ltr">notwendige Papiere</text></g><g stroke-linecap="round" transform="translate(2008.5593910770858 3056.08586959516) rotate(0 94.5 31.5)"><path d="M15.75 0 M15.75 0 C53.69 0, 91.63 0, 173.25 0 M173.25 0 C183.75 0, 189 5.25, 189 15.75 M189 15.75 C189 27.92, 189 40.1, 189 47.25 M189 47.25 C189 57.75, 183.75 63, 173.25 63 M173.25 63 C134.93 63, 96.61 63, 15.75 63 M15.75 63 C5.25 63, 0 57.75, 0 47.25 M0 47.25 C0 36.71, 0 26.18, 0 15.75 M0 15.75 C0 5.25, 5.25 0, 15.75 0" stroke="#000000" stroke-width="1.5" fill="none" stroke-dasharray="8 9"></path></g><g transform="translate(2092.559391077086 3078.5858695951597) rotate(0 10.5 9)"><text x="10.5" y="14" font-family="Helvetica, Segoe UI Emoji" font-size="16px" fill="#000000" text-anchor="middle" style="white-space: pre;" direction="ltr">Art</text></g><g mask="url(#mask-et3YpmDUPPTGyU3KhfHBf)" stroke-linecap="round"><g transform="translate(3192.9719969812977 950.3669681316337) rotate(0 -484.1927676715213 571.811344869661)"><path d="M0 0 C-78.58 131.38, -310.09 597.7, -471.48 788.3 C-632.88 978.91, -885.57 1084.4, -968.39 1143.62 M0 0 C-78.58 131.38, -310.09 597.7, -471.48 788.3 C-632.88 978.91, -885.57 1084.4, -968.39 1143.62" stroke="#000000" stroke-width="1" fill="none"></path></g><g transform="translate(3192.9719969812977 950.3669681316337) rotate(0 -484.1927676715213 571.811344869661)"><path d="M-968.39 1143.62 L-959.9 1131.26 L-953.46 1142.18 L-968.39 1143.62" stroke="none" stroke-width="0" fill="#000000" fill-rule="evenodd"></path><path d="M-968.39 1143.62 C-965.66 1139.65, -962.94 1135.68, -959.9 1131.26 M-968.39 1143.62 C-966.22 1140.47, -964.05 1137.31, -959.9 1131.26 M-959.9 1131.26 C-958.52 1133.59, -957.14 1135.93, -953.46 1142.18 M-959.9 1131.26 C-957.52 1135.29, -955.14 1139.32, -953.46 1142.18 M-953.46 1142.18 C-959.34 1142.75, -965.23 1143.32, -968.39 1143.62 M-953.46 1142.18 C-959.05 1142.72, -964.64 1143.26, -968.39 1143.62 M-968.39 1143.62 C-968.39 1143.62, -968.39 1143.62, -968.39 1143.62 M-968.39 1143.62 C-968.39 1143.62, -968.39 1143.62, -968.39 1143.62" stroke="#000000" stroke-width="1" fill="none"></path></g></g><mask id="mask-et3YpmDUPPTGyU3KhfHBf"><rect x="0" y="0" fill="#fff" width="4261.35753232434" height="2193.989657870956"></rect><rect x="2677.4874741195836" y="1727.17119337275" fill="#000" width="88" height="23" opacity="1"></rect></mask><g transform="translate(2677.4874741195845 1727.1711933727504) rotate(0 31.291755190191907 -204.9928803714555)"><text x="44" y="18" font-family="Helvetica, Segoe UI Emoji" font-size="20px" fill="#000000" text-anchor="middle" style="white-space: pre;" direction="ltr">beinhaltet</text></g><g mask="url(#mask-3JfeT43xFIs7TgTD_71JC)" stroke-linecap="round"><g transform="translate(3192.116724684517 951.2212336792159) rotate(0 -475.4461144385946 794.4000645613022)"><path d="M0 0 C-63.18 159.85, -220.6 694.31, -379.09 959.11 C-537.57 1223.91, -855.59 1483.85, -950.89 1588.8 M0 0 C-63.18 159.85, -220.6 694.31, -379.09 959.11 C-537.57 1223.91, -855.59 1483.85, -950.89 1588.8" stroke="#000000" stroke-width="1" fill="none"></path></g><g transform="translate(3192.116724684517 951.2212336792159) rotate(0 -475.4461144385946 794.4000645613022)"><path d="M-950.89 1588.8 L-945.59 1574.77 L-936.73 1583.85 L-950.89 1588.8" stroke="none" stroke-width="0" fill="#000000" fill-rule="evenodd"></path><path d="M-950.89 1588.8 C-948.87 1583.45, -946.85 1578.11, -945.59 1574.77 M-950.89 1588.8 C-949.76 1585.81, -948.63 1582.83, -945.59 1574.77 M-945.59 1574.77 C-943.42 1576.99, -941.25 1579.22, -936.73 1583.85 M-945.59 1574.77 C-942.8 1577.63, -940.01 1580.49, -936.73 1583.85 M-936.73 1583.85 C-940.6 1585.2, -944.46 1586.55, -950.89 1588.8 M-936.73 1583.85 C-941.19 1585.41, -945.65 1586.97, -950.89 1588.8 M-950.89 1588.8 C-950.89 1588.8, -950.89 1588.8, -950.89 1588.8 M-950.89 1588.8 C-950.89 1588.8, -950.89 1588.8, -950.89 1588.8" stroke="#000000" stroke-width="1" fill="none"></path></g></g><mask id="mask-3JfeT43xFIs7TgTD_71JC"><rect x="0" y="0" fill="#fff" width="4243.008953561706" height="2640.02136280182"></rect><rect x="2798.5309740606435" y="1898.8347201321264" fill="#000" width="29" height="23" opacity="1"></rect></mask><g transform="translate(616.7524161044694 560.519074910839) rotate(0 14.500000000000227 11.5)"><text x="14.5" y="18" font-family="Helvetica, Segoe UI Emoji" font-size="20px" fill="#000000" text-anchor="middle" style="white-space: pre;" direction="ltr">hat</text></g><g transform="translate(296.60728720667703 1256.8019520699045) rotate(0 10.499999999999773 11.499999999999886)"><text x="10.5" y="18" font-family="Helvetica, Segoe UI Emoji" font-size="20px" fill="#000000" text-anchor="middle" style="white-space: pre;" direction="ltr">ist</text></g><g transform="translate(1151.3077111242314 578.6221294954681) rotate(0 15.011753278281503 11.232495928201843)"><text x="14.5" y="18" font-family="Helvetica, Segoe UI Emoji" font-size="20px" fill="#000000" text-anchor="middle" style="white-space: pre;" direction="ltr">hat</text></g><g transform="translate(1743.3031939936536 995.9628579588627) rotate(0 44 11.5)"><text x="44" y="18" font-family="Helvetica, Segoe UI Emoji" font-size="20px" fill="#000000" text-anchor="middle" style="white-space: pre;" direction="ltr">beinhaltet</text></g><g transform="translate(1557.084992702281 1095.0535890312776) rotate(0 44 11.499999999999886)"><text x="44" y="18" font-family="Helvetica, Segoe UI Emoji" font-size="20px" fill="#000000" text-anchor="middle" style="white-space: pre;" direction="ltr">beinhaltet</text></g><g transform="translate(1971.4188328811779 956.1963611171536) rotate(0 35.5 11.500000000000114)"><text x="35.5" y="18" font-family="Helvetica, Segoe UI Emoji" font-size="20px" fill="#000000" text-anchor="middle" style="white-space: pre;" direction="ltr">umfasst</text></g><g transform="translate(1123.5353840314992 1590.8243689232122) rotate(0 429.6561140007059 -65.59128092169453)"><text x="44" y="18" font-family="Helvetica, Segoe UI Emoji" font-size="20px" fill="#000000" text-anchor="middle" style="white-space: pre;" direction="ltr">beinhaltet</text></g><g transform="translate(2798.5309740606435 1898.8347201321262) rotate(0 -81.86036381472104 -153.2134218916084)"><text x="14.5" y="18" font-family="Helvetica, Segoe UI Emoji" font-size="20px" fill="#000000" text-anchor="middle" style="white-space: pre;" direction="ltr">hat</text></g><g transform="translate(2610.6956775747585 1557.0281119702572) rotate(0 103.58521724489947 -211.83601073353032)"><text x="54" y="18" font-family="Helvetica, Segoe UI Emoji" font-size="20px" fill="#000000" text-anchor="middle" style="white-space: pre;" direction="ltr">verfügt über</text></g><g transform="translate(752.1158573678567 896.6549305629694) rotate(0 35.50000000000023 11.499999999999886)"><text x="35.5" y="18" font-family="Helvetica, Segoe UI Emoji" font-size="20px" fill="#000000" text-anchor="middle" style="white-space: pre;" direction="ltr">umfasst</text></g><g transform="translate(1913.2776502158886 20.77234746189285) rotate(0 211.52748753268565 404.0515562459024)"><text x="14.5" y="18" font-family="Helvetica, Segoe UI Emoji" font-size="20px" fill="#000000" text-anchor="middle" style="white-space: pre;" direction="ltr">hat</text></g><g transform="translate(3401.015643961853 829.7123297043474) rotate(0 14.499999999999545 11.499999999999943)"><text x="14.5" y="18" font-family="Helvetica, Segoe UI Emoji" font-size="20px" fill="#000000" text-anchor="middle" style="white-space: pre;" direction="ltr">hat</text></g><g transform="translate(1408.9859950803057 786.4800393001731) rotate(0 109.78259868878877 31.213638075981237)"><text x="109.5" y="25" font-family="Helvetica, Segoe UI Emoji" font-size="28px" fill="#000000" text-anchor="middle" style="white-space: pre;" direction="ltr">wird zurückgelegt</text><text x="109.5" y="57" font-family="Helvetica, Segoe UI Emoji" font-size="28px" fill="#000000" text-anchor="middle" style="white-space: pre;" direction="ltr">mit</text></g><g transform="translate(2503.6941439968214 806.4172962708874) rotate(0 61 15.999999999999886)"><text x="61" y="25" font-family="Helvetica, Segoe UI Emoji" font-size="28px" fill="#000000" text-anchor="middle" style="white-space: pre;" direction="ltr">beinhaltet</text></g></svg>