<svg version="1.1" xmlns="http://www.w3.org/2000/svg" viewBox="0 0 2742.8003339917877 1140.9308397246991" width="8228.401001975362" height="3422.7925191740974">
  <!-- svg-source:excalidraw -->
  
  <defs>
    <style class="style-fonts">
      @font-face {
        font-family: "Virgil";
        src: url("https://excalidraw.com/Virgil.woff2");
      }
      @font-face {
        font-family: "Cascadia";
        src: url("https://excalidraw.com/Cascadia.woff2");
      }
    </style>
  </defs>
  <rect x="0" y="0" width="2742.8003339917877" height="1140.9308397246991" fill="#ffffff"></rect><g stroke-linecap="round" transform="translate(1121.9515178301065 385.59746965414104) rotate(0 94.5 31.5)"><path d="M15.75 0 M15.75 0 C59.59 0, 103.44 0, 173.25 0 M15.75 0 C58.37 0, 100.99 0, 173.25 0 M173.25 0 C183.75 0, 189 5.25, 189 15.75 M173.25 0 C183.75 0, 189 5.25, 189 15.75 M189 15.75 C189 27.38, 189 39.01, 189 47.25 M189 15.75 C189 26.37, 189 36.99, 189 47.25 M189 47.25 C189 57.75, 183.75 63, 173.25 63 M189 47.25 C189 57.75, 183.75 63, 173.25 63 M173.25 63 C110.51 63, 47.78 63, 15.75 63 M173.25 63 C121.39 63, 69.52 63, 15.75 63 M15.75 63 C5.25 63, 0 57.75, 0 47.25 M15.75 63 C5.25 63, 0 57.75, 0 47.25 M0 47.25 C0 37.96, 0 28.66, 0 15.75 M0 47.25 C0 38.13, 0 29.01, 0 15.75 M0 15.75 C0 5.25, 5.25 0, 15.75 0 M0 15.75 C0 5.25, 5.25 0, 15.75 0" stroke="#000000" stroke-width="1" fill="none"></path></g><g transform="translate(1179.4515178301065 401.09746965414104) rotate(0 37 16)"><text x="37" y="26" font-family="Helvetica, Segoe UI Emoji" font-size="28px" fill="#000000" text-anchor="middle" style="white-space: pre;" direction="ltr">Reise</text></g><g stroke-linecap="round" transform="translate(834.19234532723 775.9683742896797) rotate(0 94.5 31.5)"><path d="M15.75 0 M15.75 0 C74.43 0, 133.12 0, 173.25 0 M15.75 0 C64.03 0, 112.3 0, 173.25 0 M173.25 0 C183.75 0, 189 5.25, 189 15.75 M173.25 0 C183.75 0, 189 5.25, 189 15.75 M189 15.75 C189 25.11, 189 34.47, 189 47.25 M189 15.75 C189 24.85, 189 33.96, 189 47.25 M189 47.25 C189 57.75, 183.75 63, 173.25 63 M189 47.25 C189 57.75, 183.75 63, 173.25 63 M173.25 63 C125.06 63, 76.88 63, 15.75 63 M173.25 63 C136.83 63, 100.41 63, 15.75 63 M15.75 63 C5.25 63, 0 57.75, 0 47.25 M15.75 63 C5.25 63, 0 57.75, 0 47.25 M0 47.25 C0 37.35, 0 27.46, 0 15.75 M0 47.25 C0 35.51, 0 23.78, 0 15.75 M0 15.75 C0 5.25, 5.25 0, 15.75 0 M0 15.75 C0 5.25, 5.25 0, 15.75 0" stroke="#000000" stroke-width="1" fill="none"></path></g><g stroke-linecap="round" transform="translate(1863.4330384345806 682.971743385506) rotate(0 94.5 31.5)"><path d="M15.75 0 M15.75 0 C69.15 0, 122.55 0, 173.25 0 M15.75 0 C70.19 0, 124.63 0, 173.25 0 M173.25 0 C183.75 0, 189 5.25, 189 15.75 M173.25 0 C183.75 0, 189 5.25, 189 15.75 M189 15.75 C189 25.62, 189 35.5, 189 47.25 M189 15.75 C189 27.1, 189 38.44, 189 47.25 M189 47.25 C189 57.75, 183.75 63, 173.25 63 M189 47.25 C189 57.75, 183.75 63, 173.25 63 M173.25 63 C116.67 63, 60.1 63, 15.75 63 M173.25 63 C126.23 63, 79.2 63, 15.75 63 M15.75 63 C5.25 63, 0 57.75, 0 47.25 M15.75 63 C5.25 63, 0 57.75, 0 47.25 M0 47.25 C0 38.44, 0 29.63, 0 15.75 M0 47.25 C0 37.82, 0 28.39, 0 15.75 M0 15.75 C0 5.25, 5.25 0, 15.75 0 M0 15.75 C0 5.25, 5.25 0, 15.75 0" stroke="#000000" stroke-width="1" fill="none"></path></g><g stroke-linecap="round" transform="translate(465.9578581873136 538.5735105771083) rotate(0 94.5 31.5)"><path d="M15.75 0 M15.75 0 C75.06 0, 134.37 0, 173.25 0 M15.75 0 C62.12 0, 108.48 0, 173.25 0 M173.25 0 C183.75 0, 189 5.25, 189 15.75 M173.25 0 C183.75 0, 189 5.25, 189 15.75 M189 15.75 C189 23.7, 189 31.64, 189 47.25 M189 15.75 C189 27.1, 189 38.45, 189 47.25 M189 47.25 C189 57.75, 183.75 63, 173.25 63 M189 47.25 C189 57.75, 183.75 63, 173.25 63 M173.25 63 C122.38 63, 71.51 63, 15.75 63 M173.25 63 C110.53 63, 47.81 63, 15.75 63 M15.75 63 C5.25 63, 0 57.75, 0 47.25 M15.75 63 C5.25 63, 0 57.75, 0 47.25 M0 47.25 C0 38.64, 0 30.03, 0 15.75 M0 47.25 C0 35.73, 0 24.22, 0 15.75 M0 15.75 C0 5.25, 5.25 0, 15.75 0 M0 15.75 C0 5.25, 5.25 0, 15.75 0" stroke="#000000" stroke-width="1" fill="none"></path></g><g transform="translate(899.69234532723 795.9683742896797) rotate(0 29 11.5)"><text x="29" y="19" font-family="Helvetica, Segoe UI Emoji" font-size="20px" fill="#000000" text-anchor="middle" style="white-space: pre;" direction="ltr">Zielort</text></g><g transform="translate(1927.4330384345806 702.971743385506) rotate(0 30.5 11.5)"><text x="30.5" y="19" font-family="Helvetica, Segoe UI Emoji" font-size="20px" fill="#000000" text-anchor="middle" style="white-space: pre;" direction="ltr">Datum</text></g><g transform="translate(513.4578581873136 558.5735105771083) rotate(0 47 11.5)"><text x="47" y="19" font-family="Helvetica, Segoe UI Emoji" font-size="20px" fill="#000000" text-anchor="middle" style="white-space: pre;" direction="ltr">Aktivitäten</text></g><g stroke-linecap="round" transform="translate(1364.5963057308998 893.5745863894706) rotate(0 94.5 31.5)"><path d="M15.75 0 M15.75 0 C53.44 0, 91.12 0, 173.25 0 M15.75 0 C69.26 0, 122.77 0, 173.25 0 M173.25 0 C183.75 0, 189 5.25, 189 15.75 M173.25 0 C183.75 0, 189 5.25, 189 15.75 M189 15.75 C189 26.67, 189 37.59, 189 47.25 M189 15.75 C189 26.69, 189 37.62, 189 47.25 M189 47.25 C189 57.75, 183.75 63, 173.25 63 M189 47.25 C189 57.75, 183.75 63, 173.25 63 M173.25 63 C119.39 63, 65.53 63, 15.75 63 M173.25 63 C133.54 63, 93.82 63, 15.75 63 M15.75 63 C5.25 63, 0 57.75, 0 47.25 M15.75 63 C5.25 63, 0 57.75, 0 47.25 M0 47.25 C0 37.32, 0 27.4, 0 15.75 M0 47.25 C0 40.03, 0 32.82, 0 15.75 M0 15.75 C0 5.25, 5.25 0, 15.75 0 M0 15.75 C0 5.25, 5.25 0, 15.75 0" stroke="#000000" stroke-width="1" fill="none"></path></g><g transform="translate(1412.0963057308998 913.5745863894706) rotate(0 47 11.5)"><text x="47" y="19" font-family="Helvetica, Segoe UI Emoji" font-size="20px" fill="#000000" text-anchor="middle" style="white-space: pre;" direction="ltr">Unterkunft</text></g><g stroke-linecap="round" transform="translate(1924.9588749486168 314.24831372945664) rotate(0 112 31.5)"><path d="M15.75 0 M15.75 0 C75.29 0, 134.84 0, 208.25 0 M15.75 0 C79.81 0, 143.87 0, 208.25 0 M208.25 0 C218.75 0, 224 5.25, 224 15.75 M208.25 0 C218.75 0, 224 5.25, 224 15.75 M224 15.75 C224 26.48, 224 37.22, 224 47.25 M224 15.75 C224 23.37, 224 30.98, 224 47.25 M224 47.25 C224 57.75, 218.75 63, 208.25 63 M224 47.25 C224 57.75, 218.75 63, 208.25 63 M208.25 63 C131.81 63, 55.38 63, 15.75 63 M208.25 63 C160.79 63, 113.33 63, 15.75 63 M15.75 63 C5.25 63, 0 57.75, 0 47.25 M15.75 63 C5.25 63, 0 57.75, 0 47.25 M0 47.25 C0 40.08, 0 32.91, 0 15.75 M0 47.25 C0 40.89, 0 34.52, 0 15.75 M0 15.75 C0 5.25, 5.25 0, 15.75 0 M0 15.75 C0 5.25, 5.25 0, 15.75 0" stroke="#000000" stroke-width="1" fill="none"></path></g><g transform="translate(1942.9588749486168 334.24831372945664) rotate(0 94 11.5)"><text x="94" y="19" font-family="Helvetica, Segoe UI Emoji" font-size="20px" fill="#000000" text-anchor="middle" style="white-space: pre;" direction="ltr">Fortbewegungsmittel</text></g><g stroke-linecap="round" transform="translate(787.786196960514 103.52658934713304) rotate(0 94.5 31.5)"><path d="M15.75 0 M15.75 0 C74.48 0, 133.21 0, 173.25 0 M15.75 0 C70.99 0, 126.22 0, 173.25 0 M173.25 0 C183.75 0, 189 5.25, 189 15.75 M173.25 0 C183.75 0, 189 5.25, 189 15.75 M189 15.75 C189 22.92, 189 30.09, 189 47.25 M189 15.75 C189 22.78, 189 29.81, 189 47.25 M189 47.25 C189 57.75, 183.75 63, 173.25 63 M189 47.25 C189 57.75, 183.75 63, 173.25 63 M173.25 63 C112.56 63, 51.87 63, 15.75 63 M173.25 63 C131.46 63, 89.67 63, 15.75 63 M15.75 63 C5.25 63, 0 57.75, 0 47.25 M15.75 63 C5.25 63, 0 57.75, 0 47.25 M0 47.25 C0 40.14, 0 33.03, 0 15.75 M0 47.25 C0 37.73, 0 28.21, 0 15.75 M0 15.75 C0 5.25, 5.25 0, 15.75 0 M0 15.75 C0 5.25, 5.25 0, 15.75 0" stroke="#000000" stroke-width="1" fill="none"></path></g><g transform="translate(850.286196960514 123.52658934713304) rotate(0 32 11.5)"><text x="32" y="19" font-family="Helvetica, Segoe UI Emoji" font-size="20px" fill="#000000" text-anchor="middle" style="white-space: pre;" direction="ltr">Kosten</text></g><g stroke-linecap="round" transform="translate(1387.0188046533992 10) rotate(0 94.5 31.5)"><path d="M15.75 0 M15.75 0 C78.71 0, 141.66 0, 173.25 0 M15.75 0 C76.69 0, 137.63 0, 173.25 0 M173.25 0 C183.75 0, 189 5.25, 189 15.75 M173.25 0 C183.75 0, 189 5.25, 189 15.75 M189 15.75 C189 24.06, 189 32.37, 189 47.25 M189 15.75 C189 26.18, 189 36.61, 189 47.25 M189 47.25 C189 57.75, 183.75 63, 173.25 63 M189 47.25 C189 57.75, 183.75 63, 173.25 63 M173.25 63 C127.43 63, 81.6 63, 15.75 63 M173.25 63 C130.69 63, 88.14 63, 15.75 63 M15.75 63 C5.25 63, 0 57.75, 0 47.25 M15.75 63 C5.25 63, 0 57.75, 0 47.25 M0 47.25 C0 35.56, 0 23.87, 0 15.75 M0 47.25 C0 40.41, 0 33.57, 0 15.75 M0 15.75 C0 5.25, 5.25 0, 15.75 0 M0 15.75 C0 5.25, 5.25 0, 15.75 0" stroke="#000000" stroke-width="1" fill="none"></path></g><g transform="translate(1431.5188046533992 30) rotate(0 50 11.5)"><text x="50" y="19" font-family="Helvetica, Segoe UI Emoji" font-size="20px" fill="#000000" text-anchor="middle" style="white-space: pre;" direction="ltr">Umgebung</text></g><g stroke-linecap="round"><g transform="translate(1117.8602773512414 381.7543999853266) rotate(0 -68.49814757161198 -105.34461667138714)"><path d="M0 0 C-22.83 -35.11, -114.16 -175.57, -137 -210.69 M0 0 C-22.83 -35.11, -114.16 -175.57, -137 -210.69" stroke="#000000" stroke-width="1" fill="none"></path></g><g transform="translate(1117.8602773512414 381.7543999853266) rotate(0 -68.49814757161198 -105.34461667138714)"><path d="M-137 -210.69 L-124.27 -202.75 L-134.9 -195.84 L-137 -210.69" stroke="none" stroke-width="0" fill="#000000" fill-rule="evenodd"></path><path d="M-137 -210.69 C-132.77 -208.05, -128.54 -205.41, -124.27 -202.75 M-137 -210.69 C-133.91 -208.76, -130.82 -206.83, -124.27 -202.75 M-124.27 -202.75 C-126.48 -201.31, -128.69 -199.88, -134.9 -195.84 M-124.27 -202.75 C-128.28 -200.14, -132.28 -197.54, -134.9 -195.84 M-134.9 -195.84 C-135.36 -199.12, -135.83 -202.41, -137 -210.69 M-134.9 -195.84 C-135.59 -200.74, -136.29 -205.65, -137 -210.69 M-137 -210.69 C-137 -210.69, -137 -210.69, -137 -210.69 M-137 -210.69 C-137 -210.69, -137 -210.69, -137 -210.69" stroke="#000000" stroke-width="1" fill="none"></path></g></g><g transform="translate(1047.4484626241012 258.9878032638974) rotate(56.391688653749846 15 11.5)"><text x="0" y="19" font-family="Helvetica, Segoe UI Emoji" font-size="20px" fill="#000000" text-anchor="start" style="white-space: pre;" direction="ltr">hat</text></g><g stroke-linecap="round"><g transform="translate(1315.0085464303672 381.5857686636449) rotate(0 81.13423366299003 -151.8241032488179)"><path d="M0 0 C27.04 -50.61, 135.22 -253.04, 162.27 -303.65 M0 0 C27.04 -50.61, 135.22 -253.04, 162.27 -303.65" stroke="#000000" stroke-width="1" fill="none"></path></g><g transform="translate(1315.0085464303672 381.5857686636449) rotate(0 81.13423366299003 -151.8241032488179)"><path d="M162.27 -303.65 L161.45 -288.67 L150.27 -294.65 L162.27 -303.65" stroke="none" stroke-width="0" fill="#000000" fill-rule="evenodd"></path><path d="M162.27 -303.65 C161.96 -297.97, 161.65 -292.28, 161.45 -288.67 M162.27 -303.65 C161.96 -298.07, 161.66 -292.5, 161.45 -288.67 M161.45 -288.67 C158.77 -290.11, 156.08 -291.54, 150.27 -294.65 M161.45 -288.67 C158.54 -290.23, 155.62 -291.79, 150.27 -294.65 M150.27 -294.65 C153.05 -296.74, 155.84 -298.82, 162.27 -303.65 M150.27 -294.65 C154.09 -297.51, 157.9 -300.37, 162.27 -303.65 M162.27 -303.65 C162.27 -303.65, 162.27 -303.65, 162.27 -303.65 M162.27 -303.65 C162.27 -303.65, 162.27 -303.65, 162.27 -303.65" stroke="#000000" stroke-width="1" fill="none"></path></g></g><g transform="translate(1367.2324554085724 215.39683219964127) rotate(298.3161823221674 15 11.5)"><text x="0" y="19" font-family="Helvetica, Segoe UI Emoji" font-size="20px" fill="#000000" text-anchor="start" style="white-space: pre;" direction="ltr">hat</text></g><g stroke-linecap="round"><g transform="translate(1316.1480995786399 419.29144771342465) rotate(0 301.47688071759853 -35.258281322103244)"><path d="M0 0 C100.49 -11.75, 502.46 -58.76, 602.95 -70.52 M0 0 C100.49 -11.75, 502.46 -58.76, 602.95 -70.52" stroke="#000000" stroke-width="1" fill="none"></path></g><g transform="translate(1316.1480995786399 419.29144771342465) rotate(0 301.47688071759853 -35.258281322103244)"><path d="M602.95 -70.52 L590.19 -62.64 L588.71 -75.23 L602.95 -70.52" stroke="none" stroke-width="0" fill="#000000" fill-rule="evenodd"></path><path d="M602.95 -70.52 C597.93 -67.42, 592.92 -64.32, 590.19 -62.64 M602.95 -70.52 C598.73 -67.91, 594.5 -65.3, 590.19 -62.64 M590.19 -62.64 C589.86 -65.48, 589.52 -68.33, 588.71 -75.23 M590.19 -62.64 C589.87 -65.33, 589.56 -68.02, 588.71 -75.23 M588.71 -75.23 C592.65 -73.93, 596.59 -72.62, 602.95 -70.52 M588.71 -75.23 C591.71 -74.24, 594.7 -73.25, 602.95 -70.52 M602.95 -70.52 C602.95 -70.52, 602.95 -70.52, 602.95 -70.52 M602.95 -70.52 C602.95 -70.52, 602.95 -70.52, 602.95 -70.52" stroke="#000000" stroke-width="1" fill="none"></path></g></g><g transform="translate(1589.5274450696727 361.31299809220116) rotate(352.59577102897873 15 11.5)"><text x="0" y="19" font-family="Helvetica, Segoe UI Emoji" font-size="20px" fill="#000000" text-anchor="start" style="white-space: pre;" direction="ltr">hat</text></g><g stroke-linecap="round"><g transform="translate(1315.5009227589487 453.0002332726408) rotate(0 271.74615554339607 131.557995448596)"><path d="M0 0 C90.58 43.85, 452.91 219.26, 543.49 263.12 M0 0 C90.58 43.85, 452.91 219.26, 543.49 263.12" stroke="#000000" stroke-width="1" fill="none"></path></g><g transform="translate(1315.5009227589487 453.0002332726408) rotate(0 271.74615554339607 131.557995448596)"><path d="M543.49 263.12 L528.49 262.9 L534.02 251.49 L543.49 263.12" stroke="none" stroke-width="0" fill="#000000" fill-rule="evenodd"></path><path d="M543.49 263.12 C537.63 263.03, 531.77 262.95, 528.49 262.9 M543.49 263.12 C540.18 263.07, 536.87 263.02, 528.49 262.9 M528.49 262.9 C530.57 258.62, 532.64 254.33, 534.02 251.49 M528.49 262.9 C529.9 260, 531.3 257.1, 534.02 251.49 M534.02 251.49 C537.67 255.97, 541.32 260.44, 543.49 263.12 M534.02 251.49 C536.29 254.28, 538.57 257.07, 543.49 263.12 M543.49 263.12 C543.49 263.12, 543.49 263.12, 543.49 263.12 M543.49 263.12 C543.49 263.12, 543.49 263.12, 543.49 263.12" stroke="#000000" stroke-width="1" fill="none"></path></g></g><g transform="translate(1580.415327628208 563.7923295053781) rotate(27.953682397177182 15 11.5)"><text x="0" y="19" font-family="Helvetica, Segoe UI Emoji" font-size="20px" fill="#000000" text-anchor="start" style="white-space: pre;" direction="ltr">hat</text></g><g stroke-linecap="round"><g transform="translate(1116.701810426179 418.5649614665916) rotate(0 -227.11352748296963 76.33106027510712)"><path d="M0 0 C-75.7 25.44, -378.52 127.22, -454.23 152.66 M0 0 C-75.7 25.44, -378.52 127.22, -454.23 152.66" stroke="#000000" stroke-width="1" fill="none"></path></g><g transform="translate(1116.701810426179 418.5649614665916) rotate(0 -227.11352748296963 76.33106027510712)"><path d="M-454.23 152.66 L-443.36 142.32 L-439.32 154.34 L-454.23 152.66" stroke="none" stroke-width="0" fill="#000000" fill-rule="evenodd"></path><path d="M-454.23 152.66 C-452.05 150.59, -449.86 148.51, -443.36 142.32 M-454.23 152.66 C-451.02 149.61, -447.81 146.56, -443.36 142.32 M-443.36 142.32 C-442.2 145.78, -441.04 149.24, -439.32 154.34 M-443.36 142.32 C-441.88 146.73, -440.39 151.15, -439.32 154.34 M-439.32 154.34 C-443.58 153.86, -447.85 153.38, -454.23 152.66 M-439.32 154.34 C-444.55 153.75, -449.77 153.16, -454.23 152.66 M-454.23 152.66 C-454.23 152.66, -454.23 152.66, -454.23 152.66 M-454.23 152.66 C-454.23 152.66, -454.23 152.66, -454.23 152.66" stroke="#000000" stroke-width="1" fill="none"></path></g></g><g transform="translate(870.1115678942531 469.7719654155486) rotate(339.13818405649477 15 11.5)"><text x="0" y="19" font-family="Helvetica, Segoe UI Emoji" font-size="20px" fill="#000000" text-anchor="start" style="white-space: pre;" direction="ltr">hat</text></g><g stroke-linecap="round"><g transform="translate(1117.648656864798 453.0696794279646) rotate(0 -95.49724748903418 158.21755313939815)"><path d="M0 0 C-31.83 52.74, -159.16 263.7, -190.99 316.44 M0 0 C-31.83 52.74, -159.16 263.7, -190.99 316.44" stroke="#000000" stroke-width="1" fill="none"></path></g><g transform="translate(1117.648656864798 453.0696794279646) rotate(0 -95.49724748903418 158.21755313939815)"><path d="M-190.99 316.44 L-189.4 301.52 L-178.54 308.07 L-190.99 316.44" stroke="none" stroke-width="0" fill="#000000" fill-rule="evenodd"></path><path d="M-190.99 316.44 C-190.63 313.01, -190.26 309.58, -189.4 301.52 M-190.99 316.44 C-190.59 312.65, -190.18 308.87, -189.4 301.52 M-189.4 301.52 C-185.6 303.81, -181.8 306.11, -178.54 308.07 M-189.4 301.52 C-185.27 304.01, -181.13 306.51, -178.54 308.07 M-178.54 308.07 C-182.42 310.67, -186.29 313.28, -190.99 316.44 M-178.54 308.07 C-182.87 310.98, -187.2 313.88, -190.99 316.44 M-190.99 316.44 C-190.99 316.44, -190.99 316.44, -190.99 316.44 M-190.99 316.44 C-190.99 316.44, -190.99 316.44, -190.99 316.44" stroke="#000000" stroke-width="1" fill="none"></path></g></g><g transform="translate(986.096216876794 607.8924280628277) rotate(300.76859736396426 15 11.5)"><text x="0" y="19" font-family="Helvetica, Segoe UI Emoji" font-size="20px" fill="#000000" text-anchor="start" style="white-space: pre;" direction="ltr">hat</text></g><g stroke-linecap="round"><g transform="translate(1251.1045952928841 453.73573113938346) rotate(0 101.2890589795004 217.033733622883)"><path d="M0 0 C33.76 72.34, 168.82 361.72, 202.58 434.07 M0 0 C33.76 72.34, 168.82 361.72, 202.58 434.07" stroke="#000000" stroke-width="1" fill="none"></path></g><g transform="translate(1251.1045952928841 453.73573113938346) rotate(0 101.2890589795004 217.033733622883)"><path d="M202.58 434.07 L191.08 424.43 L202.57 419.07 L202.58 434.07" stroke="none" stroke-width="0" fill="#000000" fill-rule="evenodd"></path><path d="M202.58 434.07 C199.07 431.12, 195.55 428.18, 191.08 424.43 M202.58 434.07 C198.04 430.26, 193.5 426.46, 191.08 424.43 M191.08 424.43 C195.3 422.46, 199.52 420.49, 202.57 419.07 M191.08 424.43 C194.42 422.87, 197.76 421.32, 202.57 419.07 M202.57 419.07 C202.58 424.47, 202.58 429.87, 202.58 434.07 M202.57 419.07 C202.57 423.16, 202.58 427.25, 202.58 434.07 M202.58 434.07 C202.58 434.07, 202.58 434.07, 202.58 434.07 M202.58 434.07 C202.58 434.07, 202.58 434.07, 202.58 434.07" stroke="#000000" stroke-width="1" fill="none"></path></g></g><g transform="translate(1356.883500410094 668.2234415238496) rotate(64.9060497943727 15 11.5)"><text x="0" y="19" font-family="Helvetica, Segoe UI Emoji" font-size="20px" fill="#000000" text-anchor="start" style="white-space: pre;" direction="ltr">hat</text></g><g stroke-linecap="round" transform="translate(612.0515185327436 937.8083499278265) rotate(0 94.50000000000011 31.5)"><path d="M15.75 0 M15.75 0 C75 0, 134.24 0, 173.25 0 M15.75 0 C76.49 0, 137.23 0, 173.25 0 M173.25 0 C183.75 0, 189 5.25, 189 15.75 M173.25 0 C183.75 0, 189 5.25, 189 15.75 M189 15.75 C189 22.94, 189 30.13, 189 47.25 M189 15.75 C189 28.32, 189 40.89, 189 47.25 M189 47.25 C189 57.75, 183.75 63, 173.25 63 M189 47.25 C189 57.75, 183.75 63, 173.25 63 M173.25 63 C123.78 63, 74.3 63, 15.75 63 M173.25 63 C131.68 63, 90.11 63, 15.75 63 M15.75 63 C5.25 63, 0 57.75, 0 47.25 M15.75 63 C5.25 63, 0 57.75, 0 47.25 M0 47.25 C0 37.92, 0 28.59, 0 15.75 M0 47.25 C0 39.82, 0 32.4, 0 15.75 M0 15.75 C0 5.25, 5.25 0, 15.75 0 M0 15.75 C0 5.25, 5.25 0, 15.75 0" stroke="#000000" stroke-width="1" fill="none"></path></g><g stroke-linecap="round" transform="translate(1380.532096604534 978.4648666986798) rotate(0 94.5 31.5)"><path d="M15.75 0 M15.75 0 C75.03 0, 134.31 0, 173.25 0 M173.25 0 C183.75 0, 189 5.25, 189 15.75 M189 15.75 C189 22.07, 189 28.39, 189 47.25 M189 47.25 C189 57.75, 183.75 63, 173.25 63 M173.25 63 C114.17 63, 55.08 63, 15.75 63 M15.75 63 C5.25 63, 0 57.75, 0 47.25 M0 47.25 C0 39.02, 0 30.79, 0 15.75 M0 15.75 C0 5.25, 5.25 0, 15.75 0" stroke="#000000" stroke-width="1.5" fill="none" stroke-dasharray="8 9"></path></g><g transform="translate(668.5515185327436 960.3083499278265) rotate(0 38 9.5)"><text x="38" y="15" font-family="Helvetica, Segoe UI Emoji" font-size="16px" fill="#000000" text-anchor="middle" style="white-space: pre;" direction="ltr">Statistiken</text></g><g stroke-linecap="round" transform="translate(1154.1342091006984 978.9489603818824) rotate(0 94.5 31.5)"><path d="M15.75 0 M15.75 0 C58.66 0, 101.57 0, 173.25 0 M173.25 0 C183.75 0, 189 5.25, 189 15.75 M189 15.75 C189 25.17, 189 34.58, 189 47.25 M189 47.25 C189 57.75, 183.75 63, 173.25 63 M173.25 63 C120.8 63, 68.35 63, 15.75 63 M15.75 63 C5.25 63, 0 57.75, 0 47.25 M0 47.25 C0 37.81, 0 28.37, 0 15.75 M0 15.75 C0 5.25, 5.25 0, 15.75 0" stroke="#000000" stroke-width="1.5" fill="none" stroke-dasharray="8 9"></path></g><g transform="translate(1456.032096604534 1000.9648666986798) rotate(0 19 9.5)"><text x="19" y="15" font-family="Helvetica, Segoe UI Emoji" font-size="16px" fill="#000000" text-anchor="middle" style="white-space: pre;" direction="ltr">Preis</text></g><g transform="translate(1205.1342091006984 1001.4489603818824) rotate(0 43.5 9.5)"><text x="43.5" y="15" font-family="Helvetica, Segoe UI Emoji" font-size="16px" fill="#000000" text-anchor="middle" style="white-space: pre;" direction="ltr">Ausstattung</text></g><g stroke-linecap="round" transform="translate(2438.3213495679365 26.045099246146037) rotate(0 112 31.5)"><path d="M15.75 0 M15.75 0 C59.02 0, 102.3 0, 208.25 0 M15.75 0 C85.97 0, 156.19 0, 208.25 0 M208.25 0 C218.75 0, 224 5.25, 224 15.75 M208.25 0 C218.75 0, 224 5.25, 224 15.75 M224 15.75 C224 25.84, 224 35.93, 224 47.25 M224 15.75 C224 25.9, 224 36.04, 224 47.25 M224 47.25 C224 57.75, 218.75 63, 208.25 63 M224 47.25 C224 57.75, 218.75 63, 208.25 63 M208.25 63 C157.2 63, 106.16 63, 15.75 63 M208.25 63 C143.97 63, 79.68 63, 15.75 63 M15.75 63 C5.25 63, 0 57.75, 0 47.25 M15.75 63 C5.25 63, 0 57.75, 0 47.25 M0 47.25 C0 37.4, 0 27.55, 0 15.75 M0 47.25 C0 39.85, 0 32.45, 0 15.75 M0 15.75 C0 5.25, 5.25 0, 15.75 0 M0 15.75 C0 5.25, 5.25 0, 15.75 0" stroke="#000000" stroke-width="1" fill="none"></path></g><g transform="translate(2516.3213495679365 48.54509924614604) rotate(0 34 9.5)"><text x="34" y="15" font-family="Helvetica, Segoe UI Emoji" font-size="16px" fill="#000000" text-anchor="middle" style="white-space: pre;" direction="ltr">Flugzeug</text></g><g stroke-linecap="round" transform="translate(2441.699015832106 248.53789431462496) rotate(0 112 31.5)"><path d="M15.75 0 M15.75 0 C77.94 0, 140.13 0, 208.25 0 M15.75 0 C63.54 0, 111.32 0, 208.25 0 M208.25 0 C218.75 0, 224 5.25, 224 15.75 M208.25 0 C218.75 0, 224 5.25, 224 15.75 M224 15.75 C224 27.69, 224 39.62, 224 47.25 M224 15.75 C224 25.51, 224 35.28, 224 47.25 M224 47.25 C224 57.75, 218.75 63, 208.25 63 M224 47.25 C224 57.75, 218.75 63, 208.25 63 M208.25 63 C158.74 63, 109.23 63, 15.75 63 M208.25 63 C136.77 63, 65.29 63, 15.75 63 M15.75 63 C5.25 63, 0 57.75, 0 47.25 M15.75 63 C5.25 63, 0 57.75, 0 47.25 M0 47.25 C0 40.77, 0 34.29, 0 15.75 M0 47.25 C0 35.28, 0 23.32, 0 15.75 M0 15.75 C0 5.25, 5.25 0, 15.75 0 M0 15.75 C0 5.25, 5.25 0, 15.75 0" stroke="#000000" stroke-width="1" fill="none"></path></g><g stroke-linecap="round" transform="translate(2440.1099317944027 143.7245218496489) rotate(0 112 31.5)"><path d="M15.75 0 M15.75 0 C78.95 0, 142.15 0, 208.25 0 M15.75 0 C68.73 0, 121.71 0, 208.25 0 M208.25 0 C218.75 0, 224 5.25, 224 15.75 M208.25 0 C218.75 0, 224 5.25, 224 15.75 M224 15.75 C224 22.08, 224 28.4, 224 47.25 M224 15.75 C224 22.74, 224 29.73, 224 47.25 M224 47.25 C224 57.75, 218.75 63, 208.25 63 M224 47.25 C224 57.75, 218.75 63, 208.25 63 M208.25 63 C152.97 63, 97.68 63, 15.75 63 M208.25 63 C140.27 63, 72.3 63, 15.75 63 M15.75 63 C5.25 63, 0 57.75, 0 47.25 M15.75 63 C5.25 63, 0 57.75, 0 47.25 M0 47.25 C0 40.21, 0 33.17, 0 15.75 M0 47.25 C0 37.69, 0 28.12, 0 15.75 M0 15.75 C0 5.25, 5.25 0, 15.75 0 M0 15.75 C0 5.25, 5.25 0, 15.75 0" stroke="#000000" stroke-width="1" fill="none"></path></g><g stroke-linecap="round" transform="translate(2336.321180280779 475.22526254295883) rotate(0 112 31.5)"><path d="M15.75 0 M15.75 0 C83.64 0, 151.52 0, 208.25 0 M208.25 0 C218.75 0, 224 5.25, 224 15.75 M224 15.75 C224 26.51, 224 37.28, 224 47.25 M224 47.25 C224 57.75, 218.75 63, 208.25 63 M208.25 63 C150.42 63, 92.6 63, 15.75 63 M15.75 63 C5.25 63, 0 57.75, 0 47.25 M0 47.25 C0 40.81, 0 34.38, 0 15.75 M0 15.75 C0 5.25, 5.25 0, 15.75 0" stroke="#000000" stroke-width="1.5" fill="none" stroke-dasharray="8 9"></path></g><g transform="translate(2538.699015832106 271.03789431462496) rotate(0 15 9.5)"><text x="15" y="15" font-family="Helvetica, Segoe UI Emoji" font-size="16px" fill="#000000" text-anchor="middle" style="white-space: pre;" direction="ltr">Bus</text></g><g transform="translate(2534.6099317944027 166.2245218496489) rotate(0 17.5 9.5)"><text x="17.5" y="15" font-family="Helvetica, Segoe UI Emoji" font-size="16px" fill="#000000" text-anchor="middle" style="white-space: pre;" direction="ltr">Auto</text></g><g transform="translate(2422.321180280779 497.72526254295883) rotate(0 26 9.5)"><text x="26" y="15" font-family="Helvetica, Segoe UI Emoji" font-size="16px" fill="#000000" text-anchor="middle" style="white-space: pre;" direction="ltr">Kosten</text></g><g stroke-linecap="round"><g transform="translate(2156.413965014286 347.10056325165294) rotate(0 83.70195715027148 79.25077466750577)"><path d="M0 0 C27.9 26.42, 139.5 132.08, 167.4 158.5 M0 0 C27.9 26.42, 139.5 132.08, 167.4 158.5" stroke="#000000" stroke-width="1" fill="none"></path></g><g transform="translate(2156.413965014286 347.10056325165294) rotate(0 83.70195715027148 79.25077466750577)"><path d="M167.4 158.5 L153.17 153.76 L161.89 144.55 L167.4 158.5" stroke="none" stroke-width="0" fill="#000000" fill-rule="evenodd"></path><path d="M167.4 158.5 C162.29 156.8, 157.17 155.09, 153.17 153.76 M167.4 158.5 C163.51 157.2, 159.61 155.91, 153.17 153.76 M153.17 153.76 C156.1 150.66, 159.03 147.57, 161.89 144.55 M153.17 153.76 C155.24 151.57, 157.31 149.39, 161.89 144.55 M161.89 144.55 C163.72 149.19, 165.56 153.82, 167.4 158.5 M161.89 144.55 C163.18 147.81, 164.46 151.06, 167.4 158.5 M167.4 158.5 C167.4 158.5, 167.4 158.5, 167.4 158.5 M167.4 158.5 C167.4 158.5, 167.4 158.5, 167.4 158.5" stroke="#000000" stroke-width="1" fill="none"></path></g></g><g transform="translate(2231.1322236053848 404.95752768870136) rotate(42.37396219084096 12 9.5)"><text x="0" y="15" font-family="Helvetica, Segoe UI Emoji" font-size="16px" fill="#000000" text-anchor="start" style="white-space: pre;" direction="ltr">hat</text></g><g stroke-linecap="round" transform="translate(225.51321669047206 425.37015836684384) rotate(0 94.5 31.5)"><path d="M15.75 0 M15.75 0 C50.26 0, 84.78 0, 173.25 0 M15.75 0 C55.35 0, 94.95 0, 173.25 0 M173.25 0 C183.75 0, 189 5.25, 189 15.75 M173.25 0 C183.75 0, 189 5.25, 189 15.75 M189 15.75 C189 22.68, 189 29.61, 189 47.25 M189 15.75 C189 27.28, 189 38.81, 189 47.25 M189 47.25 C189 57.75, 183.75 63, 173.25 63 M189 47.25 C189 57.75, 183.75 63, 173.25 63 M173.25 63 C125.23 63, 77.21 63, 15.75 63 M173.25 63 C140.89 63, 108.52 63, 15.75 63 M15.75 63 C5.25 63, 0 57.75, 0 47.25 M15.75 63 C5.25 63, 0 57.75, 0 47.25 M0 47.25 C0 36.91, 0 26.57, 0 15.75 M0 47.25 C0 35.52, 0 23.79, 0 15.75 M0 15.75 C0 5.25, 5.25 0, 15.75 0 M0 15.75 C0 5.25, 5.25 0, 15.75 0" stroke="#000000" stroke-width="1" fill="none"></path></g><g stroke-linecap="round" transform="translate(281.8449545499436 695.6587024911635) rotate(0 94.5 31.5)"><path d="M15.75 0 M15.75 0 C53.37 0, 90.99 0, 173.25 0 M15.75 0 C77.12 0, 138.48 0, 173.25 0 M173.25 0 C183.75 0, 189 5.25, 189 15.75 M173.25 0 C183.75 0, 189 5.25, 189 15.75 M189 15.75 C189 24.4, 189 33.06, 189 47.25 M189 15.75 C189 24.74, 189 33.73, 189 47.25 M189 47.25 C189 57.75, 183.75 63, 173.25 63 M189 47.25 C189 57.75, 183.75 63, 173.25 63 M173.25 63 C139.76 63, 106.28 63, 15.75 63 M173.25 63 C114.6 63, 55.96 63, 15.75 63 M15.75 63 C5.25 63, 0 57.75, 0 47.25 M15.75 63 C5.25 63, 0 57.75, 0 47.25 M0 47.25 C0 38.85, 0 30.44, 0 15.75 M0 47.25 C0 36.85, 0 26.45, 0 15.75 M0 15.75 C0 5.25, 5.25 0, 15.75 0 M0 15.75 C0 5.25, 5.25 0, 15.75 0" stroke="#000000" stroke-width="1" fill="none"></path></g><g transform="translate(294.51321669047206 447.87015836684384) rotate(0 25.5 9.5)"><text x="25.5" y="15" font-family="Helvetica, Segoe UI Emoji" font-size="16px" fill="#000000" text-anchor="middle" style="white-space: pre;" direction="ltr">Events</text></g><g transform="translate(303.3449545499436 718.1587024911635) rotate(0 73 9.5)"><text x="73" y="15" font-family="Helvetica, Segoe UI Emoji" font-size="16px" fill="#000000" text-anchor="middle" style="white-space: pre;" direction="ltr">Sehenswürdigkeiten</text></g><g stroke-linecap="round" transform="translate(2085.8996448283515 640.6843744833355) rotate(0 94.5 31.5)"><path d="M15.75 0 M15.75 0 C49.29 0, 82.83 0, 173.25 0 M173.25 0 C183.75 0, 189 5.25, 189 15.75 M189 15.75 C189 22.17, 189 28.6, 189 47.25 M189 47.25 C189 57.75, 183.75 63, 173.25 63 M173.25 63 C119.62 63, 66 63, 15.75 63 M15.75 63 C5.25 63, 0 57.75, 0 47.25 M0 47.25 C0 36.9, 0 26.54, 0 15.75 M0 15.75 C0 5.25, 5.25 0, 15.75 0" stroke="#000000" stroke-width="1.5" fill="none" stroke-dasharray="8 9"></path></g><g stroke-linecap="round" transform="translate(2086.6653016243763 727.9170630984092) rotate(0 94.5 31.5)"><path d="M15.75 0 M15.75 0 C56.5 0, 97.24 0, 173.25 0 M173.25 0 C183.75 0, 189 5.25, 189 15.75 M189 15.75 C189 22.88, 189 30, 189 47.25 M189 47.25 C189 57.75, 183.75 63, 173.25 63 M173.25 63 C112.78 63, 52.32 63, 15.75 63 M15.75 63 C5.25 63, 0 57.75, 0 47.25 M0 47.25 C0 35.77, 0 24.29, 0 15.75 M0 15.75 C0 5.25, 5.25 0, 15.75 0" stroke="#000000" stroke-width="1.5" fill="none" stroke-dasharray="8 9"></path></g><g stroke-linecap="round" transform="translate(2115.0069115278466 825.0526926333929) rotate(0 94.5 31.5)"><path d="M15.75 0 M15.75 0 C52.42 0, 89.09 0, 173.25 0 M15.75 0 C63.37 0, 111 0, 173.25 0 M173.25 0 C183.75 0, 189 5.25, 189 15.75 M173.25 0 C183.75 0, 189 5.25, 189 15.75 M189 15.75 C189 27.98, 189 40.2, 189 47.25 M189 15.75 C189 24.52, 189 33.28, 189 47.25 M189 47.25 C189 57.75, 183.75 63, 173.25 63 M189 47.25 C189 57.75, 183.75 63, 173.25 63 M173.25 63 C134.89 63, 96.54 63, 15.75 63 M173.25 63 C123.46 63, 73.67 63, 15.75 63 M15.75 63 C5.25 63, 0 57.75, 0 47.25 M15.75 63 C5.25 63, 0 57.75, 0 47.25 M0 47.25 C0 34.7, 0 22.15, 0 15.75 M0 47.25 C0 38.59, 0 29.93, 0 15.75 M0 15.75 C0 5.25, 5.25 0, 15.75 0 M0 15.75 C0 5.25, 5.25 0, 15.75 0" stroke="#000000" stroke-width="1" fill="none"></path></g><g stroke-linecap="round" transform="translate(2320.6070903029786 823.2998921919686) rotate(0 94.5 31.5)"><path d="M15.75 0 M15.75 0 C65.54 0, 115.33 0, 173.25 0 M15.75 0 C50.98 0, 86.21 0, 173.25 0 M173.25 0 C183.75 0, 189 5.25, 189 15.75 M173.25 0 C183.75 0, 189 5.25, 189 15.75 M189 15.75 C189 24.41, 189 33.07, 189 47.25 M189 15.75 C189 28.02, 189 40.3, 189 47.25 M189 47.25 C189 57.75, 183.75 63, 173.25 63 M189 47.25 C189 57.75, 183.75 63, 173.25 63 M173.25 63 C128.7 63, 84.14 63, 15.75 63 M173.25 63 C116.16 63, 59.06 63, 15.75 63 M15.75 63 C5.25 63, 0 57.75, 0 47.25 M15.75 63 C5.25 63, 0 57.75, 0 47.25 M0 47.25 C0 34.74, 0 22.22, 0 15.75 M0 47.25 C0 35.16, 0 23.08, 0 15.75 M0 15.75 C0 5.25, 5.25 0, 15.75 0 M0 15.75 C0 5.25, 5.25 0, 15.75 0" stroke="#000000" stroke-width="1" fill="none"></path></g><g stroke-linecap="round" transform="translate(2524.5282975864793 824.9050347338084) rotate(0 94.5 31.5)"><path d="M15.75 0 M15.75 0 C68.71 0, 121.68 0, 173.25 0 M15.75 0 C56.94 0, 98.13 0, 173.25 0 M173.25 0 C183.75 0, 189 5.25, 189 15.75 M173.25 0 C183.75 0, 189 5.25, 189 15.75 M189 15.75 C189 27.97, 189 40.18, 189 47.25 M189 15.75 C189 24.26, 189 32.77, 189 47.25 M189 47.25 C189 57.75, 183.75 63, 173.25 63 M189 47.25 C189 57.75, 183.75 63, 173.25 63 M173.25 63 C137.18 63, 101.11 63, 15.75 63 M173.25 63 C120.79 63, 68.33 63, 15.75 63 M15.75 63 C5.25 63, 0 57.75, 0 47.25 M15.75 63 C5.25 63, 0 57.75, 0 47.25 M0 47.25 C0 38.92, 0 30.59, 0 15.75 M0 47.25 C0 34.76, 0 22.28, 0 15.75 M0 15.75 C0 5.25, 5.25 0, 15.75 0 M0 15.75 C0 5.25, 5.25 0, 15.75 0" stroke="#000000" stroke-width="1" fill="none"></path></g><g transform="translate(2127.8996448283515 663.1843744833355) rotate(0 52.5 9.5)"><text x="52.5" y="15" font-family="Helvetica, Segoe UI Emoji" font-size="16px" fill="#000000" text-anchor="middle" style="white-space: pre;" direction="ltr">Anfangsdatum</text></g><g transform="translate(2143.6653016243763 750.4170630984092) rotate(0 37.5 9.5)"><text x="37.5" y="15" font-family="Helvetica, Segoe UI Emoji" font-size="16px" fill="#000000" text-anchor="middle" style="white-space: pre;" direction="ltr">Enddatum</text></g><g transform="translate(2195.5069115278466 847.5526926333929) rotate(0 14 9.5)"><text x="14" y="15" font-family="Helvetica, Segoe UI Emoji" font-size="16px" fill="#000000" text-anchor="middle" style="white-space: pre;" direction="ltr">Tag</text></g><g transform="translate(2392.1070903029786 845.7998921919686) rotate(0 23 9.5)"><text x="23" y="15" font-family="Helvetica, Segoe UI Emoji" font-size="16px" fill="#000000" text-anchor="middle" style="white-space: pre;" direction="ltr">Monat</text></g><g transform="translate(2602.5282975864793 847.4050347338084) rotate(0 16.5 9.5)"><text x="16.5" y="15" font-family="Helvetica, Segoe UI Emoji" font-size="16px" fill="#000000" text-anchor="middle" style="white-space: pre;" direction="ltr">Jahr</text></g><g stroke-linecap="round" transform="translate(2093.951681425797 817.0416587915468) rotate(0 319.4243262829955 40.73392096978884)"><path d="M0 0 C151.51 0, 303.01 0, 638.85 0 M638.85 0 C638.85 31.09, 638.85 62.18, 638.85 81.47 M638.85 81.47 C392.11 81.47, 145.37 81.47, 0 81.47 M0 81.47 C0 56.29, 0 31.11, 0 0" stroke="#000000" stroke-width="1.5" fill="none" stroke-dasharray="8 9"></path></g><g stroke-linecap="round" transform="translate(2427.6848107615433 18.823638088176494) rotate(0 121.55727381221209 151.3507232759896)"><path d="M0 0 C76.33 0, 152.66 0, 243.11 0 M243.11 0 C243.11 107.33, 243.11 214.66, 243.11 302.7 M243.11 302.7 C158.32 302.7, 73.54 302.7, 0 302.7 M0 302.7 C0 227.28, 0 151.86, 0 0" stroke="#000000" stroke-width="1.5" fill="none" stroke-dasharray="8 9"></path></g><g stroke-linecap="round"><g transform="translate(2156.734069694683 346.91985423966844) rotate(0 131.9001565977769 -91.35209138412898)"><path d="M0 0 C43.97 -30.45, 219.83 -152.25, 263.8 -182.7 M0 0 C43.97 -30.45, 219.83 -152.25, 263.8 -182.7" stroke="#000000" stroke-width="1" fill="none"></path></g><g transform="translate(2156.734069694683 346.91985423966844) rotate(0 131.9001565977769 -91.35209138412898)"><path d="M263.8 -182.7 L256.23 -169.75 L249.02 -180.18 L263.8 -182.7" stroke="none" stroke-width="0" fill="#000000" fill-rule="evenodd"></path><path d="M263.8 -182.7 C262.17 -179.92, 260.55 -177.13, 256.23 -169.75 M263.8 -182.7 C261.18 -178.23, 258.57 -173.75, 256.23 -169.75 M256.23 -169.75 C254.73 -171.92, 253.23 -174.09, 249.02 -180.18 M256.23 -169.75 C254.46 -172.32, 252.68 -174.89, 249.02 -180.18 M249.02 -180.18 C253.87 -181.01, 258.73 -181.84, 263.8 -182.7 M249.02 -180.18 C252.55 -180.78, 256.08 -181.38, 263.8 -182.7 M263.8 -182.7 C263.8 -182.7, 263.8 -182.7, 263.8 -182.7 M263.8 -182.7 C263.8 -182.7, 263.8 -182.7, 263.8 -182.7" stroke="#000000" stroke-width="1" fill="none"></path></g></g><g stroke-linecap="round" transform="translate(509.9195205235792 1021.4799279898767) rotate(0 94.5 31.5)"><path d="M15.75 0 M15.75 0 C59.84 0, 103.93 0, 173.25 0 M173.25 0 C183.75 0, 189 5.25, 189 15.75 M189 15.75 C189 24.56, 189 33.38, 189 47.25 M189 47.25 C189 57.75, 183.75 63, 173.25 63 M173.25 63 C138.44 63, 103.63 63, 15.75 63 M15.75 63 C5.25 63, 0 57.75, 0 47.25 M0 47.25 C0 39.21, 0 31.16, 0 15.75 M0 15.75 C0 5.25, 5.25 0, 15.75 0" stroke="#000000" stroke-width="1.5" fill="none" stroke-dasharray="8 9"></path></g><g stroke-linecap="round" transform="translate(711.7266426576484 1023.7585440582776) rotate(0 94.50000000000011 31.5)"><path d="M15.75 0 M15.75 0 C57.53 0, 99.3 0, 173.25 0 M173.25 0 C183.75 0, 189 5.25, 189 15.75 M189 15.75 C189 24.97, 189 34.2, 189 47.25 M189 47.25 C189 57.75, 183.75 63, 173.25 63 M173.25 63 C138.56 63, 103.86 63, 15.75 63 M15.75 63 C5.25 63, 0 57.75, 0 47.25 M0 47.25 C0 40.93, 0 34.6, 0 15.75 M0 15.75 C0 5.25, 5.25 0, 15.75 0" stroke="#000000" stroke-width="1.5" fill="none" stroke-dasharray="8 9"></path></g><g transform="translate(775.2266426576482 1046.2585440582775) rotate(0 31 9.5)"><text x="31" y="15" font-family="Helvetica, Segoe UI Emoji" font-size="16px" fill="#000000" text-anchor="middle" style="white-space: pre;" direction="ltr">Inzidenz</text></g><g transform="translate(579.9195205235792 1043.9799279898766) rotate(0 24.5 9.5)"><text x="24.5" y="15" font-family="Helvetica, Segoe UI Emoji" font-size="16px" fill="#000000" text-anchor="middle" style="white-space: pre;" direction="ltr">Wetter</text></g><g transform="translate(2269.088530084862 240.12594125170187) rotate(325.5217599845054 9 9.5)"><text x="0" y="15" font-family="Helvetica, Segoe UI Emoji" font-size="16px" fill="#000000" text-anchor="start" style="white-space: pre;" direction="ltr">ist</text></g><g stroke-linecap="round" transform="translate(62.15199105181705 695.4752092848296) rotate(0 94.5 31.5)"><path d="M15.75 0 M15.75 0 C57 0, 98.25 0, 173.25 0 M173.25 0 C183.75 0, 189 5.25, 189 15.75 M189 15.75 C189 25.9, 189 36.04, 189 47.25 M189 47.25 C189 57.75, 183.75 63, 173.25 63 M173.25 63 C133.51 63, 93.77 63, 15.75 63 M15.75 63 C5.25 63, 0 57.75, 0 47.25 M0 47.25 C0 37.01, 0 26.77, 0 15.75 M0 15.75 C0 5.25, 5.25 0, 15.75 0" stroke="#000000" stroke-width="1.5" fill="none" stroke-dasharray="8 9"></path></g><g stroke-linecap="round" transform="translate(13.468932362475016 333.8158375856674) rotate(0 94.5 31.5)"><path d="M15.75 0 M15.75 0 C71.8 0, 127.84 0, 173.25 0 M173.25 0 C183.75 0, 189 5.25, 189 15.75 M189 15.75 C189 24.61, 189 33.47, 189 47.25 M189 47.25 C189 57.75, 183.75 63, 173.25 63 M173.25 63 C113.09 63, 52.94 63, 15.75 63 M15.75 63 C5.25 63, 0 57.75, 0 47.25 M0 47.25 C0 35.15, 0 23.05, 0 15.75 M0 15.75 C0 5.25, 5.25 0, 15.75 0" stroke="#000000" stroke-width="1.5" fill="none" stroke-dasharray="8 9"></path></g><g transform="translate(126.15199105181705 717.9752092848296) rotate(0 30.5 9.5)"><text x="30.5" y="15" font-family="Helvetica, Segoe UI Emoji" font-size="16px" fill="#000000" text-anchor="middle" style="white-space: pre;" direction="ltr">Adresse</text></g><g stroke-linecap="round" transform="translate(1165.8239386955086 1067.9308397246991) rotate(0 94.5 31.5)"><path d="M15.75 0 M15.75 0 C76.01 0, 136.28 0, 173.25 0 M173.25 0 C183.75 0, 189 5.25, 189 15.75 M189 15.75 C189 22.94, 189 30.12, 189 47.25 M189 47.25 C189 57.75, 183.75 63, 173.25 63 M173.25 63 C116.74 63, 60.23 63, 15.75 63 M15.75 63 C5.25 63, 0 57.75, 0 47.25 M0 47.25 C0 39.69, 0 32.13, 0 15.75 M0 15.75 C0 5.25, 5.25 0, 15.75 0" stroke="#000000" stroke-width="1.5" fill="none" stroke-dasharray="8 9"></path></g><g transform="translate(1232.3239386955086 1090.4308397246991) rotate(0 28 9.5)"><text x="28" y="15" font-family="Helvetica, Segoe UI Emoji" font-size="16px" fill="#000000" text-anchor="middle" style="white-space: pre;" direction="ltr">Kontakt</text></g><g stroke-linecap="round" transform="translate(1389.2870893217103 1063.3980889621696) rotate(0 94.5 31.5)"><path d="M15.75 0 M15.75 0 C76.96 0, 138.16 0, 173.25 0 M173.25 0 C183.75 0, 189 5.25, 189 15.75 M189 15.75 C189 23.93, 189 32.1, 189 47.25 M189 47.25 C189 57.75, 183.75 63, 173.25 63 M173.25 63 C129.01 63, 84.77 63, 15.75 63 M15.75 63 C5.25 63, 0 57.75, 0 47.25 M0 47.25 C0 36.31, 0 25.37, 0 15.75 M0 15.75 C0 5.25, 5.25 0, 15.75 0" stroke="#000000" stroke-width="1.5" fill="none" stroke-dasharray="8 9"></path></g><g transform="translate(1444.7870893217103 1085.8980889621696) rotate(0 39 9.5)"><text x="39" y="15" font-family="Helvetica, Segoe UI Emoji" font-size="16px" fill="#000000" text-anchor="middle" style="white-space: pre;" direction="ltr">Bewertung</text></g><g stroke-linecap="round" transform="translate(1593.1442760265052 976.9107185313406) rotate(0 94.5 31.5)"><path d="M15.75 0 M15.75 0 C69.99 0, 124.23 0, 173.25 0 M173.25 0 C183.75 0, 189 5.25, 189 15.75 M189 15.75 C189 23.38, 189 31.01, 189 47.25 M189 47.25 C189 57.75, 183.75 63, 173.25 63 M173.25 63 C116.91 63, 60.57 63, 15.75 63 M15.75 63 C5.25 63, 0 57.75, 0 47.25 M0 47.25 C0 36.43, 0 25.61, 0 15.75 M0 15.75 C0 5.25, 5.25 0, 15.75 0" stroke="#000000" stroke-width="1.5" fill="none" stroke-dasharray="8 9"></path></g><g transform="translate(1657.1442760265052 999.4107185313406) rotate(0 30.5 9.5)"><text x="30.5" y="15" font-family="Helvetica, Segoe UI Emoji" font-size="16px" fill="#000000" text-anchor="middle" style="white-space: pre;" direction="ltr">Adresse</text></g><g stroke-linecap="round" transform="translate(1599.232261697697 1060.9015156886703) rotate(0 94.5 31.5)"><path d="M15.75 0 M15.75 0 C71.66 0, 127.57 0, 173.25 0 M173.25 0 C183.75 0, 189 5.25, 189 15.75 M189 15.75 C189 27.48, 189 39.22, 189 47.25 M189 47.25 C189 57.75, 183.75 63, 173.25 63 M173.25 63 C137.97 63, 102.69 63, 15.75 63 M15.75 63 C5.25 63, 0 57.75, 0 47.25 M0 47.25 C0 35.54, 0 23.83, 0 15.75 M0 15.75 C0 5.25, 5.25 0, 15.75 0" stroke="#000000" stroke-width="1.5" fill="none" stroke-dasharray="8 9"></path></g><g transform="translate(1663.732261697697 1083.4015156886703) rotate(0 30 9.5)"><text x="30" y="15" font-family="Helvetica, Segoe UI Emoji" font-size="16px" fill="#000000" text-anchor="middle" style="white-space: pre;" direction="ltr">Website</text></g><g transform="translate(77.46893236247502 356.3158375856674) rotate(0 30.5 9.5)"><text x="30.5" y="15" font-family="Helvetica, Segoe UI Emoji" font-size="16px" fill="#000000" text-anchor="middle" style="white-space: pre;" direction="ltr">Adresse</text></g><g stroke-linecap="round" transform="translate(69.97854443369283 776.1122243738516) rotate(0 94.5 31.5)"><path d="M15.75 0 M15.75 0 C69.82 0, 123.89 0, 173.25 0 M173.25 0 C183.75 0, 189 5.25, 189 15.75 M189 15.75 C189 23.6, 189 31.44, 189 47.25 M189 47.25 C189 57.75, 183.75 63, 173.25 63 M173.25 63 C112.52 63, 51.79 63, 15.75 63 M15.75 63 C5.25 63, 0 57.75, 0 47.25 M0 47.25 C0 38.13, 0 29.02, 0 15.75 M0 15.75 C0 5.25, 5.25 0, 15.75 0" stroke="#000000" stroke-width="1.5" fill="none" stroke-dasharray="8 9"></path></g><g stroke-linecap="round" transform="translate(284.28252653732557 854.57579284475) rotate(0 94.5 31.5)"><path d="M15.75 0 M15.75 0 C77.11 0, 138.48 0, 173.25 0 M173.25 0 C183.75 0, 189 5.25, 189 15.75 M189 15.75 C189 22.24, 189 28.72, 189 47.25 M189 47.25 C189 57.75, 183.75 63, 173.25 63 M173.25 63 C138.26 63, 103.28 63, 15.75 63 M15.75 63 C5.25 63, 0 57.75, 0 47.25 M0 47.25 C0 39.32, 0 31.39, 0 15.75 M0 15.75 C0 5.25, 5.25 0, 15.75 0" stroke="#000000" stroke-width="1.5" fill="none" stroke-dasharray="8 9"></path></g><g transform="translate(125.47854443369283 798.6122243738516) rotate(0 39 9.5)"><text x="39" y="15" font-family="Helvetica, Segoe UI Emoji" font-size="16px" fill="#000000" text-anchor="middle" style="white-space: pre;" direction="ltr">Bewertung</text></g><g stroke-linecap="round" transform="translate(283.415293446707 775.464481501676) rotate(0 94.5 31.5)"><path d="M15.75 0 M15.75 0 C56.11 0, 96.46 0, 173.25 0 M173.25 0 C183.75 0, 189 5.25, 189 15.75 M189 15.75 C189 27.53, 189 39.31, 189 47.25 M189 47.25 C189 57.75, 183.75 63, 173.25 63 M173.25 63 C141.44 63, 109.63 63, 15.75 63 M15.75 63 C5.25 63, 0 57.75, 0 47.25 M0 47.25 C0 37.81, 0 28.37, 0 15.75 M0 15.75 C0 5.25, 5.25 0, 15.75 0" stroke="#000000" stroke-width="1.5" fill="none" stroke-dasharray="8 9"></path></g><g transform="translate(348.28252653732557 877.07579284475) rotate(0 30.5 9.5)"><text x="30.5" y="15" font-family="Helvetica, Segoe UI Emoji" font-size="16px" fill="#000000" text-anchor="middle" style="white-space: pre;" direction="ltr">Adresse</text></g><g transform="translate(351.915293446707 797.964481501676) rotate(0 26 9.5)"><text x="26" y="15" font-family="Helvetica, Segoe UI Emoji" font-size="16px" fill="#000000" text-anchor="middle" style="white-space: pre;" direction="ltr">Kosten</text></g><g stroke-linecap="round" transform="translate(10 423.8051098025139) rotate(0 94.5 31.5)"><path d="M15.75 0 M15.75 0 C60.85 0, 105.96 0, 173.25 0 M173.25 0 C183.75 0, 189 5.25, 189 15.75 M189 15.75 C189 26.95, 189 38.14, 189 47.25 M189 47.25 C189 57.75, 183.75 63, 173.25 63 M173.25 63 C111.95 63, 50.66 63, 15.75 63 M15.75 63 C5.25 63, 0 57.75, 0 47.25 M0 47.25 C0 40.18, 0 33.11, 0 15.75 M0 15.75 C0 5.25, 5.25 0, 15.75 0" stroke="#000000" stroke-width="1.5" fill="none" stroke-dasharray="8 9"></path></g><g transform="translate(65.5 446.3051098025139) rotate(0 39 9.5)"><text x="39" y="15" font-family="Helvetica, Segoe UI Emoji" font-size="16px" fill="#000000" text-anchor="middle" style="white-space: pre;" direction="ltr">Bewertung</text></g><g stroke-linecap="round" transform="translate(222.77827835768494 333.3875849319347) rotate(0 94.5 31.5)"><path d="M15.75 0 M15.75 0 C66.1 0, 116.45 0, 173.25 0 M173.25 0 C183.75 0, 189 5.25, 189 15.75 M189 15.75 C189 23.53, 189 31.31, 189 47.25 M189 47.25 C189 57.75, 183.75 63, 173.25 63 M173.25 63 C124.1 63, 74.96 63, 15.75 63 M15.75 63 C5.25 63, 0 57.75, 0 47.25 M0 47.25 C0 40.07, 0 32.88, 0 15.75 M0 15.75 C0 5.25, 5.25 0, 15.75 0" stroke="#000000" stroke-width="1.5" fill="none" stroke-dasharray="8 9"></path></g><g transform="translate(291.27827835768494 355.8875849319347) rotate(0 26 9.5)"><text x="26" y="15" font-family="Helvetica, Segoe UI Emoji" font-size="16px" fill="#000000" text-anchor="middle" style="white-space: pre;" direction="ltr">Kosten</text></g><g stroke-linecap="round"><g transform="translate(463.6464226111766 536.8283552428313) rotate(0 -24.11484318676264 -21.961732187944563)"><path d="M0 0 C-8.04 -7.32, -40.19 -36.6, -48.23 -43.92 M0 0 C-8.04 -7.32, -40.19 -36.6, -48.23 -43.92" stroke="#000000" stroke-width="1" fill="none"></path></g><g transform="translate(463.6464226111766 536.8283552428313) rotate(0 -24.11484318676264 -21.961732187944563)"><path d="M-48.23 -43.92 L-33.91 -39.46 L-42.45 -30.08 L-48.23 -43.92" stroke="none" stroke-width="0" fill="#000000" fill-rule="evenodd"></path><path d="M-48.23 -43.92 C-45.34 -43.02, -42.45 -42.12, -33.91 -39.46 M-48.23 -43.92 C-43.71 -42.51, -39.19 -41.1, -33.91 -39.46 M-33.91 -39.46 C-36.9 -36.17, -39.89 -32.89, -42.45 -30.08 M-33.91 -39.46 C-35.71 -37.48, -37.51 -35.5, -42.45 -30.08 M-42.45 -30.08 C-43.87 -33.5, -45.3 -36.92, -48.23 -43.92 M-42.45 -30.08 C-43.86 -33.47, -45.28 -36.87, -48.23 -43.92 M-48.23 -43.92 C-48.23 -43.92, -48.23 -43.92, -48.23 -43.92 M-48.23 -43.92 C-48.23 -43.92, -48.23 -43.92, -48.23 -43.92" stroke="#000000" stroke-width="1" fill="none"></path></g></g><g stroke-linecap="round"><g transform="translate(461.9239338121222 608.311640403592) rotate(0 -40.90910897754384 40.047864578016515)"><path d="M0 0 C-13.64 13.35, -68.18 66.75, -81.82 80.1 M0 0 C-13.64 13.35, -68.18 66.75, -81.82 80.1" stroke="#000000" stroke-width="1" fill="none"></path></g><g transform="translate(461.9239338121222 608.311640403592) rotate(0 -40.90910897754384 40.047864578016515)"><path d="M-81.82 80.1 L-76.54 66.06 L-67.67 75.12 L-81.82 80.1" stroke="none" stroke-width="0" fill="#000000" fill-rule="evenodd"></path><path d="M-81.82 80.1 C-80.71 77.14, -79.6 74.19, -76.54 66.06 M-81.82 80.1 C-80.73 77.21, -79.65 74.33, -76.54 66.06 M-76.54 66.06 C-74.3 68.34, -72.07 70.62, -67.67 75.12 M-76.54 66.06 C-74.74 67.89, -72.94 69.73, -67.67 75.12 M-67.67 75.12 C-71.8 76.57, -75.93 78.02, -81.82 80.1 M-67.67 75.12 C-71.91 76.61, -76.16 78.1, -81.82 80.1 M-81.82 80.1 C-81.82 80.1, -81.82 80.1, -81.82 80.1 M-81.82 80.1 C-81.82 80.1, -81.82 80.1, -81.82 80.1" stroke="#000000" stroke-width="1" fill="none"></path></g></g><g transform="translate(442.57494704190026 498.8220882894136) rotate(42.11261008116182 11 11.5)"><text x="0" y="19" font-family="Helvetica, Segoe UI Emoji" font-size="20px" fill="#000000" text-anchor="start" style="white-space: pre;" direction="ltr">ist</text></g><g transform="translate(405.64429912674836 622.6356887010285) rotate(314.6815639853751 11 11.5)"><text x="0" y="19" font-family="Helvetica, Segoe UI Emoji" font-size="20px" fill="#000000" text-anchor="start" style="white-space: pre;" direction="ltr">ist</text></g><g stroke-linecap="round"><g transform="translate(830.2029028736808 843.1352722254175) rotate(0 -21.051468332241257 43.67059919986244)"><path d="M0 0 C-7.02 14.56, -35.09 72.78, -42.1 87.34 M0 0 C-7.02 14.56, -35.09 72.78, -42.1 87.34" stroke="#000000" stroke-width="1" fill="none"></path></g><g transform="translate(830.2029028736808 843.1352722254175) rotate(0 -21.051468332241257 43.67059919986244)"><path d="M-42.1 87.34 L-41.91 72.34 L-30.49 77.85 L-42.1 87.34" stroke="none" stroke-width="0" fill="#000000" fill-rule="evenodd"></path><path d="M-42.1 87.34 C-42.03 81.55, -41.95 75.76, -41.91 72.34 M-42.1 87.34 C-42.03 81.47, -41.95 75.61, -41.91 72.34 M-41.91 72.34 C-39.17 73.66, -36.43 74.98, -30.49 77.85 M-41.91 72.34 C-39.16 73.67, -36.41 74.99, -30.49 77.85 M-30.49 77.85 C-34.79 81.36, -39.08 84.87, -42.1 87.34 M-30.49 77.85 C-34.15 80.84, -37.82 83.84, -42.1 87.34 M-42.1 87.34 C-42.1 87.34, -42.1 87.34, -42.1 87.34 M-42.1 87.34 C-42.1 87.34, -42.1 87.34, -42.1 87.34" stroke="#000000" stroke-width="1" fill="none"></path></g></g><g transform="translate(786.9686685967747 861.228044111982) rotate(295.22313752260993 15 11.5)"><text x="0" y="19" font-family="Helvetica, Segoe UI Emoji" font-size="20px" fill="#000000" text-anchor="start" style="white-space: pre;" direction="ltr">hat</text></g></svg>