<svg version="1.1" xmlns="http://www.w3.org/2000/svg" viewBox="0 0 1187.3908708152567 804.9149314578212" width="2374.7817416305134" height="1609.8298629156425">
  <!-- svg-source:excalidraw -->
  
  <defs>
    <style>
      @font-face {
        font-family: "Virgil";
        src: url("https://excalidraw.com/Virgil.woff2");
      }
      @font-face {
        font-family: "Cascadia";
        src: url("https://excalidraw.com/Cascadia.woff2");
      }
    </style>
  </defs>
  <rect x="0" y="0" width="1187.3908708152567" height="804.9149314578212" fill="#ffffff"></rect><g stroke-linecap="round" transform="translate(488.1970551383788 207.21532718398248) rotate(0 42.5 24)"><path d="M12 0 M12 0 C24.96 0, 37.93 0, 73 0 M12 0 C30.25 0, 48.5 0, 73 0 M73 0 C81 0, 85 4, 85 12 M73 0 C81 0, 85 4, 85 12 M85 12 C85 16.89, 85 21.78, 85 36 M85 12 C85 18.6, 85 25.21, 85 36 M85 36 C85 44, 81 48, 73 48 M85 36 C85 44, 81 48, 73 48 M73 48 C55.39 48, 37.78 48, 12 48 M73 48 C52.17 48, 31.33 48, 12 48 M12 48 C4 48, 0 44, 0 36 M12 48 C4 48, 0 44, 0 36 M0 36 C0 26.79, 0 17.58, 0 12 M0 36 C0 28.54, 0 21.07, 0 12 M0 12 C0 4, 4 0, 12 0 M0 12 C0 4, 4 0, 12 0" stroke="#000000" stroke-width="2" fill="none"></path></g><g transform="translate(501.6970551383788 221.71532718398248) rotate(0 29 9.5)"><text x="29" y="15" font-family="Helvetica, Segoe UI Emoji" font-size="16px" fill="#000000" text-anchor="middle" style="white-space: pre;" direction="ltr">Country</text></g><g stroke-linecap="round" transform="translate(669.4955407398265 140.53438131181827) rotate(0 47.36940760061589 21.205938459124667)"><path d="M10.6 0 M10.6 0 C38.21 0, 65.81 0, 84.14 0 M10.6 0 C25.53 0, 40.46 0, 84.14 0 M84.14 0 C91.2 0, 94.74 3.53, 94.74 10.6 M84.14 0 C91.2 0, 94.74 3.53, 94.74 10.6 M94.74 10.6 C94.74 17.75, 94.74 24.9, 94.74 31.81 M94.74 10.6 C94.74 15.32, 94.74 20.03, 94.74 31.81 M94.74 31.81 C94.74 38.88, 91.2 42.41, 84.14 42.41 M94.74 31.81 C94.74 38.88, 91.2 42.41, 84.14 42.41 M84.14 42.41 C60.4 42.41, 36.67 42.41, 10.6 42.41 M84.14 42.41 C63.99 42.41, 43.85 42.41, 10.6 42.41 M10.6 42.41 C3.53 42.41, 0 38.88, 0 31.81 M10.6 42.41 C3.53 42.41, 0 38.88, 0 31.81 M0 31.81 C0 23.47, 0 15.13, 0 10.6 M0 31.81 C0 25.78, 0 19.74, 0 10.6 M0 10.6 C0 3.53, 3.53 0, 10.6 0 M0 10.6 C0 3.53, 3.53 0, 10.6 0" stroke="#000000" stroke-width="2" fill="none"></path></g><g transform="translate(692.3649483404424 152.24031977094296) rotate(0 24.5 9.5)"><text x="24.5" y="15" font-family="Helvetica, Segoe UI Emoji" font-size="16px" fill="#000000" text-anchor="middle" style="white-space: pre;" direction="ltr">Flights</text></g><g stroke-linecap="round" transform="translate(191.59862904441434 159.62930363464085) rotate(0 46.74842172352237 20.756435322938643)"><path d="M10.38 0 M10.38 0 C37.49 0, 64.6 0, 83.12 0 M10.38 0 C31.71 0, 53.04 0, 83.12 0 M83.12 0 C90.04 0, 93.5 3.46, 93.5 10.38 M83.12 0 C90.04 0, 93.5 3.46, 93.5 10.38 M93.5 10.38 C93.5 14.61, 93.5 18.83, 93.5 31.13 M93.5 10.38 C93.5 14.93, 93.5 19.47, 93.5 31.13 M93.5 31.13 C93.5 38.05, 90.04 41.51, 83.12 41.51 M93.5 31.13 C93.5 38.05, 90.04 41.51, 83.12 41.51 M83.12 41.51 C59.57 41.51, 36.03 41.51, 10.38 41.51 M83.12 41.51 C55.37 41.51, 27.62 41.51, 10.38 41.51 M10.38 41.51 C3.46 41.51, 0 38.05, 0 31.13 M10.38 41.51 C3.46 41.51, 0 38.05, 0 31.13 M0 31.13 C0 26.66, 0 22.19, 0 10.38 M0 31.13 C0 23.81, 0 16.48, 0 10.38 M0 10.38 C0 3.46, 3.46 0, 10.38 0 M0 10.38 C0 3.46, 3.46 0, 10.38 0" stroke="#000000" stroke-width="2" fill="none"></path></g><g transform="translate(203.3470507679367 170.88573895757946) rotate(0 35 9.5)"><text x="35" y="15" font-family="Helvetica, Segoe UI Emoji" font-size="16px" fill="#000000" text-anchor="middle" style="white-space: pre;" direction="ltr">Continent</text></g><g stroke-linecap="round" transform="translate(702.7993681659468 653.6384390209054) rotate(0 50.33915714074533 29.55338917820049)"><path d="M14.78 0 M14.78 0 C40.06 0, 65.34 0, 85.9 0 M14.78 0 C39.83 0, 64.89 0, 85.9 0 M85.9 0 C95.75 0, 100.68 4.93, 100.68 14.78 M85.9 0 C95.75 0, 100.68 4.93, 100.68 14.78 M100.68 14.78 C100.68 24.62, 100.68 34.47, 100.68 44.33 M100.68 14.78 C100.68 24.77, 100.68 34.77, 100.68 44.33 M100.68 44.33 C100.68 54.18, 95.75 59.11, 85.9 59.11 M100.68 44.33 C100.68 54.18, 95.75 59.11, 85.9 59.11 M85.9 59.11 C61.61 59.11, 37.32 59.11, 14.78 59.11 M85.9 59.11 C58.62 59.11, 31.33 59.11, 14.78 59.11 M14.78 59.11 C4.93 59.11, 0 54.18, 0 44.33 M14.78 59.11 C4.93 59.11, 0 54.18, 0 44.33 M0 44.33 C0 37.4, 0 30.46, 0 14.78 M0 44.33 C0 33.58, 0 22.83, 0 14.78 M0 14.78 C0 4.93, 4.93 0, 14.78 0 M0 14.78 C0 4.93, 4.93 0, 14.78 0" stroke="#000000" stroke-width="2" fill="none"></path></g><g transform="translate(720.1385253066924 673.6918281991059) rotate(0 33 9.5)"><text x="33" y="15" font-family="Helvetica, Segoe UI Emoji" font-size="16px" fill="#000000" text-anchor="middle" style="white-space: pre;" direction="ltr">Statistics</text></g><g stroke-linecap="round" transform="translate(459.7406854871774 349.48901278696223) rotate(0 47.829052060779986 20.4229183538055)"><path d="M10.21 0 M10.21 0 C38.06 0, 65.9 0, 85.45 0 M10.21 0 C37.49 0, 64.77 0, 85.45 0 M85.45 0 C92.25 0, 95.66 3.4, 95.66 10.21 M85.45 0 C92.25 0, 95.66 3.4, 95.66 10.21 M95.66 10.21 C95.66 17.46, 95.66 24.72, 95.66 30.63 M95.66 10.21 C95.66 17.9, 95.66 25.59, 95.66 30.63 M95.66 30.63 C95.66 37.44, 92.25 40.85, 85.45 40.85 M95.66 30.63 C95.66 37.44, 92.25 40.85, 85.45 40.85 M85.45 40.85 C57.99 40.85, 30.53 40.85, 10.21 40.85 M85.45 40.85 C55.46 40.85, 25.48 40.85, 10.21 40.85 M10.21 40.85 C3.4 40.85, 0 37.44, 0 30.63 M10.21 40.85 C3.4 40.85, 0 37.44, 0 30.63 M0 30.63 C0 26.1, 0 21.56, 0 10.21 M0 30.63 C0 24.93, 0 19.23, 0 10.21 M0 10.21 C0 3.4, 3.4 0, 10.21 0 M0 10.21 C0 3.4, 3.4 0, 10.21 0" stroke="#000000" stroke-width="1" fill="none"></path></g><g transform="translate(492.5697375479572 360.4119311407677) rotate(0 15 9.5)"><text x="15" y="15" font-family="Helvetica, Segoe UI Emoji" font-size="16px" fill="#000000" text-anchor="middle" style="white-space: pre;" direction="ltr">City</text></g><g stroke-linecap="round" transform="translate(138.81232167500366 526.1474229995591) rotate(0 68.06109559161314 35.24802240778192)"><path d="M17.62 0 M17.62 0 C53.88 0, 90.13 0, 118.5 0 M17.62 0 C44.16 0, 70.69 0, 118.5 0 M118.5 0 C130.25 0, 136.12 5.87, 136.12 17.62 M118.5 0 C130.25 0, 136.12 5.87, 136.12 17.62 M136.12 17.62 C136.12 30.66, 136.12 43.7, 136.12 52.87 M136.12 17.62 C136.12 25.6, 136.12 33.58, 136.12 52.87 M136.12 52.87 C136.12 64.62, 130.25 70.5, 118.5 70.5 M136.12 52.87 C136.12 64.62, 130.25 70.5, 118.5 70.5 M118.5 70.5 C83.44 70.5, 48.39 70.5, 17.62 70.5 M118.5 70.5 C86.13 70.5, 53.77 70.5, 17.62 70.5 M17.62 70.5 C5.87 70.5, 0 64.62, 0 52.87 M17.62 70.5 C5.87 70.5, 0 64.62, 0 52.87 M0 52.87 C0 43.94, 0 35.01, 0 17.62 M0 52.87 C0 41.87, 0 30.86, 0 17.62 M0 17.62 C0 5.87, 5.87 0, 17.62 0 M0 17.62 C0 5.87, 5.87 0, 17.62 0" stroke="#000000" stroke-width="2" fill="none"></path></g><g transform="translate(183.37341726661634 551.8954454073411) rotate(0 23.5 9.5)"><text x="23.5" y="15" font-family="Helvetica, Segoe UI Emoji" font-size="16px" fill="#000000" text-anchor="middle" style="white-space: pre;" direction="ltr">Hotels</text></g><g stroke-linecap="round"><g transform="translate(580.097332455503 233.721576718544) rotate(0 42.88918006957442 -29.574274416943695)"><path d="M0 0 C14.3 -9.86, 71.48 -49.29, 85.78 -59.15 M0 0 C14.3 -9.86, 71.48 -49.29, 85.78 -59.15" stroke="#000000" stroke-width="2" fill="none"></path></g><g transform="translate(580.097332455503 233.721576718544) rotate(0 42.88918006957442 -29.574274416943695)"><path d="M0 0 L7.59 -12.94 L14.79 -2.5 L0 0" stroke="none" stroke-width="0" fill="#000000" fill-rule="evenodd"></path><path d="M0 0 C2.33 -3.96, 4.65 -7.93, 7.59 -12.94 M0 0 C1.6 -2.73, 3.21 -5.46, 7.59 -12.94 M7.59 -12.94 C10.3 -9.01, 13.01 -5.09, 14.79 -2.5 M7.59 -12.94 C10.15 -9.23, 12.7 -5.53, 14.79 -2.5 M14.79 -2.5 C10.43 -1.76, 6.06 -1.02, 0 0 M14.79 -2.5 C10.21 -1.72, 5.62 -0.95, 0 0 M0 0 C0 0, 0 0, 0 0 M0 0 C0 0, 0 0, 0 0" stroke="#000000" stroke-width="2" fill="none"></path></g></g><g stroke-linecap="round"><g transform="translate(479.90831852150177 211.8700981446804) rotate(0 -93.76885303953509 -15.891991018959061)"><path d="M0 0 C-31.26 -5.3, -156.28 -26.49, -187.54 -31.78 M0 0 C-31.26 -5.3, -156.28 -26.49, -187.54 -31.78" stroke="#000000" stroke-width="2" fill="none"></path></g><g transform="translate(479.90831852150177 211.8700981446804) rotate(0 -93.76885303953509 -15.891991018959061)"><path d="M-187.54 -31.78 L-173.07 -35.76 L-175.19 -23.26 L-187.54 -31.78" stroke="none" stroke-width="0" fill="#000000" fill-rule="evenodd"></path><path d="M-187.54 -31.78 C-184.08 -32.73, -180.62 -33.69, -173.07 -35.76 M-187.54 -31.78 C-183.1 -33, -178.66 -34.23, -173.07 -35.76 M-173.07 -35.76 C-173.67 -32.23, -174.27 -28.7, -175.19 -23.26 M-173.07 -35.76 C-173.85 -31.16, -174.63 -26.56, -175.19 -23.26 M-175.19 -23.26 C-177.96 -25.17, -180.72 -27.08, -187.54 -31.78 M-175.19 -23.26 C-178.35 -25.44, -181.51 -27.62, -187.54 -31.78 M-187.54 -31.78 C-187.54 -31.78, -187.54 -31.78, -187.54 -31.78 M-187.54 -31.78 C-187.54 -31.78, -187.54 -31.78, -187.54 -31.78" stroke="#000000" stroke-width="2" fill="none"></path></g></g><g stroke-linecap="round"><g transform="translate(457.29174008919745 392.848747820872) rotate(0 -106.32116324499339 63.63593893643656)"><path d="M0 0 C-35.44 21.21, -177.2 106.06, -212.64 127.27 M0 0 C-35.44 21.21, -177.2 106.06, -212.64 127.27" stroke="#000000" stroke-width="2" fill="none"></path></g><g transform="translate(457.29174008919745 392.848747820872) rotate(0 -106.32116324499339 63.63593893643656)"><path d="M0 0 L-8.41 12.42 L-14.92 1.54 L0 0" stroke="none" stroke-width="0" fill="#000000" fill-rule="evenodd"></path><path d="M0 0 C-1.91 2.82, -3.82 5.64, -8.41 12.42 M0 0 C-2.77 4.09, -5.53 8.17, -8.41 12.42 M-8.41 12.42 C-10.03 9.71, -11.65 7.01, -14.92 1.54 M-8.41 12.42 C-10.47 8.97, -12.54 5.52, -14.92 1.54 M-14.92 1.54 C-11.38 1.18, -7.84 0.81, 0 0 M-14.92 1.54 C-9.18 0.95, -3.43 0.35, 0 0 M0 0 C0 0, 0 0, 0 0 M0 0 C0 0, 0 0, 0 0" stroke="#000000" stroke-width="2" fill="none"></path></g></g><g stroke-linecap="round"><g transform="translate(560.702198769457 383.6277886616522) rotate(0 97.97689754110525 132.80934028637165)"><path d="M0 0 C32.66 44.27, 163.29 221.35, 195.95 265.62 M0 0 C32.66 44.27, 163.29 221.35, 195.95 265.62" stroke="#000000" stroke-width="2" fill="none"></path></g><g transform="translate(560.702198769457 383.6277886616522) rotate(0 97.97689754110525 132.80934028637165)"><path d="M195.95 265.62 L182.78 258.44 L192.98 250.92 L195.95 265.62" stroke="none" stroke-width="0" fill="#000000" fill-rule="evenodd"></path><path d="M195.95 265.62 C191.01 262.93, 186.07 260.23, 182.78 258.44 M195.95 265.62 C192.76 263.88, 189.57 262.14, 182.78 258.44 M182.78 258.44 C186.14 255.97, 189.49 253.49, 192.98 250.92 M182.78 258.44 C186.28 255.86, 189.78 253.28, 192.98 250.92 M192.98 250.92 C193.74 254.67, 194.5 258.43, 195.95 265.62 M192.98 250.92 C194.02 256.04, 195.06 261.17, 195.95 265.62 M195.95 265.62 C195.95 265.62, 195.95 265.62, 195.95 265.62 M195.95 265.62 C195.95 265.62, 195.95 265.62, 195.95 265.62" stroke="#000000" stroke-width="2" fill="none"></path></g></g><g transform="translate(346.23508166314787 169.83623953970817) rotate(8.562827046700297 40 9.5)"><text x="40" y="15" font-family="Helvetica, Segoe UI Emoji" font-size="16px" fill="#000000" text-anchor="middle" style="white-space: pre;" direction="ltr">LocatedOn</text></g><g transform="translate(606.035145093213 182.94796721740806) rotate(321.19654055907654 9.5 9.5)"><text x="0" y="15" font-family="Helvetica, Segoe UI Emoji" font-size="16px" fill="#000000" text-anchor="start" style="white-space: pre;" direction="ltr">To</text></g><g transform="translate(505.1528715226309 296.5775987747504) rotate(278.1522992028596 36 9.5)"><text x="0" y="15" font-family="Helvetica, Segoe UI Emoji" font-size="16px" fill="#000000" text-anchor="start" style="white-space: pre;" direction="ltr">LocatedIn</text></g><g transform="translate(660.0812932084496 501.19817205640845) rotate(52.2627373569184 15 9.5)"><text x="0" y="15" font-family="Helvetica, Segoe UI Emoji" font-size="16px" fill="#000000" text-anchor="start" style="white-space: pre;" direction="ltr">Has</text></g><g transform="translate(306.0537050836001 436.13938330249493) rotate(328.2634684835272 36 9.5)"><text x="0" y="15" font-family="Helvetica, Segoe UI Emoji" font-size="16px" fill="#000000" text-anchor="start" style="white-space: pre;" direction="ltr">LocatedIn</text></g><g stroke-linecap="round" transform="translate(644.4513044352975 732.5396364781996) rotate(0 38.43438286596961 21.70854927459385)"><path d="M10.85 0 M10.85 0 C24.47 0, 38.09 0, 66.01 0 M66.01 0 C73.25 0, 76.87 3.62, 76.87 10.85 M76.87 10.85 C76.87 19.1, 76.87 27.35, 76.87 32.56 M76.87 32.56 C76.87 39.8, 73.25 43.42, 66.01 43.42 M66.01 43.42 C51.28 43.42, 36.54 43.42, 10.85 43.42 M10.85 43.42 C3.62 43.42, 0 39.8, 0 32.56 M0 32.56 C0 26.73, 0 20.89, 0 10.85 M0 10.85 C0 3.62, 3.62 0, 10.85 0" stroke="#000000" stroke-width="2.5" fill="none" stroke-dasharray="8 10"></path></g><g transform="translate(653.3856873012674 744.7481857527933) rotate(0 29.5 9.5)"><text x="29.5" y="15" font-family="Helvetica, Segoe UI Emoji" font-size="16px" fill="#000000" text-anchor="middle" style="white-space: pre;" direction="ltr">weather</text></g><g stroke-linecap="round" transform="translate(742.9519418326058 746.9149314578212) rotate(0 40.5 24)"><path d="M12 0 M12 0 C24.36 0, 36.71 0, 69 0 M69 0 C77 0, 81 4, 81 12 M81 12 C81 17.71, 81 23.42, 81 36 M81 36 C81 44, 77 48, 69 48 M69 48 C55.08 48, 41.16 48, 12 48 M12 48 C4 48, 0 44, 0 36 M0 36 C0 26.61, 0 17.23, 0 12 M0 12 C0 4, 4 0, 12 0" stroke="#000000" stroke-width="2.5" fill="none" stroke-dasharray="8 10"></path></g><g transform="translate(748.9519418326058 751.9149314578212) rotate(0 34.5 19)"><text x="34.5" y="15" font-family="Helvetica, Segoe UI Emoji" font-size="16px" fill="#000000" text-anchor="middle" style="white-space: pre;" direction="ltr">incidence</text><text x="34.5" y="34" font-family="Helvetica, Segoe UI Emoji" font-size="16px" fill="#000000" text-anchor="middle" style="white-space: pre;" direction="ltr">(history)</text></g><g stroke-linecap="round" transform="translate(826.9098925262979 681.3729632639324) rotate(0 43 24)"><path d="M12 0 M12 0 C33.76 0, 55.52 0, 74 0 M74 0 C82 0, 86 4, 86 12 M86 12 C86 17.9, 86 23.81, 86 36 M86 36 C86 44, 82 48, 74 48 M74 48 C55.2 48, 36.41 48, 12 48 M12 48 C4 48, 0 44, 0 36 M0 36 C0 27.47, 0 18.95, 0 12 M0 12 C0 4, 4 0, 12 0" stroke="#000000" stroke-width="2.5" fill="none" stroke-dasharray="8 10"></path></g><g transform="translate(830.9098925262979 695.8729632639324) rotate(0 38 9.5)"><text x="38" y="15" font-family="Helvetica, Segoe UI Emoji" font-size="16px" fill="#000000" text-anchor="middle" style="white-space: pre;" direction="ltr">population</text></g><g stroke-linecap="round" transform="translate(909.9363882100561 299.4714842064543) rotate(0 67.51798266092624 27.178493144747222)"><path d="M13.59 0 M13.59 0 C46.24 0, 78.9 0, 121.45 0 M13.59 0 C54.45 0, 95.3 0, 121.45 0 M121.45 0 C130.51 0, 135.04 4.53, 135.04 13.59 M121.45 0 C130.51 0, 135.04 4.53, 135.04 13.59 M135.04 13.59 C135.04 22.53, 135.04 31.47, 135.04 40.77 M135.04 13.59 C135.04 19.95, 135.04 26.31, 135.04 40.77 M135.04 40.77 C135.04 49.83, 130.51 54.36, 121.45 54.36 M135.04 40.77 C135.04 49.83, 130.51 54.36, 121.45 54.36 M121.45 54.36 C90.96 54.36, 60.47 54.36, 13.59 54.36 M121.45 54.36 C96.8 54.36, 72.15 54.36, 13.59 54.36 M13.59 54.36 C4.53 54.36, 0 49.83, 0 40.77 M13.59 54.36 C4.53 54.36, 0 49.83, 0 40.77 M0 40.77 C0 33.91, 0 27.06, 0 13.59 M0 40.77 C0 33.89, 0 27.01, 0 13.59 M0 13.59 C0 4.53, 4.53 0, 13.59 0 M0 13.59 C0 4.53, 4.53 0, 13.59 0" stroke="#000000" stroke-width="2" fill="none"></path></g><g transform="translate(934.4543708709821 317.1499773512015) rotate(0 43 9.5)"><text x="43" y="15" font-family="Helvetica, Segoe UI Emoji" font-size="16px" fill="#000000" text-anchor="middle" style="white-space: pre;" direction="ltr">Sightseeing</text></g><g stroke-linecap="round"><g transform="translate(902.6365416475946 329.54986417119324) rotate(0 -170.9250115733405 19.324064540574547)"><path d="M0 0 C-56.98 6.44, -284.88 32.21, -341.85 38.65 M0 0 C-56.98 6.44, -284.88 32.21, -341.85 38.65" stroke="#000000" stroke-width="2" fill="none"></path></g><g transform="translate(902.6365416475946 329.54986417119324) rotate(0 -170.9250115733405 19.324064540574547)"><path d="M-341.85 38.65 L-329.05 30.82 L-327.63 43.42 L-341.85 38.65" stroke="none" stroke-width="0" fill="#000000" fill-rule="evenodd"></path><path d="M-341.85 38.65 C-337.85 36.2, -333.85 33.76, -329.05 30.82 M-341.85 38.65 C-337.96 36.27, -334.06 33.89, -329.05 30.82 M-329.05 30.82 C-328.68 34.16, -328.3 37.5, -327.63 43.42 M-329.05 30.82 C-328.7 33.96, -328.34 37.09, -327.63 43.42 M-327.63 43.42 C-333.17 41.56, -338.71 39.7, -341.85 38.65 M-327.63 43.42 C-331.36 42.17, -335.1 40.91, -341.85 38.65 M-341.85 38.65 C-341.85 38.65, -341.85 38.65, -341.85 38.65 M-341.85 38.65 C-341.85 38.65, -341.85 38.65, -341.85 38.65" stroke="#000000" stroke-width="2" fill="none"></path></g></g><g transform="translate(590.925516854667 337.14431679822974) rotate(353.93172099537327 36 9.5)"><text x="0" y="15" font-family="Helvetica, Segoe UI Emoji" font-size="16px" fill="#000000" text-anchor="start" style="white-space: pre;" direction="ltr">LocatedIn</text></g><g stroke-linecap="round" transform="translate(799.7914026055682 108.69395589605392) rotate(0 40.54003277006677 14.5)"><path d="M7.25 0 M7.25 0 C21.11 0, 34.97 0, 73.83 0 M73.83 0 C78.66 0, 81.08 2.42, 81.08 7.25 M81.08 7.25 C81.08 11.13, 81.08 15.01, 81.08 21.75 M81.08 21.75 C81.08 26.58, 78.66 29, 73.83 29 M73.83 29 C59.7 29, 45.56 29, 7.25 29 M7.25 29 C2.42 29, 0 26.58, 0 21.75 M0 21.75 C0 18.25, 0 14.74, 0 7.25 M0 7.25 C0 2.42, 2.42 0, 7.25 0" stroke="#000000" stroke-width="2.5" fill="none" stroke-dasharray="8 10"></path></g><g transform="translate(820.831435375635 113.69395589605392) rotate(0 19.5 9.5)"><text x="19.5" y="15" font-family="Helvetica, Segoe UI Emoji" font-size="16px" fill="#000000" text-anchor="middle" style="white-space: pre;" direction="ltr">costs</text></g><g stroke-linecap="round" transform="translate(829.1936494389311 156.84796603795775) rotate(0 40.5 15.5)"><path d="M7.75 0 M7.75 0 C30.61 0, 53.47 0, 73.25 0 M73.25 0 C78.42 0, 81 2.58, 81 7.75 M81 7.75 C81 13.04, 81 18.32, 81 23.25 M81 23.25 C81 28.42, 78.42 31, 73.25 31 M73.25 31 C52.78 31, 32.31 31, 7.75 31 M7.75 31 C2.58 31, 0 28.42, 0 23.25 M0 23.25 C0 19.81, 0 16.37, 0 7.75 M0 7.75 C0 2.58, 2.58 0, 7.75 0" stroke="#000000" stroke-width="2.5" fill="none" stroke-dasharray="8 10"></path></g><g transform="translate(847.1936494389311 162.84796603795775) rotate(0 22.5 9.5)"><text x="22.5" y="15" font-family="Helvetica, Segoe UI Emoji" font-size="16px" fill="#000000" text-anchor="middle" style="white-space: pre;" direction="ltr">airline</text></g><g stroke-linecap="round" transform="translate(620.1383784930572 10.212153743813815) rotate(0 41 24)"><path d="M12 0 M12 0 C34.76 0, 57.52 0, 70 0 M70 0 C78 0, 82 4, 82 12 M82 12 C82 19.78, 82 27.57, 82 36 M82 36 C82 44, 78 48, 70 48 M70 48 C56.72 48, 43.43 48, 12 48 M12 48 C4 48, 0 44, 0 36 M0 36 C0 30.16, 0 24.32, 0 12 M0 12 C0 4, 4 0, 12 0" stroke="#000000" stroke-width="2.5" fill="none" stroke-dasharray="8 10"></path></g><g transform="translate(629.6383784930572 15.212153743813815) rotate(0 31.5 19)"><text x="31.5" y="15" font-family="Helvetica, Segoe UI Emoji" font-size="16px" fill="#000000" text-anchor="middle" style="white-space: pre;" direction="ltr">start/end</text><text x="31.5" y="34" font-family="Helvetica, Segoe UI Emoji" font-size="16px" fill="#000000" text-anchor="middle" style="white-space: pre;" direction="ltr">city</text></g><g stroke-linecap="round" transform="translate(701.9148841098158 64.32614177373853) rotate(0 48.31297121844864 19.813754453600296)"><path d="M9.91 0 M9.91 0 C26.38 0, 42.86 0, 86.72 0 M86.72 0 C93.32 0, 96.63 3.3, 96.63 9.91 M96.63 9.91 C96.63 16.75, 96.63 23.59, 96.63 29.72 M96.63 29.72 C96.63 36.33, 93.32 39.63, 86.72 39.63 M86.72 39.63 C66.56 39.63, 46.4 39.63, 9.91 39.63 M9.91 39.63 C3.3 39.63, 0 36.33, 0 29.72 M0 29.72 C0 22.93, 0 16.14, 0 9.91 M0 9.91 C0 3.3, 3.3 0, 9.91 0" stroke="#000000" stroke-width="2.5" fill="none" stroke-dasharray="8 10"></path></g><g transform="translate(731.2278553282645 74.6398962273388) rotate(0 19 9.5)"><text x="19" y="15" font-family="Helvetica, Segoe UI Emoji" font-size="16px" fill="#000000" text-anchor="middle" style="white-space: pre;" direction="ltr">class</text></g><g stroke-linecap="round" transform="translate(562.1070521266215 80.29639470538211) rotate(0 37.7354448184517 24)"><path d="M12 0 M12 0 C30.91 0, 49.82 0, 63.47 0 M63.47 0 C71.47 0, 75.47 4, 75.47 12 M75.47 12 C75.47 17.22, 75.47 22.44, 75.47 36 M75.47 36 C75.47 44, 71.47 48, 63.47 48 M63.47 48 C46.24 48, 29.01 48, 12 48 M12 48 C4 48, 0 44, 0 36 M0 36 C0 27.08, 0 18.15, 0 12 M0 12 C0 4, 4 0, 12 0" stroke="#000000" stroke-width="2.5" fill="none" stroke-dasharray="8 10"></path></g><g transform="translate(568.3424969450734 85.29639470538211) rotate(0 31.5 19)"><text x="31.5" y="15" font-family="Helvetica, Segoe UI Emoji" font-size="16px" fill="#000000" text-anchor="middle" style="white-space: pre;" direction="ltr">start/end</text><text x="31.5" y="34" font-family="Helvetica, Segoe UI Emoji" font-size="16px" fill="#000000" text-anchor="middle" style="white-space: pre;" direction="ltr">date</text></g><g stroke-linecap="round" transform="translate(765.9168131882748 204.82413033549113) rotate(0 80.90675523891309 14.5)"><path d="M7.25 0 M7.25 0 C38.49 0, 69.74 0, 154.56 0 M154.56 0 C159.4 0, 161.81 2.42, 161.81 7.25 M161.81 7.25 C161.81 11.39, 161.81 15.52, 161.81 21.75 M161.81 21.75 C161.81 26.58, 159.4 29, 154.56 29 M154.56 29 C104.47 29, 54.38 29, 7.25 29 M7.25 29 C2.42 29, 0 26.58, 0 21.75 M0 21.75 C0 16.67, 0 11.58, 0 7.25 M0 7.25 C0 2.42, 2.42 0, 7.25 0" stroke="#000000" stroke-width="2.5" fill="none" stroke-dasharray="8 10"></path></g><g transform="translate(796.3235684271876 209.82413033549113) rotate(0 50.5 9.5)"><text x="50.5" y="15" font-family="Helvetica, Segoe UI Emoji" font-size="16px" fill="#000000" text-anchor="middle" style="white-space: pre;" direction="ltr">betweenstops</text></g><g stroke-linecap="round" transform="translate(725.0286517762397 10) rotate(0 53.956123709406484 19.016549917070165)"><path d="M9.51 0 M9.51 0 C39.95 0, 70.38 0, 98.4 0 M98.4 0 C104.74 0, 107.91 3.17, 107.91 9.51 M107.91 9.51 C107.91 14.34, 107.91 19.16, 107.91 28.52 M107.91 28.52 C107.91 34.86, 104.74 38.03, 98.4 38.03 M98.4 38.03 C68.98 38.03, 39.55 38.03, 9.51 38.03 M9.51 38.03 C3.17 38.03, 0 34.86, 0 28.52 M0 28.52 C0 24.54, 0 20.55, 0 9.51 M0 9.51 C0 3.17, 3.17 0, 9.51 0" stroke="#000000" stroke-width="2.5" fill="none" stroke-dasharray="8 10"></path></g><g transform="translate(735.984775485646 19.516549917070165) rotate(0 43 9.5)"><text x="43" y="15" font-family="Helvetica, Segoe UI Emoji" font-size="16px" fill="#000000" text-anchor="middle" style="white-space: pre;" direction="ltr">airport hotel</text></g><g stroke-linecap="round" transform="translate(288.5400430297341 549.9343398528308) rotate(0 40.54003277006677 14.5)"><path d="M7.25 0 M7.25 0 C26.81 0, 46.38 0, 73.83 0 M73.83 0 C78.66 0, 81.08 2.42, 81.08 7.25 M81.08 7.25 C81.08 12.69, 81.08 18.13, 81.08 21.75 M81.08 21.75 C81.08 26.58, 78.66 29, 73.83 29 M73.83 29 C59.22 29, 44.62 29, 7.25 29 M7.25 29 C2.42 29, 0 26.58, 0 21.75 M0 21.75 C0 15.95, 0 10.16, 0 7.25 M0 7.25 C0 2.42, 2.42 0, 7.25 0" stroke="#000000" stroke-width="2.5" fill="none" stroke-dasharray="8 10"></path></g><g transform="translate(309.5800757998013 554.9343398528308) rotate(0 19.5 9.5)"><text x="19.5" y="15" font-family="Helvetica, Segoe UI Emoji" font-size="16px" fill="#000000" text-anchor="middle" style="white-space: pre;" direction="ltr">costs</text></g><g stroke-linecap="round" transform="translate(10 525.7611629878329) rotate(0 37.73544481845147 24)"><path d="M12 0 M12 0 C24.48 0, 36.96 0, 63.47 0 M63.47 0 C71.47 0, 75.47 4, 75.47 12 M75.47 12 C75.47 19.47, 75.47 26.94, 75.47 36 M75.47 36 C75.47 44, 71.47 48, 63.47 48 M63.47 48 C48.46 48, 33.44 48, 12 48 M12 48 C4 48, 0 44, 0 36 M0 36 C0 27.58, 0 19.16, 0 12 M0 12 C0 4, 4 0, 12 0" stroke="#000000" stroke-width="2.5" fill="none" stroke-dasharray="8 10"></path></g><g transform="translate(16.73544481845238 540.2611629878329) rotate(0 31 9.5)"><text x="31" y="15" font-family="Helvetica, Segoe UI Emoji" font-size="16px" fill="#000000" text-anchor="middle" style="white-space: pre;" direction="ltr">from - to</text></g><g stroke-linecap="round" transform="translate(145.69401437440956 472.02476742543735) rotate(0 40.680463239585606 17.059537307395857)"><path d="M8.53 0 M8.53 0 C25.75 0, 42.96 0, 72.83 0 M72.83 0 C78.52 0, 81.36 2.84, 81.36 8.53 M81.36 8.53 C81.36 15.2, 81.36 21.87, 81.36 25.59 M81.36 25.59 C81.36 31.28, 78.52 34.12, 72.83 34.12 M72.83 34.12 C57.85 34.12, 42.88 34.12, 8.53 34.12 M8.53 34.12 C2.84 34.12, 0 31.28, 0 25.59 M0 25.59 C0 21.03, 0 16.48, 0 8.53 M0 8.53 C0 2.84, 2.84 0, 8.53 0" stroke="#000000" stroke-width="2.5" fill="none" stroke-dasharray="8 10"></path></g><g transform="translate(163.37447761399562 479.5843047328332) rotate(0 23 9.5)"><text x="23" y="15" font-family="Helvetica, Segoe UI Emoji" font-size="16px" fill="#000000" text-anchor="middle" style="white-space: pre;" direction="ltr">rooms</text></g><g stroke-linecap="round" transform="translate(288.1905894539541 503.6011959862001) rotate(0 44.804060256270304 14.5)"><path d="M7.25 0 M7.25 0 C31.64 0, 56.04 0, 82.36 0 M82.36 0 C87.19 0, 89.61 2.42, 89.61 7.25 M89.61 7.25 C89.61 12.74, 89.61 18.22, 89.61 21.75 M89.61 21.75 C89.61 26.58, 87.19 29, 82.36 29 M82.36 29 C65.55 29, 48.74 29, 7.25 29 M7.25 29 C2.42 29, 0 26.58, 0 21.75 M0 21.75 C0 17.48, 0 13.21, 0 7.25 M0 7.25 C0 2.42, 2.42 0, 7.25 0" stroke="#000000" stroke-width="2.5" fill="none" stroke-dasharray="8 10"></path></g><g transform="translate(307.9946497102246 508.6011959862001) rotate(0 25 9.5)"><text x="25" y="15" font-family="Helvetica, Segoe UI Emoji" font-size="16px" fill="#000000" text-anchor="middle" style="white-space: pre;" direction="ltr">people</text></g><g stroke-linecap="round" transform="translate(273.39191665252747 628.5173055863319) rotate(0 39.12423498568705 14.5)"><path d="M7.25 0 M7.25 0 C20.71 0, 34.17 0, 71 0 M71 0 C75.83 0, 78.25 2.42, 78.25 7.25 M78.25 7.25 C78.25 10.8, 78.25 14.36, 78.25 21.75 M78.25 21.75 C78.25 26.58, 75.83 29, 71 29 M71 29 C48.14 29, 25.28 29, 7.25 29 M7.25 29 C2.42 29, 0 26.58, 0 21.75 M0 21.75 C0 16.53, 0 11.31, 0 7.25 M0 7.25 C0 2.42, 2.42 0, 7.25 0" stroke="#000000" stroke-width="2.5" fill="none" stroke-dasharray="8 10"></path></g><g transform="translate(291.516151638215 633.5173055863319) rotate(0 21 9.5)"><text x="21" y="15" font-family="Helvetica, Segoe UI Emoji" font-size="16px" fill="#000000" text-anchor="middle" style="white-space: pre;" direction="ltr">rating</text></g><g stroke-linecap="round" transform="translate(331.59502475560384 673.2147439125903) rotate(0 48 24)"><path d="M12 0 M12 0 C40.42 0, 68.85 0, 84 0 M84 0 C92 0, 96 4, 96 12 M96 12 C96 18.85, 96 25.7, 96 36 M96 36 C96 44, 92 48, 84 48 M84 48 C60.94 48, 37.88 48, 12 48 M12 48 C4 48, 0 44, 0 36 M0 36 C0 26.44, 0 16.89, 0 12 M0 12 C0 4, 4 0, 12 0" stroke="#000000" stroke-width="2.5" fill="none" stroke-dasharray="8 10"></path></g><g transform="translate(341.59502475560384 687.7147439125903) rotate(0 38 9.5)"><text x="38" y="15" font-family="Helvetica, Segoe UI Emoji" font-size="16px" fill="#000000" text-anchor="middle" style="white-space: pre;" direction="ltr">comments</text></g><g stroke-linecap="round" transform="translate(226.30553660052647 685.1347910982657) rotate(0 41.07303334970675 17.46266369426891)"><path d="M8.73 0 M8.73 0 C29.75 0, 50.77 0, 73.41 0 M73.41 0 C79.24 0, 82.15 2.91, 82.15 8.73 M82.15 8.73 C82.15 12.43, 82.15 16.12, 82.15 26.19 M82.15 26.19 C82.15 32.01, 79.24 34.93, 73.41 34.93 M73.41 34.93 C57.05 34.93, 40.69 34.93, 8.73 34.93 M8.73 34.93 C2.91 34.93, 0 32.01, 0 26.19 M0 26.19 C0 19.74, 0 13.29, 0 8.73 M0 8.73 C0 2.91, 2.91 0, 8.73 0" stroke="#000000" stroke-width="2.5" fill="none" stroke-dasharray="8 10"></path></g><g transform="translate(248.8785699502332 693.0974547925347) rotate(0 18.5 9.5)"><text x="18.5" y="15" font-family="Helvetica, Segoe UI Emoji" font-size="16px" fill="#000000" text-anchor="middle" style="white-space: pre;" direction="ltr">stars</text></g><g stroke-linecap="round" transform="translate(216.55873957531458 611.9065416433959) rotate(0 109.17035555872599 61.69240476914153)"><path d="M30.85 0 M30.85 0 C87.52 0, 144.2 0, 187.49 0 M187.49 0 C208.06 0, 218.34 10.28, 218.34 30.85 M218.34 30.85 C218.34 51.99, 218.34 73.13, 218.34 92.54 M218.34 92.54 C218.34 113.1, 208.06 123.38, 187.49 123.38 M187.49 123.38 C151.24 123.38, 114.99 123.38, 30.85 123.38 M30.85 123.38 C10.28 123.38, 0 113.1, 0 92.54 M0 92.54 C0 76.85, 0 61.15, 0 30.85 M0 30.85 C0 10.28, 10.28 0, 30.85 0" stroke="#000000" stroke-width="2.5" fill="none" stroke-dasharray="1.5 8"></path></g><g stroke-linecap="round" transform="translate(36.74355028231366 475.337941710568) rotate(0 44.5 14.5)"><path d="M7.25 0 M7.25 0 C25.27 0, 43.28 0, 81.75 0 M81.75 0 C86.58 0, 89 2.42, 89 7.25 M89 7.25 C89 10.34, 89 13.44, 89 21.75 M89 21.75 C89 26.58, 86.58 29, 81.75 29 M81.75 29 C60.77 29, 39.79 29, 7.25 29 M7.25 29 C2.42 29, 0 26.58, 0 21.75 M0 21.75 C0 18.04, 0 14.34, 0 7.25 M0 7.25 C0 2.42, 2.42 0, 7.25 0" stroke="#000000" stroke-width="2.5" fill="none" stroke-dasharray="8 10"></path></g><g transform="translate(61.24355028231366 480.337941710568) rotate(0 20 9.5)"><text x="20" y="15" font-family="Helvetica, Segoe UI Emoji" font-size="16px" fill="#000000" text-anchor="middle" style="white-space: pre;" direction="ltr">sale?</text></g><g stroke-linecap="round" transform="translate(27.98184057816343 594.569659556547) rotate(0 53 24)"><path d="M12 0 M12 0 C29.07 0, 46.15 0, 94 0 M94 0 C102 0, 106 4, 106 12 M106 12 C106 19.95, 106 27.9, 106 36 M106 36 C106 44, 102 48, 94 48 M94 48 C63.36 48, 32.72 48, 12 48 M12 48 C4 48, 0 44, 0 36 M0 36 C0 28.13, 0 20.25, 0 12 M0 12 C0 4, 4 0, 12 0" stroke="#000000" stroke-width="2.5" fill="none" stroke-dasharray="8 10"></path></g><g transform="translate(42.48184057816343 609.069659556547) rotate(0 38.5 9.5)"><text x="38.5" y="15" font-family="Helvetica, Segoe UI Emoji" font-size="16px" fill="#000000" text-anchor="middle" style="white-space: pre;" direction="ltr">equipment</text></g><g stroke-linecap="round" transform="translate(73.4796218700767 662.836918518992) rotate(0 58.499184207937105 24)"><path d="M12 0 M12 0 C46.86 0, 81.72 0, 105 0 M105 0 C113 0, 117 4, 117 12 M117 12 C117 21.34, 117 30.69, 117 36 M117 36 C117 44, 113 48, 105 48 M105 48 C85.38 48, 65.75 48, 12 48 M12 48 C4 48, 0 44, 0 36 M0 36 C0 28.55, 0 21.1, 0 12 M0 12 C0 4, 4 0, 12 0" stroke="#000000" stroke-width="2.5" fill="none" stroke-dasharray="8 10"></path></g><g transform="translate(102.4788060780138 667.836918518992) rotate(0 29.5 19)"><text x="29.5" y="15" font-family="Helvetica, Segoe UI Emoji" font-size="16px" fill="#000000" text-anchor="middle" style="white-space: pre;" direction="ltr">street + </text><text x="29.5" y="34" font-family="Helvetica, Segoe UI Emoji" font-size="16px" fill="#000000" text-anchor="middle" style="white-space: pre;" direction="ltr">number</text></g><g stroke-linecap="round"><g transform="translate(449.9809752178321 363.87607768664697) rotate(0 3.759928268752219 -18.079718493284645)"><path d="M0 0 C-3.29 -5.86, -24.38 -30.8, -19.73 -35.18 C-15.08 -39.57, 19.98 -27.81, 27.92 -26.33 M0 0 C-3.29 -5.86, -24.38 -30.8, -19.73 -35.18 C-15.08 -39.57, 19.98 -27.81, 27.92 -26.33" stroke="#000000" stroke-width="2" fill="none"></path></g><g transform="translate(449.9809752178321 363.87607768664697) rotate(0 3.759928268752219 -18.079718493284645)"><path d="M0 0 L-12.88 -7.69 L-2.38 -14.81 L0 0" stroke="none" stroke-width="0" fill="#000000" fill-rule="evenodd"></path><path d="M0 0 C-3.44 -2.06, -6.88 -4.11, -12.88 -7.69 M0 0 C-4.51 -2.7, -9.03 -5.39, -12.88 -7.69 M-12.88 -7.69 C-9.95 -9.68, -7.02 -11.67, -2.38 -14.81 M-12.88 -7.69 C-8.75 -10.5, -4.61 -13.3, -2.38 -14.81 M-2.38 -14.81 C-1.67 -10.37, -0.95 -5.94, 0 0 M-2.38 -14.81 C-1.67 -10.37, -0.96 -5.94, 0 0 M0 0 C0 0, 0 0, 0 0 M0 0 C0 0, 0 0, 0 0" stroke="#000000" stroke-width="2" fill="none"></path></g></g><g transform="translate(435.78283012564634 310.1582760635456) rotate(16.78830698646796 26 9.5)"><text x="0" y="15" font-family="Helvetica, Segoe UI Emoji" font-size="16px" fill="#000000" text-anchor="start" style="white-space: pre;" direction="ltr">NextTo</text></g><g stroke-linecap="round" transform="translate(1060.3925023993825 304.5302466311063) rotate(0 58.499184207937105 24)"><path d="M12 0 M12 0 C37.83 0, 63.67 0, 105 0 M105 0 C113 0, 117 4, 117 12 M117 12 C117 20.4, 117 28.79, 117 36 M117 36 C117 44, 113 48, 105 48 M105 48 C85.01 48, 65.02 48, 12 48 M12 48 C4 48, 0 44, 0 36 M0 36 C0 29.52, 0 23.04, 0 12 M0 12 C0 4, 4 0, 12 0" stroke="#000000" stroke-width="2.5" fill="none" stroke-dasharray="8 10"></path></g><g transform="translate(1089.3916866073187 309.5302466311063) rotate(0 29.5 19)"><text x="29.5" y="15" font-family="Helvetica, Segoe UI Emoji" font-size="16px" fill="#000000" text-anchor="middle" style="white-space: pre;" direction="ltr">street + </text><text x="29.5" y="34" font-family="Helvetica, Segoe UI Emoji" font-size="16px" fill="#000000" text-anchor="middle" style="white-space: pre;" direction="ltr">number</text></g><g stroke-linecap="round" transform="translate(1018.5434931663326 369.46941020789825) rotate(0 40.54003277006677 14.5)"><path d="M7.25 0 M7.25 0 C25.13 0, 43.01 0, 73.83 0 M73.83 0 C78.66 0, 81.08 2.42, 81.08 7.25 M81.08 7.25 C81.08 10.48, 81.08 13.72, 81.08 21.75 M81.08 21.75 C81.08 26.58, 78.66 29, 73.83 29 M73.83 29 C57.92 29, 42.01 29, 7.25 29 M7.25 29 C2.42 29, 0 26.58, 0 21.75 M0 21.75 C0 18.18, 0 14.62, 0 7.25 M0 7.25 C0 2.42, 2.42 0, 7.25 0" stroke="#000000" stroke-width="2.5" fill="none" stroke-dasharray="8 10"></path></g><g transform="translate(1039.5835259363998 374.46941020789825) rotate(0 19.5 9.5)"><text x="19.5" y="15" font-family="Helvetica, Segoe UI Emoji" font-size="16px" fill="#000000" text-anchor="middle" style="white-space: pre;" direction="ltr">costs</text></g><g stroke-linecap="round" transform="translate(846.3111113708551 396.2246602572102) rotate(0 39.12423498568705 14.5)"><path d="M7.25 0 M7.25 0 C23.17 0, 39.08 0, 71 0 M71 0 C75.83 0, 78.25 2.42, 78.25 7.25 M78.25 7.25 C78.25 12.73, 78.25 18.2, 78.25 21.75 M78.25 21.75 C78.25 26.58, 75.83 29, 71 29 M71 29 C49.83 29, 28.67 29, 7.25 29 M7.25 29 C2.42 29, 0 26.58, 0 21.75 M0 21.75 C0 16.27, 0 10.8, 0 7.25 M0 7.25 C0 2.42, 2.42 0, 7.25 0" stroke="#000000" stroke-width="2.5" fill="none" stroke-dasharray="8 10"></path></g><g transform="translate(864.4353463565426 401.2246602572102) rotate(0 21 9.5)"><text x="21" y="15" font-family="Helvetica, Segoe UI Emoji" font-size="16px" fill="#000000" text-anchor="middle" style="white-space: pre;" direction="ltr">rating</text></g><g stroke-linecap="round" transform="translate(904.5142194739315 440.9220985834686) rotate(0 48 24)"><path d="M12 0 M12 0 C39.3 0, 66.59 0, 84 0 M84 0 C92 0, 96 4, 96 12 M96 12 C96 17.67, 96 23.33, 96 36 M96 36 C96 44, 92 48, 84 48 M84 48 C68.72 48, 53.45 48, 12 48 M12 48 C4 48, 0 44, 0 36 M0 36 C0 29.94, 0 23.87, 0 12 M0 12 C0 4, 4 0, 12 0" stroke="#000000" stroke-width="2.5" fill="none" stroke-dasharray="8 10"></path></g><g transform="translate(914.5142194739315 455.4220985834686) rotate(0 38 9.5)"><text x="38" y="15" font-family="Helvetica, Segoe UI Emoji" font-size="16px" fill="#000000" text-anchor="middle" style="white-space: pre;" direction="ltr">comments</text></g><g stroke-linecap="round" transform="translate(799.2247313188541 452.84214576914405) rotate(0 41.07303334970675 17.46266369426891)"><path d="M8.73 0 M8.73 0 C34.41 0, 60.1 0, 73.41 0 M73.41 0 C79.24 0, 82.15 2.91, 82.15 8.73 M82.15 8.73 C82.15 15.71, 82.15 22.68, 82.15 26.19 M82.15 26.19 C82.15 32.01, 79.24 34.93, 73.41 34.93 M73.41 34.93 C50.63 34.93, 27.84 34.93, 8.73 34.93 M8.73 34.93 C2.91 34.93, 0 32.01, 0 26.19 M0 26.19 C0 22.01, 0 17.84, 0 8.73 M0 8.73 C0 2.91, 2.91 0, 8.73 0" stroke="#000000" stroke-width="2.5" fill="none" stroke-dasharray="8 10"></path></g><g transform="translate(821.7977646685608 460.80480946341294) rotate(0 18.5 9.5)"><text x="18.5" y="15" font-family="Helvetica, Segoe UI Emoji" font-size="16px" fill="#000000" text-anchor="middle" style="white-space: pre;" direction="ltr">stars</text></g><g stroke-linecap="round" transform="translate(789.4779342936422 379.6138963142742) rotate(0 109.17035555872599 61.69240476914154)"><path d="M30.85 0 M30.85 0 C81.45 0, 132.05 0, 187.49 0 M187.49 0 C208.06 0, 218.34 10.28, 218.34 30.85 M218.34 30.85 C218.34 45.4, 218.34 59.96, 218.34 92.54 M218.34 92.54 C218.34 113.1, 208.06 123.38, 187.49 123.38 M187.49 123.38 C130.85 123.38, 74.2 123.38, 30.85 123.38 M30.85 123.38 C10.28 123.38, 0 113.1, 0 92.54 M0 92.54 C0 75.59, 0 58.64, 0 30.85 M0 30.85 C0 10.28, 10.28 0, 30.85 0" stroke="#000000" stroke-width="2.5" fill="none" stroke-dasharray="1.5 8"></path></g><g stroke-linecap="round" transform="translate(1009.810780364091 241.37857787325328) rotate(0 62.77711604774208 24)"><path d="M12 0 M12 0 C38.95 0, 65.91 0, 113.55 0 M113.55 0 C121.55 0, 125.55 4, 125.55 12 M125.55 12 C125.55 20.62, 125.55 29.24, 125.55 36 M125.55 36 C125.55 44, 121.55 48, 113.55 48 M113.55 48 C86.85 48, 60.14 48, 12 48 M12 48 C4 48, 0 44, 0 36 M0 36 C0 28.83, 0 21.66, 0 12 M0 12 C0 4, 4 0, 12 0" stroke="#000000" stroke-width="2.5" fill="none" stroke-dasharray="8 10"></path></g><g transform="translate(1036.0878964118328 246.37857787325328) rotate(0 36.5 19)"><text x="36.5" y="15" font-family="Helvetica, Segoe UI Emoji" font-size="16px" fill="#000000" text-anchor="middle" style="white-space: pre;" direction="ltr">number of</text><text x="36.5" y="34" font-family="Helvetica, Segoe UI Emoji" font-size="16px" fill="#000000" text-anchor="middle" style="white-space: pre;" direction="ltr">visitors</text></g><g stroke-linecap="round" transform="translate(863.3930870636514 757.7282250190806) rotate(0 32 15)"><path d="M7.5 0 M7.5 0 C21.51 0, 35.52 0, 56.5 0 M56.5 0 C61.5 0, 64 2.5, 64 7.5 M64 7.5 C64 11, 64 14.51, 64 22.5 M64 22.5 C64 27.5, 61.5 30, 56.5 30 M56.5 30 C43.91 30, 31.31 30, 7.5 30 M7.5 30 C2.5 30, 0 27.5, 0 22.5 M0 22.5 C0 18.47, 0 14.45, 0 7.5 M0 7.5 C0 2.5, 2.5 0, 7.5 0" stroke="#000000" stroke-width="2.5" fill="none" stroke-dasharray="8 10"></path></g><g transform="translate(872.8930870636514 763.2282250190806) rotate(0 22.5 9.5)"><text x="22.5" y="15" font-family="Helvetica, Segoe UI Emoji" font-size="16px" fill="#000000" text-anchor="middle" style="white-space: pre;" direction="ltr">wars?</text></g></svg>