<svg version="1.1" xmlns="http://www.w3.org/2000/svg" viewBox="0 0 4413.461397104973 3206.295961246571" width="8826.922794209946" height="6412.591922493142">
  <!-- svg-source:excalidraw -->
  
  <defs>
    <style class="style-fonts">
      @font-face {
        font-family: "Virgil";
        src: url("https://excalidraw.com/Virgil.woff2");
      }
      @font-face {
        font-family: "Cascadia";
        src: url("https://excalidraw.com/Cascadia.woff2");
      }
    </style>
  </defs>
  <rect x="0" y="0" width="4413.461397104973" height="3206.295961246571" fill="#ffffff"></rect><g stroke-linecap="round" transform="translate(225.5645279522396 859.600406976926) rotate(0 88.5 45.5)"><path d="M22.75 0 M22.75 0 C67.41 0, 112.08 0, 154.25 0 M22.75 0 C59.68 0, 96.61 0, 154.25 0 M154.25 0 C169.42 0, 177 7.58, 177 22.75 M154.25 0 C169.42 0, 177 7.58, 177 22.75 M177 22.75 C177 37.97, 177 53.2, 177 68.25 M177 22.75 C177 36.7, 177 50.66, 177 68.25 M177 68.25 C177 83.42, 169.42 91, 154.25 91 M177 68.25 C177 83.42, 169.42 91, 154.25 91 M154.25 91 C119.98 91, 85.72 91, 22.75 91 M154.25 91 C112.36 91, 70.46 91, 22.75 91 M22.75 91 C7.58 91, 0 83.42, 0 68.25 M22.75 91 C7.58 91, 0 83.42, 0 68.25 M0 68.25 C0 53.94, 0 39.63, 0 22.75 M0 68.25 C0 57.6, 0 46.95, 0 22.75 M0 22.75 C0 7.58, 7.58 0, 22.75 0 M0 22.75 C0 7.58, 7.58 0, 22.75 0" stroke="#000000" stroke-width="1" fill="none"></path></g><g transform="translate(267.5645279522396 884.100406976926) rotate(0 46.5 21)"><text x="46.5" y="33" font-family="Helvetica, Segoe UI Emoji" font-size="36px" fill="#000000" text-anchor="middle" style="white-space: pre;" direction="ltr">Reise</text></g><g stroke-linecap="round" transform="translate(1173.3360954630934 864.9169391316318) rotate(0 90 40)"><path d="M20 0 M20 0 C74.93 0, 129.87 0, 160 0 M20 0 C70.43 0, 120.86 0, 160 0 M160 0 C173.33 0, 180 6.67, 180 20 M160 0 C173.33 0, 180 6.67, 180 20 M180 20 C180 29.44, 180 38.88, 180 60 M180 20 C180 32.95, 180 45.9, 180 60 M180 60 C180 73.33, 173.33 80, 160 80 M180 60 C180 73.33, 173.33 80, 160 80 M160 80 C110.79 80, 61.59 80, 20 80 M160 80 C108.33 80, 56.65 80, 20 80 M20 80 C6.67 80, 0 73.33, 0 60 M20 80 C6.67 80, 0 73.33, 0 60 M0 60 C0 44.24, 0 28.48, 0 20 M0 60 C0 44.09, 0 28.18, 0 20 M0 20 C0 6.67, 6.67 0, 20 0 M0 20 C0 6.67, 6.67 0, 20 0" stroke="#000000" stroke-width="1" fill="none"></path></g><g transform="translate(1225.3360954630934 888.9169391316318) rotate(0 38 16)"><text x="38" y="25" font-family="Helvetica, Segoe UI Emoji" font-size="28px" fill="#000000" text-anchor="middle" style="white-space: pre;" direction="ltr">Route</text></g><g stroke-linecap="round" transform="translate(3109.8360954630953 857.7413844427974) rotate(0 80.5 44.5)"><path d="M22.25 0 M22.25 0 C62.25 0, 102.25 0, 138.75 0 M22.25 0 C49.07 0, 75.88 0, 138.75 0 M138.75 0 C153.58 0, 161 7.42, 161 22.25 M138.75 0 C153.58 0, 161 7.42, 161 22.25 M161 22.25 C161 33.79, 161 45.32, 161 66.75 M161 22.25 C161 35.55, 161 48.86, 161 66.75 M161 66.75 C161 81.58, 153.58 89, 138.75 89 M161 66.75 C161 81.58, 153.58 89, 138.75 89 M138.75 89 C97.94 89, 57.13 89, 22.25 89 M138.75 89 C102.68 89, 66.62 89, 22.25 89 M22.25 89 C7.42 89, 0 81.58, 0 66.75 M22.25 89 C7.42 89, 0 81.58, 0 66.75 M0 66.75 C0 54.99, 0 43.23, 0 22.25 M0 66.75 C0 55.05, 0 43.34, 0 22.25 M0 22.25 C0 7.42, 7.42 0, 22.25 0 M0 22.25 C0 7.42, 7.42 0, 22.25 0" stroke="#000000" stroke-width="1" fill="none"></path></g><g transform="translate(3150.8360954630953 886.2413844427974) rotate(0 39.5 16)"><text x="39.5" y="25" font-family="Helvetica, Segoe UI Emoji" font-size="28px" fill="#000000" text-anchor="middle" style="white-space: pre;" direction="ltr">Zielort</text></g><g mask="url(#mask-1f1K5y9zJBuSGDCB0LELM)" stroke-linecap="round"><g transform="translate(414.6575240345246 907.5147600721411) rotate(0 372.95833333333303 1.428928947820168)"><path d="M0 0 C124.32 0.48, 621.6 2.38, 745.92 2.86 M0 0 C124.32 0.48, 621.6 2.38, 745.92 2.86" stroke="#000000" stroke-width="1" fill="none"></path></g><g transform="translate(414.6575240345246 907.5147600721411) rotate(0 372.95833333333303 1.428928947820168)"><path d="M745.92 2.86 L732.3 9.15 L732.35 -3.53 L745.92 2.86" stroke="none" stroke-width="0" fill="#000000" fill-rule="evenodd"></path><path d="M745.92 2.86 C741.6 4.85, 737.28 6.84, 732.3 9.15 M745.92 2.86 C741.17 5.05, 736.43 7.24, 732.3 9.15 M732.3 9.15 C732.32 4.35, 732.33 -0.45, 732.35 -3.53 M732.3 9.15 C732.31 4.81, 732.33 0.48, 732.35 -3.53 M732.35 -3.53 C736.2 -1.72, 740.05 0.1, 745.92 2.86 M732.35 -3.53 C735.2 -2.19, 738.06 -0.84, 745.92 2.86 M745.92 2.86 C745.92 2.86, 745.92 2.86, 745.92 2.86 M745.92 2.86 C745.92 2.86, 745.92 2.86, 745.92 2.86" stroke="#000000" stroke-width="1" fill="none"></path></g></g><mask id="mask-1f1K5y9zJBuSGDCB0LELM"><rect x="0" y="0" fill="#fff" width="1260.5741907011902" height="1010.3726179677813"></rect><rect x="752.1158573678567" y="897.4436890199613" fill="#000" width="71" height="23" opacity="1"></rect></mask><g mask="url(#mask-DMNOkhLdyuTc_r9JXWhK7)" stroke-linecap="round"><g transform="translate(1361.1456192726146 905.9617832617114) rotate(0 868.666666666667 -0.7159215237718399)"><path d="M0 0 C289.56 -0.24, 1447.78 -1.19, 1737.33 -1.43 M0 0 C289.56 -0.24, 1447.78 -1.19, 1737.33 -1.43" stroke="#000000" stroke-width="1" fill="none"></path></g><g transform="translate(1361.1456192726146 905.9617832617114) rotate(0 868.666666666667 -0.7159215237718399)"><path d="M1737.33 -1.43 L1723.74 4.92 L1723.73 -7.76 L1737.33 -1.43" stroke="none" stroke-width="0" fill="#000000" fill-rule="evenodd"></path><path d="M1737.33 -1.43 C1733.52 0.35, 1729.7 2.13, 1723.74 4.92 M1737.33 -1.43 C1732.41 0.87, 1727.49 3.17, 1723.74 4.92 M1723.74 4.92 C1723.74 1.03, 1723.74 -2.86, 1723.73 -7.76 M1723.74 4.92 C1723.74 2.35, 1723.74 -0.22, 1723.73 -7.76 M1723.73 -7.76 C1728.07 -5.74, 1732.4 -3.73, 1737.33 -1.43 M1723.73 -7.76 C1728.51 -5.54, 1733.28 -3.32, 1737.33 -1.43 M1737.33 -1.43 C1737.33 -1.43, 1737.33 -1.43, 1737.33 -1.43 M1737.33 -1.43 C1737.33 -1.43, 1737.33 -1.43, 1737.33 -1.43" stroke="#000000" stroke-width="1" fill="none"></path></g></g><mask id="mask-DMNOkhLdyuTc_r9JXWhK7"><rect x="0" y="0" fill="#fff" width="3198.4789526059494" height="1007.3936263092551"></rect><rect x="2195.8122859392806" y="893.7458617379398" fill="#000" width="68" height="23" opacity="1"></rect></mask><g stroke-linecap="round" transform="translate(408.0222426492419 1356.8173720320683) rotate(0 92 36)"><path d="M18 0 M18 0 C58.61 0, 99.23 0, 166 0 M18 0 C50.05 0, 82.11 0, 166 0 M166 0 C178 0, 184 6, 184 18 M166 0 C178 0, 184 6, 184 18 M184 18 C184 25.71, 184 33.41, 184 54 M184 18 C184 30.93, 184 43.87, 184 54 M184 54 C184 66, 178 72, 166 72 M184 54 C184 66, 178 72, 166 72 M166 72 C116.42 72, 66.84 72, 18 72 M166 72 C115.12 72, 64.23 72, 18 72 M18 72 C6 72, 0 66, 0 54 M18 72 C6 72, 0 66, 0 54 M0 54 C0 44.15, 0 34.31, 0 18 M0 54 C0 42.59, 0 31.17, 0 18 M0 18 C0 6, 6 0, 18 0 M0 18 C0 6, 6 0, 18 0" stroke="#c4c4c4" stroke-width="1" fill="none"></path></g><g transform="translate(427.0222426492419 1376.8173720320683) rotate(0 73 16)"><text x="73" y="25" font-family="Helvetica, Segoe UI Emoji" font-size="28px" fill="#c4c4c4" text-anchor="middle" style="white-space: pre;" direction="ltr">Mitreisende</text></g><g mask="url(#mask-w7yTQQ3KDu_jGbVG5f4wP)" stroke-linecap="round"><g transform="translate(427.8045252790889 1178.849539586221) rotate(0 33.982387633270264 84.41248765149567)"><path d="M0 0 C11.33 28.14, 56.64 140.69, 67.96 168.82 M0 0 C11.33 28.14, 56.64 140.69, 67.96 168.82" stroke="#c4c4c4" stroke-width="1" fill="none"></path></g><g transform="translate(427.8045252790889 1178.849539586221) rotate(0 33.982387633270264 84.41248765149567)"><path d="M67.96 168.82 L57.01 158.58 L68.77 153.85 L67.96 168.82" stroke="none" stroke-width="0" fill="#c4c4c4" fill-rule="evenodd"></path><path d="M67.96 168.82 C65.32 166.35, 62.67 163.88, 57.01 158.58 M67.96 168.82 C64.22 165.33, 60.48 161.83, 57.01 158.58 M57.01 158.58 C61.24 156.88, 65.48 155.17, 68.77 153.85 M57.01 158.58 C60.79 157.06, 64.58 155.53, 68.77 153.85 M68.77 153.85 C68.55 157.88, 68.34 161.91, 67.96 168.82 M68.77 153.85 C68.57 157.55, 68.37 161.26, 67.96 168.82 M67.96 168.82 C67.96 168.82, 67.96 168.82, 67.96 168.82 M67.96 168.82 C67.96 168.82, 67.96 168.82, 67.96 168.82" stroke="#c4c4c4" stroke-width="1" fill="none"></path></g></g><mask id="mask-w7yTQQ3KDu_jGbVG5f4wP"><rect x="0" y="0" fill="#fff" width="595.769300545629" height="1447.6745148892123"></rect><rect x="442.7869129123592" y="1251.7620272377171" fill="#000" width="38" height="23" opacity="1"></rect></mask><g stroke-linecap="round" transform="translate(179.7572428115236 1100.4322836671254) rotate(0 130.06564401851483 37.513069100834855)"><path d="M18.76 0 M18.76 0 C70 0, 121.24 0, 241.37 0 M18.76 0 C99.36 0, 179.95 0, 241.37 0 M241.37 0 C253.88 0, 260.13 6.25, 260.13 18.76 M241.37 0 C253.88 0, 260.13 6.25, 260.13 18.76 M260.13 18.76 C260.13 29.97, 260.13 41.18, 260.13 56.27 M260.13 18.76 C260.13 26.36, 260.13 33.97, 260.13 56.27 M260.13 56.27 C260.13 68.77, 253.88 75.03, 241.37 75.03 M260.13 56.27 C260.13 68.77, 253.88 75.03, 241.37 75.03 M241.37 75.03 C172.46 75.03, 103.54 75.03, 18.76 75.03 M241.37 75.03 C163.26 75.03, 85.14 75.03, 18.76 75.03 M18.76 75.03 C6.25 75.03, 0 68.77, 0 56.27 M18.76 75.03 C6.25 75.03, 0 68.77, 0 56.27 M0 56.27 C0 46.4, 0 36.54, 0 18.76 M0 56.27 C0 42.56, 0 28.84, 0 18.76 M0 18.76 C0 6.25, 6.25 0, 18.76 0 M0 18.76 C0 6.25, 6.25 0, 18.76 0" stroke="#000000" stroke-width="1" fill="none"></path></g><g transform="translate(271.82288683003753 1121.9453527679598) rotate(0 38 16)"><text x="38" y="25" font-family="Helvetica, Segoe UI Emoji" font-size="28px" fill="#000000" text-anchor="middle" style="white-space: pre;" direction="ltr">Daten</text></g><g mask="url(#mask-8SGGal4puyyCXZjCHEjCj)" stroke-linecap="round"><g transform="translate(314.2079277425328 969.3295849425085) rotate(0 -1.8239068111824963 56.139868969241434)"><path d="M0 0 C-0.61 18.71, -3.04 93.57, -3.65 112.28 M0 0 C-0.61 18.71, -3.04 93.57, -3.65 112.28" stroke="#000000" stroke-width="1" fill="none"></path></g><g transform="translate(314.2079277425328 969.3295849425085) rotate(0 -1.8239068111824963 56.139868969241434)"><path d="M-3.65 112.28 L-9.54 98.49 L3.13 98.9 L-3.65 112.28" stroke="none" stroke-width="0" fill="#000000" fill-rule="evenodd"></path><path d="M-3.65 112.28 C-5.91 106.99, -8.17 101.69, -9.54 98.49 M-3.65 112.28 C-5.04 109.02, -6.43 105.77, -9.54 98.49 M-9.54 98.49 C-6.31 98.59, -3.07 98.7, 3.13 98.9 M-9.54 98.49 C-5.09 98.63, -0.63 98.78, 3.13 98.9 M3.13 98.9 C1.5 102.11, -0.12 105.32, -3.65 112.28 M3.13 98.9 C0.46 104.17, -2.21 109.44, -3.65 112.28 M-3.65 112.28 C-3.65 112.28, -3.65 112.28, -3.65 112.28 M-3.65 112.28 C-3.65 112.28, -3.65 112.28, -3.65 112.28" stroke="#000000" stroke-width="1" fill="none"></path></g></g><mask id="mask-8SGGal4puyyCXZjCHEjCj"><rect x="0" y="0" fill="#fff" width="417.85574136489686" height="1181.6093228809916"></rect><rect x="258.3840209313512" y="1013.96945391175" fill="#000" width="108" height="23" opacity="1"></rect></mask><g stroke-linecap="round" transform="translate(225.10982020049778 1363.7879032338587) rotate(0 79.5 31.5)"><path d="M15.75 0 M15.75 0 C53.96 0, 92.17 0, 143.25 0 M15.75 0 C59.27 0, 102.8 0, 143.25 0 M143.25 0 C153.75 0, 159 5.25, 159 15.75 M143.25 0 C153.75 0, 159 5.25, 159 15.75 M159 15.75 C159 25.19, 159 34.63, 159 47.25 M159 15.75 C159 25.89, 159 36.03, 159 47.25 M159 47.25 C159 57.75, 153.75 63, 143.25 63 M159 47.25 C159 57.75, 153.75 63, 143.25 63 M143.25 63 C113.13 63, 83 63, 15.75 63 M143.25 63 C111.72 63, 80.18 63, 15.75 63 M15.75 63 C5.25 63, 0 57.75, 0 47.25 M15.75 63 C5.25 63, 0 57.75, 0 47.25 M0 47.25 C0 39.81, 0 32.36, 0 15.75 M0 47.25 C0 39.36, 0 31.47, 0 15.75 M0 15.75 C0 5.25, 5.25 0, 15.75 0 M0 15.75 C0 5.25, 5.25 0, 15.75 0" stroke="#000000" stroke-width="1" fill="none"></path></g><g transform="translate(263.1098202004978 1379.2879032338587) rotate(0 41.5 16)"><text x="41.5" y="25" font-family="Helvetica, Segoe UI Emoji" font-size="28px" fill="#000000" text-anchor="middle" style="white-space: pre;" direction="ltr">Datum</text></g><g stroke-linecap="round" transform="translate(10 1366.736881362649) rotate(0 91.5 31.5)"><path d="M15.75 0 M15.75 0 C49 0, 82.26 0, 167.25 0 M15.75 0 C55.24 0, 94.72 0, 167.25 0 M167.25 0 C177.75 0, 183 5.25, 183 15.75 M167.25 0 C177.75 0, 183 5.25, 183 15.75 M183 15.75 C183 25.38, 183 35, 183 47.25 M183 15.75 C183 22.16, 183 28.57, 183 47.25 M183 47.25 C183 57.75, 177.75 63, 167.25 63 M183 47.25 C183 57.75, 177.75 63, 167.25 63 M167.25 63 C110.95 63, 54.65 63, 15.75 63 M167.25 63 C118.65 63, 70.05 63, 15.75 63 M15.75 63 C5.25 63, 0 57.75, 0 47.25 M15.75 63 C5.25 63, 0 57.75, 0 47.25 M0 47.25 C0 39.59, 0 31.92, 0 15.75 M0 47.25 C0 39.74, 0 32.23, 0 15.75 M0 15.75 C0 5.25, 5.25 0, 15.75 0 M0 15.75 C0 5.25, 5.25 0, 15.75 0" stroke="#000000" stroke-width="1" fill="none"></path></g><g transform="translate(36.5 1382.236881362649) rotate(0 65 16)"><text x="65" y="25" font-family="Helvetica, Segoe UI Emoji" font-size="28px" fill="#000000" text-anchor="middle" style="white-space: pre;" direction="ltr">Statistiken</text></g><g transform="translate(442.7869129123592 1251.7620272377162) rotate(0 19 11.5)"><text x="19" y="18" font-family="Helvetica, Segoe UI Emoji" font-size="20px" fill="#c4c4c4" text-anchor="middle" style="white-space: pre;" direction="ltr">sind</text></g><g mask="url(#mask-H3cm-NZ6IAtlK33KTVRkN)" stroke-linecap="round"><g transform="translate(309.9738340799049 1186.1110250842703) rotate(0 -2.866546873228799 82.97968544262585)"><path d="M0 0 C-0.96 27.66, -4.78 138.3, -5.73 165.96 M0 0 C-0.96 27.66, -4.78 138.3, -5.73 165.96" stroke="#000000" stroke-width="1" fill="none"></path></g><g transform="translate(309.9738340799049 1186.1110250842703) rotate(0 -2.866546873228799 82.97968544262585)"><path d="M-5.73 165.96 L-11.6 152.15 L1.07 152.59 L-5.73 165.96" stroke="none" stroke-width="0" fill="#000000" fill-rule="evenodd"></path><path d="M-5.73 165.96 C-7.17 162.57, -8.61 159.19, -11.6 152.15 M-5.73 165.96 C-6.99 163, -8.24 160.05, -11.6 152.15 M-11.6 152.15 C-8.81 152.25, -6.02 152.35, 1.07 152.59 M-11.6 152.15 C-7.35 152.3, -3.11 152.45, 1.07 152.59 M1.07 152.59 C-0.67 156.02, -2.42 159.44, -5.73 165.96 M1.07 152.59 C-0.79 156.25, -2.65 159.9, -5.73 165.96 M-5.73 165.96 C-5.73 165.96, -5.73 165.96, -5.73 165.96 M-5.73 165.96 C-5.73 165.96, -5.73 165.96, -5.73 165.96" stroke="#000000" stroke-width="1" fill="none"></path></g></g><mask id="mask-H3cm-NZ6IAtlK33KTVRkN"><rect x="0" y="0" fill="#fff" width="415.70692782636297" height="1452.0703959695222"></rect><rect x="296.6072872066761" y="1257.5907105268961" fill="#000" width="21" height="23" opacity="1"></rect></mask><g mask="url(#mask-eQWng7165anhQqvck88Fn)" stroke-linecap="round"><g transform="translate(179.9345061451968 1185.1182669356385) rotate(0 -41.49293531634521 86.26424544303563)"><path d="M0 0 C-13.83 28.75, -69.15 143.77, -82.99 172.53 M0 0 C-13.83 28.75, -69.15 143.77, -82.99 172.53" stroke="#000000" stroke-width="1" fill="none"></path></g><g transform="translate(179.9345061451968 1185.1182669356385) rotate(0 -41.49293531634521 86.26424544303563)"><path d="M-82.99 172.53 L-82.81 157.53 L-71.38 163.03 L-82.99 172.53" stroke="none" stroke-width="0" fill="#000000" fill-rule="evenodd"></path><path d="M-82.99 172.53 C-82.91 166.55, -82.84 160.57, -82.81 157.53 M-82.99 172.53 C-82.93 167.67, -82.87 162.82, -82.81 157.53 M-82.81 157.53 C-79.63 159.06, -76.46 160.58, -71.38 163.03 M-82.81 157.53 C-78.59 159.56, -74.37 161.59, -71.38 163.03 M-71.38 163.03 C-75.78 166.63, -80.19 170.24, -82.99 172.53 M-71.38 163.03 C-76 166.81, -80.61 170.59, -82.99 172.53 M-82.99 172.53 C-82.99 172.53, -82.99 172.53, -82.99 172.53 M-82.99 172.53 C-82.99 172.53, -82.99 172.53, -82.99 172.53" stroke="#000000" stroke-width="1" fill="none"></path></g></g><mask id="mask-eQWng7165anhQqvck88Fn"><rect x="0" y="0" fill="#fff" width="362.9203767778881" height="1457.6467578217096"></rect><rect x="119.44157082885249" y="1259.8825123786737" fill="#000" width="38" height="23" opacity="1"></rect></mask><g stroke-linecap="round" transform="translate(2231.9253583263708 1099.9193143563298) rotate(0 133.71904368025844 42.03169862948812)"><path d="M21.02 0 M21.02 0 C97.96 0, 174.9 0, 246.42 0 M21.02 0 C106.35 0, 191.69 0, 246.42 0 M246.42 0 C260.43 0, 267.44 7.01, 267.44 21.02 M246.42 0 C260.43 0, 267.44 7.01, 267.44 21.02 M267.44 21.02 C267.44 34.54, 267.44 48.07, 267.44 63.05 M267.44 21.02 C267.44 32.95, 267.44 44.89, 267.44 63.05 M267.44 63.05 C267.44 77.06, 260.43 84.06, 246.42 84.06 M267.44 63.05 C267.44 77.06, 260.43 84.06, 246.42 84.06 M246.42 84.06 C190.68 84.06, 134.93 84.06, 21.02 84.06 M246.42 84.06 C176.96 84.06, 107.49 84.06, 21.02 84.06 M21.02 84.06 C7.01 84.06, 0 77.06, 0 63.05 M21.02 84.06 C7.01 84.06, 0 77.06, 0 63.05 M0 63.05 C0 52.52, 0 41.99, 0 21.02 M0 63.05 C0 50.77, 0 38.48, 0 21.02 M0 21.02 C0 7.01, 7.01 0, 21.02 0 M0 21.02 C0 7.01, 7.01 0, 21.02 0" stroke="#c4c4c4" stroke-width="1" fill="none"></path></g><g transform="translate(2302.14440200663 1125.9510129858172) rotate(0 63.5 16)"><text x="63.5" y="25" font-family="Helvetica, Segoe UI Emoji" font-size="28px" fill="#c4c4c4" text-anchor="middle" style="white-space: pre;" direction="ltr">Raststätte</text></g><g stroke-linecap="round" transform="translate(2661.9567949769116 980.9321724140809) rotate(0 137.5 38.5)"><path d="M19.25 0 M19.25 0 C80.21 -1.68, 143.85 -0.66, 255.75 0 M19.25 0 C69.87 -1.92, 120.13 -1.19, 255.75 0 M255.75 0 C269.77 0.11, 275.83 4.47, 275 19.25 M255.75 0 C266.75 -0.51, 275.5 5.51, 275 19.25 M275 19.25 C276.2 27.49, 274.88 35.3, 275 57.75 M275 19.25 C275.36 32.79, 274.67 44.41, 275 57.75 M275 57.75 C275.88 72.02, 266.79 78.02, 255.75 77 M275 57.75 C273.99 72.41, 267.37 77.33, 255.75 77 M255.75 77 C179.28 77.98, 104.15 76.03, 19.25 77 M255.75 77 C190.76 74.62, 125.99 74.5, 19.25 77 M19.25 77 C6.76 75.87, 0.96 71.89, 0 57.75 M19.25 77 C6.61 77.69, -1.14 68.86, 0 57.75 M0 57.75 C-1.37 48.52, -0.27 38.45, 0 19.25 M0 57.75 C-0.39 46.19, -0.15 33.92, 0 19.25 M0 19.25 C1.91 6.48, 6.2 0.82, 19.25 0 M0 19.25 C1.04 8.02, 5.26 0.28, 19.25 0" stroke="#c4c4c4" stroke-width="1" fill="none"></path></g><g transform="translate(2742.9567949769116 1003.4321724140809) rotate(0 56.5 16)"><text x="56.5" y="25" font-family="Helvetica, Segoe UI Emoji" font-size="28px" fill="#c4c4c4" text-anchor="middle" style="white-space: pre;" direction="ltr">Start/Ziel</text></g><g stroke-linecap="round" transform="translate(1685.991433245168 729.042694616146) rotate(0 166.66666666666606 41.666666666666515)"><path d="M20.83 0 M20.83 0 C119.7 0, 218.57 0, 312.5 0 M20.83 0 C125.84 0, 230.84 0, 312.5 0 M312.5 0 C326.39 0, 333.33 6.94, 333.33 20.83 M312.5 0 C326.39 0, 333.33 6.94, 333.33 20.83 M333.33 20.83 C333.33 32.29, 333.33 43.75, 333.33 62.5 M333.33 20.83 C333.33 32.05, 333.33 43.26, 333.33 62.5 M333.33 62.5 C333.33 76.39, 326.39 83.33, 312.5 83.33 M333.33 62.5 C333.33 76.39, 326.39 83.33, 312.5 83.33 M312.5 83.33 C223.01 83.33, 133.51 83.33, 20.83 83.33 M312.5 83.33 C253.95 83.33, 195.4 83.33, 20.83 83.33 M20.83 83.33 C6.94 83.33, 0 76.39, 0 62.5 M20.83 83.33 C6.94 83.33, 0 76.39, 0 62.5 M0 62.5 C0 47.1, 0 31.7, 0 20.83 M0 62.5 C0 53.77, 0 45.04, 0 20.83 M0 20.83 C0 6.94, 6.94 0, 20.83 0 M0 20.83 C0 6.94, 6.94 0, 20.83 0" stroke="#c4c4c4" stroke-width="1" fill="none"></path></g><g transform="translate(1722.1580999118341 754.7093612828121) rotate(0 130.5 16)"><text x="130.5" y="25" font-family="Helvetica, Segoe UI Emoji" font-size="28px" fill="#c4c4c4" text-anchor="middle" style="white-space: pre;" direction="ltr">Fortbewegunsgmittel</text></g><g stroke-linecap="round" transform="translate(1375.5068669204302 1348.5157470401464) rotate(0 114.5 39.41769201591205)"><path d="M19.71 0 M19.71 0 C66.34 0, 112.97 0, 209.29 0 M19.71 0 C60.07 0, 100.44 0, 209.29 0 M209.29 0 C222.43 0, 229 6.57, 229 19.71 M209.29 0 C222.43 0, 229 6.57, 229 19.71 M229 19.71 C229 32.32, 229 44.93, 229 59.13 M229 19.71 C229 34.05, 229 48.39, 229 59.13 M229 59.13 C229 72.27, 222.43 78.84, 209.29 78.84 M229 59.13 C229 72.27, 222.43 78.84, 209.29 78.84 M209.29 78.84 C142.82 78.84, 76.36 78.84, 19.71 78.84 M209.29 78.84 C161.62 78.84, 113.94 78.84, 19.71 78.84 M19.71 78.84 C6.57 78.84, 0 72.27, 0 59.13 M19.71 78.84 C6.57 78.84, 0 72.27, 0 59.13 M0 59.13 C0 47.4, 0 35.68, 0 19.71 M0 59.13 C0 45.77, 0 32.41, 0 19.71 M0 19.71 C0 6.57, 6.57 0, 19.71 0 M0 19.71 C0 6.57, 6.57 0, 19.71 0" stroke="#c4c4c4" stroke-width="1" fill="none"></path></g><g transform="translate(1435.7812106408855 1371.933439056058) rotate(0 54 16)"><text x="54" y="25" font-family="Helvetica, Segoe UI Emoji" font-size="28px" fill="#c4c4c4" text-anchor="middle" style="white-space: pre;" direction="ltr">Grenzen</text></g><g stroke-linecap="round" transform="translate(1754.5719385630764 128.03811450590183) rotate(0 94.5 35.5)"><path d="M17.75 0 M17.75 0 C64.83 0, 111.9 0, 171.25 0 M171.25 0 C183.08 0, 189 5.92, 189 17.75 M189 17.75 C189 24.95, 189 32.14, 189 53.25 M189 53.25 C189 65.08, 183.08 71, 171.25 71 M171.25 71 C122.35 71, 73.44 71, 17.75 71 M17.75 71 C5.92 71, 0 65.08, 0 53.25 M0 53.25 C0 40.79, 0 28.34, 0 17.75 M0 17.75 C0 5.92, 5.92 0, 17.75 0" stroke="#c4c4c4" stroke-width="1.5" fill="none" stroke-dasharray="8 9"></path></g><g transform="translate(1784.4052718964085 147.53811450590183) rotate(0 58 16)"><text x="58" y="25" font-family="Helvetica, Segoe UI Emoji" font-size="28px" fill="#c4c4c4" text-anchor="middle" style="white-space: pre;" direction="ltr">Flugzeug</text></g><g stroke-linecap="round" transform="translate(1754.5719385630764 248.37144783923577) rotate(0 85.5 37.5)"><path d="M18.75 0 M18.75 0 C61.97 0, 105.18 0, 152.25 0 M152.25 0 C164.75 0, 171 6.25, 171 18.75 M171 18.75 C171 29.17, 171 39.59, 171 56.25 M171 56.25 C171 68.75, 164.75 75, 152.25 75 M152.25 75 C102.97 75, 53.7 75, 18.75 75 M18.75 75 C6.25 75, 0 68.75, 0 56.25 M0 56.25 C0 42.02, 0 27.8, 0 18.75 M0 18.75 C0 6.25, 6.25 0, 18.75 0" stroke="#c4c4c4" stroke-width="1.5" fill="none" stroke-dasharray="8 9"></path></g><g transform="translate(1808.9052718964085 269.87144783923577) rotate(0 24.5 16)"><text x="24.5" y="25" font-family="Helvetica, Segoe UI Emoji" font-size="28px" fill="#c4c4c4" text-anchor="middle" style="white-space: pre;" direction="ltr">Bus</text></g><g stroke-linecap="round" transform="translate(1986.10512338013 2049.7684937527183) rotate(0 114.5 39.5)"><path d="M19.75 0 M19.75 0 C76.4 0, 133.05 0, 209.25 0 M19.75 0 C58.17 0, 96.59 0, 209.25 0 M209.25 0 C222.42 0, 229 6.58, 229 19.75 M209.25 0 C222.42 0, 229 6.58, 229 19.75 M229 19.75 C229 31.98, 229 44.21, 229 59.25 M229 19.75 C229 33.61, 229 47.47, 229 59.25 M229 59.25 C229 72.42, 222.42 79, 209.25 79 M229 59.25 C229 72.42, 222.42 79, 209.25 79 M209.25 79 C159.41 79, 109.57 79, 19.75 79 M209.25 79 C139.97 79, 70.7 79, 19.75 79 M19.75 79 C6.58 79, 0 72.42, 0 59.25 M19.75 79 C6.58 79, 0 72.42, 0 59.25 M0 59.25 C0 47.95, 0 36.65, 0 19.75 M0 59.25 C0 45.79, 0 32.33, 0 19.75 M0 19.75 C0 6.58, 6.58 0, 19.75 0 M0 19.75 C0 6.58, 6.58 0, 19.75 0" stroke="#000000" stroke-width="1" fill="none"></path></g><g transform="translate(2035.60512338013 2073.2684937527183) rotate(0 65 16)"><text x="65" y="25" font-family="Helvetica, Segoe UI Emoji" font-size="28px" fill="#000000" text-anchor="middle" style="white-space: pre;" direction="ltr">Aktivitäten</text></g><g stroke-linecap="round" transform="translate(1756.2386052297425 370.03811450590183) rotate(0 87 34.5)"><path d="M17.25 0 M17.25 0 C52.88 0, 88.51 0, 156.75 0 M156.75 0 C168.25 0, 174 5.75, 174 17.25 M174 17.25 C174 29.38, 174 41.5, 174 51.75 M174 51.75 C174 63.25, 168.25 69, 156.75 69 M156.75 69 C123.28 69, 89.8 69, 17.25 69 M17.25 69 C5.75 69, 0 63.25, 0 51.75 M0 51.75 C0 38.16, 0 24.57, 0 17.25 M0 17.25 C0 5.75, 5.75 0, 17.25 0" stroke="#c4c4c4" stroke-width="1.5" fill="none" stroke-dasharray="8 9"></path></g><g transform="translate(1812.0719385630764 388.53811450590183) rotate(0 24.5 16)"><text x="24.5" y="25" font-family="Helvetica, Segoe UI Emoji" font-size="28px" fill="#c4c4c4" text-anchor="middle" style="white-space: pre;" direction="ltr">Zug</text></g><g stroke-linecap="round" transform="translate(1762.9052718964103 490.03811450590183) rotate(0 87.5 33)"><path d="M16.5 0 M16.5 0 C67.51 0, 118.53 0, 158.5 0 M158.5 0 C169.5 0, 175 5.5, 175 16.5 M175 16.5 C175 28.06, 175 39.62, 175 49.5 M175 49.5 C175 60.5, 169.5 66, 158.5 66 M158.5 66 C109.68 66, 60.86 66, 16.5 66 M16.5 66 C5.5 66, 0 60.5, 0 49.5 M0 49.5 C0 40.78, 0 32.06, 0 16.5 M0 16.5 C0 5.5, 5.5 0, 16.5 0" stroke="#c4c4c4" stroke-width="1.5" fill="none" stroke-dasharray="8 9"></path></g><g transform="translate(1814.2386052297425 507.03811450590183) rotate(0 29.5 16)"><text x="29.5" y="25" font-family="Helvetica, Segoe UI Emoji" font-size="28px" fill="#c4c4c4" text-anchor="middle" style="white-space: pre;" direction="ltr">Auto</text></g><g stroke-linecap="round" transform="translate(1766.6552718964103 601.7047811725697) rotate(0 79 33.5)"><path d="M16.75 0 M16.75 0 C59.28 0, 101.8 0, 141.25 0 M141.25 0 C152.42 0, 158 5.58, 158 16.75 M158 16.75 C158 26.26, 158 35.78, 158 50.25 M158 50.25 C158 61.42, 152.42 67, 141.25 67 M141.25 67 C115.06 67, 88.87 67, 16.75 67 M16.75 67 C5.58 67, 0 61.42, 0 50.25 M0 50.25 C0 39.93, 0 29.6, 0 16.75 M0 16.75 C0 5.58, 5.58 0, 16.75 0" stroke="#c4c4c4" stroke-width="1.5" fill="none" stroke-dasharray="8 9"></path></g><g transform="translate(1789.4886052297425 619.2047811725697) rotate(0 49.5 16)"><text x="49.5" y="25" font-family="Helvetica, Segoe UI Emoji" font-size="28px" fill="#c4c4c4" text-anchor="middle" style="white-space: pre;" direction="ltr">Fahrrad</text></g><g stroke-linecap="round" transform="translate(1725.2386052297425 97.37144783923577) rotate(0 123.83333333333394 308)"><path d="M32 0 M32 0 C72.45 0, 112.91 0, 215.67 0 M215.67 0 C237 0, 247.67 10.67, 247.67 32 M247.67 32 C247.67 216.93, 247.67 401.86, 247.67 584 M247.67 584 C247.67 605.33, 237 616, 215.67 616 M215.67 616 C168.61 616, 121.55 616, 32 616 M32 616 C10.67 616, 0 605.33, 0 584 M0 584 C0 433.02, 0 282.05, 0 32 M0 32 C0 10.67, 10.67 0, 32 0" stroke="#c4c4c4" stroke-width="1.5" fill="none" stroke-dasharray="1.5 7"></path></g><g stroke-linecap="round" transform="translate(1811.543979559112 1279.8402132209849) rotate(0 133.71904368025844 42.03169862948812)"><path d="M21.02 0 M21.02 0 C83.65 0, 146.28 0, 246.42 0 M21.02 0 C93.13 0, 165.24 0, 246.42 0 M246.42 0 C260.43 0, 267.44 7.01, 267.44 21.02 M246.42 0 C260.43 0, 267.44 7.01, 267.44 21.02 M267.44 21.02 C267.44 36.96, 267.44 52.91, 267.44 63.05 M267.44 21.02 C267.44 35.75, 267.44 50.49, 267.44 63.05 M267.44 63.05 C267.44 77.06, 260.43 84.06, 246.42 84.06 M267.44 63.05 C267.44 77.06, 260.43 84.06, 246.42 84.06 M246.42 84.06 C172.04 84.06, 97.65 84.06, 21.02 84.06 M246.42 84.06 C179.37 84.06, 112.32 84.06, 21.02 84.06 M21.02 84.06 C7.01 84.06, 0 77.06, 0 63.05 M21.02 84.06 C7.01 84.06, 0 77.06, 0 63.05 M0 63.05 C0 47.51, 0 31.98, 0 21.02 M0 63.05 C0 53.76, 0 44.48, 0 21.02 M0 21.02 C0 7.01, 7.01 0, 21.02 0 M0 21.02 C0 7.01, 7.01 0, 21.02 0" stroke="#c4c4c4" stroke-width="1" fill="none"></path></g><g transform="translate(1859.2630232393676 1305.8719118504741) rotate(0 86 16)"><text x="86" y="25" font-family="Helvetica, Segoe UI Emoji" font-size="28px" fill="#c4c4c4" text-anchor="middle" style="white-space: pre;" direction="ltr">Zwischenstop</text></g><g stroke-linecap="round" transform="translate(988.3560504228426 251.5613010538891) rotate(0 91 33.5)"><path d="M16.75 0 M16.75 0 C55.44 0, 94.14 0, 165.25 0 M16.75 0 C64.06 0, 111.37 0, 165.25 0 M165.25 0 C176.42 0, 182 5.58, 182 16.75 M165.25 0 C176.42 0, 182 5.58, 182 16.75 M182 16.75 C182 27.28, 182 37.82, 182 50.25 M182 16.75 C182 24.59, 182 32.43, 182 50.25 M182 50.25 C182 61.42, 176.42 67, 165.25 67 M182 50.25 C182 61.42, 176.42 67, 165.25 67 M165.25 67 C131.84 67, 98.43 67, 16.75 67 M165.25 67 C127.74 67, 90.22 67, 16.75 67 M16.75 67 C5.58 67, 0 61.42, 0 50.25 M16.75 67 C5.58 67, 0 61.42, 0 50.25 M0 50.25 C0 39.79, 0 29.33, 0 16.75 M0 50.25 C0 41.98, 0 33.72, 0 16.75 M0 16.75 C0 5.58, 5.58 0, 16.75 0 M0 16.75 C0 5.58, 5.58 0, 16.75 0" stroke="#000000" stroke-width="1" fill="none"></path></g><g transform="translate(1035.3560504228426 269.0613010538891) rotate(0 44 16)"><text x="44" y="25" font-family="Helvetica, Segoe UI Emoji" font-size="28px" fill="#000000" text-anchor="middle" style="white-space: pre;" direction="ltr">Kosten</text></g><g stroke-linecap="round" transform="translate(1975.7504388156012 2497.641431689329) rotate(0 128.5 38.85008113079857)"><path d="M19.43 0 M19.43 0 C96.1 0, 172.77 0, 237.57 0 M19.43 0 C99.95 0, 180.47 0, 237.57 0 M237.57 0 C250.52 0, 257 6.48, 257 19.43 M237.57 0 C250.52 0, 257 6.48, 257 19.43 M257 19.43 C257 34.73, 257 50.04, 257 58.28 M257 19.43 C257 34.88, 257 50.33, 257 58.28 M257 58.28 C257 71.23, 250.52 77.7, 237.57 77.7 M257 58.28 C257 71.23, 250.52 77.7, 237.57 77.7 M237.57 77.7 C165.88 77.7, 94.18 77.7, 19.43 77.7 M237.57 77.7 C157.94 77.7, 78.3 77.7, 19.43 77.7 M19.43 77.7 C6.48 77.7, 0 71.23, 0 58.28 M19.43 77.7 C6.48 77.7, 0 71.23, 0 58.28 M0 58.28 C0 43.12, 0 27.96, 0 19.43 M0 58.28 C0 43.86, 0 29.45, 0 19.43 M0 19.43 C0 6.48, 6.48 0, 19.43 0 M0 19.43 C0 6.48, 6.48 0, 19.43 0" stroke="#000000" stroke-width="1" fill="none"></path></g><g transform="translate(2039.2144484270575 2520.4915128201274) rotate(0 65 16)"><text x="65" y="25" font-family="Helvetica, Segoe UI Emoji" font-size="28px" fill="#000000" text-anchor="middle" style="white-space: pre;" direction="ltr">Unterkunft</text></g><g stroke-linecap="round" transform="translate(1967.4230485210355 1694.244108766924) rotate(0 130 37)"><path d="M18.5 0 M18.5 0 C96.61 0, 174.73 0, 241.5 0 M18.5 0 C87.54 0, 156.57 0, 241.5 0 M241.5 0 C253.83 0, 260 6.17, 260 18.5 M241.5 0 C253.83 0, 260 6.17, 260 18.5 M260 18.5 C260 28.28, 260 38.05, 260 55.5 M260 18.5 C260 28.23, 260 37.96, 260 55.5 M260 55.5 C260 67.83, 253.83 74, 241.5 74 M260 55.5 C260 67.83, 253.83 74, 241.5 74 M241.5 74 C188.63 74, 135.77 74, 18.5 74 M241.5 74 C177.72 74, 113.94 74, 18.5 74 M18.5 74 C6.17 74, 0 67.83, 0 55.5 M18.5 74 C6.17 74, 0 67.83, 0 55.5 M0 55.5 C0 42.46, 0 29.43, 0 18.5 M0 55.5 C0 47.29, 0 39.08, 0 18.5 M0 18.5 C0 6.17, 6.17 0, 18.5 0 M0 18.5 C0 6.17, 6.17 0, 18.5 0" stroke="#000000" stroke-width="1" fill="none"></path></g><g transform="translate(2032.4230485210355 1715.244108766924) rotate(0 65 16)"><text x="65" y="25" font-family="Helvetica, Segoe UI Emoji" font-size="28px" fill="#000000" text-anchor="middle" style="white-space: pre;" direction="ltr">Statistiken</text></g><g stroke-linecap="round" transform="translate(3559.32079712411 755.8512529559775) rotate(360.61088775432404 137.5 38.5)"><path d="M19.25 0 M19.25 0 C86.42 0, 153.59 0, 255.75 0 M19.25 0 C76 0, 132.75 0, 255.75 0 M255.75 0 C268.58 0, 275 6.42, 275 19.25 M255.75 0 C268.58 0, 275 6.42, 275 19.25 M275 19.25 C275 31.12, 275 42.98, 275 57.75 M275 19.25 C275 29.01, 275 38.77, 275 57.75 M275 57.75 C275 70.58, 268.58 77, 255.75 77 M275 57.75 C275 70.58, 268.58 77, 255.75 77 M255.75 77 C186.64 77, 117.53 77, 19.25 77 M255.75 77 C182.5 77, 109.25 77, 19.25 77 M19.25 77 C6.42 77, 0 70.58, 0 57.75 M19.25 77 C6.42 77, 0 70.58, 0 57.75 M0 57.75 C0 49.94, 0 42.12, 0 19.25 M0 57.75 C0 49.63, 0 41.51, 0 19.25 M0 19.25 C0 6.42, 6.42 0, 19.25 0 M0 19.25 C0 6.42, 6.42 0, 19.25 0" stroke="#c4c4c4" stroke-width="1" fill="none"></path></g><g transform="translate(3616.32079712411 778.3512529559775) rotate(360.61088775432404 80.5 16)"><text x="80.5" y="25" font-family="Helvetica, Segoe UI Emoji" font-size="28px" fill="#c4c4c4" text-anchor="middle" style="white-space: pre;" direction="ltr">Supermärkte</text></g><g stroke-linecap="round" transform="translate(3569.027505518552 975.265430318892) rotate(360.61088775432404 114.5 53)"><path d="M26.5 0 M26.5 0 C85.46 0, 144.43 0, 202.5 0 M26.5 0 C87.01 0, 147.52 0, 202.5 0 M202.5 0 C220.17 0, 229 8.83, 229 26.5 M202.5 0 C220.17 0, 229 8.83, 229 26.5 M229 26.5 C229 41, 229 55.49, 229 79.5 M229 26.5 C229 43.3, 229 60.11, 229 79.5 M229 79.5 C229 97.17, 220.17 106, 202.5 106 M229 79.5 C229 97.17, 220.17 106, 202.5 106 M202.5 106 C147.9 106, 93.29 106, 26.5 106 M202.5 106 C132.91 106, 63.32 106, 26.5 106 M26.5 106 C8.83 106, 0 97.17, 0 79.5 M26.5 106 C8.83 106, 0 97.17, 0 79.5 M0 79.5 C0 67.32, 0 55.15, 0 26.5 M0 79.5 C0 65.96, 0 52.42, 0 26.5 M0 26.5 C0 8.83, 8.83 0, 26.5 0 M0 26.5 C0 8.83, 8.83 0, 26.5 0" stroke="#000000" stroke-width="1" fill="none"></path></g><g transform="translate(3594.527505518552 980.265430318892) rotate(360.61088775432404 89 48)"><text x="89" y="25" font-family="Helvetica, Segoe UI Emoji" font-size="28px" fill="#000000" text-anchor="middle" style="white-space: pre;" direction="ltr">Gastronomie </text><text x="89" y="57" font-family="Helvetica, Segoe UI Emoji" font-size="28px" fill="#000000" text-anchor="middle" style="white-space: pre;" direction="ltr">(Unterkünfte / </text><text x="89" y="89" font-family="Helvetica, Segoe UI Emoji" font-size="28px" fill="#000000" text-anchor="middle" style="white-space: pre;" direction="ltr">Restaurants)</text></g><g transform="translate(258.3840209313512 1013.96945391175) rotate(0 53.99999999999909 11.5)"><text x="54" y="18" font-family="Helvetica, Segoe UI Emoji" font-size="20px" fill="#000000" text-anchor="middle" style="white-space: pre;" direction="ltr">verfügt über</text></g><g mask="url(#mask-u6MQ7hDZyyisIcAzcCAHk)" stroke-linecap="round"><g transform="translate(289.0398910663407 843.8065787209634) rotate(0 342.21252503812957 -270.9987453531335)"><path d="M0 0 C114.07 -90.33, 570.35 -451.66, 684.43 -542 M0 0 C114.07 -90.33, 570.35 -451.66, 684.43 -542" stroke="#000000" stroke-width="1" fill="none"></path></g><g transform="translate(289.0398910663407 843.8065787209634) rotate(0 342.21252503812957 -270.9987453531335)"><path d="M684.43 -542 L677.7 -528.59 L669.83 -538.53 L684.43 -542" stroke="none" stroke-width="0" fill="#000000" fill-rule="evenodd"></path><path d="M684.43 -542 C682.34 -537.85, 680.26 -533.69, 677.7 -528.59 M684.43 -542 C682.31 -537.78, 680.2 -533.56, 677.7 -528.59 M677.7 -528.59 C675.63 -531.2, 673.56 -533.82, 669.83 -538.53 M677.7 -528.59 C675.93 -530.82, 674.16 -533.06, 669.83 -538.53 M669.83 -538.53 C674.01 -539.52, 678.18 -540.51, 684.43 -542 M669.83 -538.53 C674.39 -539.61, 678.94 -540.69, 684.43 -542 M684.43 -542 C684.43 -542, 684.43 -542, 684.43 -542 M684.43 -542 C684.43 -542, 684.43 -542, 684.43 -542" stroke="#000000" stroke-width="1" fill="none"></path></g></g><mask id="mask-u6MQ7hDZyyisIcAzcCAHk"><rect x="0" y="0" fill="#fff" width="1073.4649411425994" height="1485.8040694272302"></rect><rect x="616.7524161044694" y="561.30783336783" fill="#000" width="29" height="23" opacity="1"></rect></mask><g mask="url(#mask-Vx9c2iAuzv_OiL0Dlwsge)" stroke-linecap="round"><g transform="translate(1261.6125113367289 852.398903062387) rotate(0 -95.10640807898926 -261.76292271267084)"><path d="M-0.76 0.53 C-32.68 -86.7, -159.04 -436.71, -190.75 -524.05 M1.03 -0.24 C-31.03 -87.29, -159.17 -436.04, -191.25 -523.08" stroke="#000000" stroke-width="1" fill="none"></path></g><g transform="translate(1261.6125113367289 852.398903062387) rotate(0 -95.10640807898926 -261.76292271267084)"><path d="M-190.76 -522.32 L-180.13 -514.01 L-191.31 -508.7 L-191.63 -521.91" stroke="none" stroke-width="0" fill="#000000" fill-rule="evenodd"></path><path d="M-190.59 -522 C-188.78 -518.4, -184.22 -514.13, -181.39 -512.29 M-191.52 -522.7 C-187.67 -520.19, -184.52 -515.57, -181.35 -512.79 M-180.39 -513.23 C-183.01 -510.65, -186.5 -510, -193.13 -509.08 M-181 -512.53 C-183.48 -511.68, -186.2 -509.93, -193.08 -508.22 M-191.07 -508.08 C-192.26 -512.59, -190.99 -517.22, -192 -522.9 M-192.11 -508.72 C-193.06 -512.1, -192.56 -514.75, -191.01 -523.67 M-191.25 -523.08 C-191.25 -523.08, -191.25 -523.08, -191.25 -523.08 M-191.25 -523.08 C-191.25 -523.08, -191.25 -523.08, -191.25 -523.08" stroke="#000000" stroke-width="1" fill="none"></path></g></g><mask id="mask-Vx9c2iAuzv_OiL0Dlwsge"><rect x="0" y="0" fill="#fff" width="1553.2221117617237" height="1475.3749332822442"></rect><rect x="1151.307711124231" y="579.4108879524583" fill="#000" width="29" height="23" opacity="1"></rect></mask><g mask="url(#mask-zPOwMMRWCSJbHAWUH9qBj)" stroke-linecap="round"><g transform="translate(3171.1974745142397 839.3344932555428) rotate(0 -1046.9755834650878 -414.2376084973678)"><path d="M0.53 0.86 C-206.77 -133.29, -895.5 -705.93, -1244.5 -805.66 C-1593.49 -905.39, -1951.93 -632.08, -2093.44 -597.52 M-0.66 0.26 C-207.53 -134.17, -893.38 -707.53, -1242.35 -807.46 C-1591.32 -907.4, -1952.6 -634.42, -2094.48 -599.36" stroke="#000000" stroke-width="1" fill="none"></path></g><g transform="translate(3171.1974745142397 839.3344932555428) rotate(0 -1046.9755834650878 -414.2376084973678)"><path d="M-2093.71 -598.89 L-2086.08 -609.44 L-2080.05 -599.4 L-2093.31 -597.41" stroke="none" stroke-width="0" fill="#000000" fill-rule="evenodd"></path><path d="M-2093.4 -600.71 C-2091.27 -602.76, -2088.46 -605.6, -2084.36 -610.32 M-2094.1 -599.3 C-2091.08 -603.96, -2085.95 -608.95, -2084.85 -610.99 M-2085.3 -610.02 C-2082.53 -607.59, -2081.69 -605.38, -2080.43 -599.8 M-2084.59 -610.68 C-2083.12 -606.72, -2080.73 -603.54, -2079.57 -598.77 M-2079.43 -599.18 C-2083.51 -598.3, -2087.73 -599.84, -2094.29 -600.27 M-2080.07 -599.75 C-2085.73 -599.6, -2090.65 -598.97, -2095.06 -599.74 M-2094.48 -599.36 C-2094.48 -599.36, -2094.48 -599.36, -2094.48 -599.36 M-2094.48 -599.36 C-2094.48 -599.36, -2094.48 -599.36, -2094.48 -599.36" stroke="#000000" stroke-width="1" fill="none"></path></g></g><mask id="mask-zPOwMMRWCSJbHAWUH9qBj"><rect x="0" y="0" fill="#fff" width="5364.107562316477" height="1745.6078805922014"></rect><rect x="1913.2776502158904" y="21.561105918884095" fill="#000" width="29" height="23" opacity="1"></rect></mask><g transform="translate(2195.8122859392806 893.7458617379398) rotate(0 34.00000000000091 11.499999999999773)"><text x="34" y="18" font-family="Helvetica, Segoe UI Emoji" font-size="20px" fill="#000000" text-anchor="middle" style="white-space: pre;" direction="ltr">führt zu</text></g><g mask="url(#mask-ws5fJKQxnQ90HzxRJjTZc)" stroke-linecap="round"><g transform="translate(1366.9273627590937 870.6413063075415) rotate(0 150.75814303674179 -51.4019999130237)"><path d="M-1.08 0.61 C49.27 -16.5, 252 -84.6, 302.59 -101.79 M0.56 -0.11 C50.65 -17.62, 251.23 -86.57, 301.37 -103.41" stroke="#c4c4c4" stroke-width="1" fill="none"></path></g><g transform="translate(1366.9273627590937 870.6413063075415) rotate(0 150.75814303674179 -51.4019999130237)"><path d="M299.87 -102.22 L289.98 -93.42 L287.63 -103.08 L300.92 -103.22" stroke="none" stroke-width="0" fill="#c4c4c4" fill-rule="evenodd"></path><path d="M302.13 -104.07 C298.91 -100.73, 294.22 -96.06, 291.95 -92.93 M300.87 -103.61 C299.29 -101.41, 295.42 -98.28, 290.19 -93.51 M291.37 -92.93 C289.7 -97.44, 287.07 -101.4, 286.82 -104.15 M290.24 -92.97 C289.99 -96.45, 288.52 -98.48, 286.52 -105 M287.07 -104.35 C293.4 -105.13, 298.43 -104.64, 302.72 -104.51 M286.06 -105.56 C292.23 -104.08, 296.36 -104.13, 300.7 -103.51 M301.37 -103.41 C301.37 -103.41, 301.37 -103.41, 301.37 -103.41 M301.37 -103.41 C301.37 -103.41, 301.37 -103.41, 301.37 -103.41" stroke="#c4c4c4" stroke-width="1" fill="none"></path></g></g><mask id="mask-ws5fJKQxnQ90HzxRJjTZc"><rect x="0" y="0" fill="#fff" width="1770.0446274015176" height="1073.3863234082964"></rect><rect x="1408.9859950803057" y="787.2687977571641" fill="#000" width="219" height="64" opacity="1"></rect></mask><g mask="url(#mask-y6jwOA41OXrTSVBGwLttz)" stroke-linecap="round"><g transform="translate(1321.8783108341158 953.4646769505143) rotate(0 83.3868255897305 193.17860912202673)"><path d="M0 0 C27.8 64.39, 138.98 321.96, 166.77 386.36 M0 0 C27.8 64.39, 138.98 321.96, 166.77 386.36" stroke="#c4c4c4" stroke-width="1" fill="none"></path></g><g transform="translate(1321.8783108341158 953.4646769505143) rotate(0 83.3868255897305 193.17860912202673)"><path d="M166.77 386.36 L155.57 376.39 L167.21 371.36 L166.77 386.36" stroke="none" stroke-width="0" fill="#c4c4c4" fill-rule="evenodd"></path><path d="M166.77 386.36 C162.61 382.65, 158.44 378.95, 155.57 376.39 M166.77 386.36 C162.84 382.86, 158.91 379.37, 155.57 376.39 M155.57 376.39 C158.4 375.17, 161.23 373.94, 167.21 371.36 M155.57 376.39 C159.03 374.89, 162.49 373.4, 167.21 371.36 M167.21 371.36 C167.07 375.91, 166.94 380.46, 166.77 386.36 M167.21 371.36 C167.11 374.68, 167.02 377.99, 166.77 386.36 M166.77 386.36 C166.77 386.36, 166.77 386.36, 166.77 386.36 M166.77 386.36 C166.77 386.36, 166.77 386.36, 166.77 386.36" stroke="#c4c4c4" stroke-width="1" fill="none"></path></g></g><mask id="mask-y6jwOA41OXrTSVBGwLttz"><rect x="0" y="0" fill="#fff" width="1588.6519620135768" height="1439.8218951945678"></rect><rect x="1361.7651364238463" y="1135.1432860725408" fill="#000" width="87" height="23" opacity="1"></rect></mask><g transform="translate(119.44157082885249 1259.8825123786737) rotate(0 18.99999999999909 11.5)"><text x="19" y="18" font-family="Helvetica, Segoe UI Emoji" font-size="20px" fill="#000000" text-anchor="middle" style="white-space: pre;" direction="ltr">sind</text></g><g mask="url(#mask-RH0N0DOCaXtmMEMsjkaIQ)" stroke-linecap="round"><g transform="translate(1254.986058806815 951.0579902041827) rotate(0 298.20543922538945 574.963856254326)"><path d="M0 0 C-14.58 108.68, -207.99 460.4, -87.45 652.06 C33.09 843.71, 588.11 1066.95, 723.22 1149.93 M0 0 C-14.58 108.68, -207.99 460.4, -87.45 652.06 C33.09 843.71, 588.11 1066.95, 723.22 1149.93" stroke="#000000" stroke-width="1" fill="none"></path></g><g transform="translate(1254.986058806815 951.0579902041827) rotate(0 298.20543922538945 574.963856254326)"><path d="M723.22 1149.93 L708.23 1149.41 L713.98 1138.11 L723.22 1149.93" stroke="none" stroke-width="0" fill="#000000" fill-rule="evenodd"></path><path d="M723.22 1149.93 C717.96 1149.75, 712.7 1149.56, 708.23 1149.41 M723.22 1149.93 C719.71 1149.81, 716.21 1149.68, 708.23 1149.41 M708.23 1149.41 C710.33 1145.28, 712.44 1141.15, 713.98 1138.11 M708.23 1149.41 C709.68 1146.55, 711.14 1143.7, 713.98 1138.11 M713.98 1138.11 C717.13 1142.14, 720.28 1146.16, 723.22 1149.93 M713.98 1138.11 C716.26 1141.03, 718.54 1143.94, 723.22 1149.93 M723.22 1149.93 C723.22 1149.93, 723.22 1149.93, 723.22 1149.93 M723.22 1149.93 C723.22 1149.93, 723.22 1149.93, 723.22 1149.93" stroke="#000000" stroke-width="1" fill="none"></path></g></g><mask id="mask-RH0N0DOCaXtmMEMsjkaIQ"><rect x="0" y="0" fill="#fff" width="2165.658751332612" height="2200.985702712834"></rect><rect x="1123.5353840314983" y="1591.613127380203" fill="#000" width="88" height="23" opacity="1"></rect></mask><g mask="url(#mask-qjfE7Fhu6HFtuq-ZX3k4M)" stroke-linecap="round"><g transform="translate(1255.463751564428 951.6532023708369) rotate(0 317.47518487395337 395.2175312602503)"><path d="M0 0 C-3.53 100.91, -138.54 473.72, -21.21 605.46 C96.13 737.2, 583.12 759.61, 703.99 790.44 M0 0 C-3.53 100.91, -138.54 473.72, -21.21 605.46 C96.13 737.2, 583.12 759.61, 703.99 790.44" stroke="#000000" stroke-width="1" fill="none"></path></g><g transform="translate(1255.463751564428 951.6532023708369) rotate(0 317.47518487395337 395.2175312602503)"><path d="M703.99 790.44 L689.59 794.65 L691.51 782.12 L703.99 790.44" stroke="none" stroke-width="0" fill="#000000" fill-rule="evenodd"></path><path d="M703.99 790.44 C700.3 791.52, 696.61 792.6, 689.59 794.65 M703.99 790.44 C700.05 791.59, 696.11 792.74, 689.59 794.65 M689.59 794.65 C690.18 790.79, 690.77 786.92, 691.51 782.12 M689.59 794.65 C690.19 790.76, 690.78 786.87, 691.51 782.12 M691.51 782.12 C695.82 784.99, 700.13 787.86, 703.99 790.44 M691.51 782.12 C694.37 784.03, 697.24 785.94, 703.99 790.44 M703.99 790.44 C703.99 790.44, 703.99 790.44, 703.99 790.44 M703.99 790.44 C703.99 790.44, 703.99 790.44, 703.99 790.44" stroke="#000000" stroke-width="1" fill="none"></path></g></g><mask id="mask-qjfE7Fhu6HFtuq-ZX3k4M"><rect x="0" y="0" fill="#fff" width="2080.6577371671638" height="1842.0882648913378"></rect><rect x="1180.25787750571" y="1545.6164443377666" fill="#000" width="108" height="23" opacity="1"></rect></mask><g transform="translate(1180.25787750571 1545.6164443377666) rotate(0 392.6810589326715 -198.74571070667935)"><text x="54" y="18" font-family="Helvetica, Segoe UI Emoji" font-size="20px" fill="#000000" text-anchor="middle" style="white-space: pre;" direction="ltr">verfügt über</text></g><g transform="translate(1361.7651364238463 1135.1432860725408) rotate(0 43.5 11.500000000000227)"><text x="43.5" y="18" font-family="Helvetica, Segoe UI Emoji" font-size="20px" fill="#c4c4c4" text-anchor="middle" style="white-space: pre;" direction="ltr">führt über</text></g><g mask="url(#mask-VfjBlU19Xni_UioRl91hO)" stroke-linecap="round"><g transform="translate(1344.5359196434729 949.0247818167172) rotate(0 256.54907305880806 158.31756567155026)"><path d="M0 0 C85.52 52.77, 427.58 263.86, 513.1 316.64 M0 0 C85.52 52.77, 427.58 263.86, 513.1 316.64" stroke="#c4c4c4" stroke-width="1" fill="none"></path></g><g transform="translate(1344.5359196434729 949.0247818167172) rotate(0 256.54907305880806 158.31756567155026)"><path d="M513.1 316.64 L498.2 314.89 L504.86 304.1 L513.1 316.64" stroke="none" stroke-width="0" fill="#c4c4c4" fill-rule="evenodd"></path><path d="M513.1 316.64 C508.32 316.08, 503.54 315.52, 498.2 314.89 M513.1 316.64 C509.35 316.2, 505.61 315.76, 498.2 314.89 M498.2 314.89 C499.79 312.32, 501.37 309.75, 504.86 304.1 M498.2 314.89 C500.46 311.23, 502.71 307.58, 504.86 304.1 M504.86 304.1 C506.83 307.1, 508.81 310.11, 513.1 316.64 M504.86 304.1 C506.91 307.22, 508.96 310.34, 513.1 316.64 M513.1 316.64 C513.1 316.64, 513.1 316.64, 513.1 316.64 M513.1 316.64 C513.1 316.64, 513.1 316.64, 513.1 316.64" stroke="#c4c4c4" stroke-width="1" fill="none"></path></g></g><mask id="mask-VfjBlU19Xni_UioRl91hO"><rect x="0" y="0" fill="#fff" width="1957.634065761089" height="1365.659913159818"></rect><rect x="1557.084992702281" y="1095.8423474882675" fill="#000" width="88" height="23" opacity="1"></rect></mask><g mask="url(#mask-QtWDDt7mjUIhOGXezbPI7)" stroke-linecap="round"><g transform="translate(1362.4767300393632 918.2447237184024) rotate(0 424.8264639542904 90.00689269745158)"><path d="M0 0 C141.61 30, 708.04 150.01, 849.65 180.01 M0 0 C141.61 30, 708.04 150.01, 849.65 180.01" stroke="#c4c4c4" stroke-width="1" fill="none"></path></g><g transform="translate(1362.4767300393632 918.2447237184024) rotate(0 424.8264639542904 90.00689269745158)"><path d="M849.65 180.01 L835.04 183.4 L837.67 170.99 L849.65 180.01" stroke="none" stroke-width="0" fill="#c4c4c4" fill-rule="evenodd"></path><path d="M849.65 180.01 C843.9 181.35, 838.14 182.68, 835.04 183.4 M849.65 180.01 C845.95 180.87, 842.25 181.73, 835.04 183.4 M835.04 183.4 C835.9 179.32, 836.77 175.24, 837.67 170.99 M835.04 183.4 C835.85 179.56, 836.67 175.71, 837.67 170.99 M837.67 170.99 C842.34 174.51, 847.02 178.03, 849.65 180.01 M837.67 170.99 C840.2 172.9, 842.72 174.8, 849.65 180.01 M849.65 180.01 C849.65 180.01, 849.65 180.01, 849.65 180.01 M849.65 180.01 C849.65 180.01, 849.65 180.01, 849.65 180.01" stroke="#c4c4c4" stroke-width="1" fill="none"></path></g></g><mask id="mask-QtWDDt7mjUIhOGXezbPI7"><rect x="0" y="0" fill="#fff" width="2312.129657947944" height="1198.2585091133055"></rect><rect x="1743.3031939936536" y="996.7516164158542" fill="#000" width="88" height="23" opacity="1"></rect></mask><g mask="url(#mask-2tEabZfXcWH9evWmpUamr)" stroke-linecap="round"><g transform="translate(1254.9846419526548 952.171945832979) rotate(0 263.4584324187317 796.6558223388924)"><path d="M0 0 C-25.68 136.27, -272.96 552.05, -154.1 817.6 C-35.24 1083.15, 568.61 1464.03, 713.15 1593.31 M0 0 C-25.68 136.27, -272.96 552.05, -154.1 817.6 C-35.24 1083.15, 568.61 1464.03, 713.15 1593.31" stroke="#000000" stroke-width="1" fill="none"></path></g><g transform="translate(1254.9846419526548 952.171945832979) rotate(0 263.4584324187317 796.6558223388924)"><path d="M713.15 1593.31 L698.49 1590.11 L706.18 1580.03 L713.15 1593.31" stroke="none" stroke-width="0" fill="#000000" fill-rule="evenodd"></path><path d="M713.15 1593.31 C708.65 1592.33, 704.16 1591.34, 698.49 1590.11 M713.15 1593.31 C709.69 1592.55, 706.22 1591.8, 698.49 1590.11 M698.49 1590.11 C701.34 1586.38, 704.18 1582.65, 706.18 1580.03 M698.49 1590.11 C700.84 1587.03, 703.19 1583.95, 706.18 1580.03 M706.18 1580.03 C707.77 1583.05, 709.35 1586.07, 713.15 1593.31 M706.18 1580.03 C708.19 1583.85, 710.19 1587.66, 713.15 1593.31 M713.15 1593.31 C713.15 1593.31, 713.15 1593.31, 713.15 1593.31 M713.15 1593.31 C713.15 1593.31, 713.15 1593.31, 713.15 1593.31" stroke="#000000" stroke-width="1" fill="none"></path></g></g><mask id="mask-2tEabZfXcWH9evWmpUamr"><rect x="0" y="0" fill="#fff" width="2222.233768337413" height="2645.483590510764"></rect><rect x="1086.38385137761" y="1758.2725352133748" fill="#000" width="29" height="23" opacity="1"></rect></mask><g transform="translate(1086.38385137761 1758.2725352133748) rotate(0 432.05922299377653 -9.444767041503383)"><text x="14.5" y="18" font-family="Helvetica, Segoe UI Emoji" font-size="20px" fill="#000000" text-anchor="middle" style="white-space: pre;" direction="ltr">hat</text></g><g mask="url(#mask-xwAfQCjQQLLu2KzGMjQYX)" stroke-linecap="round"><g transform="translate(1360.8815784184117 918.0801549919615) rotate(0 646.0372544627653 50.40496458218331)"><path d="M0 0 C215.35 16.8, 1076.73 84.01, 1292.07 100.81 M0 0 C215.35 16.8, 1076.73 84.01, 1292.07 100.81" stroke="#c4c4c4" stroke-width="1" fill="none"></path></g><g transform="translate(1360.8815784184117 918.0801549919615) rotate(0 646.0372544627653 50.40496458218331)"><path d="M1292.07 100.81 L1278.03 106.07 L1279.01 93.43 L1292.07 100.81" stroke="none" stroke-width="0" fill="#c4c4c4" fill-rule="evenodd"></path><path d="M1292.07 100.81 C1287.75 102.43, 1283.42 104.05, 1278.03 106.07 M1292.07 100.81 C1287.19 102.64, 1282.3 104.47, 1278.03 106.07 M1278.03 106.07 C1278.32 102.38, 1278.6 98.69, 1279.01 93.43 M1278.03 106.07 C1278.31 102.42, 1278.6 98.77, 1279.01 93.43 M1279.01 93.43 C1281.66 94.93, 1284.32 96.43, 1292.07 100.81 M1279.01 93.43 C1281.63 94.91, 1284.25 96.39, 1292.07 100.81 M1292.07 100.81 C1292.07 100.81, 1292.07 100.81, 1292.07 100.81 M1292.07 100.81 C1292.07 100.81, 1292.07 100.81, 1292.07 100.81" stroke="#c4c4c4" stroke-width="1" fill="none"></path></g></g><mask id="mask-xwAfQCjQQLLu2KzGMjQYX"><rect x="0" y="0" fill="#fff" width="2752.9560873439423" height="1118.8900841563284"></rect><rect x="1971.4188328811779" y="956.9851195741448" fill="#000" width="71" height="23" opacity="1"></rect></mask><g mask="url(#mask-nIDP-SOjoQL3tqtx-mACt)" stroke-linecap="round"><g transform="translate(3280.723657908711 914.0474487929914) rotate(0 139.58958521096338 56.27241809199768)"><path d="M0 0 C46.53 18.76, 232.65 93.79, 279.18 112.54 M0 0 C46.53 18.76, 232.65 93.79, 279.18 112.54" stroke="#000000" stroke-width="1" fill="none"></path></g><g transform="translate(3280.723657908711 914.0474487929914) rotate(0 139.58958521096338 56.27241809199768)"><path d="M279.18 112.54 L264.2 113.34 L268.94 101.58 L279.18 112.54" stroke="none" stroke-width="0" fill="#000000" fill-rule="evenodd"></path><path d="M279.18 112.54 C275.67 112.73, 272.17 112.92, 264.2 113.34 M279.18 112.54 C273.7 112.84, 268.23 113.13, 264.2 113.34 M264.2 113.34 C265.4 110.37, 266.6 107.4, 268.94 101.58 M264.2 113.34 C265.82 109.33, 267.43 105.33, 268.94 101.58 M268.94 101.58 C271.47 104.29, 273.99 106.99, 279.18 112.54 M268.94 101.58 C271.65 104.49, 274.37 107.39, 279.18 112.54 M279.18 112.54 C279.18 112.54, 279.18 112.54, 279.18 112.54 M279.18 112.54 C279.18 112.54, 279.18 112.54, 279.18 112.54" stroke="#000000" stroke-width="1" fill="none"></path></g></g><mask id="mask-nIDP-SOjoQL3tqtx-mACt"><rect x="0" y="0" fill="#fff" width="3659.902828330638" height="1126.5922849769868"></rect><rect x="3405.8132431196736" y="958.8198668849891" fill="#000" width="29" height="23" opacity="1"></rect></mask><g mask="url(#mask-f1L7K-NtgkgZXDSTGyK0w)" stroke-linecap="round"><g transform="translate(3192.3884304484964 952.2425211885366) rotate(0 -478.1075356288384 393.7383385051817)"><path d="M0 0 C-87.95 102.85, -368.32 485.83, -527.69 617.07 C-687.06 748.32, -884.79 759.08, -956.22 787.48 M0 0 C-87.95 102.85, -368.32 485.83, -527.69 617.07 C-687.06 748.32, -884.79 759.08, -956.22 787.48" stroke="#000000" stroke-width="1" fill="none"></path></g><g transform="translate(3192.3884304484964 952.2425211885366) rotate(0 -478.1075356288384 393.7383385051817)"><path d="M-956.22 787.48 L-944.66 777.91 L-941.46 790.18 L-956.22 787.48" stroke="none" stroke-width="0" fill="#000000" fill-rule="evenodd"></path><path d="M-956.22 787.48 C-953.06 784.86, -949.9 782.24, -944.66 777.91 M-956.22 787.48 C-952.65 784.53, -949.09 781.58, -944.66 777.91 M-944.66 777.91 C-943.67 781.71, -942.68 785.52, -941.46 790.18 M-944.66 777.91 C-943.56 782.15, -942.45 786.38, -941.46 790.18 M-941.46 790.18 C-944.85 789.56, -948.24 788.94, -956.22 787.48 M-941.46 790.18 C-946.47 789.26, -951.48 788.34, -956.22 787.48 M-956.22 787.48 C-956.22 787.48, -956.22 787.48, -956.22 787.48 M-956.22 787.48 C-956.22 787.48, -956.22 787.48, -956.22 787.48" stroke="#000000" stroke-width="1" fill="none"></path></g></g><mask id="mask-f1L7K-NtgkgZXDSTGyK0w"><rect x="0" y="0" fill="#fff" width="4248.603501706173" height="1839.7191981989001"></rect><rect x="2610.6956775747585" y="1557.8168704272484" fill="#000" width="108" height="23" opacity="1"></rect></mask><g transform="translate(3405.813243119672 958.8198668849891) rotate(0 14.50000000000091 11.5)"><text x="14.5" y="18" font-family="Helvetica, Segoe UI Emoji" font-size="20px" fill="#000000" text-anchor="middle" style="white-space: pre;" direction="ltr">hat</text></g><g mask="url(#mask-8iaKhMu4HUq5kYEM-KQTp)" stroke-linecap="round"><g transform="translate(3280.062367123028 892.4426288937539) rotate(0 135.45327683882624 -50.44154073241475)"><path d="M0 0 C45.15 -16.81, 225.76 -84.07, 270.91 -100.88 M0 0 C45.15 -16.81, 225.76 -84.07, 270.91 -100.88" stroke="#c4c4c4" stroke-width="1" fill="none"></path></g><g transform="translate(3280.062367123028 892.4426288937539) rotate(0 135.45327683882624 -50.44154073241475)"><path d="M270.91 -100.88 L260.38 -90.2 L255.95 -102.08 L270.91 -100.88" stroke="none" stroke-width="0" fill="#c4c4c4" fill-rule="evenodd"></path><path d="M270.91 -100.88 C268.79 -98.74, 266.68 -96.59, 260.38 -90.2 M270.91 -100.88 C268.27 -98.21, 265.63 -95.53, 260.38 -90.2 M260.38 -90.2 C259.45 -92.69, 258.52 -95.18, 255.95 -102.08 M260.38 -90.2 C259.27 -93.16, 258.17 -96.13, 255.95 -102.08 M255.95 -102.08 C260.92 -101.68, 265.88 -101.28, 270.91 -100.88 M255.95 -102.08 C259.52 -101.79, 263.09 -101.51, 270.91 -100.88 M270.91 -100.88 C270.91 -100.88, 270.91 -100.88, 270.91 -100.88 M270.91 -100.88 C270.91 -100.88, 270.91 -100.88, 270.91 -100.88" stroke="#c4c4c4" stroke-width="1" fill="none"></path></g></g><mask id="mask-8iaKhMu4HUq5kYEM-KQTp"><rect x="0" y="0" fill="#fff" width="3650.9689208006794" height="1093.3257103585834"></rect><rect x="3401.015643961853" y="830.5010881613389" fill="#000" width="29" height="23" opacity="1"></rect></mask><g mask="url(#mask-HYctwnKLECJ_4i61nTQvU)" stroke-linecap="round"><g transform="translate(3099.0418390752166 879.2492134840923) rotate(0 -534.3476950783952 -56.04315875621296)"><path d="M0 0 C-178.12 -18.68, -890.58 -93.41, -1068.7 -112.09 M0 0 C-178.12 -18.68, -890.58 -93.41, -1068.7 -112.09" stroke="#c4c4c4" stroke-width="1" fill="none"></path></g><g transform="translate(3099.0418390752166 879.2492134840923) rotate(0 -534.3476950783952 -56.04315875621296)"><path d="M-1068.7 -112.09 L-1054.51 -116.97 L-1055.84 -104.36 L-1068.7 -112.09" stroke="none" stroke-width="0" fill="#c4c4c4" fill-rule="evenodd"></path><path d="M-1068.7 -112.09 C-1064.97 -113.37, -1061.24 -114.66, -1054.51 -116.97 M-1068.7 -112.09 C-1065.5 -113.19, -1062.31 -114.29, -1054.51 -116.97 M-1054.51 -116.97 C-1054.89 -113.37, -1055.27 -109.76, -1055.84 -104.36 M-1054.51 -116.97 C-1054.93 -113.04, -1055.34 -109.1, -1055.84 -104.36 M-1055.84 -104.36 C-1058.69 -106.08, -1061.54 -107.79, -1068.7 -112.09 M-1055.84 -104.36 C-1059.01 -106.27, -1062.18 -108.18, -1068.7 -112.09 M-1068.7 -112.09 C-1068.7 -112.09, -1068.7 -112.09, -1068.7 -112.09 M-1068.7 -112.09 C-1068.7 -112.09, -1068.7 -112.09, -1068.7 -112.09" stroke="#c4c4c4" stroke-width="1" fill="none"></path></g></g><mask id="mask-HYctwnKLECJ_4i61nTQvU"><rect x="0" y="0" fill="#fff" width="4267.737229232007" height="1091.3355309965184"></rect><rect x="2503.6941439968214" y="807.2060547278797" fill="#000" width="122" height="32" opacity="1"></rect></mask><g stroke-linecap="round" transform="translate(1999.364113089774 2141.403672371417) rotate(0 94.5 31.5)"><path d="M15.75 0 M15.75 0 C55.36 0, 94.96 0, 173.25 0 M173.25 0 C183.75 0, 189 5.25, 189 15.75 M189 15.75 C189 23.26, 189 30.77, 189 47.25 M189 47.25 C189 57.75, 183.75 63, 173.25 63 M173.25 63 C119.88 63, 66.51 63, 15.75 63 M15.75 63 C5.25 63, 0 57.75, 0 47.25 M0 47.25 C0 39.7, 0 32.15, 0 15.75 M0 15.75 C0 5.25, 5.25 0, 15.75 0" stroke="#000000" stroke-width="1.5" fill="none" stroke-dasharray="8 9"></path></g><g transform="translate(2063.864113089774 2163.903672371417) rotate(0 30 9)"><text x="30" y="14" font-family="Helvetica, Segoe UI Emoji" font-size="16px" fill="#000000" text-anchor="middle" style="white-space: pre;" direction="ltr">Adresse</text></g><g stroke-linecap="round" transform="translate(2000.1808950130126 2220.599293794615) rotate(0 94.5 31.5)"><path d="M15.75 0 M15.75 0 C52.97 0, 90.2 0, 173.25 0 M173.25 0 C183.75 0, 189 5.25, 189 15.75 M189 15.75 C189 27.39, 189 39.04, 189 47.25 M189 47.25 C189 57.75, 183.75 63, 173.25 63 M173.25 63 C125.14 63, 77.02 63, 15.75 63 M15.75 63 C5.25 63, 0 57.75, 0 47.25 M0 47.25 C0 40.09, 0 32.93, 0 15.75 M0 15.75 C0 5.25, 5.25 0, 15.75 0" stroke="#000000" stroke-width="1.5" fill="none" stroke-dasharray="8 9"></path></g><g transform="translate(2056.1808950130126 2243.099293794613) rotate(0 38.5 9)"><text x="38.5" y="14" font-family="Helvetica, Segoe UI Emoji" font-size="16px" fill="#000000" text-anchor="middle" style="white-space: pre;" direction="ltr">Bewertung</text></g><g stroke-linecap="round" transform="translate(1996.8475616796786 2292.8215160168356) rotate(0 94.5 31.5)"><path d="M15.75 0 M15.75 0 C54.07 0, 92.38 0, 173.25 0 M173.25 0 C183.75 0, 189 5.25, 189 15.75 M189 15.75 C189 25.12, 189 34.49, 189 47.25 M189 47.25 C189 57.75, 183.75 63, 173.25 63 M173.25 63 C125.49 63, 77.73 63, 15.75 63 M15.75 63 C5.25 63, 0 57.75, 0 47.25 M0 47.25 C0 40.29, 0 33.33, 0 15.75 M0 15.75 C0 5.25, 5.25 0, 15.75 0" stroke="#c4c4c4" stroke-width="1.5" fill="none" stroke-dasharray="8 9"></path></g><g transform="translate(2042.3475616796786 2315.3215160168356) rotate(0 49 9)"><text x="49" y="14" font-family="Helvetica, Segoe UI Emoji" font-size="16px" fill="#c4c4c4" text-anchor="middle" style="white-space: pre;" direction="ltr">Besucherzahl</text></g><g stroke-linecap="round" transform="translate(1998.5820278609172 2369.4935465750777) rotate(0 94.5 31.5)"><path d="M15.75 0 M15.75 0 C73.33 0, 130.91 0, 173.25 0 M173.25 0 C183.75 0, 189 5.25, 189 15.75 M189 15.75 C189 23.71, 189 31.66, 189 47.25 M189 47.25 C189 57.75, 183.75 63, 173.25 63 M173.25 63 C119.57 63, 65.9 63, 15.75 63 M15.75 63 C5.25 63, 0 57.75, 0 47.25 M0 47.25 C0 39.48, 0 31.71, 0 15.75 M0 15.75 C0 5.25, 5.25 0, 15.75 0" stroke="#c4c4c4" stroke-width="1.5" fill="none" stroke-dasharray="8 9"></path></g><g stroke-linecap="round" transform="translate(2001.0899206697432 1845.6332644351542) rotate(0 94.5 31.5)"><path d="M15.75 0 M15.75 0 C64.32 0, 112.9 0, 173.25 0 M173.25 0 C183.75 0, 189 5.25, 189 15.75 M189 15.75 C189 25.52, 189 35.3, 189 47.25 M189 47.25 C189 57.75, 183.75 63, 173.25 63 M173.25 63 C118.86 63, 64.46 63, 15.75 63 M15.75 63 C5.25 63, 0 57.75, 0 47.25 M0 47.25 C0 40.01, 0 32.78, 0 15.75 M0 15.75 C0 5.25, 5.25 0, 15.75 0" stroke="#000000" stroke-width="1.5" fill="none" stroke-dasharray="8 9"></path></g><g transform="translate(2067.582027860917 2391.9935465750777) rotate(0 25.5 9)"><text x="25.5" y="14" font-family="Helvetica, Segoe UI Emoji" font-size="16px" fill="#c4c4c4" text-anchor="middle" style="white-space: pre;" direction="ltr">Kosten</text></g><g stroke-linecap="round" transform="translate(2001.8669965790177 1774.142848176728) rotate(0 94.5 31.5)"><path d="M15.75 0 M15.75 0 C55.21 0, 94.67 0, 173.25 0 M173.25 0 C183.75 0, 189 5.25, 189 15.75 M189 15.75 C189 22.35, 189 28.95, 189 47.25 M189 47.25 C189 57.75, 183.75 63, 173.25 63 M173.25 63 C133.93 63, 94.61 63, 15.75 63 M15.75 63 C5.25 63, 0 57.75, 0 47.25 M0 47.25 C0 36.79, 0 26.33, 0 15.75 M0 15.75 C0 5.25, 5.25 0, 15.75 0" stroke="#c4c4c4" stroke-width="1.5" fill="none" stroke-dasharray="8 9"></path></g><g stroke-linecap="round" transform="translate(2002.7565873364092 1916.0060991623222) rotate(0 94.5 31.5)"><path d="M15.75 0 M15.75 0 C51.19 0, 86.62 0, 173.25 0 M173.25 0 C183.75 0, 189 5.25, 189 15.75 M189 15.75 C189 24.76, 189 33.77, 189 47.25 M189 47.25 C189 57.75, 183.75 63, 173.25 63 M173.25 63 C124.08 63, 74.91 63, 15.75 63 M15.75 63 C5.25 63, 0 57.75, 0 47.25 M0 47.25 C0 40.26, 0 33.27, 0 15.75 M0 15.75 C0 5.25, 5.25 0, 15.75 0" stroke="#000000" stroke-width="1.5" fill="none" stroke-dasharray="8 9"></path></g><g transform="translate(2071.589920669743 1868.1332644351542) rotate(0 24 9)"><text x="24" y="14" font-family="Helvetica, Segoe UI Emoji" font-size="16px" fill="#000000" text-anchor="middle" style="white-space: pre;" direction="ltr">Wetter</text></g><g transform="translate(2021.3669965790177 1796.642848176728) rotate(0 75 9)"><text x="75" y="14" font-family="Helvetica, Segoe UI Emoji" font-size="16px" fill="#c4c4c4" text-anchor="middle" style="white-space: pre;" direction="ltr">Geographische Lage</text></g><g transform="translate(2066.756587336409 1938.5060991623222) rotate(0 30.5 9)"><text x="30.5" y="14" font-family="Helvetica, Segoe UI Emoji" font-size="16px" fill="#000000" text-anchor="middle" style="white-space: pre;" direction="ltr">Inzidenz</text></g><g stroke-linecap="round" transform="translate(2008.9996851573887 3133.295961246571) rotate(0 94.5 31.5)"><path d="M15.75 0 M15.75 0 C53.09 0, 90.43 0, 173.25 0 M173.25 0 C183.75 0, 189 5.25, 189 15.75 M189 15.75 C189 28.2, 189 40.66, 189 47.25 M189 47.25 C189 57.75, 183.75 63, 173.25 63 M173.25 63 C117.76 63, 62.27 63, 15.75 63 M15.75 63 C5.25 63, 0 57.75, 0 47.25 M0 47.25 C0 39.2, 0 31.15, 0 15.75 M0 15.75 C0 5.25, 5.25 0, 15.75 0" stroke="#000000" stroke-width="1.5" fill="none" stroke-dasharray="8 9"></path></g><g stroke-linecap="round" transform="translate(2007.6887738910664 2585.330024868498) rotate(0 94.5 31.5)"><path d="M15.75 0 M15.75 0 C62.6 0, 109.45 0, 173.25 0 M173.25 0 C183.75 0, 189 5.25, 189 15.75 M189 15.75 C189 25.3, 189 34.85, 189 47.25 M189 47.25 C189 57.75, 183.75 63, 173.25 63 M173.25 63 C138.46 63, 103.67 63, 15.75 63 M15.75 63 C5.25 63, 0 57.75, 0 47.25 M0 47.25 C0 36.21, 0 25.17, 0 15.75 M0 15.75 C0 5.25, 5.25 0, 15.75 0" stroke="#c4c4c4" stroke-width="1.5" fill="none" stroke-dasharray="8 9"></path></g><g transform="translate(2077.9996851573887 3155.795961246571) rotate(0 25.5 9)"><text x="25.5" y="14" font-family="Helvetica, Segoe UI Emoji" font-size="16px" fill="#000000" text-anchor="middle" style="white-space: pre;" direction="ltr">Kosten</text></g><g transform="translate(2059.1887738910664 2607.830024868498) rotate(0 43 9)"><text x="43" y="14" font-family="Helvetica, Segoe UI Emoji" font-size="16px" fill="#c4c4c4" text-anchor="middle" style="white-space: pre;" direction="ltr">Ausstattung</text></g><g stroke-linecap="round" transform="translate(2011.0451701525435 2830.9785708779827) rotate(0 94.5 31.5)"><path d="M15.75 0 M15.75 0 C64.61 0, 113.48 0, 173.25 0 M173.25 0 C183.75 0, 189 5.25, 189 15.75 M189 15.75 C189 26.63, 189 37.51, 189 47.25 M189 47.25 C189 57.75, 183.75 63, 173.25 63 M173.25 63 C137.07 63, 100.88 63, 15.75 63 M15.75 63 C5.25 63, 0 57.75, 0 47.25 M0 47.25 C0 36.55, 0 25.85, 0 15.75 M0 15.75 C0 5.25, 5.25 0, 15.75 0" stroke="#000000" stroke-width="1.5" fill="none" stroke-dasharray="8 9"></path></g><g transform="translate(2078.0451701525435 2853.4785708779827) rotate(0 27.5 9)"><text x="27.5" y="14" font-family="Helvetica, Segoe UI Emoji" font-size="16px" fill="#000000" text-anchor="middle" style="white-space: pre;" direction="ltr">Kontakt</text></g><g stroke-linecap="round" transform="translate(2007.709515713861 2666.656003815294) rotate(0 94.5 31.5)"><path d="M15.75 0 M15.75 0 C48.75 0, 81.76 0, 173.25 0 M173.25 0 C183.75 0, 189 5.25, 189 15.75 M189 15.75 C189 23.61, 189 31.48, 189 47.25 M189 47.25 C189 57.75, 183.75 63, 173.25 63 M173.25 63 C120.95 63, 68.65 63, 15.75 63 M15.75 63 C5.25 63, 0 57.75, 0 47.25 M0 47.25 C0 39.74, 0 32.22, 0 15.75 M0 15.75 C0 5.25, 5.25 0, 15.75 0" stroke="#000000" stroke-width="1.5" fill="none" stroke-dasharray="8 9"></path></g><g transform="translate(2063.709515713861 2689.156003815294) rotate(0 38.5 9)"><text x="38.5" y="14" font-family="Helvetica, Segoe UI Emoji" font-size="16px" fill="#000000" text-anchor="middle" style="white-space: pre;" direction="ltr">Bewertung</text></g><g stroke-linecap="round" transform="translate(2008.3655074835406 2749.9584496846246) rotate(0 94.5 31.5)"><path d="M15.75 0 M15.75 0 C69.12 0, 122.49 0, 173.25 0 M173.25 0 C183.75 0, 189 5.25, 189 15.75 M189 15.75 C189 23.3, 189 30.85, 189 47.25 M189 47.25 C189 57.75, 183.75 63, 173.25 63 M173.25 63 C134.04 63, 94.82 63, 15.75 63 M15.75 63 C5.25 63, 0 57.75, 0 47.25 M0 47.25 C0 39.2, 0 31.16, 0 15.75 M0 15.75 C0 5.25, 5.25 0, 15.75 0" stroke="#000000" stroke-width="1.5" fill="none" stroke-dasharray="8 9"></path></g><g transform="translate(2072.8655074835406 2772.4584496846246) rotate(0 30 9)"><text x="30" y="14" font-family="Helvetica, Segoe UI Emoji" font-size="16px" fill="#000000" text-anchor="middle" style="white-space: pre;" direction="ltr">Adresse</text></g><g stroke-linecap="round" transform="translate(2009.4534931547332 2908.949246841955) rotate(0 94.5 31.5)"><path d="M15.75 0 M15.75 0 C63.86 0, 111.98 0, 173.25 0 M173.25 0 C183.75 0, 189 5.25, 189 15.75 M189 15.75 C189 22.91, 189 30.07, 189 47.25 M189 47.25 C189 57.75, 183.75 63, 173.25 63 M173.25 63 C127.97 63, 82.7 63, 15.75 63 M15.75 63 C5.25 63, 0 57.75, 0 47.25 M0 47.25 C0 35.8, 0 24.35, 0 15.75 M0 15.75 C0 5.25, 5.25 0, 15.75 0" stroke="#000000" stroke-width="1.5" fill="none" stroke-dasharray="8 9"></path></g><g transform="translate(2074.453493154733 2931.449246841955) rotate(0 29.5 9)"><text x="29.5" y="14" font-family="Helvetica, Segoe UI Emoji" font-size="16px" fill="#000000" text-anchor="middle" style="white-space: pre;" direction="ltr">Website</text></g><g stroke-linecap="round" transform="translate(16.509765788279765 1443.3623596191828) rotate(0 80.125 26.708333333333258)"><path d="M13.35 0 M13.35 0 C53.85 0, 94.35 0, 146.9 0 M146.9 0 C155.8 0, 160.25 4.45, 160.25 13.35 M160.25 13.35 C160.25 19.25, 160.25 25.15, 160.25 40.06 M160.25 40.06 C160.25 48.97, 155.8 53.42, 146.9 53.42 M146.9 53.42 C100.09 53.42, 53.29 53.42, 13.35 53.42 M13.35 53.42 C4.45 53.42, 0 48.97, 0 40.06 M0 40.06 C0 32.78, 0 25.49, 0 13.35 M0 13.35 C0 4.45, 4.45 0, 13.35 0" stroke="#000000" stroke-width="1.5" fill="none" stroke-dasharray="8 9"></path></g><g stroke-linecap="round" transform="translate(11.926432454944006 1507.9456929525159) rotate(0 82.625 27.541666666666742)"><path d="M13.77 0 M13.77 0 C53.57 0, 93.37 0, 151.48 0 M151.48 0 C160.66 0, 165.25 4.59, 165.25 13.77 M165.25 13.77 C165.25 19.36, 165.25 24.95, 165.25 41.31 M165.25 41.31 C165.25 50.49, 160.66 55.08, 151.48 55.08 M151.48 55.08 C123.88 55.08, 96.29 55.08, 13.77 55.08 M13.77 55.08 C4.59 55.08, 0 50.49, 0 41.31 M0 41.31 C0 30.51, 0 19.71, 0 13.77 M0 13.77 C0 4.59, 4.59 0, 13.77 0" stroke="#000000" stroke-width="1.5" fill="none" stroke-dasharray="8 9"></path></g><g transform="translate(76.63476578827976 1462.570692952515) rotate(0 20 7.5)"><text x="20" y="12" font-family="Helvetica, Segoe UI Emoji" font-size="13.430167597765369px" fill="#000000" text-anchor="middle" style="white-space: pre;" direction="ltr">Wetter</text></g><g transform="translate(68.051432454944 1527.487359619182) rotate(0 26.5 8)"><text x="26.5" y="13" font-family="Helvetica, Segoe UI Emoji" font-size="13.877094972067038px" fill="#000000" text-anchor="middle" style="white-space: pre;" direction="ltr">Inzidenz</text></g><g stroke-linecap="round" transform="translate(1842.1713439011728 1445.1677937330423) rotate(0 94.5 31.5)"><path d="M15.75 0 M15.75 0 C73.96 0, 132.18 0, 173.25 0 M173.25 0 C183.75 0, 189 5.25, 189 15.75 M189 15.75 C189 27.44, 189 39.13, 189 47.25 M189 47.25 C189 57.75, 183.75 63, 173.25 63 M173.25 63 C140.07 63, 106.89 63, 15.75 63 M15.75 63 C5.25 63, 0 57.75, 0 47.25 M0 47.25 C0 39.35, 0 31.44, 0 15.75 M0 15.75 C0 5.25, 5.25 0, 15.75 0" stroke="#c4c4c4" stroke-width="1.5" fill="none" stroke-dasharray="8 9"></path></g><g stroke-linecap="round" transform="translate(1846.4136941615907 1374.4107543450227) rotate(0 94.5 31.5)"><path d="M15.75 0 M15.75 0 C55.07 0, 94.39 0, 173.25 0 M173.25 0 C183.75 0, 189 5.25, 189 15.75 M189 15.75 C189 26.21, 189 36.67, 189 47.25 M189 47.25 C189 57.75, 183.75 63, 173.25 63 M173.25 63 C135.68 63, 98.1 63, 15.75 63 M15.75 63 C5.25 63, 0 57.75, 0 47.25 M0 47.25 C0 39.5, 0 31.74, 0 15.75 M0 15.75 C0 5.25, 5.25 0, 15.75 0" stroke="#c4c4c4" stroke-width="1.5" fill="none" stroke-dasharray="8 9"></path></g><g transform="translate(1906.6713439011728 1467.6677937330433) rotate(0 30 9)"><text x="30" y="14" font-family="Helvetica, Segoe UI Emoji" font-size="16px" fill="#c4c4c4" text-anchor="middle" style="white-space: pre;" direction="ltr">Adresse</text></g><g transform="translate(1929.4136941615907 1396.9107543450227) rotate(0 11.5 9)"><text x="11.5" y="14" font-family="Helvetica, Segoe UI Emoji" font-size="16px" fill="#c4c4c4" text-anchor="middle" style="white-space: pre;" direction="ltr">Ort</text></g><g stroke-linecap="round" transform="translate(2007.7868264880672 2982.282580175287) rotate(0 94.5 31.5)"><path d="M15.75 0 M15.75 0 C77.2 0, 138.65 0, 173.25 0 M173.25 0 C183.75 0, 189 5.25, 189 15.75 M189 15.75 C189 22.39, 189 29.04, 189 47.25 M189 47.25 C189 57.75, 183.75 63, 173.25 63 M173.25 63 C119.41 63, 65.58 63, 15.75 63 M15.75 63 C5.25 63, 0 57.75, 0 47.25 M0 47.25 C0 36.6, 0 25.95, 0 15.75 M0 15.75 C0 5.25, 5.25 0, 15.75 0" stroke="#c4c4c4" stroke-width="1.5" fill="none" stroke-dasharray="8 9"></path></g><g transform="translate(2041.2868264880672 3004.782580175287) rotate(0 61 9)"><text x="61" y="14" font-family="Helvetica, Segoe UI Emoji" font-size="16px" fill="#c4c4c4" text-anchor="middle" style="white-space: pre;" direction="ltr">Aufenthaltsdauer</text></g><g stroke-linecap="round" transform="translate(3854.082948283274 725.1025342633475) rotate(0 94.5 31.5)"><path d="M15.75 0 M15.75 0 C71.24 0, 126.73 0, 173.25 0 M173.25 0 C183.75 0, 189 5.25, 189 15.75 M189 15.75 C189 23.8, 189 31.85, 189 47.25 M189 47.25 C189 57.75, 183.75 63, 173.25 63 M173.25 63 C125.93 63, 78.61 63, 15.75 63 M15.75 63 C5.25 63, 0 57.75, 0 47.25 M0 47.25 C0 40.16, 0 33.08, 0 15.75 M0 15.75 C0 5.25, 5.25 0, 15.75 0" stroke="#c4c4c4" stroke-width="1.5" fill="none" stroke-dasharray="8 9"></path></g><g transform="translate(3918.582948283274 747.6025342633475) rotate(0 30 9)"><text x="30" y="14" font-family="Helvetica, Segoe UI Emoji" font-size="16px" fill="#c4c4c4" text-anchor="middle" style="white-space: pre;" direction="ltr">Adresse</text></g><g stroke-linecap="round" transform="translate(3854.082948283274 796.3525342633475) rotate(0 94.5 31.5)"><path d="M15.75 0 M15.75 0 C47.71 0, 79.68 0, 173.25 0 M173.25 0 C183.75 0, 189 5.25, 189 15.75 M189 15.75 C189 22.06, 189 28.38, 189 47.25 M189 47.25 C189 57.75, 183.75 63, 173.25 63 M173.25 63 C111.47 63, 49.69 63, 15.75 63 M15.75 63 C5.25 63, 0 57.75, 0 47.25 M0 47.25 C0 38.69, 0 30.14, 0 15.75 M0 15.75 C0 5.25, 5.25 0, 15.75 0" stroke="#c4c4c4" stroke-width="1.5" fill="none" stroke-dasharray="8 9"></path></g><g transform="translate(3923.082948283274 818.8525342633475) rotate(0 25.5 9)"><text x="25.5" y="14" font-family="Helvetica, Segoe UI Emoji" font-size="16px" fill="#c4c4c4" text-anchor="middle" style="white-space: pre;" direction="ltr">Kosten</text></g><g stroke-linecap="round" transform="translate(1396.9144523167379 1504.4781461342745) rotate(0 94.5 31.5)"><path d="M15.75 0 M15.75 0 C51.93 0, 88.12 0, 173.25 0 M173.25 0 C183.75 0, 189 5.25, 189 15.75 M189 15.75 C189 26.45, 189 37.15, 189 47.25 M189 47.25 C189 57.75, 183.75 63, 173.25 63 M173.25 63 C129.2 63, 85.15 63, 15.75 63 M15.75 63 C5.25 63, 0 57.75, 0 47.25 M0 47.25 C0 35.96, 0 24.66, 0 15.75 M0 15.75 C0 5.25, 5.25 0, 15.75 0" stroke="#c4c4c4" stroke-width="1.5" fill="none" stroke-dasharray="8 9"></path></g><g transform="translate(1465.9144523167379 1526.9781461342745) rotate(0 25.5 9)"><text x="25.5" y="14" font-family="Helvetica, Segoe UI Emoji" font-size="16px" fill="#c4c4c4" text-anchor="middle" style="white-space: pre;" direction="ltr">Kosten</text></g><g stroke-linecap="round" transform="translate(2699.483064642707 1063.8056432147496) rotate(0 94.5 31.5)"><path d="M15.75 0 M15.75 0 C68.05 0, 120.35 0, 173.25 0 M173.25 0 C183.75 0, 189 5.25, 189 15.75 M189 15.75 C189 23.26, 189 30.78, 189 47.25 M189 47.25 C189 57.75, 183.75 63, 173.25 63 M173.25 63 C134.48 63, 95.72 63, 15.75 63 M15.75 63 C5.25 63, 0 57.75, 0 47.25 M0 47.25 C0 38.5, 0 29.75, 0 15.75 M0 15.75 C0 5.25, 5.25 0, 15.75 0" stroke="#c4c4c4" stroke-width="1.5" fill="none" stroke-dasharray="8 9"></path></g><g stroke-linecap="round" transform="translate(2699.483064642707 1138.0913575004633) rotate(0 94.5 31.5)"><path d="M15.75 0 M15.75 0 C50.69 0, 85.63 0, 173.25 0 M173.25 0 C183.75 0, 189 5.25, 189 15.75 M189 15.75 C189 23.53, 189 31.3, 189 47.25 M189 47.25 C189 57.75, 183.75 63, 173.25 63 M173.25 63 C122.71 63, 72.16 63, 15.75 63 M15.75 63 C5.25 63, 0 57.75, 0 47.25 M0 47.25 C0 37.49, 0 27.74, 0 15.75 M0 15.75 C0 5.25, 5.25 0, 15.75 0" stroke="#c4c4c4" stroke-width="1.5" fill="none" stroke-dasharray="8 9"></path></g><g transform="translate(2759.483064642707 1086.3056432147496) rotate(0 34.5 9)"><text x="34.5" y="14" font-family="Helvetica, Segoe UI Emoji" font-size="16px" fill="#c4c4c4" text-anchor="middle" style="white-space: pre;" direction="ltr">Adressen</text></g><g transform="translate(2754.483064642707 1160.5913575004633) rotate(0 39.5 9)"><text x="39.5" y="14" font-family="Helvetica, Segoe UI Emoji" font-size="16px" fill="#c4c4c4" text-anchor="middle" style="white-space: pre;" direction="ltr">Entfernung</text></g><g stroke-linecap="round" transform="translate(2267.3718707367298 1189.9419687706286) rotate(0 94.5 31.5)"><path d="M15.75 0 M15.75 0 C61.03 0, 106.3 0, 173.25 0 M173.25 0 C183.75 0, 189 5.25, 189 15.75 M189 15.75 C189 27.2, 189 38.65, 189 47.25 M189 47.25 C189 57.75, 183.75 63, 173.25 63 M173.25 63 C122.28 63, 71.31 63, 15.75 63 M15.75 63 C5.25 63, 0 57.75, 0 47.25 M0 47.25 C0 35.53, 0 23.82, 0 15.75 M0 15.75 C0 5.25, 5.25 0, 15.75 0" stroke="#c4c4c4" stroke-width="1.5" fill="none" stroke-dasharray="8 9"></path></g><g transform="translate(2331.8718707367298 1212.4419687706286) rotate(0 30 9)"><text x="30" y="14" font-family="Helvetica, Segoe UI Emoji" font-size="16px" fill="#c4c4c4" text-anchor="middle" style="white-space: pre;" direction="ltr">Adresse</text></g><g stroke-linecap="round" transform="translate(2266.121870736726 1261.1919687706286) rotate(0 94.5 31.5)"><path d="M15.75 0 M15.75 0 C70.95 0, 126.15 0, 173.25 0 M173.25 0 C183.75 0, 189 5.25, 189 15.75 M189 15.75 C189 24.34, 189 32.93, 189 47.25 M189 47.25 C189 57.75, 183.75 63, 173.25 63 M173.25 63 C116.61 63, 59.97 63, 15.75 63 M15.75 63 C5.25 63, 0 57.75, 0 47.25 M0 47.25 C0 35.06, 0 22.86, 0 15.75 M0 15.75 C0 5.25, 5.25 0, 15.75 0" stroke="#c4c4c4" stroke-width="1.5" fill="none" stroke-dasharray="8 9"></path></g><g transform="translate(2322.121870736726 1283.6919687706286) rotate(0 38.5 9)"><text x="38.5" y="14" font-family="Helvetica, Segoe UI Emoji" font-size="16px" fill="#c4c4c4" text-anchor="middle" style="white-space: pre;" direction="ltr">Bewertung</text></g><g stroke-linecap="round" transform="translate(2267.371870736726 1333.6919687706286) rotate(0 94.5 31.5)"><path d="M15.75 0 M15.75 0 C57.5 0, 99.26 0, 173.25 0 M173.25 0 C183.75 0, 189 5.25, 189 15.75 M189 15.75 C189 23.69, 189 31.64, 189 47.25 M189 47.25 C189 57.75, 183.75 63, 173.25 63 M173.25 63 C129.02 63, 84.79 63, 15.75 63 M15.75 63 C5.25 63, 0 57.75, 0 47.25 M0 47.25 C0 39.1, 0 30.96, 0 15.75 M0 15.75 C0 5.25, 5.25 0, 15.75 0" stroke="#c4c4c4" stroke-width="1.5" fill="none" stroke-dasharray="8 9"></path></g><g transform="translate(2336.371870736726 1356.1919687706286) rotate(0 25.5 9)"><text x="25.5" y="14" font-family="Helvetica, Segoe UI Emoji" font-size="16px" fill="#c4c4c4" text-anchor="middle" style="white-space: pre;" direction="ltr">Kosten</text></g><g stroke-linecap="round" transform="translate(3815.8899685335455 959.9871250810265) rotate(0 94.5 31.5)"><path d="M15.75 0 M15.75 0 C48.93 0, 82.11 0, 173.25 0 M173.25 0 C183.75 0, 189 5.25, 189 15.75 M189 15.75 C189 23.65, 189 31.56, 189 47.25 M189 47.25 C189 57.75, 183.75 63, 173.25 63 M173.25 63 C110.65 63, 48.04 63, 15.75 63 M15.75 63 C5.25 63, 0 57.75, 0 47.25 M0 47.25 C0 38.87, 0 30.5, 0 15.75 M0 15.75 C0 5.25, 5.25 0, 15.75 0" stroke="#000000" stroke-width="1.5" fill="none" stroke-dasharray="8 9"></path></g><g transform="translate(3880.3899685335455 982.4871250810265) rotate(0 30 9)"><text x="30" y="14" font-family="Helvetica, Segoe UI Emoji" font-size="16px" fill="#000000" text-anchor="middle" style="white-space: pre;" direction="ltr">Adresse</text></g><g stroke-linecap="round" transform="translate(3817.3185399621143 1034.2728393667403) rotate(0 94.5 31.5)"><path d="M15.75 0 M15.75 0 C54.63 0, 93.5 0, 173.25 0 M173.25 0 C183.75 0, 189 5.25, 189 15.75 M189 15.75 C189 25.86, 189 35.97, 189 47.25 M189 47.25 C189 57.75, 183.75 63, 173.25 63 M173.25 63 C124.47 63, 75.7 63, 15.75 63 M15.75 63 C5.25 63, 0 57.75, 0 47.25 M0 47.25 C0 39.96, 0 32.67, 0 15.75 M0 15.75 C0 5.25, 5.25 0, 15.75 0" stroke="#000000" stroke-width="1.5" fill="none" stroke-dasharray="8 9"></path></g><g transform="translate(3873.3185399621143 1056.7728393667403) rotate(0 38.5 9)"><text x="38.5" y="14" font-family="Helvetica, Segoe UI Emoji" font-size="16px" fill="#000000" text-anchor="middle" style="white-space: pre;" direction="ltr">Bewertung</text></g><g stroke-linecap="round" transform="translate(4010.1756828192556 962.8442679381697) rotate(0 94.5 31.5)"><path d="M15.75 0 M15.75 0 C69.59 0, 123.42 0, 173.25 0 M173.25 0 C183.75 0, 189 5.25, 189 15.75 M189 15.75 C189 26.4, 189 37.05, 189 47.25 M189 47.25 C189 57.75, 183.75 63, 173.25 63 M173.25 63 C136.19 63, 99.13 63, 15.75 63 M15.75 63 C5.25 63, 0 57.75, 0 47.25 M0 47.25 C0 36.47, 0 25.69, 0 15.75 M0 15.75 C0 5.25, 5.25 0, 15.75 0" stroke="#000000" stroke-width="1.5" fill="none" stroke-dasharray="8 9"></path></g><g transform="translate(4077.1756828192556 985.3442679381697) rotate(0 27.5 9)"><text x="27.5" y="14" font-family="Helvetica, Segoe UI Emoji" font-size="16px" fill="#000000" text-anchor="middle" style="white-space: pre;" direction="ltr">Kontakt</text></g><g stroke-linecap="round" transform="translate(4014.461397104973 1031.4156965095972) rotate(0 94.5 31.5)"><path d="M15.75 0 M15.75 0 C63.07 0, 110.39 0, 173.25 0 M173.25 0 C183.75 0, 189 5.25, 189 15.75 M189 15.75 C189 22.84, 189 29.92, 189 47.25 M189 47.25 C189 57.75, 183.75 63, 173.25 63 M173.25 63 C135.73 63, 98.21 63, 15.75 63 M15.75 63 C5.25 63, 0 57.75, 0 47.25 M0 47.25 C0 38.66, 0 30.07, 0 15.75 M0 15.75 C0 5.25, 5.25 0, 15.75 0" stroke="#000000" stroke-width="1.5" fill="none" stroke-dasharray="8 9"></path></g><g transform="translate(4079.461397104973 1053.9156965095972) rotate(0 29.5 9)"><text x="29.5" y="14" font-family="Helvetica, Segoe UI Emoji" font-size="16px" fill="#000000" text-anchor="middle" style="white-space: pre;" direction="ltr">Website</text></g><g stroke-linecap="round" transform="translate(4214.461397104973 992.8442679381697) rotate(0 94.5 31.5)"><path d="M15.75 0 M15.75 0 C77.53 0, 139.31 0, 173.25 0 M173.25 0 C183.75 0, 189 5.25, 189 15.75 M189 15.75 C189 24.31, 189 32.86, 189 47.25 M189 47.25 C189 57.75, 183.75 63, 173.25 63 M173.25 63 C117.11 63, 60.96 63, 15.75 63 M15.75 63 C5.25 63, 0 57.75, 0 47.25 M0 47.25 C0 40.77, 0 34.29, 0 15.75 M0 15.75 C0 5.25, 5.25 0, 15.75 0" stroke="#000000" stroke-width="1.5" fill="none" stroke-dasharray="8 9"></path></g><g transform="translate(4283.461397104973 1015.3442679381697) rotate(0 25.5 9)"><text x="25.5" y="14" font-family="Helvetica, Segoe UI Emoji" font-size="16px" fill="#000000" text-anchor="middle" style="white-space: pre;" direction="ltr">Kosten</text></g><g stroke-linecap="round" transform="translate(1395.096270498556 1433.5690552251835) rotate(0 94.5 31.5)"><path d="M15.75 0 M15.75 0 C59.8 0, 103.85 0, 173.25 0 M173.25 0 C183.75 0, 189 5.25, 189 15.75 M189 15.75 C189 27.04, 189 38.34, 189 47.25 M189 47.25 C189 57.75, 183.75 63, 173.25 63 M173.25 63 C136.98 63, 100.71 63, 15.75 63 M15.75 63 C5.25 63, 0 57.75, 0 47.25 M0 47.25 C0 36.09, 0 24.92, 0 15.75 M0 15.75 C0 5.25, 5.25 0, 15.75 0" stroke="#c4c4c4" stroke-width="1.5" fill="none" stroke-dasharray="8 9"></path></g><g transform="translate(1418.596270498556 1456.0690552251835) rotate(0 71 9)"><text x="71" y="14" font-family="Helvetica, Segoe UI Emoji" font-size="16px" fill="#c4c4c4" text-anchor="middle" style="white-space: pre;" direction="ltr">notwendige Papiere</text></g><g stroke-linecap="round" transform="translate(2008.5593910770858 3056.874628052151) rotate(0 94.5 31.5)"><path d="M15.75 0 M15.75 0 C54.52 0, 93.28 0, 173.25 0 M173.25 0 C183.75 0, 189 5.25, 189 15.75 M189 15.75 C189 24.5, 189 33.25, 189 47.25 M189 47.25 C189 57.75, 183.75 63, 173.25 63 M173.25 63 C136.97 63, 100.69 63, 15.75 63 M15.75 63 C5.25 63, 0 57.75, 0 47.25 M0 47.25 C0 35.13, 0 23, 0 15.75 M0 15.75 C0 5.25, 5.25 0, 15.75 0" stroke="#c4c4c4" stroke-width="1.5" fill="none" stroke-dasharray="8 9"></path></g><g transform="translate(2092.559391077086 3079.374628052152) rotate(0 10.5 9)"><text x="10.5" y="14" font-family="Helvetica, Segoe UI Emoji" font-size="16px" fill="#c4c4c4" text-anchor="middle" style="white-space: pre;" direction="ltr">Art</text></g><g mask="url(#mask-ne7b8bxb3R9cNkFXpPdFF)" stroke-linecap="round"><g transform="translate(3192.9719969812977 951.155726588624) rotate(0 -484.1927676715213 571.8113448696608)"><path d="M0 0 C-78.58 131.38, -310.09 597.7, -471.48 788.3 C-632.88 978.91, -885.57 1084.4, -968.39 1143.62 M0 0 C-78.58 131.38, -310.09 597.7, -471.48 788.3 C-632.88 978.91, -885.57 1084.4, -968.39 1143.62" stroke="#000000" stroke-width="1" fill="none"></path></g><g transform="translate(3192.9719969812977 951.155726588624) rotate(0 -484.1927676715213 571.8113448696608)"><path d="M-968.39 1143.62 L-959.9 1131.26 L-953.46 1142.18 L-968.39 1143.62" stroke="none" stroke-width="0" fill="#000000" fill-rule="evenodd"></path><path d="M-968.39 1143.62 C-965.63 1139.61, -962.88 1135.6, -959.9 1131.26 M-968.39 1143.62 C-965.37 1139.23, -962.36 1134.84, -959.9 1131.26 M-959.9 1131.26 C-958.06 1134.38, -956.21 1137.5, -953.46 1142.18 M-959.9 1131.26 C-957.72 1134.94, -955.55 1138.62, -953.46 1142.18 M-953.46 1142.18 C-959.32 1142.75, -965.19 1143.31, -968.39 1143.62 M-953.46 1142.18 C-956.73 1142.49, -960.01 1142.81, -968.39 1143.62 M-968.39 1143.62 C-968.39 1143.62, -968.39 1143.62, -968.39 1143.62 M-968.39 1143.62 C-968.39 1143.62, -968.39 1143.62, -968.39 1143.62" stroke="#000000" stroke-width="1" fill="none"></path></g></g><mask id="mask-ne7b8bxb3R9cNkFXpPdFF"><rect x="0" y="0" fill="#fff" width="4261.35753232434" height="2194.7784163279457"></rect><rect x="2677.4874741195836" y="1727.95995182974" fill="#000" width="88" height="23" opacity="1"></rect></mask><g transform="translate(2677.4874741195836 1727.95995182974) rotate(0 31.291755190192816 -204.99288037145516)"><text x="44" y="18" font-family="Helvetica, Segoe UI Emoji" font-size="20px" fill="#000000" text-anchor="middle" style="white-space: pre;" direction="ltr">beinhaltet</text></g><g mask="url(#mask-C65AVRPBhB7Wod5RqEE1W)" stroke-linecap="round"><g transform="translate(3192.116724684518 952.0099921362071) rotate(0 -475.4461144385941 794.4000645613023)"><path d="M0 0 C-63.18 159.85, -220.6 694.31, -379.09 959.11 C-537.57 1223.91, -855.59 1483.85, -950.89 1588.8 M0 0 C-63.18 159.85, -220.6 694.31, -379.09 959.11 C-537.57 1223.91, -855.59 1483.85, -950.89 1588.8" stroke="#000000" stroke-width="1" fill="none"></path></g><g transform="translate(3192.116724684518 952.0099921362071) rotate(0 -475.4461144385941 794.4000645613023)"><path d="M-950.89 1588.8 L-945.59 1574.77 L-936.73 1583.85 L-950.89 1588.8" stroke="none" stroke-width="0" fill="#000000" fill-rule="evenodd"></path><path d="M-950.89 1588.8 C-949.18 1584.26, -947.46 1579.72, -945.59 1574.77 M-950.89 1588.8 C-948.92 1583.58, -946.95 1578.36, -945.59 1574.77 M-945.59 1574.77 C-943.71 1576.7, -941.83 1578.62, -936.73 1583.85 M-945.59 1574.77 C-943.4 1577.02, -941.2 1579.26, -936.73 1583.85 M-936.73 1583.85 C-940.53 1585.17, -944.32 1586.5, -950.89 1588.8 M-936.73 1583.85 C-942.06 1585.71, -947.39 1587.58, -950.89 1588.8 M-950.89 1588.8 C-950.89 1588.8, -950.89 1588.8, -950.89 1588.8 M-950.89 1588.8 C-950.89 1588.8, -950.89 1588.8, -950.89 1588.8" stroke="#000000" stroke-width="1" fill="none"></path></g></g><mask id="mask-C65AVRPBhB7Wod5RqEE1W"><rect x="0" y="0" fill="#fff" width="4243.008953561707" height="2640.8101212588117"></rect><rect x="2798.5309740606444" y="1899.6234785891174" fill="#000" width="29" height="23" opacity="1"></rect></mask><g transform="translate(616.7524161044694 561.30783336783) rotate(0 14.50000000000091 11.5)"><text x="14.5" y="18" font-family="Helvetica, Segoe UI Emoji" font-size="20px" fill="#000000" text-anchor="middle" style="white-space: pre;" direction="ltr">hat</text></g><g transform="translate(296.6072872066761 1257.5907105268961) rotate(0 10.5 11.5)"><text x="10.5" y="18" font-family="Helvetica, Segoe UI Emoji" font-size="20px" fill="#000000" text-anchor="middle" style="white-space: pre;" direction="ltr">ist</text></g><g transform="translate(1151.307711124231 579.4108879524583) rotate(0 15.198392133508605 11.225092397257868)"><text x="14.5" y="18" font-family="Helvetica, Segoe UI Emoji" font-size="20px" fill="#000000" text-anchor="middle" style="white-space: pre;" direction="ltr">hat</text></g><g transform="translate(1743.3031939936536 996.7516164158542) rotate(0 44 11.499999999999773)"><text x="44" y="18" font-family="Helvetica, Segoe UI Emoji" font-size="20px" fill="#c4c4c4" text-anchor="middle" style="white-space: pre;" direction="ltr">beinhaltet</text></g><g transform="translate(1557.084992702281 1095.8423474882675) rotate(0 44 11.5)"><text x="44" y="18" font-family="Helvetica, Segoe UI Emoji" font-size="20px" fill="#c4c4c4" text-anchor="middle" style="white-space: pre;" direction="ltr">beinhaltet</text></g><g transform="translate(1971.4188328811779 956.9851195741448) rotate(0 35.49999999999909 11.5)"><text x="35.5" y="18" font-family="Helvetica, Segoe UI Emoji" font-size="20px" fill="#c4c4c4" text-anchor="middle" style="white-space: pre;" direction="ltr">umfasst</text></g><g transform="translate(1123.5353840314983 1591.613127380203) rotate(0 429.6561140007061 -65.5912809216943)"><text x="44" y="18" font-family="Helvetica, Segoe UI Emoji" font-size="20px" fill="#000000" text-anchor="middle" style="white-space: pre;" direction="ltr">beinhaltet</text></g><g transform="translate(2798.5309740606444 1899.6234785891174) rotate(0 -81.86036381472059 -153.21342189160805)"><text x="14.5" y="18" font-family="Helvetica, Segoe UI Emoji" font-size="20px" fill="#000000" text-anchor="middle" style="white-space: pre;" direction="ltr">hat</text></g><g transform="translate(2610.6956775747585 1557.8168704272484) rotate(0 103.58521724489947 -211.8360107335302)"><text x="54" y="18" font-family="Helvetica, Segoe UI Emoji" font-size="20px" fill="#000000" text-anchor="middle" style="white-space: pre;" direction="ltr">verfügt über</text></g><g transform="translate(752.1158573678567 897.4436890199613) rotate(0 35.50000000000091 11.5)"><text x="35.5" y="18" font-family="Helvetica, Segoe UI Emoji" font-size="20px" fill="#000000" text-anchor="middle" style="white-space: pre;" direction="ltr">umfasst</text></g><g transform="translate(1913.2776502158904 21.561105918884095) rotate(0 210.94424083326157 403.53577883929097)"><text x="14.5" y="18" font-family="Helvetica, Segoe UI Emoji" font-size="20px" fill="#000000" text-anchor="middle" style="white-space: pre;" direction="ltr">hat</text></g><g transform="translate(3401.0156439618513 830.5010881613389) rotate(0 14.50000000000091 11.500000000000227)"><text x="14.5" y="18" font-family="Helvetica, Segoe UI Emoji" font-size="20px" fill="#c4c4c4" text-anchor="middle" style="white-space: pre;" direction="ltr">hat</text></g><g transform="translate(1408.9859950803057 787.2687977571641) rotate(0 108.69951071552987 31.97050863735376)"><text x="109.5" y="25" font-family="Helvetica, Segoe UI Emoji" font-size="28px" fill="#c4c4c4" text-anchor="middle" style="white-space: pre;" direction="ltr">wird zurückgelegt</text><text x="109.5" y="57" font-family="Helvetica, Segoe UI Emoji" font-size="28px" fill="#c4c4c4" text-anchor="middle" style="white-space: pre;" direction="ltr">mit</text></g><g transform="translate(2503.6941439968214 807.2060547278788) rotate(0 61 16)"><text x="61" y="25" font-family="Helvetica, Segoe UI Emoji" font-size="28px" fill="#c4c4c4" text-anchor="middle" style="white-space: pre;" direction="ltr">beinhaltet</text></g></svg>