<svg version="1.1" xmlns="http://www.w3.org/2000/svg" viewBox="0 0 2742.8003339917886 1140.9308397246991" width="8228.401001975366" height="3422.7925191740974">
  <!-- svg-source:excalidraw -->
  
  <defs>
    <style class="style-fonts">
      @font-face {
        font-family: "Virgil";
        src: url("https://excalidraw.com/Virgil.woff2");
      }
      @font-face {
        font-family: "Cascadia";
        src: url("https://excalidraw.com/Cascadia.woff2");
      }
    </style>
  </defs>
  <rect x="0" y="0" width="2742.8003339917886" height="1140.9308397246991" fill="#ffffff"></rect><g stroke-linecap="round" transform="translate(1121.9515178301062 385.59746965414115) rotate(0 94.5 31.5)"><path d="M15.75 0 M15.75 0 C55.82 0, 95.89 0, 173.25 0 M15.75 0 C54.05 0, 92.36 0, 173.25 0 M173.25 0 C183.75 0, 189 5.25, 189 15.75 M173.25 0 C183.75 0, 189 5.25, 189 15.75 M189 15.75 C189 24.85, 189 33.95, 189 47.25 M189 15.75 C189 26.02, 189 36.29, 189 47.25 M189 47.25 C189 57.75, 183.75 63, 173.25 63 M189 47.25 C189 57.75, 183.75 63, 173.25 63 M173.25 63 C136.13 63, 99.01 63, 15.75 63 M173.25 63 C139.46 63, 105.66 63, 15.75 63 M15.75 63 C5.25 63, 0 57.75, 0 47.25 M15.75 63 C5.25 63, 0 57.75, 0 47.25 M0 47.25 C0 36.05, 0 24.85, 0 15.75 M0 47.25 C0 40.03, 0 32.8, 0 15.75 M0 15.75 C0 5.25, 5.25 0, 15.75 0 M0 15.75 C0 5.25, 5.25 0, 15.75 0" stroke="#000000" stroke-width="1" fill="none"></path></g><g transform="translate(1179.4515178301062 401.09746965414115) rotate(0 37 16)"><text x="37" y="26" font-family="Helvetica, Segoe UI Emoji" font-size="28px" fill="#000000" text-anchor="middle" style="white-space: pre;" direction="ltr">Reise</text></g><g stroke-linecap="round" transform="translate(834.1923453272302 775.9683742896796) rotate(0 94.5 31.5)"><path d="M15.75 0 M15.75 0 C71.99 0, 128.23 0, 173.25 0 M15.75 0 C74.75 0, 133.76 0, 173.25 0 M173.25 0 C183.75 0, 189 5.25, 189 15.75 M173.25 0 C183.75 0, 189 5.25, 189 15.75 M189 15.75 C189 22.53, 189 29.32, 189 47.25 M189 15.75 C189 25.66, 189 35.57, 189 47.25 M189 47.25 C189 57.75, 183.75 63, 173.25 63 M189 47.25 C189 57.75, 183.75 63, 173.25 63 M173.25 63 C141.68 63, 110.1 63, 15.75 63 M173.25 63 C114.87 63, 56.49 63, 15.75 63 M15.75 63 C5.25 63, 0 57.75, 0 47.25 M15.75 63 C5.25 63, 0 57.75, 0 47.25 M0 47.25 C0 34.66, 0 22.08, 0 15.75 M0 47.25 C0 36.59, 0 25.93, 0 15.75 M0 15.75 C0 5.25, 5.25 0, 15.75 0 M0 15.75 C0 5.25, 5.25 0, 15.75 0" stroke="#000000" stroke-width="1" fill="none"></path></g><g stroke-linecap="round" transform="translate(1863.4330384345812 682.9717433855062) rotate(0 94.5 31.5)"><path d="M15.75 0 M15.75 0 C62.99 0, 110.23 0, 173.25 0 M15.75 0 C63.11 0, 110.47 0, 173.25 0 M173.25 0 C183.75 0, 189 5.25, 189 15.75 M173.25 0 C183.75 0, 189 5.25, 189 15.75 M189 15.75 C189 25.41, 189 35.08, 189 47.25 M189 15.75 C189 24.72, 189 33.68, 189 47.25 M189 47.25 C189 57.75, 183.75 63, 173.25 63 M189 47.25 C189 57.75, 183.75 63, 173.25 63 M173.25 63 C137.87 63, 102.49 63, 15.75 63 M173.25 63 C115.58 63, 57.9 63, 15.75 63 M15.75 63 C5.25 63, 0 57.75, 0 47.25 M15.75 63 C5.25 63, 0 57.75, 0 47.25 M0 47.25 C0 40.5, 0 33.75, 0 15.75 M0 47.25 C0 38.76, 0 30.27, 0 15.75 M0 15.75 C0 5.25, 5.25 0, 15.75 0 M0 15.75 C0 5.25, 5.25 0, 15.75 0" stroke="#000000" stroke-width="1" fill="none"></path></g><g stroke-linecap="round" transform="translate(465.95785818731383 538.5735105771082) rotate(0 94.5 31.5)"><path d="M15.75 0 M15.75 0 C51.09 0, 86.43 0, 173.25 0 M15.75 0 C53.49 0, 91.23 0, 173.25 0 M173.25 0 C183.75 0, 189 5.25, 189 15.75 M173.25 0 C183.75 0, 189 5.25, 189 15.75 M189 15.75 C189 25.11, 189 34.48, 189 47.25 M189 15.75 C189 27.22, 189 38.7, 189 47.25 M189 47.25 C189 57.75, 183.75 63, 173.25 63 M189 47.25 C189 57.75, 183.75 63, 173.25 63 M173.25 63 C117.59 63, 61.93 63, 15.75 63 M173.25 63 C113.69 63, 54.13 63, 15.75 63 M15.75 63 C5.25 63, 0 57.75, 0 47.25 M15.75 63 C5.25 63, 0 57.75, 0 47.25 M0 47.25 C0 39.08, 0 30.9, 0 15.75 M0 47.25 C0 36.26, 0 25.27, 0 15.75 M0 15.75 C0 5.25, 5.25 0, 15.75 0 M0 15.75 C0 5.25, 5.25 0, 15.75 0" stroke="#000000" stroke-width="1" fill="none"></path></g><g transform="translate(899.6923453272302 795.9683742896796) rotate(0 29 11.5)"><text x="29" y="19" font-family="Helvetica, Segoe UI Emoji" font-size="20px" fill="#000000" text-anchor="middle" style="white-space: pre;" direction="ltr">Zielort</text></g><g transform="translate(1927.4330384345812 702.9717433855062) rotate(0 30.5 11.5)"><text x="30.5" y="19" font-family="Helvetica, Segoe UI Emoji" font-size="20px" fill="#000000" text-anchor="middle" style="white-space: pre;" direction="ltr">Datum</text></g><g transform="translate(513.4578581873138 558.5735105771082) rotate(0 47 11.5)"><text x="47" y="19" font-family="Helvetica, Segoe UI Emoji" font-size="20px" fill="#000000" text-anchor="middle" style="white-space: pre;" direction="ltr">Aktivitäten</text></g><g stroke-linecap="round" transform="translate(1364.5963057309 893.5745863894708) rotate(0 94.5 31.5)"><path d="M15.75 0 M15.75 0 C49.1 0, 82.45 0, 173.25 0 M15.75 0 C62.74 0, 109.72 0, 173.25 0 M173.25 0 C183.75 0, 189 5.25, 189 15.75 M173.25 0 C183.75 0, 189 5.25, 189 15.75 M189 15.75 C189 25.74, 189 35.73, 189 47.25 M189 15.75 C189 26.78, 189 37.82, 189 47.25 M189 47.25 C189 57.75, 183.75 63, 173.25 63 M189 47.25 C189 57.75, 183.75 63, 173.25 63 M173.25 63 C113.14 63, 53.02 63, 15.75 63 M173.25 63 C127.8 63, 82.35 63, 15.75 63 M15.75 63 C5.25 63, 0 57.75, 0 47.25 M15.75 63 C5.25 63, 0 57.75, 0 47.25 M0 47.25 C0 38.09, 0 28.93, 0 15.75 M0 47.25 C0 37.32, 0 27.38, 0 15.75 M0 15.75 C0 5.25, 5.25 0, 15.75 0 M0 15.75 C0 5.25, 5.25 0, 15.75 0" stroke="#000000" stroke-width="1" fill="none"></path></g><g transform="translate(1412.0963057309 913.5745863894708) rotate(0 47 11.5)"><text x="47" y="19" font-family="Helvetica, Segoe UI Emoji" font-size="20px" fill="#000000" text-anchor="middle" style="white-space: pre;" direction="ltr">Unterkunft</text></g><g stroke-opacity="0.2" fill-opacity="0.2" stroke-linecap="round" transform="translate(1924.9588749486174 314.24831372945664) rotate(0 112 31.5)"><path d="M15.75 0 M15.75 0 C73.64 0, 131.52 0, 208.25 0 M15.75 0 C87.37 0, 158.99 0, 208.25 0 M208.25 0 C218.75 0, 224 5.25, 224 15.75 M208.25 0 C218.75 0, 224 5.25, 224 15.75 M224 15.75 C224 24.72, 224 33.68, 224 47.25 M224 15.75 C224 27.85, 224 39.94, 224 47.25 M224 47.25 C224 57.75, 218.75 63, 208.25 63 M224 47.25 C224 57.75, 218.75 63, 208.25 63 M208.25 63 C137.76 63, 67.27 63, 15.75 63 M208.25 63 C133.65 63, 59.05 63, 15.75 63 M15.75 63 C5.25 63, 0 57.75, 0 47.25 M15.75 63 C5.25 63, 0 57.75, 0 47.25 M0 47.25 C0 38.76, 0 30.27, 0 15.75 M0 47.25 C0 39.46, 0 31.66, 0 15.75 M0 15.75 C0 5.25, 5.25 0, 15.75 0 M0 15.75 C0 5.25, 5.25 0, 15.75 0" stroke="#000000" stroke-width="1" fill="none"></path></g><g stroke-opacity="0.2" fill-opacity="0.2" transform="translate(1942.9588749486174 334.24831372945664) rotate(0 94 11.5)"><text x="94" y="19" font-family="Helvetica, Segoe UI Emoji" font-size="20px" fill="#000000" text-anchor="middle" style="white-space: pre;" direction="ltr">Fortbewegungsmittel</text></g><g stroke-linecap="round" transform="translate(787.7861969605146 103.52658934713327) rotate(0 94.5 31.5)"><path d="M15.75 0 M15.75 0 C56.84 0, 97.93 0, 173.25 0 M15.75 0 C58.37 0, 100.99 0, 173.25 0 M173.25 0 C183.75 0, 189 5.25, 189 15.75 M173.25 0 C183.75 0, 189 5.25, 189 15.75 M189 15.75 C189 23.18, 189 30.6, 189 47.25 M189 15.75 C189 22.2, 189 28.65, 189 47.25 M189 47.25 C189 57.75, 183.75 63, 173.25 63 M189 47.25 C189 57.75, 183.75 63, 173.25 63 M173.25 63 C121.93 63, 70.6 63, 15.75 63 M173.25 63 C132.12 63, 90.98 63, 15.75 63 M15.75 63 C5.25 63, 0 57.75, 0 47.25 M15.75 63 C5.25 63, 0 57.75, 0 47.25 M0 47.25 C0 39.45, 0 31.65, 0 15.75 M0 47.25 C0 35.79, 0 24.32, 0 15.75 M0 15.75 C0 5.25, 5.25 0, 15.75 0 M0 15.75 C0 5.25, 5.25 0, 15.75 0" stroke="#000000" stroke-width="1" fill="none"></path></g><g transform="translate(850.2861969605146 123.52658934713327) rotate(0 32 11.5)"><text x="32" y="19" font-family="Helvetica, Segoe UI Emoji" font-size="20px" fill="#000000" text-anchor="middle" style="white-space: pre;" direction="ltr">Kosten</text></g><g stroke-opacity="0.2" fill-opacity="0.2" stroke-linecap="round" transform="translate(1387.0188046534004 10) rotate(0 94.5 31.5)"><path d="M15.75 0 M15.75 0 C58.42 0, 101.1 0, 173.25 0 M15.75 0 C58.31 0, 100.88 0, 173.25 0 M173.25 0 C183.75 0, 189 5.25, 189 15.75 M173.25 0 C183.75 0, 189 5.25, 189 15.75 M189 15.75 C189 24.4, 189 33.05, 189 47.25 M189 15.75 C189 24.49, 189 33.22, 189 47.25 M189 47.25 C189 57.75, 183.75 63, 173.25 63 M189 47.25 C189 57.75, 183.75 63, 173.25 63 M173.25 63 C118.11 63, 62.96 63, 15.75 63 M173.25 63 C117.63 63, 62.01 63, 15.75 63 M15.75 63 C5.25 63, 0 57.75, 0 47.25 M15.75 63 C5.25 63, 0 57.75, 0 47.25 M0 47.25 C0 39.09, 0 30.93, 0 15.75 M0 47.25 C0 35.34, 0 23.43, 0 15.75 M0 15.75 C0 5.25, 5.25 0, 15.75 0 M0 15.75 C0 5.25, 5.25 0, 15.75 0" stroke="#000000" stroke-width="1" fill="none"></path></g><g stroke-opacity="0.2" fill-opacity="0.2" transform="translate(1431.5188046534004 30) rotate(0 50 11.5)"><text x="50" y="19" font-family="Helvetica, Segoe UI Emoji" font-size="20px" fill="#000000" text-anchor="middle" style="white-space: pre;" direction="ltr">Umgebung</text></g><g stroke-linecap="round"><g transform="translate(1117.8602773512412 381.7543999853265) rotate(0 -68.49814757161221 -105.34461667138714)"><path d="M0 0 C-22.83 -35.11, -114.16 -175.57, -137 -210.69 M0 0 C-22.83 -35.11, -114.16 -175.57, -137 -210.69" stroke="#000000" stroke-width="1" fill="none"></path></g><g transform="translate(1117.8602773512412 381.7543999853265) rotate(0 -68.49814757161221 -105.34461667138714)"><path d="M-137 -210.69 L-124.27 -202.75 L-134.9 -195.84 L-137 -210.69" stroke="none" stroke-width="0" fill="#000000" fill-rule="evenodd"></path><path d="M-137 -210.69 C-132.55 -207.92, -128.11 -205.15, -124.27 -202.75 M-137 -210.69 C-132.26 -207.74, -127.53 -204.78, -124.27 -202.75 M-124.27 -202.75 C-127.71 -200.51, -131.15 -198.28, -134.9 -195.84 M-124.27 -202.75 C-128.14 -200.23, -132 -197.72, -134.9 -195.84 M-134.9 -195.84 C-135.37 -199.17, -135.84 -202.49, -137 -210.69 M-134.9 -195.84 C-135.67 -201.26, -136.43 -206.69, -137 -210.69 M-137 -210.69 C-137 -210.69, -137 -210.69, -137 -210.69 M-137 -210.69 C-137 -210.69, -137 -210.69, -137 -210.69" stroke="#000000" stroke-width="1" fill="none"></path></g></g><g transform="translate(1047.448462624101 258.98780326389715) rotate(56.391688653749846 15 11.5)"><text x="0" y="19" font-family="Helvetica, Segoe UI Emoji" font-size="20px" fill="#000000" text-anchor="start" style="white-space: pre;" direction="ltr">hat</text></g><g stroke-linecap="round"><g stroke-opacity="0.2" fill-opacity="0.2" transform="translate(1315.0085464303684 381.585768663645) rotate(0 81.13423366299048 -151.8241032488179)"><path d="M0 0 C27.04 -50.61, 135.22 -253.04, 162.27 -303.65 M0 0 C27.04 -50.61, 135.22 -253.04, 162.27 -303.65" stroke="#000000" stroke-width="1" fill="none"></path></g><g stroke-opacity="0.2" fill-opacity="0.2" transform="translate(1315.0085464303684 381.585768663645) rotate(0 81.13423366299048 -151.8241032488179)"><path d="M162.27 -303.65 L161.45 -288.67 L150.27 -294.65 L162.27 -303.65" stroke="none" stroke-width="0" fill="#000000" fill-rule="evenodd"></path><path d="M162.27 -303.65 C162.03 -299.34, 161.8 -295.04, 161.45 -288.67 M162.27 -303.65 C162 -298.77, 161.74 -293.88, 161.45 -288.67 M161.45 -288.67 C157.47 -290.8, 153.49 -292.93, 150.27 -294.65 M161.45 -288.67 C159.05 -289.95, 156.65 -291.23, 150.27 -294.65 M150.27 -294.65 C154.63 -297.92, 158.99 -301.19, 162.27 -303.65 M150.27 -294.65 C153.02 -296.71, 155.77 -298.78, 162.27 -303.65 M162.27 -303.65 C162.27 -303.65, 162.27 -303.65, 162.27 -303.65 M162.27 -303.65 C162.27 -303.65, 162.27 -303.65, 162.27 -303.65" stroke="#000000" stroke-width="1" fill="none"></path></g></g><g stroke-opacity="0.2" fill-opacity="0.2" transform="translate(1367.2324554085735 215.39683219964127) rotate(298.3161823221674 15 11.5)"><text x="0" y="19" font-family="Helvetica, Segoe UI Emoji" font-size="20px" fill="#000000" text-anchor="start" style="white-space: pre;" direction="ltr">hat</text></g><g stroke-linecap="round"><g stroke-opacity="0.2" fill-opacity="0.2" transform="translate(1316.1480995786405 419.29144771342453) rotate(0 301.47688071759876 -35.258281322103244)"><path d="M0 0 C100.49 -11.75, 502.46 -58.76, 602.95 -70.52 M0 0 C100.49 -11.75, 502.46 -58.76, 602.95 -70.52" stroke="#000000" stroke-width="1" fill="none"></path></g><g stroke-opacity="0.2" fill-opacity="0.2" transform="translate(1316.1480995786405 419.29144771342453) rotate(0 301.47688071759876 -35.258281322103244)"><path d="M602.95 -70.52 L590.19 -62.64 L588.71 -75.23 L602.95 -70.52" stroke="none" stroke-width="0" fill="#000000" fill-rule="evenodd"></path><path d="M602.95 -70.52 C599.3 -68.26, 595.64 -66.01, 590.19 -62.64 M602.95 -70.52 C598.94 -68.04, 594.92 -65.56, 590.19 -62.64 M590.19 -62.64 C589.7 -66.83, 589.21 -71.03, 588.71 -75.23 M590.19 -62.64 C589.64 -67.31, 589.1 -71.98, 588.71 -75.23 M588.71 -75.23 C592.24 -74.07, 595.76 -72.9, 602.95 -70.52 M588.71 -75.23 C593.53 -73.64, 598.35 -72.04, 602.95 -70.52 M602.95 -70.52 C602.95 -70.52, 602.95 -70.52, 602.95 -70.52 M602.95 -70.52 C602.95 -70.52, 602.95 -70.52, 602.95 -70.52" stroke="#000000" stroke-width="1" fill="none"></path></g></g><g stroke-opacity="0.2" fill-opacity="0.2" transform="translate(1589.5274450696725 361.31299809220127) rotate(352.59577102897873 15 11.5)"><text x="0" y="19" font-family="Helvetica, Segoe UI Emoji" font-size="20px" fill="#000000" text-anchor="start" style="white-space: pre;" direction="ltr">hat</text></g><g stroke-linecap="round"><g transform="translate(1315.500922758949 453.0002332726408) rotate(0 271.7461555433956 131.557995448596)"><path d="M0 0 C90.58 43.85, 452.91 219.26, 543.49 263.12 M0 0 C90.58 43.85, 452.91 219.26, 543.49 263.12" stroke="#000000" stroke-width="1" fill="none"></path></g><g transform="translate(1315.500922758949 453.0002332726408) rotate(0 271.7461555433956 131.557995448596)"><path d="M543.49 263.12 L528.49 262.9 L534.02 251.49 L543.49 263.12" stroke="none" stroke-width="0" fill="#000000" fill-rule="evenodd"></path><path d="M543.49 263.12 C539.16 263.05, 534.83 262.99, 528.49 262.9 M543.49 263.12 C538.03 263.04, 532.57 262.96, 528.49 262.9 M528.49 262.9 C529.8 260.21, 531.1 257.52, 534.02 251.49 M528.49 262.9 C530.58 258.58, 532.67 254.27, 534.02 251.49 M534.02 251.49 C537.39 255.62, 540.75 259.76, 543.49 263.12 M534.02 251.49 C537.32 255.54, 540.63 259.6, 543.49 263.12 M543.49 263.12 C543.49 263.12, 543.49 263.12, 543.49 263.12 M543.49 263.12 C543.49 263.12, 543.49 263.12, 543.49 263.12" stroke="#000000" stroke-width="1" fill="none"></path></g></g><g transform="translate(1580.4153276282086 563.7923295053779) rotate(27.953682397177182 15 11.5)"><text x="0" y="19" font-family="Helvetica, Segoe UI Emoji" font-size="20px" fill="#000000" text-anchor="start" style="white-space: pre;" direction="ltr">hat</text></g><g stroke-linecap="round"><g transform="translate(1116.7018104261788 418.56496146659174) rotate(0 -227.1135274829694 76.33106027510712)"><path d="M0 0 C-75.7 25.44, -378.52 127.22, -454.23 152.66 M0 0 C-75.7 25.44, -378.52 127.22, -454.23 152.66" stroke="#000000" stroke-width="1" fill="none"></path></g><g transform="translate(1116.7018104261788 418.56496146659174) rotate(0 -227.1135274829694 76.33106027510712)"><path d="M-454.23 152.66 L-443.36 142.32 L-439.32 154.34 L-454.23 152.66" stroke="none" stroke-width="0" fill="#000000" fill-rule="evenodd"></path><path d="M-454.23 152.66 C-451.89 150.44, -449.55 148.21, -443.36 142.32 M-454.23 152.66 C-449.9 148.55, -445.58 144.43, -443.36 142.32 M-443.36 142.32 C-442.55 144.73, -441.74 147.14, -439.32 154.34 M-443.36 142.32 C-442.35 145.34, -441.33 148.36, -439.32 154.34 M-439.32 154.34 C-445.28 153.67, -451.23 153, -454.23 152.66 M-439.32 154.34 C-443.15 153.91, -446.98 153.48, -454.23 152.66 M-454.23 152.66 C-454.23 152.66, -454.23 152.66, -454.23 152.66 M-454.23 152.66 C-454.23 152.66, -454.23 152.66, -454.23 152.66" stroke="#000000" stroke-width="1" fill="none"></path></g></g><g transform="translate(870.1115678942533 469.7719654155485) rotate(339.13818405649477 15 11.5)"><text x="0" y="19" font-family="Helvetica, Segoe UI Emoji" font-size="20px" fill="#000000" text-anchor="start" style="white-space: pre;" direction="ltr">hat</text></g><g stroke-linecap="round"><g transform="translate(1117.6486568647979 453.06967942796473) rotate(0 -95.49724748903418 158.21755313939815)"><path d="M0 0 C-31.83 52.74, -159.16 263.7, -190.99 316.44 M0 0 C-31.83 52.74, -159.16 263.7, -190.99 316.44" stroke="#000000" stroke-width="1" fill="none"></path></g><g transform="translate(1117.6486568647979 453.06967942796473) rotate(0 -95.49724748903418 158.21755313939815)"><path d="M-190.99 316.44 L-189.4 301.52 L-178.54 308.07 L-190.99 316.44" stroke="none" stroke-width="0" fill="#000000" fill-rule="evenodd"></path><path d="M-190.99 316.44 C-190.52 312, -190.04 307.57, -189.4 301.52 M-190.99 316.44 C-190.43 311.21, -189.88 305.99, -189.4 301.52 M-189.4 301.52 C-185.56 303.84, -181.72 306.15, -178.54 308.07 M-189.4 301.52 C-186.26 303.41, -183.13 305.3, -178.54 308.07 M-178.54 308.07 C-181.77 310.24, -185.01 312.41, -190.99 316.44 M-178.54 308.07 C-182.47 310.71, -186.4 313.35, -190.99 316.44 M-190.99 316.44 C-190.99 316.44, -190.99 316.44, -190.99 316.44 M-190.99 316.44 C-190.99 316.44, -190.99 316.44, -190.99 316.44" stroke="#000000" stroke-width="1" fill="none"></path></g></g><g transform="translate(986.0962168767946 607.8924280628275) rotate(300.76859736396426 15 11.5)"><text x="0" y="19" font-family="Helvetica, Segoe UI Emoji" font-size="20px" fill="#000000" text-anchor="start" style="white-space: pre;" direction="ltr">hat</text></g><g stroke-linecap="round"><g transform="translate(1251.1045952928853 453.73573113938346) rotate(0 101.28905897950062 217.033733622883)"><path d="M0 0 C33.76 72.34, 168.82 361.72, 202.58 434.07 M0 0 C33.76 72.34, 168.82 361.72, 202.58 434.07" stroke="#000000" stroke-width="1" fill="none"></path></g><g transform="translate(1251.1045952928853 453.73573113938346) rotate(0 101.28905897950062 217.033733622883)"><path d="M202.58 434.07 L191.08 424.43 L202.57 419.07 L202.58 434.07" stroke="none" stroke-width="0" fill="#000000" fill-rule="evenodd"></path><path d="M202.58 434.07 C198.99 431.06, 195.41 428.05, 191.08 424.43 M202.58 434.07 C198.16 430.37, 193.75 426.67, 191.08 424.43 M191.08 424.43 C195.04 422.58, 199 420.74, 202.57 419.07 M191.08 424.43 C195.54 422.35, 199.99 420.27, 202.57 419.07 M202.57 419.07 C202.57 422.32, 202.58 425.58, 202.58 434.07 M202.57 419.07 C202.57 422.78, 202.58 426.49, 202.58 434.07 M202.58 434.07 C202.58 434.07, 202.58 434.07, 202.58 434.07 M202.58 434.07 C202.58 434.07, 202.58 434.07, 202.58 434.07" stroke="#000000" stroke-width="1" fill="none"></path></g></g><g transform="translate(1356.8835004100947 668.2234415238495) rotate(64.9060497943727 15 11.5)"><text x="0" y="19" font-family="Helvetica, Segoe UI Emoji" font-size="20px" fill="#000000" text-anchor="start" style="white-space: pre;" direction="ltr">hat</text></g><g stroke-linecap="round" transform="translate(612.051518532744 937.8083499278264) rotate(0 94.5 31.5)"><path d="M15.75 0 M15.75 0 C65.69 0, 115.63 0, 173.25 0 M15.75 0 C70.92 0, 126.08 0, 173.25 0 M173.25 0 C183.75 0, 189 5.25, 189 15.75 M173.25 0 C183.75 0, 189 5.25, 189 15.75 M189 15.75 C189 27.77, 189 39.8, 189 47.25 M189 15.75 C189 24.84, 189 33.93, 189 47.25 M189 47.25 C189 57.75, 183.75 63, 173.25 63 M189 47.25 C189 57.75, 183.75 63, 173.25 63 M173.25 63 C127.45 63, 81.64 63, 15.75 63 M173.25 63 C123.58 63, 73.9 63, 15.75 63 M15.75 63 C5.25 63, 0 57.75, 0 47.25 M15.75 63 C5.25 63, 0 57.75, 0 47.25 M0 47.25 C0 38.42, 0 29.59, 0 15.75 M0 47.25 C0 39.39, 0 31.53, 0 15.75 M0 15.75 C0 5.25, 5.25 0, 15.75 0 M0 15.75 C0 5.25, 5.25 0, 15.75 0" stroke="#000000" stroke-width="1" fill="none"></path></g><g stroke-linecap="round" transform="translate(1380.5320966045347 978.4648666986795) rotate(0 94.5 31.5)"><path d="M15.75 0 M15.75 0 C65.3 0, 114.85 0, 173.25 0 M173.25 0 C183.75 0, 189 5.25, 189 15.75 M189 15.75 C189 26.24, 189 36.73, 189 47.25 M189 47.25 C189 57.75, 183.75 63, 173.25 63 M173.25 63 C114.87 63, 56.49 63, 15.75 63 M15.75 63 C5.25 63, 0 57.75, 0 47.25 M0 47.25 C0 39.46, 0 31.66, 0 15.75 M0 15.75 C0 5.25, 5.25 0, 15.75 0" stroke="#000000" stroke-width="1.5" fill="none" stroke-dasharray="8 9"></path></g><g transform="translate(668.551518532744 960.3083499278264) rotate(0 38 9.5)"><text x="38" y="15" font-family="Helvetica, Segoe UI Emoji" font-size="16px" fill="#000000" text-anchor="middle" style="white-space: pre;" direction="ltr">Statistiken</text></g><g stroke-opacity="0.2" fill-opacity="0.2" stroke-linecap="round" transform="translate(1154.134209100699 978.9489603818824) rotate(0 94.5 31.5)"><path d="M15.75 0 M15.75 0 C73.12 0, 130.5 0, 173.25 0 M173.25 0 C183.75 0, 189 5.25, 189 15.75 M189 15.75 C189 23.17, 189 30.6, 189 47.25 M189 47.25 C189 57.75, 183.75 63, 173.25 63 M173.25 63 C113.69 63, 54.13 63, 15.75 63 M15.75 63 C5.25 63, 0 57.75, 0 47.25 M0 47.25 C0 36.05, 0 24.85, 0 15.75 M0 15.75 C0 5.25, 5.25 0, 15.75 0" stroke="#000000" stroke-width="1.5" fill="none" stroke-dasharray="8 9"></path></g><g transform="translate(1456.0320966045347 1000.9648666986795) rotate(0 19 9.5)"><text x="19" y="15" font-family="Helvetica, Segoe UI Emoji" font-size="16px" fill="#000000" text-anchor="middle" style="white-space: pre;" direction="ltr">Preis</text></g><g stroke-opacity="0.2" fill-opacity="0.2" transform="translate(1205.134209100699 1001.4489603818824) rotate(0 43.5 9.5)"><text x="43.5" y="15" font-family="Helvetica, Segoe UI Emoji" font-size="16px" fill="#000000" text-anchor="middle" style="white-space: pre;" direction="ltr">Ausstattung</text></g><g stroke-opacity="0.2" fill-opacity="0.2" stroke-linecap="round" transform="translate(2438.3213495679374 26.045099246146037) rotate(0 112 31.5)"><path d="M15.75 0 M15.75 0 C68.62 0, 121.48 0, 208.25 0 M15.75 0 C69.14 0, 122.53 0, 208.25 0 M208.25 0 C218.75 0, 224 5.25, 224 15.75 M208.25 0 C218.75 0, 224 5.25, 224 15.75 M224 15.75 C224 26.78, 224 37.81, 224 47.25 M224 15.75 C224 26.87, 224 38, 224 47.25 M224 47.25 C224 57.75, 218.75 63, 208.25 63 M224 47.25 C224 57.75, 218.75 63, 208.25 63 M208.25 63 C158.39 63, 108.53 63, 15.75 63 M208.25 63 C135.46 63, 62.67 63, 15.75 63 M15.75 63 C5.25 63, 0 57.75, 0 47.25 M15.75 63 C5.25 63, 0 57.75, 0 47.25 M0 47.25 C0 35.71, 0 24.16, 0 15.75 M0 47.25 C0 36.34, 0 25.42, 0 15.75 M0 15.75 C0 5.25, 5.25 0, 15.75 0 M0 15.75 C0 5.25, 5.25 0, 15.75 0" stroke="#000000" stroke-width="1" fill="none"></path></g><g stroke-opacity="0.2" fill-opacity="0.2" transform="translate(2516.3213495679374 48.54509924614604) rotate(0 34 9.5)"><text x="34" y="15" font-family="Helvetica, Segoe UI Emoji" font-size="16px" fill="#000000" text-anchor="middle" style="white-space: pre;" direction="ltr">Flugzeug</text></g><g stroke-opacity="0.2" fill-opacity="0.2" stroke-linecap="round" transform="translate(2441.699015832106 248.5378943146252) rotate(0 112 31.5)"><path d="M15.75 0 M15.75 0 C78 0, 140.24 0, 208.25 0 M15.75 0 C81.37 0, 146.98 0, 208.25 0 M208.25 0 C218.75 0, 224 5.25, 224 15.75 M208.25 0 C218.75 0, 224 5.25, 224 15.75 M224 15.75 C224 22.81, 224 29.87, 224 47.25 M224 15.75 C224 23.73, 224 31.72, 224 47.25 M224 47.25 C224 57.75, 218.75 63, 208.25 63 M224 47.25 C224 57.75, 218.75 63, 208.25 63 M208.25 63 C167.57 63, 126.9 63, 15.75 63 M208.25 63 C146.35 63, 84.45 63, 15.75 63 M15.75 63 C5.25 63, 0 57.75, 0 47.25 M15.75 63 C5.25 63, 0 57.75, 0 47.25 M0 47.25 C0 36.77, 0 26.29, 0 15.75 M0 47.25 C0 39.12, 0 30.99, 0 15.75 M0 15.75 C0 5.25, 5.25 0, 15.75 0 M0 15.75 C0 5.25, 5.25 0, 15.75 0" stroke="#000000" stroke-width="1" fill="none"></path></g><g stroke-opacity="0.2" fill-opacity="0.2" stroke-linecap="round" transform="translate(2440.1099317944027 143.72452184964914) rotate(0 112 31.5)"><path d="M15.75 0 M15.75 0 C89.67 0, 163.58 0, 208.25 0 M15.75 0 C54.34 0, 92.93 0, 208.25 0 M208.25 0 C218.75 0, 224 5.25, 224 15.75 M208.25 0 C218.75 0, 224 5.25, 224 15.75 M224 15.75 C224 27.96, 224 40.16, 224 47.25 M224 15.75 C224 28.34, 224 40.92, 224 47.25 M224 47.25 C224 57.75, 218.75 63, 208.25 63 M224 47.25 C224 57.75, 218.75 63, 208.25 63 M208.25 63 C160.61 63, 112.98 63, 15.75 63 M208.25 63 C151.03 63, 93.81 63, 15.75 63 M15.75 63 C5.25 63, 0 57.75, 0 47.25 M15.75 63 C5.25 63, 0 57.75, 0 47.25 M0 47.25 C0 37.46, 0 27.67, 0 15.75 M0 47.25 C0 40.84, 0 34.43, 0 15.75 M0 15.75 C0 5.25, 5.25 0, 15.75 0 M0 15.75 C0 5.25, 5.25 0, 15.75 0" stroke="#000000" stroke-width="1" fill="none"></path></g><g stroke-opacity="0.2" fill-opacity="0.2" stroke-linecap="round" transform="translate(2336.32118028078 475.2252625429587) rotate(0 112 31.5)"><path d="M15.75 0 M15.75 0 C84.28 0, 152.81 0, 208.25 0 M208.25 0 C218.75 0, 224 5.25, 224 15.75 M224 15.75 C224 22.51, 224 29.27, 224 47.25 M224 47.25 C224 57.75, 218.75 63, 208.25 63 M208.25 63 C138.32 63, 68.39 63, 15.75 63 M15.75 63 C5.25 63, 0 57.75, 0 47.25 M0 47.25 C0 40.03, 0 32.8, 0 15.75 M0 15.75 C0 5.25, 5.25 0, 15.75 0" stroke="#000000" stroke-width="1.5" fill="none" stroke-dasharray="8 9"></path></g><g stroke-opacity="0.2" fill-opacity="0.2" transform="translate(2538.699015832106 271.0378943146252) rotate(0 15 9.5)"><text x="15" y="15" font-family="Helvetica, Segoe UI Emoji" font-size="16px" fill="#000000" text-anchor="middle" style="white-space: pre;" direction="ltr">Bus</text></g><g stroke-opacity="0.2" fill-opacity="0.2" transform="translate(2534.6099317944027 166.22452184964914) rotate(0 17.5 9.5)"><text x="17.5" y="15" font-family="Helvetica, Segoe UI Emoji" font-size="16px" fill="#000000" text-anchor="middle" style="white-space: pre;" direction="ltr">Auto</text></g><g stroke-opacity="0.2" fill-opacity="0.2" transform="translate(2422.32118028078 497.7252625429587) rotate(0 26 9.5)"><text x="26" y="15" font-family="Helvetica, Segoe UI Emoji" font-size="16px" fill="#000000" text-anchor="middle" style="white-space: pre;" direction="ltr">Kosten</text></g><g stroke-linecap="round"><g stroke-opacity="0.2" fill-opacity="0.2" transform="translate(2156.413965014286 347.10056325165306) rotate(0 83.70195715027148 79.25077466750577)"><path d="M0 0 C27.9 26.42, 139.5 132.08, 167.4 158.5 M0 0 C27.9 26.42, 139.5 132.08, 167.4 158.5" stroke="#000000" stroke-width="1" fill="none"></path></g><g stroke-opacity="0.2" fill-opacity="0.2" transform="translate(2156.413965014286 347.10056325165306) rotate(0 83.70195715027148 79.25077466750577)"><path d="M167.4 158.5 L153.17 153.76 L161.89 144.55 L167.4 158.5" stroke="none" stroke-width="0" fill="#000000" fill-rule="evenodd"></path><path d="M167.4 158.5 C164.05 157.38, 160.7 156.27, 153.17 153.76 M167.4 158.5 C162.02 156.71, 156.64 154.91, 153.17 153.76 M153.17 153.76 C156.27 150.49, 159.37 147.21, 161.89 144.55 M153.17 153.76 C156.21 150.55, 159.25 147.34, 161.89 144.55 M161.89 144.55 C163.67 149.04, 165.44 153.54, 167.4 158.5 M161.89 144.55 C163.71 149.15, 165.52 153.74, 167.4 158.5 M167.4 158.5 C167.4 158.5, 167.4 158.5, 167.4 158.5 M167.4 158.5 C167.4 158.5, 167.4 158.5, 167.4 158.5" stroke="#000000" stroke-width="1" fill="none"></path></g></g><g stroke-opacity="0.2" fill-opacity="0.2" transform="translate(2231.132223605384 404.95752768870125) rotate(42.37396219084096 12 9.5)"><text x="0" y="15" font-family="Helvetica, Segoe UI Emoji" font-size="16px" fill="#000000" text-anchor="start" style="white-space: pre;" direction="ltr">hat</text></g><g stroke-opacity="0.2" fill-opacity="0.2" stroke-linecap="round" transform="translate(225.51321669047138 425.37015836684395) rotate(0 94.5 31.5)"><path d="M15.75 0 M15.75 0 C47.32 0, 78.9 0, 173.25 0 M15.75 0 C74.13 0, 132.51 0, 173.25 0 M173.25 0 C183.75 0, 189 5.25, 189 15.75 M173.25 0 C183.75 0, 189 5.25, 189 15.75 M189 15.75 C189 28.34, 189 40.92, 189 47.25 M189 15.75 C189 26.41, 189 37.07, 189 47.25 M189 47.25 C189 57.75, 183.75 63, 173.25 63 M189 47.25 C189 57.75, 183.75 63, 173.25 63 M173.25 63 C126.43 63, 79.62 63, 15.75 63 M173.25 63 C136.51 63, 99.77 63, 15.75 63 M15.75 63 C5.25 63, 0 57.75, 0 47.25 M15.75 63 C5.25 63, 0 57.75, 0 47.25 M0 47.25 C0 40.84, 0 34.43, 0 15.75 M0 47.25 C0 40.56, 0 33.87, 0 15.75 M0 15.75 C0 5.25, 5.25 0, 15.75 0 M0 15.75 C0 5.25, 5.25 0, 15.75 0" stroke="#000000" stroke-width="1" fill="none"></path></g><g stroke-linecap="round" transform="translate(281.8449545499443 695.6587024911632) rotate(0 94.5 31.5)"><path d="M15.75 0 M15.75 0 C51.13 0, 86.51 0, 173.25 0 M15.75 0 C73.42 0, 131.1 0, 173.25 0 M173.25 0 C183.75 0, 189 5.25, 189 15.75 M173.25 0 C183.75 0, 189 5.25, 189 15.75 M189 15.75 C189 22.5, 189 29.25, 189 47.25 M189 15.75 C189 24.24, 189 32.73, 189 47.25 M189 47.25 C189 57.75, 183.75 63, 173.25 63 M189 47.25 C189 57.75, 183.75 63, 173.25 63 M173.25 63 C116.59 63, 59.94 63, 15.75 63 M173.25 63 C133.26 63, 93.26 63, 15.75 63 M15.75 63 C5.25 63, 0 57.75, 0 47.25 M15.75 63 C5.25 63, 0 57.75, 0 47.25 M0 47.25 C0 38.13, 0 29.01, 0 15.75 M0 47.25 C0 36.5, 0 25.74, 0 15.75 M0 15.75 C0 5.25, 5.25 0, 15.75 0 M0 15.75 C0 5.25, 5.25 0, 15.75 0" stroke="#000000" stroke-width="1" fill="none"></path></g><g stroke-opacity="0.2" fill-opacity="0.2" transform="translate(294.5132166904714 447.87015836684395) rotate(0 25.5 9.5)"><text x="25.5" y="15" font-family="Helvetica, Segoe UI Emoji" font-size="16px" fill="#000000" text-anchor="middle" style="white-space: pre;" direction="ltr">Events</text></g><g transform="translate(303.3449545499443 718.1587024911632) rotate(0 73 9.5)"><text x="73" y="15" font-family="Helvetica, Segoe UI Emoji" font-size="16px" fill="#000000" text-anchor="middle" style="white-space: pre;" direction="ltr">Sehenswürdigkeiten</text></g><g stroke-linecap="round" transform="translate(2085.8996448283524 640.6843744833354) rotate(0 94.5 31.5)"><path d="M15.75 0 M15.75 0 C69.99 0, 124.23 0, 173.25 0 M173.25 0 C183.75 0, 189 5.25, 189 15.75 M189 15.75 C189 27.96, 189 40.16, 189 47.25 M189 47.25 C189 57.75, 183.75 63, 173.25 63 M173.25 63 C139.05 63, 104.84 63, 15.75 63 M15.75 63 C5.25 63, 0 57.75, 0 47.25 M0 47.25 C0 39.46, 0 31.66, 0 15.75 M0 15.75 C0 5.25, 5.25 0, 15.75 0" stroke="#000000" stroke-width="1.5" fill="none" stroke-dasharray="8 9"></path></g><g stroke-linecap="round" transform="translate(2086.6653016243763 727.9170630984095) rotate(0 94.5 31.5)"><path d="M15.75 0 M15.75 0 C49.54 0, 83.34 0, 173.25 0 M173.25 0 C183.75 0, 189 5.25, 189 15.75 M189 15.75 C189 27.19, 189 38.64, 189 47.25 M189 47.25 C189 57.75, 183.75 63, 173.25 63 M173.25 63 C137.13 63, 101 63, 15.75 63 M15.75 63 C5.25 63, 0 57.75, 0 47.25 M0 47.25 C0 37.15, 0 27.05, 0 15.75 M0 15.75 C0 5.25, 5.25 0, 15.75 0" stroke="#000000" stroke-width="1.5" fill="none" stroke-dasharray="8 9"></path></g><g stroke-linecap="round" transform="translate(2115.0069115278475 825.0526926333928) rotate(0 94.5 31.5)"><path d="M15.75 0 M15.75 0 C75.86 0, 135.98 0, 173.25 0 M15.75 0 C61.2 0, 106.65 0, 173.25 0 M173.25 0 C183.75 0, 189 5.25, 189 15.75 M173.25 0 C183.75 0, 189 5.25, 189 15.75 M189 15.75 C189 24.91, 189 34.07, 189 47.25 M189 15.75 C189 25.68, 189 35.62, 189 47.25 M189 47.25 C189 57.75, 183.75 63, 173.25 63 M189 47.25 C189 57.75, 183.75 63, 173.25 63 M173.25 63 C129.1 63, 84.96 63, 15.75 63 M173.25 63 C133.95 63, 94.64 63, 15.75 63 M15.75 63 C5.25 63, 0 57.75, 0 47.25 M15.75 63 C5.25 63, 0 57.75, 0 47.25 M0 47.25 C0 38.92, 0 30.58, 0 15.75 M0 47.25 C0 36.27, 0 25.29, 0 15.75 M0 15.75 C0 5.25, 5.25 0, 15.75 0 M0 15.75 C0 5.25, 5.25 0, 15.75 0" stroke="#000000" stroke-width="1" fill="none"></path></g><g stroke-linecap="round" transform="translate(2320.6070903029795 823.2998921919689) rotate(0 94.5 31.5)"><path d="M15.75 0 M15.75 0 C74.13 0, 132.51 0, 173.25 0 M15.75 0 C51.05 0, 86.35 0, 173.25 0 M173.25 0 C183.75 0, 189 5.25, 189 15.75 M173.25 0 C183.75 0, 189 5.25, 189 15.75 M189 15.75 C189 26.41, 189 37.07, 189 47.25 M189 15.75 C189 22.41, 189 29.06, 189 47.25 M189 47.25 C189 57.75, 183.75 63, 173.25 63 M189 47.25 C189 57.75, 183.75 63, 173.25 63 M173.25 63 C136.51 63, 99.77 63, 15.75 63 M173.25 63 C120.84 63, 68.43 63, 15.75 63 M15.75 63 C5.25 63, 0 57.75, 0 47.25 M15.75 63 C5.25 63, 0 57.75, 0 47.25 M0 47.25 C0 40.56, 0 33.87, 0 15.75 M0 47.25 C0 39.3, 0 31.34, 0 15.75 M0 15.75 C0 5.25, 5.25 0, 15.75 0 M0 15.75 C0 5.25, 5.25 0, 15.75 0" stroke="#000000" stroke-width="1" fill="none"></path></g><g stroke-linecap="round" transform="translate(2524.5282975864793 824.9050347338084) rotate(0 94.5 31.5)"><path d="M15.75 0 M15.75 0 C73.42 0, 131.1 0, 173.25 0 M15.75 0 C76.79 0, 137.82 0, 173.25 0 M173.25 0 C183.75 0, 189 5.25, 189 15.75 M173.25 0 C183.75 0, 189 5.25, 189 15.75 M189 15.75 C189 24.24, 189 32.73, 189 47.25 M189 15.75 C189 23.54, 189 31.34, 189 47.25 M189 47.25 C189 57.75, 183.75 63, 173.25 63 M189 47.25 C189 57.75, 183.75 63, 173.25 63 M173.25 63 C133.26 63, 93.26 63, 15.75 63 M173.25 63 C124.29 63, 75.34 63, 15.75 63 M15.75 63 C5.25 63, 0 57.75, 0 47.25 M15.75 63 C5.25 63, 0 57.75, 0 47.25 M0 47.25 C0 36.5, 0 25.74, 0 15.75 M0 47.25 C0 36.89, 0 26.53, 0 15.75 M0 15.75 C0 5.25, 5.25 0, 15.75 0 M0 15.75 C0 5.25, 5.25 0, 15.75 0" stroke="#000000" stroke-width="1" fill="none"></path></g><g transform="translate(2127.8996448283524 663.1843744833354) rotate(0 52.5 9.5)"><text x="52.5" y="15" font-family="Helvetica, Segoe UI Emoji" font-size="16px" fill="#000000" text-anchor="middle" style="white-space: pre;" direction="ltr">Anfangsdatum</text></g><g transform="translate(2143.6653016243763 750.4170630984095) rotate(0 37.5 9.5)"><text x="37.5" y="15" font-family="Helvetica, Segoe UI Emoji" font-size="16px" fill="#000000" text-anchor="middle" style="white-space: pre;" direction="ltr">Enddatum</text></g><g transform="translate(2195.5069115278475 847.5526926333928) rotate(0 14 9.5)"><text x="14" y="15" font-family="Helvetica, Segoe UI Emoji" font-size="16px" fill="#000000" text-anchor="middle" style="white-space: pre;" direction="ltr">Tag</text></g><g transform="translate(2392.1070903029795 845.7998921919689) rotate(0 23 9.5)"><text x="23" y="15" font-family="Helvetica, Segoe UI Emoji" font-size="16px" fill="#000000" text-anchor="middle" style="white-space: pre;" direction="ltr">Monat</text></g><g transform="translate(2602.5282975864793 847.4050347338084) rotate(0 16.5 9.5)"><text x="16.5" y="15" font-family="Helvetica, Segoe UI Emoji" font-size="16px" fill="#000000" text-anchor="middle" style="white-space: pre;" direction="ltr">Jahr</text></g><g stroke-linecap="round" transform="translate(2093.951681425797 817.041658791547) rotate(0 319.42432628299593 40.73392096978884)"><path d="M0 0 C143.19 0, 286.38 0, 638.85 0 M638.85 0 C638.85 29.76, 638.85 59.51, 638.85 81.47 M638.85 81.47 C503.86 81.47, 368.87 81.47, 0 81.47 M0 81.47 C0 56.41, 0 31.36, 0 0" stroke="#000000" stroke-width="1.5" fill="none" stroke-dasharray="8 9"></path></g><g stroke-opacity="0.2" fill-opacity="0.2" stroke-linecap="round" transform="translate(2427.684810761544 18.823638088176267) rotate(0 121.55727381221186 151.3507232759896)"><path d="M0 0 C94.21 0, 188.43 0, 243.11 0 M243.11 0 C243.11 65.74, 243.11 131.47, 243.11 302.7 M243.11 302.7 C182.95 302.7, 122.79 302.7, 0 302.7 M0 302.7 C0 213.13, 0 123.55, 0 0" stroke="#000000" stroke-width="1.5" fill="none" stroke-dasharray="8 9"></path></g><g stroke-linecap="round"><g stroke-opacity="0.2" fill-opacity="0.2" transform="translate(2156.734069694683 346.91985423966844) rotate(0 131.9001565977769 -91.35209138412893)"><path d="M0 0 C43.97 -30.45, 219.83 -152.25, 263.8 -182.7 M0 0 C43.97 -30.45, 219.83 -152.25, 263.8 -182.7" stroke="#000000" stroke-width="1" fill="none"></path></g><g stroke-opacity="0.2" fill-opacity="0.2" transform="translate(2156.734069694683 346.91985423966844) rotate(0 131.9001565977769 -91.35209138412893)"><path d="M263.8 -182.7 L256.23 -169.75 L249.02 -180.18 L263.8 -182.7" stroke="none" stroke-width="0" fill="#000000" fill-rule="evenodd"></path><path d="M263.8 -182.7 C261.05 -178, 258.3 -173.29, 256.23 -169.75 M263.8 -182.7 C262.06 -179.73, 260.33 -176.76, 256.23 -169.75 M256.23 -169.75 C253.92 -173.09, 251.61 -176.44, 249.02 -180.18 M256.23 -169.75 C254.46 -172.31, 252.7 -174.86, 249.02 -180.18 M249.02 -180.18 C253.62 -180.96, 258.23 -181.75, 263.8 -182.7 M249.02 -180.18 C253.64 -180.97, 258.26 -181.76, 263.8 -182.7 M263.8 -182.7 C263.8 -182.7, 263.8 -182.7, 263.8 -182.7 M263.8 -182.7 C263.8 -182.7, 263.8 -182.7, 263.8 -182.7" stroke="#000000" stroke-width="1" fill="none"></path></g></g><g stroke-linecap="round" transform="translate(509.9195205235792 1021.4799279898766) rotate(0 94.5 31.5)"><path d="M15.75 0 M15.75 0 C56.88 0, 98.02 0, 173.25 0 M173.25 0 C183.75 0, 189 5.25, 189 15.75 M189 15.75 C189 24.91, 189 34.07, 189 47.25 M189 47.25 C189 57.75, 183.75 63, 173.25 63 M173.25 63 C115.93 63, 58.61 63, 15.75 63 M15.75 63 C5.25 63, 0 57.75, 0 47.25 M0 47.25 C0 38.42, 0 29.59, 0 15.75 M0 15.75 C0 5.25, 5.25 0, 15.75 0" stroke="#000000" stroke-width="1.5" fill="none" stroke-dasharray="8 9"></path></g><g stroke-linecap="round" transform="translate(711.726642657648 1023.7585440582775) rotate(0 94.5 31.5)"><path d="M15.75 0 M15.75 0 C54.72 0, 93.7 0, 173.25 0 M173.25 0 C183.75 0, 189 5.25, 189 15.75 M189 15.75 C189 26.41, 189 37.07, 189 47.25 M189 47.25 C189 57.75, 183.75 63, 173.25 63 M173.25 63 C134.57 63, 95.9 63, 15.75 63 M15.75 63 C5.25 63, 0 57.75, 0 47.25 M0 47.25 C0 39.9, 0 32.55, 0 15.75 M0 15.75 C0 5.25, 5.25 0, 15.75 0" stroke="#000000" stroke-width="1.5" fill="none" stroke-dasharray="8 9"></path></g><g transform="translate(775.226642657648 1046.2585440582775) rotate(0 31 9.5)"><text x="31" y="15" font-family="Helvetica, Segoe UI Emoji" font-size="16px" fill="#000000" text-anchor="middle" style="white-space: pre;" direction="ltr">Inzidenz</text></g><g transform="translate(579.9195205235792 1043.9799279898766) rotate(0 24.5 9.5)"><text x="24.5" y="15" font-family="Helvetica, Segoe UI Emoji" font-size="16px" fill="#000000" text-anchor="middle" style="white-space: pre;" direction="ltr">Wetter</text></g><g stroke-opacity="0.2" fill-opacity="0.2" transform="translate(2269.088530084862 240.12594125170165) rotate(325.5217599845054 9 9.5)"><text x="0" y="15" font-family="Helvetica, Segoe UI Emoji" font-size="16px" fill="#000000" text-anchor="start" style="white-space: pre;" direction="ltr">ist</text></g><g stroke-linecap="round" transform="translate(62.15199105181637 695.4752092848294) rotate(0 94.5 31.5)"><path d="M15.75 0 M15.75 0 C78.69 0, 141.62 0, 173.25 0 M173.25 0 C183.75 0, 189 5.25, 189 15.75 M189 15.75 C189 23.85, 189 31.94, 189 47.25 M189 47.25 C189 57.75, 183.75 63, 173.25 63 M173.25 63 C126.43 63, 79.62 63, 15.75 63 M15.75 63 C5.25 63, 0 57.75, 0 47.25 M0 47.25 C0 37.72, 0 28.2, 0 15.75 M0 15.75 C0 5.25, 5.25 0, 15.75 0" stroke="#000000" stroke-width="1.5" fill="none" stroke-dasharray="8 9"></path></g><g stroke-opacity="0.2" fill-opacity="0.2" stroke-linecap="round" transform="translate(13.468932362475243 333.8158375856674) rotate(0 94.5 31.5)"><path d="M15.75 0 M15.75 0 C49.5 0, 83.25 0, 173.25 0 M173.25 0 C183.75 0, 189 5.25, 189 15.75 M189 15.75 C189 23.91, 189 32.07, 189 47.25 M189 47.25 C189 57.75, 183.75 63, 173.25 63 M173.25 63 C116.59 63, 59.94 63, 15.75 63 M15.75 63 C5.25 63, 0 57.75, 0 47.25 M0 47.25 C0 35.71, 0 24.16, 0 15.75 M0 15.75 C0 5.25, 5.25 0, 15.75 0" stroke="#000000" stroke-width="1.5" fill="none" stroke-dasharray="8 9"></path></g><g transform="translate(126.15199105181637 717.9752092848294) rotate(0 30.5 9.5)"><text x="30.5" y="15" font-family="Helvetica, Segoe UI Emoji" font-size="16px" fill="#000000" text-anchor="middle" style="white-space: pre;" direction="ltr">Adresse</text></g><g stroke-linecap="round" transform="translate(1165.8239386955083 1067.9308397246991) rotate(0 94.5 31.5)"><path d="M15.75 0 M15.75 0 C73.28 0, 130.81 0, 173.25 0 M173.25 0 C183.75 0, 189 5.25, 189 15.75 M189 15.75 C189 22.41, 189 29.06, 189 47.25 M189 47.25 C189 57.75, 183.75 63, 173.25 63 M173.25 63 C124.81 63, 76.38 63, 15.75 63 M15.75 63 C5.25 63, 0 57.75, 0 47.25 M0 47.25 C0 36.77, 0 26.29, 0 15.75 M0 15.75 C0 5.25, 5.25 0, 15.75 0" stroke="#000000" stroke-width="1.5" fill="none" stroke-dasharray="8 9"></path></g><g transform="translate(1232.3239386955083 1090.4308397246991) rotate(0 28 9.5)"><text x="28" y="15" font-family="Helvetica, Segoe UI Emoji" font-size="16px" fill="#000000" text-anchor="middle" style="white-space: pre;" direction="ltr">Kontakt</text></g><g stroke-linecap="round" transform="translate(1389.2870893217096 1063.3980889621694) rotate(0 94.5 31.5)"><path d="M15.75 0 M15.75 0 C51.87 0, 88 0, 173.25 0 M173.25 0 C183.75 0, 189 5.25, 189 15.75 M189 15.75 C189 25.85, 189 35.95, 189 47.25 M189 47.25 C189 57.75, 183.75 63, 173.25 63 M173.25 63 C134.65 63, 96.05 63, 15.75 63 M15.75 63 C5.25 63, 0 57.75, 0 47.25 M0 47.25 C0 37.43, 0 27.62, 0 15.75 M0 15.75 C0 5.25, 5.25 0, 15.75 0" stroke="#000000" stroke-width="1.5" fill="none" stroke-dasharray="8 9"></path></g><g transform="translate(1444.7870893217096 1085.8980889621694) rotate(0 39 9.5)"><text x="39" y="15" font-family="Helvetica, Segoe UI Emoji" font-size="16px" fill="#000000" text-anchor="middle" style="white-space: pre;" direction="ltr">Bewertung</text></g><g stroke-linecap="round" transform="translate(1593.1442760265054 976.9107185313405) rotate(0 94.5 31.5)"><path d="M15.75 0 M15.75 0 C69.05 0, 122.35 0, 173.25 0 M173.25 0 C183.75 0, 189 5.25, 189 15.75 M189 15.75 C189 23.49, 189 31.22, 189 47.25 M189 47.25 C189 57.75, 183.75 63, 173.25 63 M173.25 63 C136.51 63, 99.77 63, 15.75 63 M15.75 63 C5.25 63, 0 57.75, 0 47.25 M0 47.25 C0 37.8, 0 28.35, 0 15.75 M0 15.75 C0 5.25, 5.25 0, 15.75 0" stroke="#000000" stroke-width="1.5" fill="none" stroke-dasharray="8 9"></path></g><g transform="translate(1657.1442760265054 999.4107185313405) rotate(0 30.5 9.5)"><text x="30.5" y="15" font-family="Helvetica, Segoe UI Emoji" font-size="16px" fill="#000000" text-anchor="middle" style="white-space: pre;" direction="ltr">Adresse</text></g><g stroke-linecap="round" transform="translate(1599.232261697698 1060.9015156886703) rotate(0 94.5 31.5)"><path d="M15.75 0 M15.75 0 C70.69 0, 125.63 0, 173.25 0 M173.25 0 C183.75 0, 189 5.25, 189 15.75 M189 15.75 C189 25.89, 189 36.04, 189 47.25 M189 47.25 C189 57.75, 183.75 63, 173.25 63 M173.25 63 C121.39 63, 69.52 63, 15.75 63 M15.75 63 C5.25 63, 0 57.75, 0 47.25 M0 47.25 C0 36.22, 0 25.19, 0 15.75 M0 15.75 C0 5.25, 5.25 0, 15.75 0" stroke="#000000" stroke-width="1.5" fill="none" stroke-dasharray="8 9"></path></g><g transform="translate(1663.732261697698 1083.4015156886703) rotate(0 30 9.5)"><text x="30" y="15" font-family="Helvetica, Segoe UI Emoji" font-size="16px" fill="#000000" text-anchor="middle" style="white-space: pre;" direction="ltr">Website</text></g><g stroke-opacity="0.2" fill-opacity="0.2" transform="translate(77.46893236247524 356.3158375856674) rotate(0 30.5 9.5)"><text x="30.5" y="15" font-family="Helvetica, Segoe UI Emoji" font-size="16px" fill="#000000" text-anchor="middle" style="white-space: pre;" direction="ltr">Adresse</text></g><g stroke-linecap="round" transform="translate(69.97854443369397 776.1122243738519) rotate(0 94.5 31.5)"><path d="M15.75 0 M15.75 0 C56.55 0, 97.34 0, 173.25 0 M173.25 0 C183.75 0, 189 5.25, 189 15.75 M189 15.75 C189 27.08, 189 38.41, 189 47.25 M189 47.25 C189 57.75, 183.75 63, 173.25 63 M173.25 63 C115.53 63, 57.8 63, 15.75 63 M15.75 63 C5.25 63, 0 57.75, 0 47.25 M0 47.25 C0 38.13, 0 29.01, 0 15.75 M0 15.75 C0 5.25, 5.25 0, 15.75 0" stroke="#000000" stroke-width="1.5" fill="none" stroke-dasharray="8 9"></path></g><g transform="translate(125.47854443369397 798.6122243738519) rotate(0 39 9.5)"><text x="39" y="15" font-family="Helvetica, Segoe UI Emoji" font-size="16px" fill="#000000" text-anchor="middle" style="white-space: pre;" direction="ltr">Bewertung</text></g><g stroke-linecap="round" transform="translate(283.41529344670744 775.4644815016759) rotate(0 94.5 31.5)"><path d="M15.75 0 M15.75 0 C54.72 0, 93.7 0, 173.25 0 M173.25 0 C183.75 0, 189 5.25, 189 15.75 M189 15.75 C189 25.07, 189 34.39, 189 47.25 M189 47.25 C189 57.75, 183.75 63, 173.25 63 M173.25 63 C124.29 63, 75.34 63, 15.75 63 M15.75 63 C5.25 63, 0 57.75, 0 47.25 M0 47.25 C0 39.68, 0 32.1, 0 15.75 M0 15.75 C0 5.25, 5.25 0, 15.75 0" stroke="#000000" stroke-width="1.5" fill="none" stroke-dasharray="8 9"></path></g><g transform="translate(351.91529344670744 797.9644815016759) rotate(0 26 9.5)"><text x="26" y="15" font-family="Helvetica, Segoe UI Emoji" font-size="16px" fill="#000000" text-anchor="middle" style="white-space: pre;" direction="ltr">Kosten</text></g><g stroke-opacity="0.2" fill-opacity="0.2" stroke-linecap="round" transform="translate(10 423.8051098025139) rotate(0 94.5 31.5)"><path d="M15.75 0 M15.75 0 C54.43 0, 93.1 0, 173.25 0 M173.25 0 C183.75 0, 189 5.25, 189 15.75 M189 15.75 C189 23.1, 189 30.45, 189 47.25 M189 47.25 C189 57.75, 183.75 63, 173.25 63 M173.25 63 C125.99 63, 78.73 63, 15.75 63 M15.75 63 C5.25 63, 0 57.75, 0 47.25 M0 47.25 C0 40.56, 0 33.87, 0 15.75 M0 15.75 C0 5.25, 5.25 0, 15.75 0" stroke="#000000" stroke-width="1.5" fill="none" stroke-dasharray="8 9"></path></g><g stroke-opacity="0.2" fill-opacity="0.2" transform="translate(65.5 446.3051098025139) rotate(0 39 9.5)"><text x="39" y="15" font-family="Helvetica, Segoe UI Emoji" font-size="16px" fill="#000000" text-anchor="middle" style="white-space: pre;" direction="ltr">Bewertung</text></g><g stroke-opacity="0.2" fill-opacity="0.2" stroke-linecap="round" transform="translate(222.77827835768585 333.3875849319347) rotate(0 94.5 31.5)"><path d="M15.75 0 M15.75 0 C66.47 0, 117.2 0, 173.25 0 M173.25 0 C183.75 0, 189 5.25, 189 15.75 M189 15.75 C189 26.12, 189 36.5, 189 47.25 M189 47.25 C189 57.75, 183.75 63, 173.25 63 M173.25 63 C118.11 63, 62.96 63, 15.75 63 M15.75 63 C5.25 63, 0 57.75, 0 47.25 M0 47.25 C0 35.28, 0 23.31, 0 15.75 M0 15.75 C0 5.25, 5.25 0, 15.75 0" stroke="#000000" stroke-width="1.5" fill="none" stroke-dasharray="8 9"></path></g><g stroke-opacity="0.2" fill-opacity="0.2" transform="translate(291.27827835768585 355.8875849319347) rotate(0 26 9.5)"><text x="26" y="15" font-family="Helvetica, Segoe UI Emoji" font-size="16px" fill="#000000" text-anchor="middle" style="white-space: pre;" direction="ltr">Kosten</text></g><g stroke-linecap="round"><g stroke-opacity="0.2" fill-opacity="0.2" transform="translate(463.6464226111766 536.8283552428311) rotate(0 -24.114843186762755 -21.961732187944563)"><path d="M0 0 C-8.04 -7.32, -40.19 -36.6, -48.23 -43.92 M0 0 C-8.04 -7.32, -40.19 -36.6, -48.23 -43.92" stroke="#000000" stroke-width="1" fill="none"></path></g><g stroke-opacity="0.2" fill-opacity="0.2" transform="translate(463.6464226111766 536.8283552428311) rotate(0 -24.114843186762755 -21.961732187944563)"><path d="M-48.23 -43.92 L-33.91 -39.46 L-42.45 -30.08 L-48.23 -43.92" stroke="none" stroke-width="0" fill="#000000" fill-rule="evenodd"></path><path d="M-48.23 -43.92 C-43.97 -42.6, -39.72 -41.27, -33.91 -39.46 M-48.23 -43.92 C-43.9 -42.57, -39.57 -41.22, -33.91 -39.46 M-33.91 -39.46 C-35.65 -37.55, -37.38 -35.64, -42.45 -30.08 M-33.91 -39.46 C-36.03 -37.13, -38.14 -34.81, -42.45 -30.08 M-42.45 -30.08 C-44.65 -35.37, -46.86 -40.65, -48.23 -43.92 M-42.45 -30.08 C-44.46 -34.91, -46.48 -39.74, -48.23 -43.92 M-48.23 -43.92 C-48.23 -43.92, -48.23 -43.92, -48.23 -43.92 M-48.23 -43.92 C-48.23 -43.92, -48.23 -43.92, -48.23 -43.92" stroke="#000000" stroke-width="1" fill="none"></path></g></g><g stroke-linecap="round"><g transform="translate(461.9239338121224 608.3116404035918) rotate(0 -40.90910897754384 40.047864578016515)"><path d="M0 0 C-13.64 13.35, -68.18 66.75, -81.82 80.1 M0 0 C-13.64 13.35, -68.18 66.75, -81.82 80.1" stroke="#000000" stroke-width="1" fill="none"></path></g><g transform="translate(461.9239338121224 608.3116404035918) rotate(0 -40.90910897754384 40.047864578016515)"><path d="M-81.82 80.1 L-76.54 66.06 L-67.67 75.12 L-81.82 80.1" stroke="none" stroke-width="0" fill="#000000" fill-rule="evenodd"></path><path d="M-81.82 80.1 C-79.92 75.05, -78.02 69.99, -76.54 66.06 M-81.82 80.1 C-79.88 74.95, -77.95 69.8, -76.54 66.06 M-76.54 66.06 C-73.97 68.68, -71.4 71.3, -67.67 75.12 M-76.54 66.06 C-74.15 68.5, -71.76 70.94, -67.67 75.12 M-67.67 75.12 C-71.9 76.61, -76.14 78.1, -81.82 80.1 M-67.67 75.12 C-72.26 76.73, -76.86 78.35, -81.82 80.1 M-81.82 80.1 C-81.82 80.1, -81.82 80.1, -81.82 80.1 M-81.82 80.1 C-81.82 80.1, -81.82 80.1, -81.82 80.1" stroke="#000000" stroke-width="1" fill="none"></path></g></g><g stroke-opacity="0.2" fill-opacity="0.2" transform="translate(442.5749470419014 498.82208828941384) rotate(42.11261008116182 11 11.5)"><text x="0" y="19" font-family="Helvetica, Segoe UI Emoji" font-size="20px" fill="#000000" text-anchor="start" style="white-space: pre;" direction="ltr">ist</text></g><g transform="translate(405.6442991267486 622.6356887010284) rotate(314.6815639853751 11 11.5)"><text x="0" y="19" font-family="Helvetica, Segoe UI Emoji" font-size="20px" fill="#000000" text-anchor="start" style="white-space: pre;" direction="ltr">ist</text></g><g stroke-linecap="round"><g transform="translate(830.2029028736815 843.1352722254173) rotate(0 -21.051468332241257 43.67059919986244)"><path d="M0 0 C-7.02 14.56, -35.09 72.78, -42.1 87.34 M0 0 C-7.02 14.56, -35.09 72.78, -42.1 87.34" stroke="#000000" stroke-width="1" fill="none"></path></g><g transform="translate(830.2029028736815 843.1352722254173) rotate(0 -21.051468332241257 43.67059919986244)"><path d="M-42.1 87.34 L-41.91 72.34 L-30.49 77.85 L-42.1 87.34" stroke="none" stroke-width="0" fill="#000000" fill-rule="evenodd"></path><path d="M-42.1 87.34 C-42.05 82.9, -41.99 78.46, -41.91 72.34 M-42.1 87.34 C-42.04 82.68, -41.98 78.02, -41.91 72.34 M-41.91 72.34 C-39.16 73.67, -36.42 74.99, -30.49 77.85 M-41.91 72.34 C-38.15 74.15, -34.4 75.96, -30.49 77.85 M-30.49 77.85 C-34.36 81.01, -38.22 84.17, -42.1 87.34 M-30.49 77.85 C-33.73 80.5, -36.97 83.15, -42.1 87.34 M-42.1 87.34 C-42.1 87.34, -42.1 87.34, -42.1 87.34 M-42.1 87.34 C-42.1 87.34, -42.1 87.34, -42.1 87.34" stroke="#000000" stroke-width="1" fill="none"></path></g></g><g transform="translate(786.9686685967754 861.228044111982) rotate(295.22313752260993 15 11.5)"><text x="0" y="19" font-family="Helvetica, Segoe UI Emoji" font-size="20px" fill="#000000" text-anchor="start" style="white-space: pre;" direction="ltr">hat</text></g></svg>