<svg version="1.1" xmlns="http://www.w3.org/2000/svg" viewBox="0 0 1219.224811519424 804.9149314578212" width="2438.449623038848" height="1609.8298629156425">
  <!-- svg-source:excalidraw -->
  
  <defs>
    <style>
      @font-face {
        font-family: "Virgil";
        src: url("https://excalidraw.com/Virgil.woff2");
      }
      @font-face {
        font-family: "Cascadia";
        src: url("https://excalidraw.com/Cascadia.woff2");
      }
    </style>
  </defs>
  <rect x="0" y="0" width="1219.224811519424" height="804.9149314578212" fill="#ffffff"></rect><g stroke-linecap="round" transform="translate(520.0309958425462 207.21532718398248) rotate(0 42.5 24)"><path d="M12 0 M12 0 C31.31 0, 50.62 0, 73 0 M12 0 C30.34 0, 48.67 0, 73 0 M73 0 C81 0, 85 4, 85 12 M73 0 C81 0, 85 4, 85 12 M85 12 C85 19.9, 85 27.8, 85 36 M85 12 C85 18.18, 85 24.36, 85 36 M85 36 C85 44, 81 48, 73 48 M85 36 C85 44, 81 48, 73 48 M73 48 C59.16 48, 45.31 48, 12 48 M73 48 C49.6 48, 26.21 48, 12 48 M12 48 C4 48, 0 44, 0 36 M12 48 C4 48, 0 44, 0 36 M0 36 C0 26.82, 0 17.64, 0 12 M0 36 C0 30.14, 0 24.29, 0 12 M0 12 C0 4, 4 0, 12 0 M0 12 C0 4, 4 0, 12 0" stroke="#000000" stroke-width="2" fill="none"></path></g><g transform="translate(533.5309958425462 221.71532718398248) rotate(0 29 9.5)"><text x="29" y="15" font-family="Helvetica, Segoe UI Emoji" font-size="16px" fill="#000000" text-anchor="middle" style="white-space: pre;" direction="ltr">Country</text></g><g stroke-linecap="round" transform="translate(701.3294814439939 140.53438131181827) rotate(0 47.36940760061589 21.205938459124667)"><path d="M10.6 0 M10.6 0 C39.8 0, 69 0, 84.14 0 M10.6 0 C32.76 0, 54.92 0, 84.14 0 M84.14 0 C91.2 0, 94.74 3.53, 94.74 10.6 M84.14 0 C91.2 0, 94.74 3.53, 94.74 10.6 M94.74 10.6 C94.74 17.32, 94.74 24.04, 94.74 31.81 M94.74 10.6 C94.74 16.14, 94.74 21.67, 94.74 31.81 M94.74 31.81 C94.74 38.88, 91.2 42.41, 84.14 42.41 M94.74 31.81 C94.74 38.88, 91.2 42.41, 84.14 42.41 M84.14 42.41 C56.62 42.41, 29.1 42.41, 10.6 42.41 M84.14 42.41 C55.63 42.41, 27.12 42.41, 10.6 42.41 M10.6 42.41 C3.53 42.41, 0 38.88, 0 31.81 M10.6 42.41 C3.53 42.41, 0 38.88, 0 31.81 M0 31.81 C0 25.69, 0 19.57, 0 10.6 M0 31.81 C0 25.52, 0 19.22, 0 10.6 M0 10.6 C0 3.53, 3.53 0, 10.6 0 M0 10.6 C0 3.53, 3.53 0, 10.6 0" stroke="#000000" stroke-width="2" fill="none"></path></g><g transform="translate(724.1988890446098 152.24031977094296) rotate(0 24.5 9.5)"><text x="24.5" y="15" font-family="Helvetica, Segoe UI Emoji" font-size="16px" fill="#000000" text-anchor="middle" style="white-space: pre;" direction="ltr">Flights</text></g><g stroke-linecap="round" transform="translate(223.43256974858173 159.62930363464085) rotate(0 46.7484217235226 20.756435322938643)"><path d="M10.38 0 M10.38 0 C31.33 0, 52.27 0, 83.12 0 M10.38 0 C33 0, 55.62 0, 83.12 0 M83.12 0 C90.04 0, 93.5 3.46, 93.5 10.38 M83.12 0 C90.04 0, 93.5 3.46, 93.5 10.38 M93.5 10.38 C93.5 18.21, 93.5 26.04, 93.5 31.13 M93.5 10.38 C93.5 16.07, 93.5 21.77, 93.5 31.13 M93.5 31.13 C93.5 38.05, 90.04 41.51, 83.12 41.51 M93.5 31.13 C93.5 38.05, 90.04 41.51, 83.12 41.51 M83.12 41.51 C56.03 41.51, 28.94 41.51, 10.38 41.51 M83.12 41.51 C62.93 41.51, 42.74 41.51, 10.38 41.51 M10.38 41.51 C3.46 41.51, 0 38.05, 0 31.13 M10.38 41.51 C3.46 41.51, 0 38.05, 0 31.13 M0 31.13 C0 26.28, 0 21.43, 0 10.38 M0 31.13 C0 23.01, 0 14.88, 0 10.38 M0 10.38 C0 3.46, 3.46 0, 10.38 0 M0 10.38 C0 3.46, 3.46 0, 10.38 0" stroke="#000000" stroke-width="2" fill="none"></path></g><g transform="translate(235.1809914721041 170.88573895757946) rotate(0 35 9.5)"><text x="35" y="15" font-family="Helvetica, Segoe UI Emoji" font-size="16px" fill="#000000" text-anchor="middle" style="white-space: pre;" direction="ltr">Continent</text></g><g stroke-linecap="round" transform="translate(734.6333088701142 653.6384390209054) rotate(0 50.33915714074533 29.55338917820049)"><path d="M14.78 0 M14.78 0 C42.67 0, 70.55 0, 85.9 0 M14.78 0 C32.86 0, 50.95 0, 85.9 0 M85.9 0 C95.75 0, 100.68 4.93, 100.68 14.78 M85.9 0 C95.75 0, 100.68 4.93, 100.68 14.78 M100.68 14.78 C100.68 23.25, 100.68 31.71, 100.68 44.33 M100.68 14.78 C100.68 21.31, 100.68 27.84, 100.68 44.33 M100.68 44.33 C100.68 54.18, 95.75 59.11, 85.9 59.11 M100.68 44.33 C100.68 54.18, 95.75 59.11, 85.9 59.11 M85.9 59.11 C67.92 59.11, 49.93 59.11, 14.78 59.11 M85.9 59.11 C57.93 59.11, 29.96 59.11, 14.78 59.11 M14.78 59.11 C4.93 59.11, 0 54.18, 0 44.33 M14.78 59.11 C4.93 59.11, 0 54.18, 0 44.33 M0 44.33 C0 32.93, 0 21.52, 0 14.78 M0 44.33 C0 35.34, 0 26.35, 0 14.78 M0 14.78 C0 4.93, 4.93 0, 14.78 0 M0 14.78 C0 4.93, 4.93 0, 14.78 0" stroke="#000000" stroke-width="2" fill="none"></path></g><g transform="translate(751.9724660108598 673.6918281991059) rotate(0 33 9.5)"><text x="33" y="15" font-family="Helvetica, Segoe UI Emoji" font-size="16px" fill="#000000" text-anchor="middle" style="white-space: pre;" direction="ltr">Statistics</text></g><g stroke-linecap="round" transform="translate(491.5746261913448 349.48901278696223) rotate(0 47.829052060779986 20.4229183538055)"><path d="M10.21 0 M10.21 0 C33.4 0, 56.59 0, 85.45 0 M10.21 0 C38.48 0, 66.75 0, 85.45 0 M85.45 0 C92.25 0, 95.66 3.4, 95.66 10.21 M85.45 0 C92.25 0, 95.66 3.4, 95.66 10.21 M95.66 10.21 C95.66 15.54, 95.66 20.88, 95.66 30.63 M95.66 10.21 C95.66 18.38, 95.66 26.54, 95.66 30.63 M95.66 30.63 C95.66 37.44, 92.25 40.85, 85.45 40.85 M95.66 30.63 C95.66 37.44, 92.25 40.85, 85.45 40.85 M85.45 40.85 C60.59 40.85, 35.73 40.85, 10.21 40.85 M85.45 40.85 C62.36 40.85, 39.27 40.85, 10.21 40.85 M10.21 40.85 C3.4 40.85, 0 37.44, 0 30.63 M10.21 40.85 C3.4 40.85, 0 37.44, 0 30.63 M0 30.63 C0 25.75, 0 20.86, 0 10.21 M0 30.63 C0 24.53, 0 18.43, 0 10.21 M0 10.21 C0 3.4, 3.4 0, 10.21 0 M0 10.21 C0 3.4, 3.4 0, 10.21 0" stroke="#000000" stroke-width="1" fill="none"></path></g><g transform="translate(524.4036782521246 360.4119311407677) rotate(0 15 9.5)"><text x="15" y="15" font-family="Helvetica, Segoe UI Emoji" font-size="16px" fill="#000000" text-anchor="middle" style="white-space: pre;" direction="ltr">City</text></g><g stroke-linecap="round" transform="translate(170.64626237917105 526.1474229995591) rotate(0 68.06109559161291 35.24802240778192)"><path d="M17.62 0 M17.62 0 C54.17 0, 90.71 0, 118.5 0 M17.62 0 C38.64 0, 59.65 0, 118.5 0 M118.5 0 C130.25 0, 136.12 5.87, 136.12 17.62 M118.5 0 C130.25 0, 136.12 5.87, 136.12 17.62 M136.12 17.62 C136.12 27.77, 136.12 37.91, 136.12 52.87 M136.12 17.62 C136.12 26.59, 136.12 35.56, 136.12 52.87 M136.12 52.87 C136.12 64.62, 130.25 70.5, 118.5 70.5 M136.12 52.87 C136.12 64.62, 130.25 70.5, 118.5 70.5 M118.5 70.5 C84.77 70.5, 51.05 70.5, 17.62 70.5 M118.5 70.5 C78.98 70.5, 39.47 70.5, 17.62 70.5 M17.62 70.5 C5.87 70.5, 0 64.62, 0 52.87 M17.62 70.5 C5.87 70.5, 0 64.62, 0 52.87 M0 52.87 C0 40.64, 0 28.4, 0 17.62 M0 52.87 C0 42.41, 0 31.94, 0 17.62 M0 17.62 C0 5.87, 5.87 0, 17.62 0 M0 17.62 C0 5.87, 5.87 0, 17.62 0" stroke="#000000" stroke-width="2" fill="none"></path></g><g transform="translate(215.20735797078373 551.8954454073411) rotate(0 23.5 9.5)"><text x="23.5" y="15" font-family="Helvetica, Segoe UI Emoji" font-size="16px" fill="#000000" text-anchor="middle" style="white-space: pre;" direction="ltr">Hotels</text></g><g stroke-linecap="round"><g transform="translate(611.9312731596704 233.721576718544) rotate(0 42.88918006957442 -29.574274416943695)"><path d="M0 0 C14.3 -9.86, 71.48 -49.29, 85.78 -59.15 M0 0 C14.3 -9.86, 71.48 -49.29, 85.78 -59.15" stroke="#000000" stroke-width="2" fill="none"></path></g><g transform="translate(611.9312731596704 233.721576718544) rotate(0 42.88918006957442 -29.574274416943695)"><path d="M0 0 L7.59 -12.94 L14.79 -2.5 L0 0" stroke="none" stroke-width="0" fill="#000000" fill-rule="evenodd"></path><path d="M0 0 C2.57 -4.38, 5.14 -8.76, 7.59 -12.94 M0 0 C2.84 -4.83, 5.67 -9.67, 7.59 -12.94 M7.59 -12.94 C9.43 -10.27, 11.28 -7.59, 14.79 -2.5 M7.59 -12.94 C9.21 -10.59, 10.83 -8.24, 14.79 -2.5 M14.79 -2.5 C9.76 -1.65, 4.73 -0.8, 0 0 M14.79 -2.5 C9.41 -1.59, 4.02 -0.68, 0 0 M0 0 C0 0, 0 0, 0 0 M0 0 C0 0, 0 0, 0 0" stroke="#000000" stroke-width="2" fill="none"></path></g></g><g stroke-linecap="round"><g transform="translate(511.74225922566916 211.8700981446804) rotate(0 -93.76885303953509 -15.891991018959061)"><path d="M0 0 C-31.26 -5.3, -156.28 -26.49, -187.54 -31.78 M0 0 C-31.26 -5.3, -156.28 -26.49, -187.54 -31.78" stroke="#000000" stroke-width="2" fill="none"></path></g><g transform="translate(511.74225922566916 211.8700981446804) rotate(0 -93.76885303953509 -15.891991018959061)"><path d="M-187.54 -31.78 L-173.07 -35.76 L-175.19 -23.26 L-187.54 -31.78" stroke="none" stroke-width="0" fill="#000000" fill-rule="evenodd"></path><path d="M-187.54 -31.78 C-183.86 -32.8, -180.18 -33.81, -173.07 -35.76 M-187.54 -31.78 C-182.95 -33.04, -178.37 -34.31, -173.07 -35.76 M-173.07 -35.76 C-173.54 -33, -174.01 -30.24, -175.19 -23.26 M-173.07 -35.76 C-173.87 -31.08, -174.66 -26.41, -175.19 -23.26 M-175.19 -23.26 C-180.05 -26.61, -184.9 -29.96, -187.54 -31.78 M-175.19 -23.26 C-178.76 -25.72, -182.32 -28.18, -187.54 -31.78 M-187.54 -31.78 C-187.54 -31.78, -187.54 -31.78, -187.54 -31.78 M-187.54 -31.78 C-187.54 -31.78, -187.54 -31.78, -187.54 -31.78" stroke="#000000" stroke-width="2" fill="none"></path></g></g><g stroke-linecap="round"><g transform="translate(489.12568079336484 392.848747820872) rotate(0 -106.32116324499339 63.63593893643656)"><path d="M0 0 C-35.44 21.21, -177.2 106.06, -212.64 127.27 M0 0 C-35.44 21.21, -177.2 106.06, -212.64 127.27" stroke="#000000" stroke-width="2" fill="none"></path></g><g transform="translate(489.12568079336484 392.848747820872) rotate(0 -106.32116324499339 63.63593893643656)"><path d="M0 0 L-8.41 12.42 L-14.92 1.54 L0 0" stroke="none" stroke-width="0" fill="#000000" fill-rule="evenodd"></path><path d="M0 0 C-1.77 2.62, -3.55 5.24, -8.41 12.42 M0 0 C-2.15 3.18, -4.31 6.37, -8.41 12.42 M-8.41 12.42 C-10.28 9.29, -12.16 6.16, -14.92 1.54 M-8.41 12.42 C-9.85 10.02, -11.29 7.61, -14.92 1.54 M-14.92 1.54 C-10.44 1.08, -5.96 0.62, 0 0 M-14.92 1.54 C-9.08 0.94, -3.23 0.33, 0 0 M0 0 C0 0, 0 0, 0 0 M0 0 C0 0, 0 0, 0 0" stroke="#000000" stroke-width="2" fill="none"></path></g></g><g stroke-linecap="round"><g transform="translate(592.5361394736244 383.6277886616522) rotate(0 97.97689754110525 132.80934028637165)"><path d="M0 0 C32.66 44.27, 163.29 221.35, 195.95 265.62 M0 0 C32.66 44.27, 163.29 221.35, 195.95 265.62" stroke="#000000" stroke-width="2" fill="none"></path></g><g transform="translate(592.5361394736244 383.6277886616522) rotate(0 97.97689754110525 132.80934028637165)"><path d="M195.95 265.62 L182.78 258.44 L192.98 250.92 L195.95 265.62" stroke="none" stroke-width="0" fill="#000000" fill-rule="evenodd"></path><path d="M195.95 265.62 C191 262.92, 186.06 260.23, 182.78 258.44 M195.95 265.62 C190.99 262.91, 186.02 260.2, 182.78 258.44 M182.78 258.44 C186.86 255.43, 190.94 252.42, 192.98 250.92 M182.78 258.44 C186.58 255.64, 190.38 252.84, 192.98 250.92 M192.98 250.92 C193.9 255.43, 194.81 259.94, 195.95 265.62 M192.98 250.92 C193.68 254.35, 194.37 257.79, 195.95 265.62 M195.95 265.62 C195.95 265.62, 195.95 265.62, 195.95 265.62 M195.95 265.62 C195.95 265.62, 195.95 265.62, 195.95 265.62" stroke="#000000" stroke-width="2" fill="none"></path></g></g><g transform="translate(378.06902236731526 169.83623953970817) rotate(8.562827046700297 40 9.5)"><text x="40" y="15" font-family="Helvetica, Segoe UI Emoji" font-size="16px" fill="#000000" text-anchor="middle" style="white-space: pre;" direction="ltr">LocatedOn</text></g><g transform="translate(637.8690857973804 182.94796721740806) rotate(321.19654055907654 9.5 9.5)"><text x="0" y="15" font-family="Helvetica, Segoe UI Emoji" font-size="16px" fill="#000000" text-anchor="start" style="white-space: pre;" direction="ltr">To</text></g><g transform="translate(536.9868122267983 296.5775987747504) rotate(278.1522992028596 36 9.5)"><text x="0" y="15" font-family="Helvetica, Segoe UI Emoji" font-size="16px" fill="#000000" text-anchor="start" style="white-space: pre;" direction="ltr">LocatedIn</text></g><g transform="translate(691.9152339126169 501.19817205640845) rotate(52.2627373569184 15 9.5)"><text x="0" y="15" font-family="Helvetica, Segoe UI Emoji" font-size="16px" fill="#000000" text-anchor="start" style="white-space: pre;" direction="ltr">Has</text></g><g transform="translate(337.8876457877675 436.13938330249493) rotate(328.2634684835272 36 9.5)"><text x="0" y="15" font-family="Helvetica, Segoe UI Emoji" font-size="16px" fill="#000000" text-anchor="start" style="white-space: pre;" direction="ltr">LocatedIn</text></g><g stroke-linecap="round" transform="translate(676.2852451394649 732.5396364781996) rotate(0 38.43438286596961 21.70854927459385)"><path d="M10.85 0 M10.85 0 C32.57 0, 54.29 0, 66.01 0 M66.01 0 C73.25 0, 76.87 3.62, 76.87 10.85 M76.87 10.85 C76.87 17.1, 76.87 23.35, 76.87 32.56 M76.87 32.56 C76.87 39.8, 73.25 43.42, 66.01 43.42 M66.01 43.42 C49.34 43.42, 32.68 43.42, 10.85 43.42 M10.85 43.42 C3.62 43.42, 0 39.8, 0 32.56 M0 32.56 C0 25.3, 0 18.05, 0 10.85 M0 10.85 C0 3.62, 3.62 0, 10.85 0" stroke="#000000" stroke-width="2.5" fill="none" stroke-dasharray="8 10"></path></g><g transform="translate(685.2196280054347 744.7481857527933) rotate(0 29.5 9.5)"><text x="29.5" y="15" font-family="Helvetica, Segoe UI Emoji" font-size="16px" fill="#000000" text-anchor="middle" style="white-space: pre;" direction="ltr">weather</text></g><g stroke-linecap="round" transform="translate(774.7858825367732 746.9149314578212) rotate(0 40.5 24)"><path d="M12 0 M12 0 C33.29 0, 54.59 0, 69 0 M69 0 C77 0, 81 4, 81 12 M81 12 C81 18.14, 81 24.28, 81 36 M81 36 C81 44, 77 48, 69 48 M69 48 C56.17 48, 43.33 48, 12 48 M12 48 C4 48, 0 44, 0 36 M0 36 C0 27.84, 0 19.68, 0 12 M0 12 C0 4, 4 0, 12 0" stroke="#000000" stroke-width="2.5" fill="none" stroke-dasharray="8 10"></path></g><g transform="translate(780.7858825367732 751.9149314578212) rotate(0 34.5 19)"><text x="34.5" y="15" font-family="Helvetica, Segoe UI Emoji" font-size="16px" fill="#000000" text-anchor="middle" style="white-space: pre;" direction="ltr">incidence</text><text x="34.5" y="34" font-family="Helvetica, Segoe UI Emoji" font-size="16px" fill="#000000" text-anchor="middle" style="white-space: pre;" direction="ltr">(history)</text></g><g stroke-linecap="round" transform="translate(858.7438332304653 681.3729632639324) rotate(0 43 24)"><path d="M12 0 M12 0 C27.89 0, 43.78 0, 74 0 M74 0 C82 0, 86 4, 86 12 M86 12 C86 18.91, 86 25.82, 86 36 M86 36 C86 44, 82 48, 74 48 M74 48 C60.29 48, 46.58 48, 12 48 M12 48 C4 48, 0 44, 0 36 M0 36 C0 28.8, 0 21.59, 0 12 M0 12 C0 4, 4 0, 12 0" stroke="#000000" stroke-width="2.5" fill="none" stroke-dasharray="8 10"></path></g><g transform="translate(862.7438332304653 695.8729632639324) rotate(0 38 9.5)"><text x="38" y="15" font-family="Helvetica, Segoe UI Emoji" font-size="16px" fill="#000000" text-anchor="middle" style="white-space: pre;" direction="ltr">population</text></g><g stroke-linecap="round" transform="translate(941.7703289142235 299.4714842064543) rotate(0 67.51798266092624 27.178493144747222)"><path d="M13.59 0 M13.59 0 C51.16 0, 88.74 0, 121.45 0 M13.59 0 C41.19 0, 68.79 0, 121.45 0 M121.45 0 C130.51 0, 135.04 4.53, 135.04 13.59 M121.45 0 C130.51 0, 135.04 4.53, 135.04 13.59 M135.04 13.59 C135.04 24.15, 135.04 34.71, 135.04 40.77 M135.04 13.59 C135.04 22.83, 135.04 32.08, 135.04 40.77 M135.04 40.77 C135.04 49.83, 130.51 54.36, 121.45 54.36 M135.04 40.77 C135.04 49.83, 130.51 54.36, 121.45 54.36 M121.45 54.36 C80.75 54.36, 40.05 54.36, 13.59 54.36 M121.45 54.36 C94.25 54.36, 67.05 54.36, 13.59 54.36 M13.59 54.36 C4.53 54.36, 0 49.83, 0 40.77 M13.59 54.36 C4.53 54.36, 0 49.83, 0 40.77 M0 40.77 C0 33.73, 0 26.69, 0 13.59 M0 40.77 C0 34.93, 0 29.1, 0 13.59 M0 13.59 C0 4.53, 4.53 0, 13.59 0 M0 13.59 C0 4.53, 4.53 0, 13.59 0" stroke="#000000" stroke-width="2" fill="none"></path></g><g transform="translate(966.2883115751495 317.1499773512015) rotate(0 43 9.5)"><text x="43" y="15" font-family="Helvetica, Segoe UI Emoji" font-size="16px" fill="#000000" text-anchor="middle" style="white-space: pre;" direction="ltr">Sightseeing</text></g><g stroke-linecap="round"><g transform="translate(934.470482351762 329.54986417119324) rotate(0 -170.9250115733405 19.324064540574547)"><path d="M0 0 C-56.98 6.44, -284.88 32.21, -341.85 38.65 M0 0 C-56.98 6.44, -284.88 32.21, -341.85 38.65" stroke="#000000" stroke-width="2" fill="none"></path></g><g transform="translate(934.470482351762 329.54986417119324) rotate(0 -170.9250115733405 19.324064540574547)"><path d="M-341.85 38.65 L-329.05 30.82 L-327.63 43.42 L-341.85 38.65" stroke="none" stroke-width="0" fill="#000000" fill-rule="evenodd"></path><path d="M-341.85 38.65 C-338.56 36.63, -335.26 34.62, -329.05 30.82 M-341.85 38.65 C-336.87 35.6, -331.89 32.56, -329.05 30.82 M-329.05 30.82 C-328.51 35.65, -327.96 40.49, -327.63 43.42 M-329.05 30.82 C-328.67 34.17, -328.3 37.53, -327.63 43.42 M-327.63 43.42 C-331.1 42.26, -334.57 41.09, -341.85 38.65 M-327.63 43.42 C-333.01 41.62, -338.38 39.81, -341.85 38.65 M-341.85 38.65 C-341.85 38.65, -341.85 38.65, -341.85 38.65 M-341.85 38.65 C-341.85 38.65, -341.85 38.65, -341.85 38.65" stroke="#000000" stroke-width="2" fill="none"></path></g></g><g transform="translate(622.7594575588344 337.14431679822974) rotate(353.93172099537327 36 9.5)"><text x="0" y="15" font-family="Helvetica, Segoe UI Emoji" font-size="16px" fill="#000000" text-anchor="start" style="white-space: pre;" direction="ltr">LocatedIn</text></g><g stroke-linecap="round" transform="translate(831.6253433097356 108.69395589605392) rotate(0 40.54003277006677 14.5)"><path d="M7.25 0 M7.25 0 C24.62 0, 41.99 0, 73.83 0 M73.83 0 C78.66 0, 81.08 2.42, 81.08 7.25 M81.08 7.25 C81.08 10.89, 81.08 14.54, 81.08 21.75 M81.08 21.75 C81.08 26.58, 78.66 29, 73.83 29 M73.83 29 C48.02 29, 22.21 29, 7.25 29 M7.25 29 C2.42 29, 0 26.58, 0 21.75 M0 21.75 C0 16.76, 0 11.78, 0 7.25 M0 7.25 C0 2.42, 2.42 0, 7.25 0" stroke="#000000" stroke-width="2.5" fill="none" stroke-dasharray="8 10"></path></g><g transform="translate(852.6653760798024 113.69395589605392) rotate(0 19.5 9.5)"><text x="19.5" y="15" font-family="Helvetica, Segoe UI Emoji" font-size="16px" fill="#000000" text-anchor="middle" style="white-space: pre;" direction="ltr">costs</text></g><g stroke-linecap="round" transform="translate(861.0275901430985 156.84796603795775) rotate(0 40.5 15.5)"><path d="M7.75 0 M7.75 0 C25.72 0, 43.7 0, 73.25 0 M73.25 0 C78.42 0, 81 2.58, 81 7.75 M81 7.75 C81 11.27, 81 14.79, 81 23.25 M81 23.25 C81 28.42, 78.42 31, 73.25 31 M73.25 31 C55.07 31, 36.89 31, 7.75 31 M7.75 31 C2.58 31, 0 28.42, 0 23.25 M0 23.25 C0 17.32, 0 11.39, 0 7.75 M0 7.75 C0 2.58, 2.58 0, 7.75 0" stroke="#000000" stroke-width="2.5" fill="none" stroke-dasharray="8 10"></path></g><g transform="translate(879.0275901430985 162.84796603795775) rotate(0 22.5 9.5)"><text x="22.5" y="15" font-family="Helvetica, Segoe UI Emoji" font-size="16px" fill="#000000" text-anchor="middle" style="white-space: pre;" direction="ltr">airline</text></g><g stroke-linecap="round" transform="translate(651.9723191972246 10.212153743813815) rotate(0 41 24)"><path d="M12 0 M12 0 C24.82 0, 37.64 0, 70 0 M70 0 C78 0, 82 4, 82 12 M82 12 C82 20.98, 82 29.96, 82 36 M82 36 C82 44, 78 48, 70 48 M70 48 C47.19 48, 24.38 48, 12 48 M12 48 C4 48, 0 44, 0 36 M0 36 C0 29.08, 0 22.15, 0 12 M0 12 C0 4, 4 0, 12 0" stroke="#000000" stroke-width="2.5" fill="none" stroke-dasharray="8 10"></path></g><g transform="translate(661.4723191972246 15.212153743813815) rotate(0 31.5 19)"><text x="31.5" y="15" font-family="Helvetica, Segoe UI Emoji" font-size="16px" fill="#000000" text-anchor="middle" style="white-space: pre;" direction="ltr">start/end</text><text x="31.5" y="34" font-family="Helvetica, Segoe UI Emoji" font-size="16px" fill="#000000" text-anchor="middle" style="white-space: pre;" direction="ltr">city</text></g><g stroke-linecap="round" transform="translate(733.7488248139832 64.32614177373853) rotate(0 48.31297121844864 19.813754453600296)"><path d="M9.91 0 M9.91 0 C40.62 0, 71.33 0, 86.72 0 M86.72 0 C93.32 0, 96.63 3.3, 96.63 9.91 M96.63 9.91 C96.63 17.29, 96.63 24.67, 96.63 29.72 M96.63 29.72 C96.63 36.33, 93.32 39.63, 86.72 39.63 M86.72 39.63 C63.15 39.63, 39.57 39.63, 9.91 39.63 M9.91 39.63 C3.3 39.63, 0 36.33, 0 29.72 M0 29.72 C0 25.09, 0 20.45, 0 9.91 M0 9.91 C0 3.3, 3.3 0, 9.91 0" stroke="#000000" stroke-width="2.5" fill="none" stroke-dasharray="8 10"></path></g><g transform="translate(763.0617960324319 74.6398962273388) rotate(0 19 9.5)"><text x="19" y="15" font-family="Helvetica, Segoe UI Emoji" font-size="16px" fill="#000000" text-anchor="middle" style="white-space: pre;" direction="ltr">class</text></g><g stroke-linecap="round" transform="translate(593.9409928307889 80.29639470538211) rotate(0 37.7354448184517 24)"><path d="M12 0 M12 0 C25.1 0, 38.19 0, 63.47 0 M63.47 0 C71.47 0, 75.47 4, 75.47 12 M75.47 12 C75.47 18.07, 75.47 24.14, 75.47 36 M75.47 36 C75.47 44, 71.47 48, 63.47 48 M63.47 48 C43.31 48, 23.14 48, 12 48 M12 48 C4 48, 0 44, 0 36 M0 36 C0 26.74, 0 17.48, 0 12 M0 12 C0 4, 4 0, 12 0" stroke="#000000" stroke-width="2.5" fill="none" stroke-dasharray="8 10"></path></g><g transform="translate(600.1764376492408 85.29639470538211) rotate(0 31.5 19)"><text x="31.5" y="15" font-family="Helvetica, Segoe UI Emoji" font-size="16px" fill="#000000" text-anchor="middle" style="white-space: pre;" direction="ltr">start/end</text><text x="31.5" y="34" font-family="Helvetica, Segoe UI Emoji" font-size="16px" fill="#000000" text-anchor="middle" style="white-space: pre;" direction="ltr">date</text></g><g stroke-linecap="round" transform="translate(797.7507538924422 204.82413033549113) rotate(0 80.90675523891309 14.5)"><path d="M7.25 0 M7.25 0 C57.65 0, 108.04 0, 154.56 0 M154.56 0 C159.4 0, 161.81 2.42, 161.81 7.25 M161.81 7.25 C161.81 12.04, 161.81 16.83, 161.81 21.75 M161.81 21.75 C161.81 26.58, 159.4 29, 154.56 29 M154.56 29 C97 29, 39.44 29, 7.25 29 M7.25 29 C2.42 29, 0 26.58, 0 21.75 M0 21.75 C0 18.28, 0 14.81, 0 7.25 M0 7.25 C0 2.42, 2.42 0, 7.25 0" stroke="#000000" stroke-width="2.5" fill="none" stroke-dasharray="8 10"></path></g><g transform="translate(828.157509131355 209.82413033549113) rotate(0 50.5 9.5)"><text x="50.5" y="15" font-family="Helvetica, Segoe UI Emoji" font-size="16px" fill="#000000" text-anchor="middle" style="white-space: pre;" direction="ltr">betweenstops</text></g><g stroke-linecap="round" transform="translate(756.8625924804071 10) rotate(0 53.956123709406484 19.016549917070165)"><path d="M9.51 0 M9.51 0 C36.37 0, 63.24 0, 98.4 0 M98.4 0 C104.74 0, 107.91 3.17, 107.91 9.51 M107.91 9.51 C107.91 15.87, 107.91 22.22, 107.91 28.52 M107.91 28.52 C107.91 34.86, 104.74 38.03, 98.4 38.03 M98.4 38.03 C64.15 38.03, 29.9 38.03, 9.51 38.03 M9.51 38.03 C3.17 38.03, 0 34.86, 0 28.52 M0 28.52 C0 21.92, 0 15.32, 0 9.51 M0 9.51 C0 3.17, 3.17 0, 9.51 0" stroke="#000000" stroke-width="2.5" fill="none" stroke-dasharray="8 10"></path></g><g transform="translate(767.8187161898134 19.516549917070165) rotate(0 43 9.5)"><text x="43" y="15" font-family="Helvetica, Segoe UI Emoji" font-size="16px" fill="#000000" text-anchor="middle" style="white-space: pre;" direction="ltr">airport hotel</text></g><g stroke-linecap="round" transform="translate(320.37398373390147 549.7692313725333) rotate(0 107.5 23.5)"><path d="M11.75 0 M11.75 0 C54.87 0, 97.99 0, 203.25 0 M203.25 0 C211.08 0, 215 3.92, 215 11.75 M215 11.75 C215 19.74, 215 27.73, 215 35.25 M215 35.25 C215 43.08, 211.08 47, 203.25 47 M203.25 47 C133.54 47, 63.82 47, 11.75 47 M11.75 47 C3.92 47, 0 43.08, 0 35.25 M0 35.25 C0 29.32, 0 23.4, 0 11.75 M0 11.75 C0 3.92, 3.92 0, 11.75 0" stroke="#000000" stroke-width="2.5" fill="none" stroke-dasharray="8 10"></path></g><g transform="translate(330.87398373390147 563.7692313725333) rotate(0 97 9.5)"><text x="97" y="15" font-family="Helvetica, Segoe UI Emoji" font-size="16px" fill="#000000" text-anchor="middle" style="white-space: pre;" direction="ltr">costs (currency translation)</text></g><g stroke-linecap="round" transform="translate(179.59181108229564 460.5277135807224) rotate(0 50.5 23)"><path d="M11.5 0 M11.5 0 C41.81 0, 72.12 0, 89.5 0 M89.5 0 C97.17 0, 101 3.83, 101 11.5 M101 11.5 C101 20.13, 101 28.76, 101 34.5 M101 34.5 C101 42.17, 97.17 46, 89.5 46 M89.5 46 C60.07 46, 30.64 46, 11.5 46 M11.5 46 C3.83 46, 0 42.17, 0 34.5 M0 34.5 C0 26.22, 0 17.93, 0 11.5 M0 11.5 C0 3.83, 3.83 0, 11.5 0" stroke="#000000" stroke-width="2.5" fill="none" stroke-dasharray="8 10"></path></g><g transform="translate(189.59181108229564 474.0277135807224) rotate(0 40.5 9.5)"><text x="40.5" y="15" font-family="Helvetica, Segoe UI Emoji" font-size="16px" fill="#000000" text-anchor="middle" style="white-space: pre;" direction="ltr">information</text></g><g stroke-linecap="round" transform="translate(23.577490986481052 475.337941710568) rotate(0 67 20)"><path d="M10 0 M10 0 C52.78 0, 95.56 0, 124 0 M124 0 C130.67 0, 134 3.33, 134 10 M134 10 C134 17.55, 134 25.09, 134 30 M134 30 C134 36.67, 130.67 40, 124 40 M124 40 C82.94 40, 41.88 40, 10 40 M10 40 C3.33 40, 0 36.67, 0 30 M0 30 C0 24.82, 0 19.64, 0 10 M0 10 C0 3.33, 3.33 0, 10 0" stroke="#000000" stroke-width="2.5" fill="none" stroke-dasharray="8 10"></path></g><g transform="translate(67.57749098648105 485.837941710568) rotate(0 23 9.5)"><text x="23" y="15" font-family="Helvetica, Segoe UI Emoji" font-size="16px" fill="#000000" text-anchor="middle" style="white-space: pre;" direction="ltr">phone</text></g><g stroke-linecap="round" transform="translate(59.81578128233082 594.569659556547) rotate(0 53 24)"><path d="M12 0 M12 0 C33.82 0, 55.63 0, 94 0 M94 0 C102 0, 106 4, 106 12 M106 12 C106 17.86, 106 23.71, 106 36 M106 36 C106 44, 102 48, 94 48 M94 48 C63 48, 32 48, 12 48 M12 48 C4 48, 0 44, 0 36 M0 36 C0 28.9, 0 21.8, 0 12 M0 12 C0 4, 4 0, 12 0" stroke="#000000" stroke-width="2.5" fill="none" stroke-dasharray="8 10"></path></g><g transform="translate(74.31578128233082 609.069659556547) rotate(0 38.5 9.5)"><text x="38.5" y="15" font-family="Helvetica, Segoe UI Emoji" font-size="16px" fill="#000000" text-anchor="middle" style="white-space: pre;" direction="ltr">equipment</text></g><g stroke-linecap="round" transform="translate(105.31356257424409 662.836918518992) rotate(0 58.499184207937105 24)"><path d="M12 0 M12 0 C43.98 0, 75.97 0, 105 0 M105 0 C113 0, 117 4, 117 12 M117 12 C117 19.12, 117 26.25, 117 36 M117 36 C117 44, 113 48, 105 48 M105 48 C78.45 48, 51.91 48, 12 48 M12 48 C4 48, 0 44, 0 36 M0 36 C0 27.27, 0 18.55, 0 12 M0 12 C0 4, 4 0, 12 0" stroke="#000000" stroke-width="2.5" fill="none" stroke-dasharray="8 10"></path></g><g transform="translate(134.3127467821812 667.836918518992) rotate(0 29.5 19)"><text x="29.5" y="15" font-family="Helvetica, Segoe UI Emoji" font-size="16px" fill="#000000" text-anchor="middle" style="white-space: pre;" direction="ltr">street + </text><text x="29.5" y="34" font-family="Helvetica, Segoe UI Emoji" font-size="16px" fill="#000000" text-anchor="middle" style="white-space: pre;" direction="ltr">number</text></g><g stroke-linecap="round" transform="translate(1092.2264431035499 304.5302466311063) rotate(0 58.499184207937105 24)"><path d="M12 0 M12 0 C38.83 0, 65.67 0, 105 0 M105 0 C113 0, 117 4, 117 12 M117 12 C117 19.3, 117 26.6, 117 36 M117 36 C117 44, 113 48, 105 48 M105 48 C69.24 48, 33.49 48, 12 48 M12 48 C4 48, 0 44, 0 36 M0 36 C0 26.76, 0 17.51, 0 12 M0 12 C0 4, 4 0, 12 0" stroke="#000000" stroke-width="2.5" fill="none" stroke-dasharray="8 10"></path></g><g transform="translate(1121.225627311486 309.5302466311063) rotate(0 29.5 19)"><text x="29.5" y="15" font-family="Helvetica, Segoe UI Emoji" font-size="16px" fill="#000000" text-anchor="middle" style="white-space: pre;" direction="ltr">street + </text><text x="29.5" y="34" font-family="Helvetica, Segoe UI Emoji" font-size="16px" fill="#000000" text-anchor="middle" style="white-space: pre;" direction="ltr">number</text></g><g stroke-linecap="round" transform="translate(1050.3774338705 369.46941020789825) rotate(0 40.54003277006677 14.5)"><path d="M7.25 0 M7.25 0 C22.82 0, 38.39 0, 73.83 0 M73.83 0 C78.66 0, 81.08 2.42, 81.08 7.25 M81.08 7.25 C81.08 11.58, 81.08 15.92, 81.08 21.75 M81.08 21.75 C81.08 26.58, 78.66 29, 73.83 29 M73.83 29 C49.98 29, 26.13 29, 7.25 29 M7.25 29 C2.42 29, 0 26.58, 0 21.75 M0 21.75 C0 16.76, 0 11.77, 0 7.25 M0 7.25 C0 2.42, 2.42 0, 7.25 0" stroke="#000000" stroke-width="2.5" fill="none" stroke-dasharray="8 10"></path></g><g transform="translate(1071.4174666405672 374.46941020789825) rotate(0 19.5 9.5)"><text x="19.5" y="15" font-family="Helvetica, Segoe UI Emoji" font-size="16px" fill="#000000" text-anchor="middle" style="white-space: pre;" direction="ltr">costs</text></g><g stroke-linecap="round" transform="translate(878.1450520750225 396.2246602572102) rotate(0 39.12423498568705 14.5)"><path d="M7.25 0 M7.25 0 C31.85 0, 56.45 0, 71 0 M71 0 C75.83 0, 78.25 2.42, 78.25 7.25 M78.25 7.25 C78.25 11.56, 78.25 15.86, 78.25 21.75 M78.25 21.75 C78.25 26.58, 75.83 29, 71 29 M71 29 C55.18 29, 39.36 29, 7.25 29 M7.25 29 C2.42 29, 0 26.58, 0 21.75 M0 21.75 C0 17.66, 0 13.57, 0 7.25 M0 7.25 C0 2.42, 2.42 0, 7.25 0" stroke="#000000" stroke-width="2.5" fill="none" stroke-dasharray="8 10"></path></g><g transform="translate(896.26928706071 401.2246602572102) rotate(0 21 9.5)"><text x="21" y="15" font-family="Helvetica, Segoe UI Emoji" font-size="16px" fill="#000000" text-anchor="middle" style="white-space: pre;" direction="ltr">rating</text></g><g stroke-linecap="round" transform="translate(936.3481601780989 440.9220985834686) rotate(0 48 24)"><path d="M12 0 M12 0 C29.23 0, 46.46 0, 84 0 M84 0 C92 0, 96 4, 96 12 M96 12 C96 17.9, 96 23.81, 96 36 M96 36 C96 44, 92 48, 84 48 M84 48 C68.88 48, 53.76 48, 12 48 M12 48 C4 48, 0 44, 0 36 M0 36 C0 27.13, 0 18.25, 0 12 M0 12 C0 4, 4 0, 12 0" stroke="#000000" stroke-width="2.5" fill="none" stroke-dasharray="8 10"></path></g><g transform="translate(946.3481601780989 455.4220985834686) rotate(0 38 9.5)"><text x="38" y="15" font-family="Helvetica, Segoe UI Emoji" font-size="16px" fill="#000000" text-anchor="middle" style="white-space: pre;" direction="ltr">comments</text></g><g stroke-linecap="round" transform="translate(831.0586720230215 452.84214576914405) rotate(0 41.07303334970675 17.46266369426891)"><path d="M8.73 0 M8.73 0 C31.19 0, 53.64 0, 73.41 0 M73.41 0 C79.24 0, 82.15 2.91, 82.15 8.73 M82.15 8.73 C82.15 13.76, 82.15 18.79, 82.15 26.19 M82.15 26.19 C82.15 32.01, 79.24 34.93, 73.41 34.93 M73.41 34.93 C53.9 34.93, 34.39 34.93, 8.73 34.93 M8.73 34.93 C2.91 34.93, 0 32.01, 0 26.19 M0 26.19 C0 22.2, 0 18.21, 0 8.73 M0 8.73 C0 2.91, 2.91 0, 8.73 0" stroke="#000000" stroke-width="2.5" fill="none" stroke-dasharray="8 10"></path></g><g transform="translate(853.6317053727282 460.80480946341294) rotate(0 18.5 9.5)"><text x="18.5" y="15" font-family="Helvetica, Segoe UI Emoji" font-size="16px" fill="#000000" text-anchor="middle" style="white-space: pre;" direction="ltr">stars</text></g><g stroke-linecap="round" transform="translate(821.3118749978096 379.6138963142742) rotate(0 109.17035555872596 61.69240476914154)"><path d="M30.85 0 M30.85 0 C70.35 0, 109.85 0, 187.49 0 M187.49 0 C208.06 0, 218.34 10.28, 218.34 30.85 M218.34 30.85 C218.34 51.14, 218.34 71.43, 218.34 92.54 M218.34 92.54 C218.34 113.1, 208.06 123.38, 187.49 123.38 M187.49 123.38 C153.88 123.38, 120.26 123.38, 30.85 123.38 M30.85 123.38 C10.28 123.38, 0 113.1, 0 92.54 M0 92.54 C0 74.03, 0 55.52, 0 30.85 M0 30.85 C0 10.28, 10.28 0, 30.85 0" stroke="#000000" stroke-width="2.5" fill="none" stroke-dasharray="1.5 8"></path></g><g stroke-linecap="round" transform="translate(1041.6447210682584 241.37857787325328) rotate(0 62.77711604774208 24)"><path d="M12 0 M12 0 C42.89 0, 73.78 0, 113.55 0 M113.55 0 C121.55 0, 125.55 4, 125.55 12 M125.55 12 C125.55 21.23, 125.55 30.45, 125.55 36 M125.55 36 C125.55 44, 121.55 48, 113.55 48 M113.55 48 C74.44 48, 35.32 48, 12 48 M12 48 C4 48, 0 44, 0 36 M0 36 C0 27.94, 0 19.88, 0 12 M0 12 C0 4, 4 0, 12 0" stroke="#000000" stroke-width="2.5" fill="none" stroke-dasharray="8 10"></path></g><g transform="translate(1067.9218371160002 246.37857787325328) rotate(0 36.5 19)"><text x="36.5" y="15" font-family="Helvetica, Segoe UI Emoji" font-size="16px" fill="#000000" text-anchor="middle" style="white-space: pre;" direction="ltr">number of</text><text x="36.5" y="34" font-family="Helvetica, Segoe UI Emoji" font-size="16px" fill="#000000" text-anchor="middle" style="white-space: pre;" direction="ltr">visitors</text></g><g stroke-linecap="round" transform="translate(10 532.7901189480654) rotate(0 67 20)"><path d="M10 0 M10 0 C36.61 0, 63.21 0, 124 0 M124 0 C130.67 0, 134 3.33, 134 10 M134 10 C134 15.48, 134 20.95, 134 30 M134 30 C134 36.67, 130.67 40, 124 40 M124 40 C93 40, 61.99 40, 10 40 M10 40 C3.33 40, 0 36.67, 0 30 M0 30 C0 24.52, 0 19.03, 0 10 M0 10 C0 3.33, 3.33 0, 10 0" stroke="#000000" stroke-width="2.5" fill="none" stroke-dasharray="8 10"></path></g><g transform="translate(57 543.2901189480654) rotate(0 20 9.5)"><text x="20" y="15" font-family="Helvetica, Segoe UI Emoji" font-size="16px" fill="#000000" text-anchor="middle" style="white-space: pre;" direction="ltr">email</text></g><g stroke-linecap="round" transform="translate(261.94090031043095 622.737501980725) rotate(0 58.499184207937105 24)"><path d="M12 0 M12 0 C48.54 0, 85.07 0, 105 0 M105 0 C113 0, 117 4, 117 12 M117 12 C117 18.16, 117 24.31, 117 36 M117 36 C117 44, 113 48, 105 48 M105 48 C84.06 48, 63.12 48, 12 48 M12 48 C4 48, 0 44, 0 36 M0 36 C0 30.53, 0 25.05, 0 12 M0 12 C0 4, 4 0, 12 0" stroke="#000000" stroke-width="2.5" fill="none" stroke-dasharray="8 10"></path></g><g stroke-linecap="round" transform="translate(249.18732014131172 690.7598678948533) rotate(0 58.5 20)"><path d="M10 0 M10 0 C39.76 0, 69.52 0, 107 0 M107 0 C113.67 0, 117 3.33, 117 10 M117 10 C117 16.23, 117 22.46, 117 30 M117 30 C117 36.67, 113.67 40, 107 40 M107 40 C73.11 40, 39.22 40, 10 40 M10 40 C3.33 40, 0 36.67, 0 30 M0 30 C0 24.83, 0 19.65, 0 10 M0 10 C0 3.33, 3.33 0, 10 0" stroke="#000000" stroke-width="2.5" fill="none" stroke-dasharray="8 10"></path></g><g transform="translate(292.44008451836805 637.237501980725) rotate(0 28 9.5)"><text x="28" y="15" font-family="Helvetica, Segoe UI Emoji" font-size="16px" fill="#000000" text-anchor="middle" style="white-space: pre;" direction="ltr">website</text></g><g transform="translate(279.1873201413117 701.2598678948533) rotate(0 28.5 9.5)"><text x="28.5" y="15" font-family="Helvetica, Segoe UI Emoji" font-size="16px" fill="#000000" text-anchor="middle" style="white-space: pre;" direction="ltr">location</text></g></svg>